<svg width="500" height="100" viewBox="0 0 500 100" fill="none" xmlns="http://www.w3.org/2000/svg">
<rect y="6.10352e-05" width="500" height="100" rx="16" fill="#191919"/>
<path d="M16 24.0001C16 18.4772 20.4772 14.0001 26 14.0001H57.596C61.5574 14.0001 65.1454 16.3385 66.7448 19.9628L78.2184 45.9628C79.3533 48.5347 79.3533 51.4655 78.2184 54.0373L66.7448 80.0374C65.1454 83.6616 61.5574 86.0001 57.596 86.0001H26C20.4771 86.0001 16 81.5229 16 76.0001V24.0001Z" fill="white"/>
<path d="M34.604 33.9601H32.132V33.0601H38.012V33.9601H35.564V42.0001H34.604V33.9601ZM40.8642 42.1441C40.4162 42.1441 40.0082 42.0401 39.6402 41.8321C39.2722 41.6161 38.9802 41.3161 38.7642 40.9321C38.5562 40.5481 38.4522 40.1121 38.4522 39.6241V35.5681H39.3522V39.5161C39.3522 40.0361 39.5042 40.4561 39.8082 40.7761C40.1202 41.0881 40.5242 41.2441 41.0202 41.2441C41.5242 41.2441 41.9322 41.0801 42.2442 40.7521C42.5562 40.4161 42.7122 39.9641 42.7122 39.3961V35.5681H43.6122V42.0001H42.7122V41.2081C42.5202 41.5041 42.2602 41.7361 41.9322 41.9041C41.6122 42.0641 41.2562 42.1441 40.8642 42.1441ZM47.7191 42.1441C47.1111 42.1441 46.5751 41.9961 46.1111 41.7001C45.6471 41.3961 45.3071 40.9801 45.0911 40.4521L45.8471 40.0681C46.0391 40.4601 46.2991 40.7681 46.6271 40.9921C46.9631 41.2161 47.3271 41.3281 47.7191 41.3281C48.1111 41.3281 48.4351 41.2361 48.6911 41.0521C48.9551 40.8601 49.0871 40.6121 49.0871 40.3081C49.0871 40.0041 48.9671 39.7601 48.7271 39.5761C48.4871 39.3921 48.2431 39.2881 47.9951 39.2641L47.0711 39.1561C46.4871 39.0041 46.0551 38.7641 45.7751 38.4361C45.4951 38.1001 45.3551 37.7161 45.3551 37.2841C45.3551 36.9161 45.4511 36.5921 45.6431 36.3121C45.8351 36.0241 46.0951 35.8041 46.4231 35.6521C46.7591 35.5001 47.1311 35.4241 47.5391 35.4241C48.0751 35.4241 48.5591 35.5641 48.9911 35.8441C49.4311 36.1241 49.7431 36.5041 49.9271 36.9841L49.1711 37.3681C49.0031 37.0161 48.7671 36.7401 48.4631 36.5401C48.1671 36.3401 47.8431 36.2401 47.4911 36.2401C47.1311 36.2401 46.8391 36.3321 46.6151 36.5161C46.3991 36.6921 46.2911 36.9241 46.2911 37.2121C46.2911 37.5161 46.3951 37.7561 46.6031 37.9321C46.8191 38.1081 47.0351 38.2081 47.2511 38.2321L48.3191 38.3521C48.8471 38.4961 49.2591 38.7441 49.5551 39.0961C49.8591 39.4481 50.0111 39.8481 50.0111 40.2961C50.0111 40.6481 49.9151 40.9641 49.7231 41.2441C49.5311 41.5241 49.2591 41.7441 48.9071 41.9041C48.5631 42.0641 48.1671 42.1441 47.7191 42.1441Z" fill="#0B0B0B"/>
<path d="M32.92 67.9401L36.96 63.7201C37.8267 62.8134 38.46 62.1267 38.86 61.6601C39.26 61.1801 39.5467 60.7667 39.72 60.4201C39.8933 60.0601 39.98 59.6934 39.98 59.3201C39.98 58.7067 39.7867 58.2201 39.4 57.8601C39.0133 57.4867 38.5067 57.3001 37.88 57.3001C37.2267 57.3001 36.6667 57.4867 36.2 57.8601C35.7467 58.2201 35.4133 58.7534 35.2 59.4601L32.82 58.7201C32.98 57.9467 33.3 57.2734 33.78 56.7001C34.2733 56.1134 34.88 55.6601 35.6 55.3401C36.32 55.0201 37.08 54.8601 37.88 54.8601C38.8267 54.8601 39.6667 55.0401 40.4 55.4001C41.1333 55.7467 41.7 56.2401 42.1 56.8801C42.5133 57.5067 42.72 58.2267 42.72 59.0401C42.72 59.8401 42.5 60.6201 42.06 61.3801C41.6333 62.1267 40.9333 63.0067 39.96 64.0201L36.46 67.7001H42.92V70.0001H32.92V67.9401ZM51.0136 70.2401C49.8403 70.2401 48.8003 69.9201 47.8936 69.2801C47.0003 68.6401 46.3003 67.7401 45.7936 66.5801C45.3003 65.4067 45.0536 64.0601 45.0536 62.5401C45.0536 61.0201 45.3003 59.6801 45.7936 58.5201C46.3003 57.3601 47.0003 56.4601 47.8936 55.8201C48.7869 55.1801 49.8203 54.8601 50.9936 54.8601C52.1803 54.8601 53.2269 55.1801 54.1336 55.8201C55.0403 56.4601 55.7403 57.3601 56.2336 58.5201C56.7403 59.6801 56.9936 61.0201 56.9936 62.5401C56.9936 64.0601 56.7403 65.4067 56.2336 66.5801C55.7403 67.7401 55.0403 68.6401 54.1336 69.2801C53.2403 69.9201 52.2003 70.2401 51.0136 70.2401ZM47.7736 62.5401C47.7736 64.1534 48.0603 65.4267 48.6336 66.3601C49.2069 67.2934 50.0003 67.7601 51.0136 67.7601C52.0269 67.7601 52.8203 67.3001 53.3936 66.3801C53.9803 65.4467 54.2736 64.1667 54.2736 62.5401C54.2736 60.9267 53.9803 59.6601 53.3936 58.7401C52.8203 57.8067 52.0203 57.3401 50.9936 57.3401C49.9803 57.3401 49.1869 57.8001 48.6136 58.7201C48.0536 59.6401 47.7736 60.9134 47.7736 62.5401Z" fill="#0B0B0B"/>
<path d="M249.876 59.6421H243.558V57.5721H252.45V59.6421L246.996 71.0001H244.296L249.876 59.6421ZM254.153 57.3741H256.511V62.1801C256.787 61.7961 257.153 61.5021 257.609 61.2981C258.065 61.0941 258.575 60.9921 259.139 60.9921C259.847 60.9921 260.483 61.1481 261.047 61.4601C261.611 61.7721 262.049 62.2101 262.361 62.7741C262.673 63.3381 262.829 63.9801 262.829 64.7001V71.0001H260.471V65.2581C260.471 64.6221 260.285 64.1121 259.913 63.7281C259.553 63.3441 259.079 63.1521 258.491 63.1521C257.915 63.1521 257.441 63.3441 257.069 63.7281C256.697 64.1121 256.511 64.6221 256.511 65.2581V71.0001H254.153V57.3741ZM272.198 71.2161C271.466 71.2161 270.77 71.0781 270.11 70.8021C269.462 70.5261 268.904 70.1361 268.436 69.6321C267.98 69.1281 267.668 68.5461 267.5 67.8861L269.642 67.1301C269.858 67.7301 270.188 68.1921 270.632 68.5161C271.076 68.8401 271.598 69.0021 272.198 69.0021C272.918 69.0021 273.494 68.7981 273.926 68.3901C274.37 67.9821 274.592 67.4301 274.592 66.7341C274.592 66.0501 274.37 65.5101 273.926 65.1141C273.494 64.7061 272.912 64.5021 272.18 64.5021C271.676 64.5021 271.22 64.5981 270.812 64.7901L270.254 63.6201L273.728 59.6601H268.256V57.5901H276.482V59.5161L273.728 62.7381C274.736 62.8941 275.54 63.3261 276.14 64.0341C276.74 64.7301 277.04 65.6061 277.04 66.6621C277.04 67.5141 276.83 68.2881 276.41 68.9841C275.99 69.6801 275.408 70.2261 274.664 70.6221C273.932 71.0181 273.11 71.2161 272.198 71.2161ZM284.3 71.2161C283.244 71.2161 282.308 70.9281 281.492 70.3521C280.688 69.7761 280.058 68.9661 279.602 67.9221C279.158 66.8661 278.936 65.6541 278.936 64.2861C278.936 62.9181 279.158 61.7121 279.602 60.6681C280.058 59.6241 280.688 58.8141 281.492 58.2381C282.296 57.6621 283.226 57.3741 284.282 57.3741C285.35 57.3741 286.292 57.6621 287.108 58.2381C287.924 58.8141 288.554 59.6241 288.998 60.6681C289.454 61.7121 289.682 62.9181 289.682 64.2861C289.682 65.6541 289.454 66.8661 288.998 67.9221C288.554 68.9661 287.924 69.7761 287.108 70.3521C286.304 70.9281 285.368 71.2161 284.3 71.2161ZM281.384 64.2861C281.384 65.7381 281.642 66.8841 282.158 67.7241C282.674 68.5641 283.388 68.9841 284.3 68.9841C285.212 68.9841 285.926 68.5701 286.442 67.7421C286.97 66.9021 287.234 65.7501 287.234 64.2861C287.234 62.8341 286.97 61.6941 286.442 60.8661C285.926 60.0261 285.206 59.6061 284.282 59.6061C283.37 59.6061 282.656 60.0201 282.14 60.8481C281.636 61.6761 281.384 62.8221 281.384 64.2861ZM291.77 61.2081H293.984V62.4321C294.236 61.9641 294.596 61.6101 295.064 61.3701C295.544 61.1181 296.096 60.9921 296.72 60.9921C297.368 60.9921 297.962 61.1361 298.502 61.4241C299.042 61.7001 299.456 62.0841 299.744 62.5761C300.068 62.0481 300.488 61.6521 301.004 61.3881C301.532 61.1241 302.126 60.9921 302.786 60.9921C303.47 60.9921 304.088 61.1481 304.64 61.4601C305.192 61.7721 305.624 62.2101 305.936 62.7741C306.248 63.3381 306.404 63.9801 306.404 64.7001V71.0001H304.046V65.2581C304.046 64.6101 303.872 64.1001 303.524 63.7281C303.188 63.3441 302.732 63.1521 302.156 63.1521C301.592 63.1521 301.136 63.3441 300.788 63.7281C300.44 64.1121 300.266 64.6221 300.266 65.2581V71.0001H297.908V65.2581C297.908 64.6101 297.734 64.1001 297.386 63.7281C297.05 63.3441 296.594 63.1521 296.018 63.1521C295.454 63.1521 294.998 63.3441 294.65 63.7281C294.302 64.1121 294.128 64.6221 294.128 65.2581V71.0001H291.77V61.2081Z" fill="white"/>
<path d="M112.688 71.2161C111.74 71.2161 110.906 71.0361 110.186 70.6761C109.466 70.3041 108.908 69.8121 108.512 69.2001C108.116 68.5761 107.918 67.8861 107.918 67.1301C107.918 66.3981 108.086 65.7561 108.422 65.2041C108.77 64.6521 109.268 64.2081 109.916 63.8721C109.46 63.5961 109.1 63.2061 108.836 62.7021C108.584 62.1861 108.458 61.6281 108.458 61.0281C108.458 60.3321 108.638 59.7081 108.998 59.1561C109.358 58.6041 109.856 58.1721 110.492 57.8601C111.14 57.5361 111.872 57.3741 112.688 57.3741C113.492 57.3741 114.212 57.5301 114.848 57.8421C115.496 58.1541 116 58.5921 116.36 59.1561C116.72 59.7081 116.9 60.3321 116.9 61.0281C116.9 61.6161 116.774 62.1621 116.522 62.6661C116.27 63.1701 115.916 63.5721 115.46 63.8721C116.108 64.2201 116.6 64.6701 116.936 65.2221C117.284 65.7741 117.458 66.4161 117.458 67.1481C117.458 67.8921 117.26 68.5761 116.864 69.2001C116.468 69.8121 115.904 70.3041 115.172 70.6761C114.452 71.0361 113.624 71.2161 112.688 71.2161ZM110.384 67.0581C110.384 67.6821 110.594 68.1861 111.014 68.5701C111.434 68.9541 111.992 69.1461 112.688 69.1461C113.384 69.1461 113.942 68.9541 114.362 68.5701C114.794 68.1861 115.01 67.6821 115.01 67.0581C115.01 66.4341 114.794 65.9361 114.362 65.5641C113.942 65.1801 113.384 64.9881 112.688 64.9881C111.992 64.9881 111.434 65.1801 111.014 65.5641C110.594 65.9361 110.384 66.4341 110.384 67.0581ZM110.906 61.1721C110.906 61.6761 111.068 62.0961 111.392 62.4321C111.728 62.7561 112.16 62.9181 112.688 62.9181C113.204 62.9181 113.624 62.7561 113.948 62.4321C114.284 62.0961 114.452 61.6761 114.452 61.1721C114.452 60.6681 114.284 60.2541 113.948 59.9301C113.624 59.6061 113.204 59.4441 112.688 59.4441C112.16 59.4441 111.728 59.6061 111.392 59.9301C111.068 60.2541 110.906 60.6681 110.906 61.1721ZM123.647 71.2161C122.915 71.2161 122.219 71.0781 121.559 70.8021C120.911 70.5261 120.353 70.1361 119.885 69.6321C119.429 69.1281 119.117 68.5461 118.949 67.8861L121.091 67.1301C121.307 67.7301 121.637 68.1921 122.081 68.5161C122.525 68.8401 123.047 69.0021 123.647 69.0021C124.367 69.0021 124.943 68.7981 125.375 68.3901C125.819 67.9821 126.041 67.4301 126.041 66.7341C126.041 66.0501 125.819 65.5101 125.375 65.1141C124.943 64.7061 124.361 64.5021 123.629 64.5021C123.125 64.5021 122.669 64.5981 122.261 64.7901L121.703 63.6201L125.177 59.6601H119.705V57.5901H127.931V59.5161L125.177 62.7381C126.185 62.8941 126.989 63.3261 127.589 64.0341C128.189 64.7301 128.489 65.6061 128.489 66.6621C128.489 67.5141 128.279 68.2881 127.859 68.9841C127.439 69.6801 126.857 70.2261 126.113 70.6221C125.381 71.0181 124.559 71.2161 123.647 71.2161ZM143.003 57.5901H145.523L134.651 71.0001H132.131L143.003 57.5901ZM130.691 60.8841C130.691 60.2481 130.847 59.6601 131.159 59.1201C131.471 58.5801 131.897 58.1541 132.437 57.8421C132.977 57.5301 133.577 57.3741 134.237 57.3741C134.885 57.3741 135.473 57.5301 136.001 57.8421C136.541 58.1541 136.967 58.5801 137.279 59.1201C137.591 59.6601 137.747 60.2481 137.747 60.8841C137.747 61.5201 137.591 62.1081 137.279 62.6481C136.967 63.1881 136.541 63.6141 136.001 63.9261C135.473 64.2381 134.885 64.3941 134.237 64.3941C133.577 64.3941 132.977 64.2381 132.437 63.9261C131.897 63.6141 131.471 63.1881 131.159 62.6481C130.847 62.1081 130.691 61.5201 130.691 60.8841ZM132.581 60.8841C132.581 61.3401 132.731 61.7361 133.031 62.0721C133.343 62.4081 133.745 62.5761 134.237 62.5761C134.729 62.5761 135.119 62.4081 135.407 62.0721C135.707 61.7361 135.857 61.3401 135.857 60.8841C135.857 60.4281 135.707 60.0321 135.407 59.6961C135.119 59.3481 134.729 59.1741 134.237 59.1741C133.745 59.1741 133.343 59.3481 133.031 59.6961C132.731 60.0321 132.581 60.4281 132.581 60.8841ZM139.835 67.7061C139.835 67.0701 139.991 66.4821 140.303 65.9421C140.615 65.4021 141.041 64.9761 141.581 64.6641C142.121 64.3521 142.715 64.1961 143.363 64.1961C144.011 64.1961 144.605 64.3521 145.145 64.6641C145.685 64.9761 146.111 65.4021 146.423 65.9421C146.735 66.4821 146.891 67.0701 146.891 67.7061C146.891 68.3421 146.735 68.9301 146.423 69.4701C146.111 70.0101 145.685 70.4361 145.145 70.7481C144.605 71.0601 144.011 71.2161 143.363 71.2161C142.715 71.2161 142.121 71.0601 141.581 70.7481C141.041 70.4361 140.615 70.0101 140.303 69.4701C139.991 68.9301 139.835 68.3421 139.835 67.7061ZM141.725 67.7061C141.725 68.1621 141.875 68.5581 142.175 68.8941C142.475 69.2301 142.871 69.3981 143.363 69.3981C143.855 69.3981 144.251 69.2301 144.551 68.8941C144.851 68.5581 145.001 68.1621 145.001 67.7061C145.001 67.2501 144.851 66.8541 144.551 66.5181C144.251 66.1701 143.855 65.9961 143.363 65.9961C142.871 65.9961 142.475 66.1701 142.175 66.5181C141.875 66.8541 141.725 67.2501 141.725 67.7061Z" fill="#C9FA75"/>
<path d="M379.688 71.2161C378.74 71.2161 377.906 71.0361 377.186 70.6761C376.466 70.3041 375.908 69.8121 375.512 69.2001C375.116 68.5761 374.918 67.8861 374.918 67.1301C374.918 66.3981 375.086 65.7561 375.422 65.2041C375.77 64.6521 376.268 64.2081 376.916 63.8721C376.46 63.5961 376.1 63.2061 375.836 62.7021C375.584 62.1861 375.458 61.6281 375.458 61.0281C375.458 60.3321 375.638 59.7081 375.998 59.1561C376.358 58.6041 376.856 58.1721 377.492 57.8601C378.14 57.5361 378.872 57.3741 379.688 57.3741C380.492 57.3741 381.212 57.5301 381.848 57.8421C382.496 58.1541 383 58.5921 383.36 59.1561C383.72 59.7081 383.9 60.3321 383.9 61.0281C383.9 61.6161 383.774 62.1621 383.522 62.6661C383.27 63.1701 382.916 63.5721 382.46 63.8721C383.108 64.2201 383.6 64.6701 383.936 65.2221C384.284 65.7741 384.458 66.4161 384.458 67.1481C384.458 67.8921 384.26 68.5761 383.864 69.2001C383.468 69.8121 382.904 70.3041 382.172 70.6761C381.452 71.0361 380.624 71.2161 379.688 71.2161ZM377.384 67.0581C377.384 67.6821 377.594 68.1861 378.014 68.5701C378.434 68.9541 378.992 69.1461 379.688 69.1461C380.384 69.1461 380.942 68.9541 381.362 68.5701C381.794 68.1861 382.01 67.6821 382.01 67.0581C382.01 66.4341 381.794 65.9361 381.362 65.5641C380.942 65.1801 380.384 64.9881 379.688 64.9881C378.992 64.9881 378.434 65.1801 378.014 65.5641C377.594 65.9361 377.384 66.4341 377.384 67.0581ZM377.906 61.1721C377.906 61.6761 378.068 62.0961 378.392 62.4321C378.728 62.7561 379.16 62.9181 379.688 62.9181C380.204 62.9181 380.624 62.7561 380.948 62.4321C381.284 62.0961 381.452 61.6761 381.452 61.1721C381.452 60.6681 381.284 60.2541 380.948 59.9301C380.624 59.6061 380.204 59.4441 379.688 59.4441C379.16 59.4441 378.728 59.6061 378.392 59.9301C378.068 60.2541 377.906 60.6681 377.906 61.1721ZM386.471 57.3741H388.829V62.1801C389.105 61.7961 389.471 61.5021 389.927 61.2981C390.383 61.0941 390.893 60.9921 391.457 60.9921C392.165 60.9921 392.801 61.1481 393.365 61.4601C393.929 61.7721 394.367 62.2101 394.679 62.7741C394.991 63.3381 395.147 63.9801 395.147 64.7001V71.0001H392.789V65.2581C392.789 64.6221 392.603 64.1121 392.231 63.7281C391.871 63.3441 391.397 63.1521 390.809 63.1521C390.233 63.1521 389.759 63.3441 389.387 63.7281C389.015 64.1121 388.829 64.6221 388.829 65.2581V71.0001H386.471V57.3741ZM406.046 68.0481H399.89V65.9961L405.902 57.5901H408.458V65.9961H410.42V68.0481H408.458V71.0001H406.046V68.0481ZM406.046 65.9961V60.6141L402.302 65.9961H406.046ZM416.366 71.2161C415.658 71.2161 414.98 71.0841 414.332 70.8201C413.684 70.5561 413.132 70.1781 412.676 69.6861C412.22 69.1941 411.908 68.6181 411.74 67.9581L413.864 67.2021C414.068 67.7901 414.392 68.2401 414.836 68.5521C415.28 68.8521 415.79 69.0021 416.366 69.0021C417.05 69.0021 417.608 68.7861 418.04 68.3541C418.472 67.9101 418.688 67.3401 418.688 66.6441C418.688 65.9481 418.472 65.3841 418.04 64.9521C417.608 64.5201 417.05 64.3041 416.366 64.3041C415.886 64.3041 415.46 64.4121 415.088 64.6281C414.716 64.8321 414.446 65.1201 414.278 65.4921L412.28 65.0421L413.342 57.5901H420.65V59.6601H415.088L414.674 62.7381C415.214 62.3901 415.916 62.2161 416.78 62.2161C417.644 62.2161 418.406 62.4081 419.066 62.7921C419.738 63.1641 420.254 63.6861 420.614 64.3581C420.974 65.0301 421.154 65.7921 421.154 66.6441C421.154 67.5081 420.944 68.2881 420.524 68.9841C420.116 69.6801 419.546 70.2261 418.814 70.6221C418.082 71.0181 417.266 71.2161 416.366 71.2161ZM423.192 61.2081H425.406V62.4321C425.658 61.9641 426.018 61.6101 426.486 61.3701C426.966 61.1181 427.518 60.9921 428.142 60.9921C428.79 60.9921 429.384 61.1361 429.924 61.4241C430.464 61.7001 430.878 62.0841 431.166 62.5761C431.49 62.0481 431.91 61.6521 432.426 61.3881C432.954 61.1241 433.548 60.9921 434.208 60.9921C434.892 60.9921 435.51 61.1481 436.062 61.4601C436.614 61.7721 437.046 62.2101 437.358 62.7741C437.67 63.3381 437.826 63.9801 437.826 64.7001V71.0001H435.468V65.2581C435.468 64.6101 435.294 64.1001 434.946 63.7281C434.61 63.3441 434.154 63.1521 433.578 63.1521C433.014 63.1521 432.558 63.3441 432.21 63.7281C431.862 64.1121 431.688 64.6221 431.688 65.2581V71.0001H429.33V65.2581C429.33 64.6101 429.156 64.1001 428.808 63.7281C428.472 63.3441 428.016 63.1521 427.44 63.1521C426.876 63.1521 426.42 63.3441 426.072 63.7281C425.724 64.1121 425.55 64.6221 425.55 65.2581V71.0001H423.192V61.2081Z" fill="white"/>
<path d="M107.996 32.0601H111.152C111.744 32.0601 112.264 32.1721 112.712 32.3961C113.168 32.6201 113.52 32.9401 113.768 33.3561C114.016 33.7721 114.14 34.2601 114.14 34.8201C114.14 35.3801 114.016 35.8681 113.768 36.2841C113.52 36.7001 113.168 37.0201 112.712 37.2441C112.264 37.4681 111.744 37.5801 111.152 37.5801H109.172V41.0001H107.996V32.0601ZM111.188 36.5001C111.724 36.5001 112.152 36.3481 112.472 36.0441C112.792 35.7401 112.952 35.3321 112.952 34.8201C112.952 34.3081 112.792 33.9001 112.472 33.5961C112.152 33.2921 111.724 33.1401 111.188 33.1401H109.172V36.5001H111.188ZM115.598 34.5321H116.69V35.3001C117.026 34.7401 117.598 34.4601 118.406 34.4601H118.802V35.5161H118.238C117.774 35.5161 117.402 35.6601 117.122 35.9481C116.85 36.2361 116.714 36.6361 116.714 37.1481V41.0001H115.598V34.5321ZM122.866 41.1441C122.25 41.1441 121.686 41.0001 121.174 40.7121C120.67 40.4161 120.27 40.0121 119.974 39.5001C119.678 38.9801 119.53 38.4001 119.53 37.7601C119.53 37.1281 119.674 36.5561 119.962 36.0441C120.258 35.5241 120.658 35.1201 121.162 34.8321C121.674 34.5361 122.242 34.3881 122.866 34.3881C123.482 34.3881 124.042 34.5361 124.546 34.8321C125.058 35.1201 125.458 35.5201 125.746 36.0321C126.042 36.5441 126.19 37.1201 126.19 37.7601C126.19 38.4081 126.042 38.9881 125.746 39.5001C125.45 40.0121 125.046 40.4161 124.534 40.7121C124.03 41.0001 123.474 41.1441 122.866 41.1441ZM120.706 37.7601C120.706 38.1921 120.798 38.5841 120.982 38.9361C121.174 39.2881 121.434 39.5641 121.762 39.7641C122.098 39.9641 122.466 40.0641 122.866 40.0641C123.258 40.0641 123.618 39.9641 123.946 39.7641C124.274 39.5641 124.53 39.2881 124.714 38.9361C124.906 38.5841 125.002 38.1921 125.002 37.7601C125.002 37.3281 124.906 36.9401 124.714 36.5961C124.53 36.2441 124.274 35.9681 123.946 35.7681C123.618 35.5681 123.258 35.4681 122.866 35.4681C122.466 35.4681 122.098 35.5681 121.762 35.7681C121.434 35.9681 121.174 36.2441 120.982 36.5961C120.798 36.9401 120.706 37.3281 120.706 37.7601ZM130.585 41.1441C129.985 41.1441 129.441 40.9961 128.953 40.7001C128.465 40.4041 128.081 40.0001 127.801 39.4881C127.521 38.9761 127.381 38.4041 127.381 37.7721C127.381 37.1401 127.521 36.5681 127.801 36.0561C128.081 35.5361 128.465 35.1281 128.953 34.8321C129.441 34.5361 129.985 34.3881 130.585 34.3881C131.057 34.3881 131.481 34.4761 131.857 34.6521C132.241 34.8281 132.561 35.0761 132.817 35.3961V31.9161H133.945V41.0001H132.853V40.0521C132.613 40.3961 132.293 40.6641 131.893 40.8561C131.501 41.0481 131.065 41.1441 130.585 41.1441ZM128.557 37.7721C128.557 38.2041 128.649 38.5961 128.833 38.9481C129.017 39.2921 129.269 39.5641 129.589 39.7641C129.917 39.9641 130.281 40.0641 130.681 40.0641C131.081 40.0641 131.441 39.9641 131.761 39.7641C132.089 39.5641 132.345 39.2921 132.529 38.9481C132.721 38.5961 132.817 38.2041 132.817 37.7721C132.817 37.3401 132.721 36.9481 132.529 36.5961C132.345 36.2441 132.089 35.9681 131.761 35.7681C131.441 35.5681 131.081 35.4681 130.681 35.4681C130.281 35.4681 129.917 35.5681 129.589 35.7681C129.269 35.9681 129.017 36.2441 128.833 36.5961C128.649 36.9481 128.557 37.3401 128.557 37.7721ZM137.965 41.1441C137.501 41.1441 137.085 41.0361 136.717 40.8201C136.349 40.6041 136.061 40.3041 135.853 39.9201C135.645 39.5281 135.541 39.0801 135.541 38.5761V34.5321H136.657V38.4561C136.657 38.9361 136.801 39.3241 137.089 39.6201C137.377 39.9161 137.753 40.0641 138.217 40.0641C138.681 40.0641 139.057 39.9121 139.345 39.6081C139.633 39.2961 139.777 38.8801 139.777 38.3601V34.5321H140.905V41.0001H139.813V40.2081C139.621 40.5121 139.365 40.7441 139.045 40.9041C138.725 41.0641 138.365 41.1441 137.965 41.1441ZM145.634 41.1441C145.002 41.1441 144.434 40.9961 143.93 40.7001C143.426 40.4041 143.034 40.0001 142.754 39.4881C142.474 38.9681 142.334 38.3921 142.334 37.7601C142.334 37.1201 142.474 36.5441 142.754 36.0321C143.034 35.5201 143.422 35.1201 143.918 34.8321C144.422 34.5361 144.994 34.3881 145.634 34.3881C146.258 34.3881 146.826 34.5521 147.338 34.8801C147.858 35.2001 148.226 35.6161 148.442 36.1281L147.434 36.6081C147.282 36.2641 147.042 35.9881 146.714 35.7801C146.394 35.5721 146.034 35.4681 145.634 35.4681C145.242 35.4681 144.882 35.5681 144.554 35.7681C144.234 35.9681 143.982 36.2441 143.798 36.5961C143.614 36.9401 143.522 37.3321 143.522 37.7721C143.522 38.2041 143.614 38.5961 143.798 38.9481C143.99 39.2921 144.246 39.5641 144.566 39.7641C144.886 39.9641 145.242 40.0641 145.634 40.0641C146.042 40.0641 146.406 39.9601 146.726 39.7521C147.046 39.5441 147.282 39.2601 147.434 38.9001L148.442 39.4041C148.234 39.9081 147.87 40.3241 147.35 40.6521C146.83 40.9801 146.258 41.1441 145.634 41.1441ZM152.492 41.0721C151.86 41.0721 151.372 40.8961 151.028 40.5441C150.692 40.1841 150.524 39.6721 150.524 39.0081V35.6001H149.348V34.5321H149.588C149.876 34.5321 150.104 34.4481 150.272 34.2801C150.44 34.1041 150.524 33.8681 150.524 33.5721V33.0441H151.64V34.5321H153.092V35.6001H151.64V38.9721C151.64 39.6921 152 40.0521 152.72 40.0521C152.872 40.0521 153.02 40.0401 153.164 40.0161V41.0121C152.996 41.0521 152.772 41.0721 152.492 41.0721ZM154.622 34.5321H155.738V41.0001H154.622V34.5321ZM154.49 32.8041C154.49 32.5961 154.554 32.4281 154.682 32.3001C154.81 32.1721 154.978 32.1081 155.186 32.1081C155.394 32.1081 155.562 32.1721 155.69 32.3001C155.818 32.4281 155.882 32.5961 155.882 32.8041C155.882 33.0121 155.818 33.1801 155.69 33.3081C155.562 33.4361 155.394 33.5001 155.186 33.5001C154.978 33.5001 154.81 33.4361 154.682 33.3081C154.554 33.1801 154.49 33.0121 154.49 32.8041ZM156.737 34.5321H157.985L159.797 39.4281L161.621 34.5321H162.869L160.325 41.0001H159.269L156.737 34.5321ZM163.868 34.5321H164.984V41.0001H163.868V34.5321ZM163.736 32.8041C163.736 32.5961 163.8 32.4281 163.928 32.3001C164.056 32.1721 164.224 32.1081 164.432 32.1081C164.64 32.1081 164.808 32.1721 164.936 32.3001C165.064 32.4281 165.128 32.5961 165.128 32.8041C165.128 33.0121 165.064 33.1801 164.936 33.3081C164.808 33.4361 164.64 33.5001 164.432 33.5001C164.224 33.5001 164.056 33.4361 163.928 33.3081C163.8 33.1801 163.736 33.0121 163.736 32.8041ZM169.344 41.0721C168.712 41.0721 168.224 40.8961 167.88 40.5441C167.544 40.1841 167.376 39.6721 167.376 39.0081V35.6001H166.2V34.5321H166.44C166.728 34.5321 166.956 34.4481 167.124 34.2801C167.292 34.1041 167.376 33.8681 167.376 33.5721V33.0441H168.492V34.5321H169.944V35.6001H168.492V38.9721C168.492 39.6921 168.852 40.0521 169.572 40.0521C169.724 40.0521 169.872 40.0401 170.016 40.0161V41.0121C169.848 41.0521 169.624 41.0721 169.344 41.0721ZM173.309 40.9881L170.741 34.5321H171.953L173.921 39.5841L175.877 34.5321H177.113L173.537 43.4001H172.301L173.309 40.9881Z" fill="white"/>
<path d="M243.996 32.0601H247.152C247.744 32.0601 248.264 32.1721 248.712 32.3961C249.168 32.6201 249.52 32.9401 249.768 33.3561C250.016 33.7721 250.14 34.2601 250.14 34.8201C250.14 35.3801 250.016 35.8681 249.768 36.2841C249.52 36.7001 249.168 37.0201 248.712 37.2441C248.264 37.4681 247.744 37.5801 247.152 37.5801H245.172V41.0001H243.996V32.0601ZM247.188 36.5001C247.724 36.5001 248.152 36.3481 248.472 36.0441C248.792 35.7401 248.952 35.3321 248.952 34.8201C248.952 34.3081 248.792 33.9001 248.472 33.5961C248.152 33.2921 247.724 33.1401 247.188 33.1401H245.172V36.5001H247.188ZM251.598 34.5321H252.69V35.3001C253.026 34.7401 253.598 34.4601 254.406 34.4601H254.802V35.5161H254.238C253.774 35.5161 253.402 35.6601 253.122 35.9481C252.85 36.2361 252.714 36.6361 252.714 37.1481V41.0001H251.598V34.5321ZM258.866 41.1441C258.25 41.1441 257.686 41.0001 257.174 40.7121C256.67 40.4161 256.27 40.0121 255.974 39.5001C255.678 38.9801 255.53 38.4001 255.53 37.7601C255.53 37.1281 255.674 36.5561 255.962 36.0441C256.258 35.5241 256.658 35.1201 257.162 34.8321C257.674 34.5361 258.242 34.3881 258.866 34.3881C259.482 34.3881 260.042 34.5361 260.546 34.8321C261.058 35.1201 261.458 35.5201 261.746 36.0321C262.042 36.5441 262.19 37.1201 262.19 37.7601C262.19 38.4081 262.042 38.9881 261.746 39.5001C261.45 40.0121 261.046 40.4161 260.534 40.7121C260.03 41.0001 259.474 41.1441 258.866 41.1441ZM256.706 37.7601C256.706 38.1921 256.798 38.5841 256.982 38.9361C257.174 39.2881 257.434 39.5641 257.762 39.7641C258.098 39.9641 258.466 40.0641 258.866 40.0641C259.258 40.0641 259.618 39.9641 259.946 39.7641C260.274 39.5641 260.53 39.2881 260.714 38.9361C260.906 38.5841 261.002 38.1921 261.002 37.7601C261.002 37.3281 260.906 36.9401 260.714 36.5961C260.53 36.2441 260.274 35.9681 259.946 35.7681C259.618 35.5681 259.258 35.4681 258.866 35.4681C258.466 35.4681 258.098 35.5681 257.762 35.7681C257.434 35.9681 257.174 36.2441 256.982 36.5961C256.798 36.9401 256.706 37.3281 256.706 37.7601ZM266.585 41.1441C265.985 41.1441 265.441 40.9961 264.953 40.7001C264.465 40.4041 264.081 40.0001 263.801 39.4881C263.521 38.9761 263.381 38.4041 263.381 37.7721C263.381 37.1401 263.521 36.5681 263.801 36.0561C264.081 35.5361 264.465 35.1281 264.953 34.8321C265.441 34.5361 265.985 34.3881 266.585 34.3881C267.057 34.3881 267.481 34.4761 267.857 34.6521C268.241 34.8281 268.561 35.0761 268.817 35.3961V31.9161H269.945V41.0001H268.853V40.0521C268.613 40.3961 268.293 40.6641 267.893 40.8561C267.501 41.0481 267.065 41.1441 266.585 41.1441ZM264.557 37.7721C264.557 38.2041 264.649 38.5961 264.833 38.9481C265.017 39.2921 265.269 39.5641 265.589 39.7641C265.917 39.9641 266.281 40.0641 266.681 40.0641C267.081 40.0641 267.441 39.9641 267.761 39.7641C268.089 39.5641 268.345 39.2921 268.529 38.9481C268.721 38.5961 268.817 38.2041 268.817 37.7721C268.817 37.3401 268.721 36.9481 268.529 36.5961C268.345 36.2441 268.089 35.9681 267.761 35.7681C267.441 35.5681 267.081 35.4681 266.681 35.4681C266.281 35.4681 265.917 35.5681 265.589 35.7681C265.269 35.9681 265.017 36.2441 264.833 36.5961C264.649 36.9481 264.557 37.3401 264.557 37.7721ZM273.965 41.1441C273.501 41.1441 273.085 41.0361 272.717 40.8201C272.349 40.6041 272.061 40.3041 271.853 39.9201C271.645 39.5281 271.541 39.0801 271.541 38.5761V34.5321H272.657V38.4561C272.657 38.9361 272.801 39.3241 273.089 39.6201C273.377 39.9161 273.753 40.0641 274.217 40.0641C274.681 40.0641 275.057 39.9121 275.345 39.6081C275.633 39.2961 275.777 38.8801 275.777 38.3601V34.5321H276.905V41.0001H275.813V40.2081C275.621 40.5121 275.365 40.7441 275.045 40.9041C274.725 41.0641 274.365 41.1441 273.965 41.1441ZM281.634 41.1441C281.002 41.1441 280.434 40.9961 279.93 40.7001C279.426 40.4041 279.034 40.0001 278.754 39.4881C278.474 38.9681 278.334 38.3921 278.334 37.7601C278.334 37.1201 278.474 36.5441 278.754 36.0321C279.034 35.5201 279.422 35.1201 279.918 34.8321C280.422 34.5361 280.994 34.3881 281.634 34.3881C282.258 34.3881 282.826 34.5521 283.338 34.8801C283.858 35.2001 284.226 35.6161 284.442 36.1281L283.434 36.6081C283.282 36.2641 283.042 35.9881 282.714 35.7801C282.394 35.5721 282.034 35.4681 281.634 35.4681C281.242 35.4681 280.882 35.5681 280.554 35.7681C280.234 35.9681 279.982 36.2441 279.798 36.5961C279.614 36.9401 279.522 37.3321 279.522 37.7721C279.522 38.2041 279.614 38.5961 279.798 38.9481C279.99 39.2921 280.246 39.5641 280.566 39.7641C280.886 39.9641 281.242 40.0641 281.634 40.0641C282.042 40.0641 282.406 39.9601 282.726 39.7521C283.046 39.5441 283.282 39.2601 283.434 38.9001L284.442 39.4041C284.234 39.9081 283.87 40.3241 283.35 40.6521C282.83 40.9801 282.258 41.1441 281.634 41.1441ZM288.492 41.0721C287.86 41.0721 287.372 40.8961 287.028 40.5441C286.692 40.1841 286.524 39.6721 286.524 39.0081V35.6001H285.348V34.5321H285.588C285.876 34.5321 286.104 34.4481 286.272 34.2801C286.44 34.1041 286.524 33.8681 286.524 33.5721V33.0441H287.64V34.5321H289.092V35.6001H287.64V38.9721C287.64 39.6921 288 40.0521 288.72 40.0521C288.872 40.0521 289.02 40.0401 289.164 40.0161V41.0121C288.996 41.0521 288.772 41.0721 288.492 41.0721ZM290.622 34.5321H291.738V41.0001H290.622V34.5321ZM290.49 32.8041C290.49 32.5961 290.554 32.4281 290.682 32.3001C290.81 32.1721 290.978 32.1081 291.186 32.1081C291.394 32.1081 291.562 32.1721 291.69 32.3001C291.818 32.4281 291.882 32.5961 291.882 32.8041C291.882 33.0121 291.818 33.1801 291.69 33.3081C291.562 33.4361 291.394 33.5001 291.186 33.5001C290.978 33.5001 290.81 33.4361 290.682 33.3081C290.554 33.1801 290.49 33.0121 290.49 32.8041ZM292.737 34.5321H293.985L295.797 39.4281L297.621 34.5321H298.869L296.325 41.0001H295.269L292.737 34.5321ZM302.727 41.1441C302.119 41.1441 301.567 40.9961 301.071 40.7001C300.575 40.4041 300.187 40.0001 299.907 39.4881C299.627 38.9681 299.487 38.3881 299.487 37.7481C299.487 37.1081 299.623 36.5321 299.895 36.0201C300.175 35.5081 300.551 35.1081 301.023 34.8201C301.503 34.5321 302.039 34.3881 302.631 34.3881C303.247 34.3881 303.783 34.5321 304.239 34.8201C304.703 35.1081 305.055 35.4921 305.295 35.9721C305.543 36.4441 305.667 36.9521 305.667 37.4961C305.667 37.6801 305.647 37.8801 305.607 38.0961H300.663C300.679 38.5041 300.783 38.8601 300.975 39.1641C301.167 39.4681 301.415 39.7041 301.719 39.8721C302.031 40.0401 302.371 40.1241 302.739 40.1241C303.523 40.1241 304.127 39.7681 304.551 39.0561L305.487 39.5361C305.279 40.0001 304.927 40.3841 304.431 40.6881C303.935 40.9921 303.367 41.1441 302.727 41.1441ZM304.455 37.1361C304.439 36.6321 304.255 36.2161 303.903 35.8881C303.559 35.5521 303.135 35.3841 302.631 35.3841C302.135 35.3841 301.707 35.5441 301.347 35.8641C300.987 36.1761 300.767 36.6001 300.687 37.1361H304.455ZM311.824 41.0721C311.192 41.0721 310.704 40.8961 310.36 40.5441C310.024 40.1841 309.856 39.6721 309.856 39.0081V35.6001H308.68V34.5321H308.92C309.208 34.5321 309.436 34.4481 309.604 34.2801C309.772 34.1041 309.856 33.8681 309.856 33.5721V33.0441H310.972V34.5321H312.424V35.6001H310.972V38.9721C310.972 39.6921 311.332 40.0521 312.052 40.0521C312.204 40.0521 312.352 40.0401 312.496 40.0161V41.0121C312.328 41.0521 312.104 41.0721 311.824 41.0721ZM313.954 34.5321H315.07V41.0001H313.954V34.5321ZM313.822 32.8041C313.822 32.5961 313.886 32.4281 314.014 32.3001C314.142 32.1721 314.31 32.1081 314.518 32.1081C314.726 32.1081 314.894 32.1721 315.022 32.3001C315.15 32.4281 315.214 32.5961 315.214 32.8041C315.214 33.0121 315.15 33.1801 315.022 33.3081C314.894 33.4361 314.726 33.5001 314.518 33.5001C314.31 33.5001 314.142 33.4361 314.014 33.3081C313.886 33.1801 313.822 33.0121 313.822 32.8041ZM316.802 34.5321H317.894V35.3361C318.078 35.0321 318.326 34.8001 318.638 34.6401C318.958 34.4721 319.31 34.3881 319.694 34.3881C320.134 34.3881 320.534 34.4961 320.894 34.7121C321.262 34.9201 321.542 35.2041 321.734 35.5641C321.942 35.1881 322.222 34.9001 322.574 34.7001C322.934 34.4921 323.33 34.3881 323.762 34.3881C324.202 34.3881 324.606 34.4961 324.974 34.7121C325.342 34.9201 325.634 35.2081 325.85 35.5761C326.066 35.9441 326.174 36.3561 326.174 36.8121V41.0001H325.046V37.1721C325.046 36.6441 324.906 36.2281 324.626 35.9241C324.354 35.6201 323.998 35.4681 323.558 35.4681C323.11 35.4681 322.746 35.6241 322.466 35.9361C322.186 36.2401 322.046 36.6521 322.046 37.1721V41.0001H320.918V37.1721C320.918 36.6441 320.782 36.2281 320.51 35.9241C320.238 35.6201 319.878 35.4681 319.43 35.4681C318.99 35.4681 318.626 35.6241 318.338 35.9361C318.058 36.2401 317.918 36.6521 317.918 37.1721V41.0001H316.802V34.5321ZM330.735 41.1441C330.127 41.1441 329.575 40.9961 329.079 40.7001C328.583 40.4041 328.195 40.0001 327.915 39.4881C327.635 38.9681 327.495 38.3881 327.495 37.7481C327.495 37.1081 327.631 36.5321 327.903 36.0201C328.183 35.5081 328.559 35.1081 329.031 34.8201C329.511 34.5321 330.047 34.3881 330.639 34.3881C331.255 34.3881 331.791 34.5321 332.247 34.8201C332.711 35.1081 333.063 35.4921 333.303 35.9721C333.551 36.4441 333.675 36.9521 333.675 37.4961C333.675 37.6801 333.655 37.8801 333.615 38.0961H328.671C328.687 38.5041 328.791 38.8601 328.983 39.1641C329.175 39.4681 329.423 39.7041 329.727 39.8721C330.039 40.0401 330.379 40.1241 330.747 40.1241C331.531 40.1241 332.135 39.7681 332.559 39.0561L333.495 39.5361C333.287 40.0001 332.935 40.3841 332.439 40.6881C331.943 40.9921 331.375 41.1441 330.735 41.1441ZM332.463 37.1361C332.447 36.6321 332.263 36.2161 331.911 35.8881C331.567 35.5521 331.143 35.3841 330.639 35.3841C330.143 35.3841 329.715 35.5441 329.355 35.8641C328.995 36.1761 328.775 36.6001 328.695 37.1361H332.463Z" fill="white"/>
<path d="M374.132 32.0601H375.368L377.324 39.4041L379.364 32.0601H380.6L382.616 39.3801L384.584 32.0601H385.82L383.312 41.0001H382.004L379.976 33.7281L377.948 41.0001H376.64L374.132 32.0601ZM389.432 41.1441C388.816 41.1441 388.252 41.0001 387.74 40.7121C387.236 40.4161 386.836 40.0121 386.54 39.5001C386.244 38.9801 386.096 38.4001 386.096 37.7601C386.096 37.1281 386.24 36.5561 386.528 36.0441C386.824 35.5241 387.224 35.1201 387.728 34.8321C388.24 34.5361 388.808 34.3881 389.432 34.3881C390.048 34.3881 390.608 34.5361 391.112 34.8321C391.624 35.1201 392.024 35.5201 392.312 36.0321C392.608 36.5441 392.756 37.1201 392.756 37.7601C392.756 38.4081 392.608 38.9881 392.312 39.5001C392.016 40.0121 391.612 40.4161 391.1 40.7121C390.596 41.0001 390.04 41.1441 389.432 41.1441ZM387.272 37.7601C387.272 38.1921 387.364 38.5841 387.548 38.9361C387.74 39.2881 388 39.5641 388.328 39.7641C388.664 39.9641 389.032 40.0641 389.432 40.0641C389.824 40.0641 390.184 39.9641 390.512 39.7641C390.84 39.5641 391.096 39.2881 391.28 38.9361C391.472 38.5841 391.568 38.1921 391.568 37.7601C391.568 37.3281 391.472 36.9401 391.28 36.5961C391.096 36.2441 390.84 35.9681 390.512 35.7681C390.184 35.5681 389.824 35.4681 389.432 35.4681C389.032 35.4681 388.664 35.5681 388.328 35.7681C388 35.9681 387.74 36.2441 387.548 36.5961C387.364 36.9401 387.272 37.3281 387.272 37.7601ZM394.212 34.5321H395.304V35.3001C395.64 34.7401 396.212 34.4601 397.02 34.4601H397.416V35.5161H396.852C396.388 35.5161 396.016 35.6601 395.736 35.9481C395.464 36.2361 395.328 36.6361 395.328 37.1481V41.0001H394.212V34.5321ZM398.407 31.9161H399.523V37.5681L402.499 34.5321H403.927L401.443 37.1361L404.095 41.0001H402.775L400.627 37.8921L399.523 39.0561V41.0001H398.407V31.9161ZM405.098 34.5321H406.214V41.0001H405.098V34.5321ZM404.966 32.8041C404.966 32.5961 405.03 32.4281 405.158 32.3001C405.286 32.1721 405.454 32.1081 405.662 32.1081C405.87 32.1081 406.038 32.1721 406.166 32.3001C406.294 32.4281 406.358 32.5961 406.358 32.8041C406.358 33.0121 406.294 33.1801 406.166 33.3081C406.038 33.4361 405.87 33.5001 405.662 33.5001C405.454 33.5001 405.286 33.4361 405.158 33.3081C405.03 33.1801 404.966 33.0121 404.966 32.8041ZM407.946 34.5321H409.038V35.3241C409.23 35.0201 409.486 34.7881 409.806 34.6281C410.126 34.4681 410.486 34.3881 410.886 34.3881C411.342 34.3881 411.754 34.4961 412.122 34.7121C412.49 34.9201 412.778 35.2081 412.986 35.5761C413.202 35.9441 413.31 36.3561 413.31 36.8121V41.0001H412.182V37.1721C412.182 36.6441 412.038 36.2281 411.75 35.9241C411.47 35.6201 411.098 35.4681 410.634 35.4681C410.17 35.4681 409.79 35.6241 409.494 35.9361C409.206 36.2401 409.062 36.6521 409.062 37.1721V41.0001H407.946V34.5321ZM417.991 43.6401C417.311 43.6401 416.711 43.4841 416.191 43.1721C415.679 42.8681 415.315 42.4601 415.099 41.9481L416.143 41.4681C416.263 41.7881 416.483 42.0481 416.803 42.2481C417.123 42.4561 417.515 42.5601 417.979 42.5601C418.547 42.5601 419.019 42.3961 419.395 42.0681C419.771 41.7481 419.959 41.3001 419.959 40.7241V39.8241C419.719 40.1521 419.411 40.4041 419.035 40.5801C418.659 40.7561 418.251 40.8441 417.811 40.8441C417.211 40.8441 416.671 40.7041 416.191 40.4241C415.711 40.1361 415.331 39.7481 415.051 39.2601C414.779 38.7641 414.643 38.2161 414.643 37.6161C414.643 37.0161 414.779 36.4721 415.051 35.9841C415.323 35.4881 415.699 35.1001 416.179 34.8201C416.659 34.5321 417.199 34.3881 417.799 34.3881C418.247 34.3881 418.659 34.4801 419.035 34.6641C419.411 34.8401 419.731 35.0961 419.995 35.4321V34.5321H421.087V40.7241C421.087 41.2841 420.955 41.7841 420.691 42.2241C420.427 42.6641 420.059 43.0081 419.587 43.2561C419.115 43.5121 418.583 43.6401 417.991 43.6401ZM415.819 37.6161C415.819 38.0081 415.907 38.3681 416.083 38.6961C416.267 39.0241 416.519 39.2841 416.839 39.4761C417.159 39.6681 417.515 39.7641 417.907 39.7641C418.283 39.7641 418.627 39.6681 418.939 39.4761C419.259 39.2841 419.507 39.0241 419.683 38.6961C419.867 38.3681 419.959 38.0081 419.959 37.6161C419.959 37.2241 419.867 36.8641 419.683 36.5361C419.507 36.2081 419.259 35.9481 418.939 35.7561C418.627 35.5641 418.283 35.4681 417.907 35.4681C417.515 35.4681 417.159 35.5641 416.839 35.7561C416.527 35.9481 416.279 36.2081 416.095 36.5361C415.911 36.8641 415.819 37.2241 415.819 37.6161ZM425.023 32.0601H426.199V36.0441H430.675V32.0601H431.863V41.0001H430.675V37.1241H426.199V41.0001H425.023V32.0601ZM436.788 41.1441C436.172 41.1441 435.608 41.0001 435.096 40.7121C434.592 40.4161 434.192 40.0121 433.896 39.5001C433.6 38.9801 433.452 38.4001 433.452 37.7601C433.452 37.1281 433.596 36.5561 433.884 36.0441C434.18 35.5241 434.58 35.1201 435.084 34.8321C435.596 34.5361 436.164 34.3881 436.788 34.3881C437.404 34.3881 437.964 34.5361 438.468 34.8321C438.98 35.1201 439.38 35.5201 439.668 36.0321C439.964 36.5441 440.112 37.1201 440.112 37.7601C440.112 38.4081 439.964 38.9881 439.668 39.5001C439.372 40.0121 438.968 40.4161 438.456 40.7121C437.952 41.0001 437.396 41.1441 436.788 41.1441ZM434.628 37.7601C434.628 38.1921 434.72 38.5841 434.904 38.9361C435.096 39.2881 435.356 39.5641 435.684 39.7641C436.02 39.9641 436.388 40.0641 436.788 40.0641C437.18 40.0641 437.54 39.9641 437.868 39.7641C438.196 39.5641 438.452 39.2881 438.636 38.9361C438.828 38.5841 438.924 38.1921 438.924 37.7601C438.924 37.3281 438.828 36.9401 438.636 36.5961C438.452 36.2441 438.196 35.9681 437.868 35.7681C437.54 35.5681 437.18 35.4681 436.788 35.4681C436.388 35.4681 436.02 35.5681 435.684 35.7681C435.356 35.9681 435.096 36.2441 434.904 36.5961C434.72 36.9401 434.628 37.3281 434.628 37.7601ZM443.859 41.1441C443.395 41.1441 442.979 41.0361 442.611 40.8201C442.243 40.6041 441.955 40.3041 441.747 39.9201C441.539 39.5281 441.435 39.0801 441.435 38.5761V34.5321H442.551V38.4561C442.551 38.9361 442.695 39.3241 442.983 39.6201C443.271 39.9161 443.647 40.0641 444.111 40.0641C444.575 40.0641 444.951 39.9121 445.239 39.6081C445.527 39.2961 445.671 38.8801 445.671 38.3601V34.5321H446.799V41.0001H445.707V40.2081C445.515 40.5121 445.259 40.7441 444.939 40.9041C444.619 41.0641 444.259 41.1441 443.859 41.1441ZM448.528 34.5321H449.62V35.3001C449.956 34.7401 450.528 34.4601 451.336 34.4601H451.732V35.5161H451.168C450.704 35.5161 450.332 35.6601 450.052 35.9481C449.78 36.2361 449.644 36.6361 449.644 37.1481V41.0001H448.528V34.5321ZM455.039 41.1441C454.415 41.1441 453.863 40.9921 453.383 40.6881C452.903 40.3761 452.559 39.9561 452.351 39.4281L453.251 38.9721C453.435 39.3481 453.687 39.6441 454.007 39.8601C454.327 40.0761 454.675 40.1841 455.051 40.1841C455.411 40.1841 455.707 40.1001 455.939 39.9321C456.171 39.7641 456.287 39.5441 456.287 39.2721C456.287 39.0081 456.183 38.7961 455.975 38.6361C455.767 38.4681 455.543 38.3681 455.303 38.3361L454.331 38.2041C453.755 38.0601 453.323 37.8201 453.035 37.4841C452.747 37.1481 452.603 36.7521 452.603 36.2961C452.603 35.9201 452.699 35.5881 452.891 35.3001C453.091 35.0121 453.363 34.7881 453.707 34.6281C454.059 34.4681 454.447 34.3881 454.871 34.3881C455.431 34.3881 455.931 34.5281 456.371 34.8081C456.819 35.0881 457.139 35.4761 457.331 35.9721L456.443 36.4281C456.283 36.1001 456.059 35.8401 455.771 35.6481C455.491 35.4561 455.179 35.3601 454.835 35.3601C454.507 35.3601 454.243 35.4401 454.043 35.6001C453.843 35.7601 453.743 35.9681 453.743 36.2241C453.743 36.4881 453.835 36.7001 454.019 36.8601C454.211 37.0121 454.419 37.1081 454.643 37.1481L455.711 37.2921C456.247 37.4361 456.663 37.6841 456.959 38.0361C457.263 38.3801 457.415 38.7801 457.415 39.2361C457.415 39.6041 457.315 39.9321 457.115 40.2201C456.915 40.5081 456.635 40.7361 456.275 40.9041C455.915 41.0641 455.503 41.1441 455.039 41.1441Z" fill="white"/>
<path d="M155 72.0001C155.729 69.5001 158.828 64.9001 165.391 66.5001C173.594 68.5001 175.508 72.0001 178.789 66.5001C182.07 61.0001 186.172 59.0001 190 59.0001" stroke="url(#paint0_linear_702_500)"/>
<rect x="216" y="26.0001" width="1" height="48" rx="0.5" fill="#3D3D3D"/>
<defs>
<linearGradient id="paint0_linear_702_500" x1="189.727" y1="58.5001" x2="153.727" y2="62.4991" gradientUnits="userSpaceOnUse">
<stop stop-color="#C9FA75" stop-opacity="0"/>
<stop offset="0.338542" stop-color="#B4FF34"/>
<stop offset="1" stop-color="#C9FA75" stop-opacity="0"/>
</linearGradient>
</defs>
</svg>
