<svg width="40" height="40" viewBox="0 0 40 40" fill="none" xmlns="http://www.w3.org/2000/svg">
<path d="M27.2867 12.7133C26.8704 10.4751 25.8507 8.3931 24.3377 6.69203C22.8247 4.99097 20.8758 3.73546 18.7014 3.06104C16.527 2.38661 14.2096 2.31888 11.9996 2.86517C9.78948 3.41145 7.77058 4.55099 6.16078 6.16078C4.55099 7.77058 3.41145 9.78948 2.86517 11.9996C2.31888 14.2096 2.38661 16.527 3.06104 18.7014C3.73546 20.8758 4.99097 22.8247 6.69203 24.3377C8.3931 25.8507 10.4751 26.8704 12.7133 27.2867C13.1296 29.5249 14.1493 31.6069 15.6623 33.308C17.1753 35.009 19.1242 36.2645 21.2986 36.939C23.473 37.6134 25.7904 37.6811 28.0004 37.1348C30.2105 36.5886 32.2294 35.449 33.8392 33.8392C35.449 32.2294 36.5886 30.2105 37.1348 28.0004C37.6811 25.7904 37.6134 23.473 36.939 21.2986C36.2645 19.1242 35.009 17.1753 33.308 15.6623C31.6069 14.1493 29.5249 13.1296 27.2867 12.7133ZM5 15C5.00015 12.5653 5.88847 10.2143 7.49839 8.38782C9.10831 6.56136 11.3292 5.38494 13.7447 5.07918C16.1601 4.77341 18.6041 5.3593 20.6184 6.72697C22.6326 8.09464 24.0788 10.1501 24.6856 12.508C21.4824 12.5921 18.4336 13.9021 16.1678 16.1678C13.9021 18.4336 12.5921 21.4824 12.508 24.6856C10.3609 24.1299 8.45897 22.8776 7.10023 21.1247C5.74151 19.3719 5.00283 17.2178 5 15ZM25 35C22.7822 34.9972 20.6281 34.2585 18.8753 32.8998C17.1224 31.541 15.87 29.639 15.3144 27.492C18.5176 27.4079 21.5664 26.0979 23.8322 23.8322C26.0979 21.5664 27.4079 18.5176 27.492 15.3144C29.8499 15.9213 31.9054 17.3674 33.273 19.3817C34.6407 21.3959 35.2266 23.8399 34.9208 26.2554C34.615 28.6708 33.4386 30.8917 31.6122 32.5016C29.7857 34.1115 27.4347 34.9999 25 35Z" fill="white"/>
</svg>
