<svg width="433" height="87" viewBox="0 0 433 87" fill="none" xmlns="http://www.w3.org/2000/svg">
<rect x="0.677246" y="0.152344" width="431.478" height="86.2956" rx="13.8073" fill="#272727"/>
<path d="M14.4844 20.863C14.4844 16.097 18.348 12.2334 23.1139 12.2334L50.3799 12.2334C53.7984 12.2334 56.8947 14.2514 58.2749 17.379L68.1761 39.8158C69.1555 42.0352 69.1555 44.5644 68.1761 46.7838L58.2749 69.2207C56.8947 72.3483 53.7984 74.3663 50.3799 74.3663H23.1139C18.348 74.3663 14.4844 70.5027 14.4844 65.7367L14.4844 20.863Z" fill="white"/>
<path d="M28.4054 28.7373H29.2442L31.0771 35.3338L32.9515 28.7373H33.8317L35.6957 35.313L37.5286 28.7373H38.3674L36.1513 36.4521H35.2711L33.3864 29.8454L31.5017 36.4521H30.6215L28.4054 28.7373ZM41.3947 36.5764C40.8838 36.5764 40.4178 36.4521 39.9967 36.2036C39.5755 35.9482 39.2442 35.5995 39.0025 35.1577C38.7609 34.709 38.6401 34.2085 38.6401 33.6562C38.6401 33.1108 38.754 32.6206 38.9818 32.1857C39.2166 31.7439 39.5376 31.3987 39.9449 31.1501C40.3522 30.9016 40.8078 30.7773 41.3118 30.7773C41.8227 30.7773 42.2714 30.9016 42.658 31.1501C43.0446 31.3987 43.3415 31.7266 43.5486 32.1339C43.7626 32.5412 43.8696 32.9693 43.8696 33.418C43.8696 33.5906 43.8558 33.7563 43.8282 33.9151H39.4582C39.4651 34.3017 39.5583 34.6434 39.7378 34.9402C39.9242 35.2302 40.1624 35.4546 40.4523 35.6134C40.7492 35.7721 41.0633 35.8515 41.3947 35.8515C42.1195 35.8515 42.6856 35.5133 43.093 34.8367L43.7557 35.1888C43.5762 35.5823 43.2725 35.9137 42.8444 36.1829C42.4233 36.4452 41.94 36.5764 41.3947 36.5764ZM43.0308 33.1902C43.0308 32.8726 42.9514 32.5861 42.7926 32.3307C42.6408 32.0683 42.4337 31.8647 42.1713 31.7197C41.909 31.5747 41.6225 31.5022 41.3118 31.5022C41.0081 31.5022 40.7216 31.5713 40.4523 31.7093C40.19 31.8474 39.9691 32.0442 39.7896 32.2996C39.617 32.555 39.5134 32.8519 39.4789 33.1902H43.0308ZM47.745 36.5764C47.2272 36.5764 46.7612 36.4521 46.347 36.2036C45.9328 35.9482 45.6049 35.5995 45.3632 35.1577C45.1285 34.7159 45.0111 34.2223 45.0111 33.6769C45.0111 33.1315 45.1285 32.6379 45.3632 32.196C45.598 31.7542 45.9224 31.409 46.3366 31.1605C46.7578 30.9051 47.2272 30.7773 47.745 30.7773C48.173 30.7773 48.5596 30.8636 48.9048 31.0362C49.2569 31.2019 49.5468 31.4366 49.7747 31.7404V28.6131H50.5513V36.4521H49.7747V35.5512C49.5607 35.8757 49.2742 36.1277 48.9152 36.3072C48.5631 36.4867 48.173 36.5764 47.745 36.5764ZM45.8396 33.6769C45.8396 34.0773 45.9224 34.4397 46.0881 34.7642C46.2607 35.0818 46.4954 35.3338 46.7923 35.5202C47.0891 35.7066 47.4205 35.7998 47.7864 35.7998C48.1523 35.7998 48.4871 35.7066 48.7909 35.5202C49.0947 35.3338 49.3328 35.0783 49.5054 34.7539C49.6849 34.4294 49.7747 34.0704 49.7747 33.6769C49.7747 33.2834 49.6849 32.9244 49.5054 32.5999C49.3328 32.2754 49.0947 32.02 48.7909 31.8336C48.4871 31.6472 48.1523 31.554 47.7864 31.554C47.4205 31.554 47.0891 31.6472 46.7923 31.8336C46.4954 32.02 46.2607 32.2754 46.0881 32.5999C45.9224 32.9175 45.8396 33.2765 45.8396 33.6769Z" fill="#0B0B0B"/>
<path d="M29.0854 59.2487L32.5718 55.607C33.3197 54.8246 33.8662 54.232 34.2114 53.8293C34.5566 53.4151 34.8039 53.0584 34.9535 52.7592C35.1031 52.4486 35.1779 52.1322 35.1779 51.81C35.1779 51.2807 35.0111 50.8607 34.6774 50.5501C34.3437 50.2279 33.9065 50.0668 33.3657 50.0668C32.8019 50.0668 32.3186 50.2279 31.9159 50.5501C31.5247 50.8607 31.2371 51.321 31.053 51.9308L28.9991 51.2922C29.1372 50.6249 29.4133 50.0438 29.8276 49.549C30.2533 49.0428 30.7768 48.6516 31.3981 48.3754C32.0195 48.0993 32.6753 47.9612 33.3657 47.9612C34.1826 47.9612 34.9075 48.1165 35.5403 48.4272C36.1732 48.7264 36.6622 49.1521 37.0074 49.7044C37.3641 50.2452 37.5424 50.8665 37.5424 51.5684C37.5424 52.2587 37.3525 52.9318 36.9728 53.5877C36.6046 54.232 36.0006 54.9914 35.1606 55.8659L32.1403 59.0416H37.715V61.0264H29.0854V59.2487ZM41.5755 50.1704H39.0902V48.1683H43.9227V61.0264H41.5755V50.1704Z" fill="#0B0B0B"/>
<path d="M214.989 61.9384C214.378 61.9384 213.793 61.8244 213.234 61.5966C212.675 61.3688 212.199 61.0426 211.805 60.618C211.412 60.1935 211.142 59.6964 210.997 59.1268L212.83 58.4744C213.006 58.9819 213.286 59.3702 213.669 59.6394C214.052 59.8983 214.492 60.0278 214.989 60.0278C215.58 60.0278 216.061 59.8414 216.434 59.4686C216.807 59.0854 216.993 58.5935 216.993 57.9929C216.993 57.3923 216.807 56.9056 216.434 56.5328C216.061 56.16 215.58 55.9736 214.989 55.9736C214.575 55.9736 214.208 56.0668 213.886 56.2532C213.565 56.4292 213.332 56.6778 213.187 56.9988L211.463 56.6105L212.38 50.1797H218.686V51.966H213.886L213.529 54.6222C213.995 54.3219 214.601 54.1717 215.347 54.1717C216.092 54.1717 216.75 54.3374 217.319 54.6688C217.899 54.9898 218.345 55.4403 218.655 56.0202C218.966 56.6001 219.121 57.2577 219.121 57.9929C219.121 58.7385 218.94 59.4116 218.578 60.0122C218.225 60.6129 217.734 61.084 217.102 61.4258C216.47 61.7675 215.766 61.9384 214.989 61.9384ZM220.88 49.9933H222.915V54.1407C223.153 53.8093 223.469 53.5556 223.862 53.3796C224.256 53.2035 224.696 53.1155 225.183 53.1155C225.794 53.1155 226.343 53.2501 226.829 53.5194C227.316 53.7886 227.694 54.1666 227.963 54.6533C228.232 55.14 228.367 55.694 228.367 56.3153V61.752H226.332V56.7969C226.332 56.248 226.172 55.8079 225.851 55.4765C225.54 55.1452 225.131 54.9795 224.624 54.9795C224.127 54.9795 223.717 55.1452 223.396 55.4765C223.075 55.8079 222.915 56.248 222.915 56.7969V61.752H220.88V49.9933ZM236.452 61.9384C235.821 61.9384 235.22 61.8193 234.65 61.5811C234.091 61.3429 233.61 61.0064 233.206 60.5714C232.812 60.1365 232.543 59.6343 232.398 59.0647L234.247 58.4123C234.433 58.9301 234.718 59.3288 235.101 59.6084C235.484 59.888 235.934 60.0278 236.452 60.0278C237.074 60.0278 237.571 59.8517 237.943 59.4996C238.327 59.1476 238.518 58.6712 238.518 58.0706C238.518 57.4803 238.327 57.0143 237.943 56.6726C237.571 56.3205 237.068 56.1445 236.437 56.1445C236.002 56.1445 235.608 56.2273 235.256 56.393L234.775 55.3833L237.773 51.966H233.05V50.1797H240.149V51.8418L237.773 54.6222C238.642 54.7568 239.336 55.1296 239.854 55.7406C240.372 56.3412 240.631 57.0972 240.631 58.0084C240.631 58.7437 240.449 59.4116 240.087 60.0122C239.725 60.6129 239.222 61.084 238.58 61.4258C237.949 61.7675 237.239 61.9384 236.452 61.9384ZM246.896 61.9384C245.984 61.9384 245.177 61.6898 244.472 61.1928C243.779 60.6957 243.235 59.9967 242.841 59.0958C242.458 58.1845 242.267 57.1386 242.267 55.9581C242.267 54.7775 242.458 53.7368 242.841 52.8359C243.235 51.935 243.779 51.236 244.472 50.7389C245.166 50.2418 245.969 49.9933 246.88 49.9933C247.802 49.9933 248.615 50.2418 249.319 50.7389C250.023 51.236 250.567 51.935 250.95 52.8359C251.343 53.7368 251.54 54.7775 251.54 55.9581C251.54 57.1386 251.343 58.1845 250.95 59.0958C250.567 59.9967 250.023 60.6957 249.319 61.1928C248.625 61.6898 247.817 61.9384 246.896 61.9384ZM244.379 55.9581C244.379 57.2111 244.602 58.2 245.047 58.9249C245.492 59.6498 246.109 60.0122 246.896 60.0122C247.683 60.0122 248.299 59.655 248.744 58.9404C249.2 58.2156 249.428 57.2214 249.428 55.9581C249.428 54.7051 249.2 53.7213 248.744 53.0068C248.299 52.2819 247.677 51.9194 246.88 51.9194C246.093 51.9194 245.477 52.2767 245.032 52.9912C244.597 53.7057 244.379 54.6947 244.379 55.9581ZM253.342 53.3019H255.253V54.3581C255.47 53.9543 255.781 53.6488 256.185 53.4417C256.599 53.2242 257.075 53.1155 257.614 53.1155C258.173 53.1155 258.685 53.2398 259.151 53.4883C259.617 53.7265 259.975 54.0578 260.223 54.4824C260.503 54.0268 260.865 53.685 261.311 53.4572C261.766 53.2294 262.279 53.1155 262.848 53.1155C263.439 53.1155 263.972 53.2501 264.448 53.5194C264.925 53.7886 265.297 54.1666 265.567 54.6533C265.836 55.14 265.971 55.694 265.971 56.3153V61.752H263.936V56.7969C263.936 56.2377 263.786 55.7976 263.485 55.4765C263.195 55.1452 262.802 54.9795 262.305 54.9795C261.818 54.9795 261.425 55.1452 261.124 55.4765C260.824 55.8079 260.674 56.248 260.674 56.7969V61.752H258.639V56.7969C258.639 56.2377 258.489 55.7976 258.188 55.4765C257.898 55.1452 257.505 54.9795 257.008 54.9795C256.521 54.9795 256.128 55.1452 255.827 55.4765C255.527 55.8079 255.377 56.248 255.377 56.7969V61.752H253.342V53.3019Z" fill="white"/>
<path d="M97.627 61.9384C97.0161 61.9384 96.431 61.8244 95.8718 61.5966C95.3126 61.3688 94.8362 61.0426 94.4427 60.618C94.0492 60.1935 93.78 59.6964 93.635 59.1268L95.4679 58.4744C95.644 58.9819 95.9236 59.3702 96.3067 59.6394C96.6899 59.8983 97.13 60.0278 97.627 60.0278C98.2173 60.0278 98.6988 59.8414 99.0716 59.4686C99.4444 59.0854 99.6308 58.5935 99.6308 57.9929C99.6308 57.3923 99.4444 56.9056 99.0716 56.5328C98.6988 56.16 98.2173 55.9736 97.627 55.9736C97.2128 55.9736 96.8452 56.0668 96.5242 56.2532C96.2032 56.4292 95.9702 56.6778 95.8252 56.9988L94.101 56.6105L95.0175 50.1797H101.324V51.966H96.5242L96.1669 54.6222C96.6329 54.3219 97.2387 54.1717 97.9843 54.1717C98.7299 54.1717 99.3875 54.3374 99.957 54.6688C100.537 54.9898 100.982 55.4403 101.293 56.0202C101.604 56.6001 101.759 57.2577 101.759 57.9929C101.759 58.7385 101.578 59.4116 101.215 60.0122C100.863 60.6129 100.371 61.084 99.7396 61.4258C99.1079 61.7675 98.4037 61.9384 97.627 61.9384ZM107.261 61.9384C106.485 61.9384 105.791 61.7727 105.18 61.4413C104.569 61.1099 104.092 60.6543 103.751 60.0744C103.409 59.4841 103.238 58.8265 103.238 58.1016C103.238 57.4907 103.342 56.9056 103.549 56.3464C103.756 55.7768 104.144 55.1193 104.714 54.3737L107.945 50.1797H110.461L107.153 54.4203C107.36 54.3996 107.515 54.3892 107.619 54.3892C108.312 54.3892 108.934 54.5497 109.483 54.8707C110.042 55.1918 110.477 55.6319 110.787 56.1911C111.108 56.7399 111.269 57.3612 111.269 58.055C111.269 58.7903 111.098 59.453 110.756 60.0433C110.415 60.6336 109.938 61.0996 109.327 61.4413C108.716 61.7727 108.028 61.9384 107.261 61.9384ZM105.351 58.0861C105.351 58.6557 105.532 59.1217 105.894 59.4841C106.267 59.8465 106.723 60.0278 107.261 60.0278C107.8 60.0278 108.25 59.8465 108.613 59.4841C108.975 59.1217 109.156 58.6557 109.156 58.0861C109.156 57.5166 108.975 57.0506 108.613 56.6881C108.25 56.3257 107.8 56.1445 107.261 56.1445C106.723 56.1445 106.267 56.3257 105.894 56.6881C105.532 57.0506 105.351 57.5166 105.351 58.0861ZM123.673 50.1797H125.848L116.466 61.752H114.291L123.673 50.1797ZM113.048 53.0223C113.048 52.4734 113.183 51.966 113.452 51.5C113.721 51.034 114.089 50.6664 114.555 50.3972C115.021 50.1279 115.539 49.9933 116.108 49.9933C116.668 49.9933 117.175 50.1279 117.631 50.3972C118.097 50.6664 118.464 51.034 118.734 51.5C119.003 51.966 119.137 52.4734 119.137 53.0223C119.137 53.5711 119.003 54.0785 118.734 54.5445C118.464 55.0105 118.097 55.3782 117.631 55.6474C117.175 55.9166 116.668 56.0513 116.108 56.0513C115.539 56.0513 115.021 55.9166 114.555 55.6474C114.089 55.3782 113.721 55.0105 113.452 54.5445C113.183 54.0785 113.048 53.5711 113.048 53.0223ZM114.679 53.0223C114.679 53.4158 114.809 53.7575 115.068 54.0475C115.337 54.3374 115.684 54.4824 116.108 54.4824C116.533 54.4824 116.87 54.3374 117.118 54.0475C117.377 53.7575 117.506 53.4158 117.506 53.0223C117.506 52.6288 117.377 52.287 117.118 51.9971C116.87 51.6968 116.533 51.5466 116.108 51.5466C115.684 51.5466 115.337 51.6968 115.068 51.9971C114.809 52.287 114.679 52.6288 114.679 53.0223ZM120.939 58.9094C120.939 58.3605 121.074 57.8531 121.343 57.3871C121.612 56.9211 121.98 56.5535 122.446 56.2843C122.912 56.015 123.425 55.8804 123.984 55.8804C124.543 55.8804 125.056 56.015 125.522 56.2843C125.988 56.5535 126.355 56.9211 126.624 57.3871C126.894 57.8531 127.028 58.3605 127.028 58.9094C127.028 59.4582 126.894 59.9656 126.624 60.4316C126.355 60.8976 125.988 61.2652 125.522 61.5345C125.056 61.8037 124.543 61.9384 123.984 61.9384C123.425 61.9384 122.912 61.8037 122.446 61.5345C121.98 61.2652 121.612 60.8976 121.343 60.4316C121.074 59.9656 120.939 59.4582 120.939 58.9094ZM122.57 58.9094C122.57 59.3029 122.7 59.6446 122.959 59.9346C123.217 60.2245 123.559 60.3695 123.984 60.3695C124.408 60.3695 124.75 60.2245 125.009 59.9346C125.268 59.6446 125.397 59.3029 125.397 58.9094C125.397 58.5159 125.268 58.1741 125.009 57.8842C124.75 57.5839 124.408 57.4337 123.984 57.4337C123.559 57.4337 123.217 57.5839 122.959 57.8842C122.7 58.1741 122.57 58.5159 122.57 58.9094Z" fill="#FA7A68"/>
<path d="M328.331 61.9384C327.513 61.9384 326.793 61.783 326.172 61.4724C325.55 61.1513 325.069 60.7268 324.727 60.1986C324.385 59.6601 324.215 59.0647 324.215 58.4123C324.215 57.7806 324.36 57.2266 324.649 56.7503C324.95 56.2739 325.38 55.8908 325.939 55.6008C325.545 55.3626 325.235 55.0261 325.007 54.5911C324.789 54.1459 324.681 53.6643 324.681 53.1466C324.681 52.5459 324.836 52.0075 325.147 51.5311C325.457 51.0547 325.887 50.682 326.436 50.4127C326.995 50.1331 327.627 49.9933 328.331 49.9933C329.025 49.9933 329.646 50.1279 330.195 50.3972C330.754 50.6664 331.189 51.0444 331.5 51.5311C331.81 52.0075 331.966 52.5459 331.966 53.1466C331.966 53.654 331.857 54.1251 331.639 54.5601C331.422 54.995 331.116 55.3419 330.723 55.6008C331.282 55.9011 331.707 56.2894 331.997 56.7658C332.297 57.2421 332.447 57.7962 332.447 58.4278C332.447 59.0699 332.276 59.6601 331.935 60.1986C331.593 60.7268 331.106 61.1513 330.474 61.4724C329.853 61.783 329.139 61.9384 328.331 61.9384ZM326.343 58.3502C326.343 58.8887 326.524 59.3236 326.886 59.655C327.249 59.9863 327.73 60.152 328.331 60.152C328.931 60.152 329.413 59.9863 329.775 59.655C330.148 59.3236 330.335 58.8887 330.335 58.3502C330.335 57.8117 330.148 57.3819 329.775 57.0609C329.413 56.7295 328.931 56.5639 328.331 56.5639C327.73 56.5639 327.249 56.7295 326.886 57.0609C326.524 57.3819 326.343 57.8117 326.343 58.3502ZM326.793 53.2708C326.793 53.7057 326.933 54.0682 327.212 54.3581C327.502 54.6377 327.875 54.7775 328.331 54.7775C328.776 54.7775 329.139 54.6377 329.418 54.3581C329.708 54.0682 329.853 53.7057 329.853 53.2708C329.853 52.8359 329.708 52.4786 329.418 52.199C329.139 51.9194 328.776 51.7796 328.331 51.7796C327.875 51.7796 327.502 51.9194 327.212 52.199C326.933 52.4786 326.793 52.8359 326.793 53.2708ZM334.184 49.9933H336.219V54.1407C336.457 53.8093 336.773 53.5556 337.167 53.3796C337.56 53.2035 338 53.1155 338.487 53.1155C339.098 53.1155 339.647 53.2501 340.134 53.5194C340.62 53.7886 340.998 54.1666 341.267 54.6533C341.537 55.14 341.671 55.694 341.671 56.3153V61.752H339.636V56.7969C339.636 56.248 339.476 55.8079 339.155 55.4765C338.844 55.1452 338.435 54.9795 337.928 54.9795C337.431 54.9795 337.022 55.1452 336.701 55.4765C336.38 55.8079 336.219 56.248 336.219 56.7969V61.752H334.184V49.9933ZM351.077 59.2045H345.764V57.4337L350.953 50.1797H353.158V57.4337H354.851V59.2045H353.158V61.752H351.077V59.2045ZM351.077 57.4337V52.7893L347.846 57.4337H351.077ZM359.982 61.9384C359.371 61.9384 358.786 61.8244 358.227 61.5966C357.668 61.3688 357.191 61.0426 356.798 60.618C356.404 60.1935 356.135 59.6964 355.99 59.1268L357.823 58.4744C357.999 58.9819 358.278 59.3702 358.662 59.6394C359.045 59.8983 359.485 60.0278 359.982 60.0278C360.572 60.0278 361.054 59.8414 361.427 59.4686C361.799 59.0854 361.986 58.5935 361.986 57.9929C361.986 57.3923 361.799 56.9056 361.427 56.5328C361.054 56.16 360.572 55.9736 359.982 55.9736C359.568 55.9736 359.2 56.0668 358.879 56.2532C358.558 56.4292 358.325 56.6778 358.18 56.9988L356.456 56.6105L357.372 50.1797L363.679 50.1797V51.966L358.879 51.966L358.522 54.6222C358.988 54.3219 359.594 54.1717 360.339 54.1717C361.085 54.1717 361.742 54.3374 362.312 54.6688C362.892 54.9898 363.337 55.4403 363.648 56.0202C363.958 56.6001 364.114 57.2577 364.114 57.9929C364.114 58.7385 363.933 59.4116 363.57 60.0122C363.218 60.6129 362.726 61.084 362.094 61.4258C361.463 61.7675 360.759 61.9384 359.982 61.9384ZM365.873 53.3019H367.783V54.3581C368.001 53.9543 368.311 53.6488 368.715 53.4417C369.129 53.2242 369.606 53.1155 370.144 53.1155C370.704 53.1155 371.216 53.2398 371.682 53.4883C372.148 53.7265 372.505 54.0578 372.754 54.4824C373.033 54.0268 373.396 53.685 373.841 53.4572C374.297 53.2294 374.809 53.1155 375.379 53.1155C375.969 53.1155 376.503 53.2501 376.979 53.5194C377.455 53.7886 377.828 54.1666 378.097 54.6533C378.367 55.14 378.501 55.694 378.501 56.3153V61.752H376.466V56.7969C376.466 56.2377 376.316 55.7976 376.016 55.4765C375.726 55.1452 375.332 54.9795 374.835 54.9795C374.349 54.9795 373.955 55.1452 373.655 55.4765C373.355 55.8079 373.204 56.248 373.204 56.7969V61.752H371.17V56.7969C371.17 56.2377 371.019 55.7976 370.719 55.4765C370.429 55.1452 370.036 54.9795 369.539 54.9795C369.052 54.9795 368.658 55.1452 368.358 55.4765C368.058 55.8079 367.908 56.248 367.908 56.7969V61.752H365.873V53.3019Z" fill="white"/>
<path d="M93.8732 27.874H96.5967C97.1075 27.874 97.5563 27.9707 97.9429 28.164C98.3364 28.3573 98.6401 28.6334 98.8542 28.9924C99.0682 29.3514 99.1752 29.7725 99.1752 30.2558C99.1752 30.7391 99.0682 31.1602 98.8542 31.5192C98.6401 31.8782 98.3364 32.1543 97.9429 32.3476C97.5563 32.5409 97.1075 32.6376 96.5967 32.6376H94.888V35.5889H93.8732V27.874ZM96.6277 31.7056C97.0903 31.7056 97.4596 31.5744 97.7358 31.3121C98.0119 31.0497 98.15 30.6976 98.15 30.2558C98.15 29.814 98.0119 29.4619 97.7358 29.1995C97.4596 28.9372 97.0903 28.806 96.6277 28.806H94.888V31.7056H96.6277ZM100.434 30.0073H101.376V30.67C101.666 30.1868 102.16 29.9451 102.857 29.9451H103.199V30.8564H102.712C102.311 30.8564 101.99 30.9807 101.749 31.2292C101.514 31.4777 101.397 31.8229 101.397 32.2648V35.5889H100.434V30.0073ZM106.705 35.7131C106.173 35.7131 105.687 35.5889 105.245 35.3403C104.81 35.0849 104.465 34.7363 104.209 34.2944C103.954 33.8457 103.826 33.3452 103.826 32.7929C103.826 32.2475 103.951 31.7539 104.199 31.3121C104.454 30.8633 104.8 30.5147 105.235 30.2662C105.676 30.0107 106.167 29.883 106.705 29.883C107.237 29.883 107.72 30.0107 108.155 30.2662C108.597 30.5147 108.942 30.8599 109.19 31.3017C109.446 31.7435 109.574 32.2406 109.574 32.7929C109.574 33.3521 109.446 33.8526 109.19 34.2944C108.935 34.7363 108.586 35.0849 108.144 35.3403C107.71 35.5889 107.23 35.7131 106.705 35.7131ZM104.841 32.7929C104.841 33.1657 104.92 33.504 105.079 33.8077C105.245 34.1115 105.469 34.3497 105.752 34.5223C106.042 34.6948 106.36 34.7811 106.705 34.7811C107.043 34.7811 107.354 34.6948 107.637 34.5223C107.92 34.3497 108.141 34.1115 108.3 33.8077C108.465 33.504 108.548 33.1657 108.548 32.7929C108.548 32.4201 108.465 32.0853 108.3 31.7884C108.141 31.4846 107.92 31.2465 107.637 31.0739C107.354 30.9013 107.043 30.815 106.705 30.815C106.36 30.815 106.042 30.9013 105.752 31.0739C105.469 31.2465 105.245 31.4846 105.079 31.7884C104.92 32.0853 104.841 32.4201 104.841 32.7929ZM113.367 35.7131C112.849 35.7131 112.379 35.5854 111.958 35.33C111.537 35.0745 111.206 34.7259 110.964 34.2841C110.723 33.8422 110.602 33.3486 110.602 32.8032C110.602 32.2579 110.723 31.7642 110.964 31.3224C111.206 30.8737 111.537 30.5216 111.958 30.2662C112.379 30.0107 112.849 29.883 113.367 29.883C113.774 29.883 114.14 29.9589 114.464 30.1108C114.796 30.2627 115.072 30.4767 115.293 30.7529V27.7498H116.266V35.5889H115.324V34.7708C115.117 35.0676 114.841 35.2989 114.495 35.4646C114.157 35.6303 113.781 35.7131 113.367 35.7131ZM111.617 32.8032C111.617 33.176 111.696 33.5143 111.855 33.8181C112.014 34.1149 112.231 34.3497 112.507 34.5223C112.79 34.6948 113.104 34.7811 113.45 34.7811C113.795 34.7811 114.105 34.6948 114.382 34.5223C114.665 34.3497 114.886 34.1149 115.044 33.8181C115.21 33.5143 115.293 33.176 115.293 32.8032C115.293 32.4304 115.21 32.0922 115.044 31.7884C114.886 31.4846 114.665 31.2465 114.382 31.0739C114.105 30.9013 113.795 30.815 113.45 30.815C113.104 30.815 112.79 30.9013 112.507 31.0739C112.231 31.2465 112.014 31.4846 111.855 31.7884C111.696 32.0922 111.617 32.4304 111.617 32.8032ZM119.735 35.7131C119.334 35.7131 118.975 35.6199 118.658 35.4335C118.34 35.2471 118.092 34.9882 117.912 34.6569C117.733 34.3186 117.643 33.932 117.643 33.4971V30.0073H118.606V33.3935C118.606 33.8077 118.73 34.1426 118.979 34.398C119.227 34.6534 119.552 34.7811 119.952 34.7811C120.353 34.7811 120.677 34.65 120.926 34.3876C121.174 34.1184 121.298 33.7594 121.298 33.3107V30.0073H122.272V35.5889H121.33V34.9054C121.164 35.1677 120.943 35.368 120.667 35.506C120.391 35.6441 120.08 35.7131 119.735 35.7131ZM126.353 35.7131C125.807 35.7131 125.317 35.5854 124.882 35.33C124.447 35.0745 124.109 34.7259 123.867 34.2841C123.626 33.8353 123.505 33.3383 123.505 32.7929C123.505 32.2406 123.626 31.7435 123.867 31.3017C124.109 30.8599 124.444 30.5147 124.872 30.2662C125.307 30.0107 125.8 29.883 126.353 29.883C126.891 29.883 127.381 30.0245 127.823 30.3076C128.272 30.5837 128.59 30.9427 128.776 31.3845L127.906 31.7988C127.775 31.5019 127.568 31.2637 127.285 31.0842C127.009 30.9047 126.698 30.815 126.353 30.815C126.014 30.815 125.704 30.9013 125.421 31.0739C125.145 31.2465 124.927 31.4846 124.768 31.7884C124.61 32.0853 124.53 32.4235 124.53 32.8032C124.53 33.176 124.61 33.5143 124.768 33.8181C124.934 34.1149 125.155 34.3497 125.431 34.5223C125.707 34.6948 126.014 34.7811 126.353 34.7811C126.705 34.7811 127.019 34.6914 127.295 34.5119C127.571 34.3324 127.775 34.0873 127.906 33.7767L128.776 34.2116C128.596 34.6465 128.282 35.0055 127.834 35.2886C127.385 35.5716 126.891 35.7131 126.353 35.7131ZM132.271 35.651C131.726 35.651 131.305 35.4991 131.008 35.1954C130.718 34.8847 130.573 34.4429 130.573 33.8699V30.9289H129.558V30.0073H129.765C130.014 30.0073 130.211 29.9348 130.356 29.7898C130.5 29.6379 130.573 29.4343 130.573 29.1788V28.7232H131.536V30.0073H132.789V30.9289H131.536V33.8388C131.536 34.4601 131.847 34.7708 132.468 34.7708C132.599 34.7708 132.727 34.7604 132.851 34.7397V35.5992C132.706 35.6337 132.513 35.651 132.271 35.651ZM134.109 30.0073H135.072V35.5889H134.109V30.0073ZM133.995 28.5161C133.995 28.3366 134.051 28.1916 134.161 28.0811C134.271 27.9707 134.416 27.9155 134.596 27.9155C134.775 27.9155 134.92 27.9707 135.031 28.0811C135.141 28.1916 135.197 28.3366 135.197 28.5161C135.197 28.6956 135.141 28.8405 135.031 28.951C134.92 29.0615 134.775 29.1167 134.596 29.1167C134.416 29.1167 134.271 29.0615 134.161 28.951C134.051 28.8405 133.995 28.6956 133.995 28.5161ZM135.935 30.0073L137.012 30.0073L138.576 34.2323L140.15 30.0073H141.227L139.031 35.5889H138.12L135.935 30.0073ZM142.088 30.0073H143.051V35.5889H142.088V30.0073ZM141.974 28.5161C141.974 28.3366 142.03 28.1916 142.14 28.0811C142.25 27.9707 142.395 27.9155 142.575 27.9155C142.754 27.9155 142.899 27.9707 143.01 28.0811C143.12 28.1916 143.176 28.3366 143.176 28.5161C143.176 28.6956 143.12 28.8405 143.01 28.951C142.899 29.0615 142.754 29.1167 142.575 29.1167C142.395 29.1167 142.25 29.0615 142.14 28.951C142.03 28.8405 141.974 28.6956 141.974 28.5161ZM146.813 35.651C146.268 35.651 145.847 35.4991 145.55 35.1954C145.26 34.8847 145.115 34.4429 145.115 33.8699V30.9289H144.1V30.0073H144.307C144.556 30.0073 144.753 29.9348 144.898 29.7898C145.043 29.6379 145.115 29.4343 145.115 29.1788V28.7232H146.078V30.0073H147.331V30.9289H146.078V33.8388C146.078 34.4601 146.389 34.7708 147.01 34.7708C147.141 34.7708 147.269 34.7604 147.393 34.7397V35.5992C147.248 35.6337 147.055 35.651 146.813 35.651ZM150.236 35.5785L148.02 30.0073H149.066L150.764 34.3669L152.452 30.0073H153.518L150.433 37.66H149.366L150.236 35.5785Z" fill="white"/>
<path d="M211.235 27.874H213.958C214.469 27.874 214.918 27.9707 215.305 28.164C215.698 28.3573 216.002 28.6334 216.216 28.9924C216.43 29.3514 216.537 29.7725 216.537 30.2558C216.537 30.7391 216.43 31.1602 216.216 31.5192C216.002 31.8782 215.698 32.1543 215.305 32.3476C214.918 32.5409 214.469 32.6376 213.958 32.6376H212.25V35.5889H211.235V27.874ZM213.99 31.7056C214.452 31.7056 214.821 31.5744 215.098 31.3121C215.374 31.0497 215.512 30.6976 215.512 30.2558C215.512 29.814 215.374 29.4619 215.098 29.1995C214.821 28.9372 214.452 28.806 213.99 28.806H212.25V31.7056H213.99ZM217.796 30.0073H218.738V30.67C219.028 30.1868 219.521 29.9451 220.219 29.9451H220.56V30.8564H220.074C219.673 30.8564 219.352 30.9807 219.111 31.2292C218.876 31.4777 218.759 31.8229 218.759 32.2648V35.5889H217.796V30.0073ZM224.067 35.7131C223.535 35.7131 223.049 35.5889 222.607 35.3403C222.172 35.0849 221.827 34.7363 221.571 34.2944C221.316 33.8457 221.188 33.3452 221.188 32.7929C221.188 32.2475 221.312 31.7539 221.561 31.3121C221.816 30.8633 222.161 30.5147 222.596 30.2662C223.038 30.0107 223.528 29.883 224.067 29.883C224.598 29.883 225.082 30.0107 225.517 30.2662C225.958 30.5147 226.304 30.8599 226.552 31.3017C226.808 31.7435 226.935 32.2406 226.935 32.7929C226.935 33.3521 226.808 33.8526 226.552 34.2944C226.297 34.7363 225.948 35.0849 225.506 35.3403C225.071 35.5889 224.592 35.7131 224.067 35.7131ZM222.203 32.7929C222.203 33.1657 222.282 33.504 222.441 33.8077C222.607 34.1115 222.831 34.3497 223.114 34.5223C223.404 34.6948 223.722 34.7811 224.067 34.7811C224.405 34.7811 224.716 34.6948 224.999 34.5223C225.282 34.3497 225.503 34.1115 225.662 33.8077C225.827 33.504 225.91 33.1657 225.91 32.7929C225.91 32.4201 225.827 32.0853 225.662 31.7884C225.503 31.4846 225.282 31.2465 224.999 31.0739C224.716 30.9013 224.405 30.815 224.067 30.815C223.722 30.815 223.404 30.9013 223.114 31.0739C222.831 31.2465 222.607 31.4846 222.441 31.7884C222.282 32.0853 222.203 32.4201 222.203 32.7929ZM230.729 35.7131C230.211 35.7131 229.741 35.5854 229.32 35.33C228.899 35.0745 228.568 34.7259 228.326 34.2841C228.084 33.8422 227.964 33.3486 227.964 32.8032C227.964 32.2579 228.084 31.7642 228.326 31.3224C228.568 30.8737 228.899 30.5216 229.32 30.2662C229.741 30.0107 230.211 29.883 230.729 29.883C231.136 29.883 231.502 29.9589 231.826 30.1108C232.158 30.2627 232.434 30.4767 232.655 30.7529V27.7498H233.628V35.5889H232.686V34.7708C232.479 35.0676 232.202 35.2989 231.857 35.4646C231.519 35.6303 231.143 35.7131 230.729 35.7131ZM228.978 32.8032C228.978 33.176 229.058 33.5143 229.217 33.8181C229.375 34.1149 229.593 34.3497 229.869 34.5223C230.152 34.6948 230.466 34.7811 230.811 34.7811C231.157 34.7811 231.467 34.6948 231.743 34.5223C232.026 34.3497 232.247 34.1149 232.406 33.8181C232.572 33.5143 232.655 33.176 232.655 32.8032C232.655 32.4304 232.572 32.0922 232.406 31.7884C232.247 31.4846 232.026 31.2465 231.743 31.0739C231.467 30.9013 231.157 30.815 230.811 30.815C230.466 30.815 230.152 30.9013 229.869 31.0739C229.593 31.2465 229.375 31.4846 229.217 31.7884C229.058 32.0922 228.978 32.4304 228.978 32.8032ZM237.097 35.7131C236.696 35.7131 236.337 35.6199 236.02 35.4335C235.702 35.2471 235.454 34.9882 235.274 34.6569C235.095 34.3186 235.005 33.932 235.005 33.4971V30.0073H235.968V33.3935C235.968 33.8077 236.092 34.1426 236.341 34.398C236.589 34.6534 236.914 34.7811 237.314 34.7811C237.714 34.7811 238.039 34.65 238.287 34.3876C238.536 34.1184 238.66 33.7594 238.66 33.3107V30.0073H239.634V35.5889H238.691V34.9054C238.526 35.1677 238.305 35.368 238.029 35.506C237.752 35.6441 237.442 35.7131 237.097 35.7131ZM243.715 35.7131C243.169 35.7131 242.679 35.5854 242.244 35.33C241.809 35.0745 241.471 34.7259 241.229 34.2841C240.988 33.8353 240.867 33.3383 240.867 32.7929C240.867 32.2406 240.988 31.7435 241.229 31.3017C241.471 30.8599 241.806 30.5147 242.234 30.2662C242.669 30.0107 243.162 29.883 243.715 29.883C244.253 29.883 244.743 30.0245 245.185 30.3076C245.634 30.5837 245.951 30.9427 246.138 31.3845L245.268 31.7988C245.137 31.5019 244.93 31.2637 244.647 31.0842C244.37 30.9047 244.06 30.815 243.715 30.815C243.376 30.815 243.066 30.9013 242.783 31.0739C242.506 31.2465 242.289 31.4846 242.13 31.7884C241.971 32.0853 241.892 32.4235 241.892 32.8032C241.892 33.176 241.971 33.5143 242.13 33.8181C242.296 34.1149 242.517 34.3497 242.793 34.5223C243.069 34.6948 243.376 34.7811 243.715 34.7811C244.067 34.7811 244.381 34.6914 244.657 34.5119C244.933 34.3324 245.137 34.0873 245.268 33.7767L246.138 34.2116C245.958 34.6465 245.644 35.0055 245.195 35.2886C244.747 35.5716 244.253 35.7131 243.715 35.7131ZM249.633 35.651C249.088 35.651 248.667 35.4991 248.37 35.1954C248.08 34.8847 247.935 34.4429 247.935 33.8699V30.9289H246.92V30.0073H247.127C247.376 30.0073 247.572 29.9348 247.717 29.7898C247.862 29.6379 247.935 29.4343 247.935 29.1788V28.7232H248.898V30.0073H250.151V30.9289H248.898V33.8388C248.898 34.4601 249.209 34.7708 249.83 34.7708C249.961 34.7708 250.089 34.7604 250.213 34.7397V35.5992C250.068 35.6337 249.875 35.651 249.633 35.651ZM251.471 30.0073H252.434V35.5889H251.471V30.0073ZM251.357 28.5161C251.357 28.3366 251.412 28.1916 251.523 28.0811C251.633 27.9707 251.778 27.9155 251.958 27.9155C252.137 27.9155 252.282 27.9707 252.393 28.0811C252.503 28.1916 252.558 28.3366 252.558 28.5161C252.558 28.6956 252.503 28.8405 252.393 28.951C252.282 29.0615 252.137 29.1167 251.958 29.1167C251.778 29.1167 251.633 29.0615 251.523 28.951C251.412 28.8405 251.357 28.6956 251.357 28.5161ZM253.297 30.0073L254.374 30.0073L255.937 34.2323L257.511 30.0073H258.588L256.393 35.5889H255.482L253.297 30.0073ZM261.917 35.7131C261.392 35.7131 260.916 35.5854 260.488 35.33C260.06 35.0745 259.725 34.7259 259.483 34.2841C259.242 33.8353 259.121 33.3348 259.121 32.7825C259.121 32.2302 259.238 31.7332 259.473 31.2913C259.715 30.8495 260.039 30.5043 260.447 30.2558C260.861 30.0073 261.323 29.883 261.834 29.883C262.366 29.883 262.828 30.0073 263.222 30.2558C263.622 30.5043 263.926 30.8357 264.133 31.2499C264.347 31.6572 264.454 32.0956 264.454 32.5651C264.454 32.7239 264.437 32.8964 264.402 33.0828H260.136C260.15 33.4349 260.239 33.7421 260.405 34.0045C260.571 34.2668 260.785 34.4705 261.047 34.6155C261.316 34.7604 261.61 34.8329 261.927 34.8329C262.604 34.8329 263.125 34.5257 263.491 33.9113L264.299 34.3255C264.119 34.7259 263.816 35.0573 263.388 35.3196C262.959 35.582 262.469 35.7131 261.917 35.7131ZM263.408 32.2544C263.394 31.8195 263.236 31.4605 262.932 31.1774C262.635 30.8875 262.269 30.7425 261.834 30.7425C261.406 30.7425 261.037 30.8806 260.726 31.1567C260.415 31.426 260.226 31.7919 260.157 32.2544H263.408ZM269.768 35.651C269.222 35.651 268.801 35.4991 268.504 35.1954C268.214 34.8847 268.069 34.4429 268.069 33.8699V30.9289H267.054V30.0073H267.262C267.51 30.0073 267.707 29.9348 267.852 29.7898C267.997 29.6379 268.069 29.4343 268.069 29.1788V28.7232H269.032V30.0073H270.285V30.9289H269.032V33.8388C269.032 34.4601 269.343 34.7708 269.964 34.7708C270.096 34.7708 270.223 34.7604 270.348 34.7397V35.5992C270.203 35.6337 270.009 35.651 269.768 35.651ZM271.606 30.0073H272.569V35.5889H271.606V30.0073ZM271.492 28.5161C271.492 28.3366 271.547 28.1916 271.657 28.0811C271.768 27.9707 271.913 27.9155 272.092 27.9155C272.272 27.9155 272.417 27.9707 272.527 28.0811C272.638 28.1916 272.693 28.3366 272.693 28.5161C272.693 28.6956 272.638 28.8405 272.527 28.951C272.417 29.0615 272.272 29.1167 272.092 29.1167C271.913 29.1167 271.768 29.0615 271.657 28.951C271.547 28.8405 271.492 28.6956 271.492 28.5161ZM274.063 30.0073H275.005V30.7011C275.164 30.4387 275.378 30.2385 275.647 30.1005C275.923 29.9555 276.227 29.883 276.559 29.883C276.938 29.883 277.284 29.9762 277.594 30.1626C277.912 30.3421 278.153 30.5872 278.319 30.8978C278.499 30.5734 278.74 30.3248 279.044 30.1522C279.355 29.9727 279.696 29.883 280.069 29.883C280.449 29.883 280.797 29.9762 281.115 30.1626C281.433 30.3421 281.685 30.5906 281.871 30.9082C282.057 31.2258 282.151 31.5813 282.151 31.9748V35.5889H281.177V32.2855C281.177 31.8298 281.056 31.4708 280.815 31.2085C280.58 30.9462 280.273 30.815 279.893 30.815C279.506 30.815 279.192 30.9496 278.951 31.2189C278.709 31.4812 278.588 31.8367 278.588 32.2855V35.5889H277.615V32.2855C277.615 31.8298 277.498 31.4708 277.263 31.2085C277.028 30.9462 276.717 30.815 276.331 30.815C275.951 30.815 275.637 30.9496 275.388 31.2189C275.147 31.4812 275.026 31.8367 275.026 32.2855V35.5889H274.063V30.0073ZM286.087 35.7131C285.562 35.7131 285.086 35.5854 284.657 35.33C284.229 35.0745 283.895 34.7259 283.653 34.2841C283.411 33.8353 283.291 33.3348 283.291 32.7825C283.291 32.2302 283.408 31.7332 283.643 31.2913C283.884 30.8495 284.209 30.5043 284.616 30.2558C285.03 30.0073 285.493 29.883 286.004 29.883C286.535 29.883 286.998 30.0073 287.391 30.2558C287.792 30.5043 288.096 30.8357 288.303 31.2499C288.517 31.6572 288.624 32.0956 288.624 32.5651C288.624 32.7239 288.606 32.8964 288.572 33.0828H284.305C284.319 33.4349 284.409 33.7421 284.575 34.0045C284.74 34.2668 284.954 34.4705 285.217 34.6155C285.486 34.7604 285.779 34.8329 286.097 34.8329C286.773 34.8329 287.295 34.5257 287.661 33.9113L288.468 34.3255C288.289 34.7259 287.985 35.0573 287.557 35.3196C287.129 35.582 286.639 35.7131 286.087 35.7131ZM287.578 32.2544C287.564 31.8195 287.405 31.4605 287.101 31.1774C286.805 30.8875 286.439 30.7425 286.004 30.7425C285.576 30.7425 285.206 30.8806 284.896 31.1567C284.585 31.426 284.395 31.7919 284.326 32.2544H287.578Z" fill="white"/>
<path d="M323.537 27.874H324.603L326.291 34.2116L328.052 27.874H329.118L330.858 34.1909L332.556 27.874H333.623L331.459 35.5889H330.33L328.58 29.3134L326.83 35.5889H325.701L323.537 27.874ZM336.74 35.7131C336.208 35.7131 335.722 35.5889 335.28 35.3403C334.845 35.0849 334.5 34.7363 334.244 34.2944C333.989 33.8457 333.861 33.3452 333.861 32.7929C333.861 32.2475 333.986 31.7539 334.234 31.3121C334.489 30.8633 334.835 30.5147 335.27 30.2662C335.711 30.0107 336.202 29.883 336.74 29.883C337.272 29.883 337.755 30.0107 338.19 30.2662C338.632 30.5147 338.977 30.8599 339.225 31.3017C339.481 31.7435 339.609 32.2406 339.609 32.7929C339.609 33.3521 339.481 33.8526 339.225 34.2944C338.97 34.7363 338.621 35.0849 338.179 35.3403C337.745 35.5889 337.265 35.7131 336.74 35.7131ZM334.876 32.7929C334.876 33.1657 334.955 33.504 335.114 33.8077C335.28 34.1115 335.504 34.3497 335.787 34.5223C336.077 34.6948 336.395 34.7811 336.74 34.7811C337.078 34.7811 337.389 34.6948 337.672 34.5223C337.955 34.3497 338.176 34.1115 338.335 33.8077C338.501 33.504 338.583 33.1657 338.583 32.7929C338.583 32.4201 338.501 32.0853 338.335 31.7884C338.176 31.4846 337.955 31.2465 337.672 31.0739C337.389 30.9013 337.078 30.815 336.74 30.815C336.395 30.815 336.077 30.9013 335.787 31.0739C335.504 31.2465 335.28 31.4846 335.114 31.7884C334.955 32.0853 334.876 32.4201 334.876 32.7929ZM340.865 30.0073H341.807V30.67C342.097 30.1868 342.591 29.9451 343.288 29.9451L343.63 29.9451V30.8564H343.143C342.742 30.8564 342.421 30.9807 342.18 31.2292C341.945 31.4777 341.828 31.8229 341.828 32.2648V35.5889H340.865V30.0073ZM344.485 27.7498H345.448V32.6272L348.016 30.0073H349.249L347.105 32.2544L349.393 35.5889H348.254L346.401 32.9068L345.448 33.9113V35.5889H344.485V27.7498ZM350.259 30.0073H351.222V35.5889H350.259V30.0073ZM350.145 28.5161C350.145 28.3366 350.201 28.1916 350.311 28.0811C350.422 27.9707 350.567 27.9155 350.746 27.9155C350.926 27.9155 351.071 27.9707 351.181 28.0811C351.291 28.1916 351.347 28.3366 351.347 28.5161C351.347 28.6956 351.291 28.8405 351.181 28.951C351.071 29.0615 350.926 29.1167 350.746 29.1167C350.567 29.1167 350.422 29.0615 350.311 28.951C350.201 28.8405 350.145 28.6956 350.145 28.5161ZM352.717 30.0073H353.659V30.6907C353.825 30.4284 354.046 30.2282 354.322 30.0901C354.598 29.952 354.909 29.883 355.254 29.883C355.647 29.883 356.003 29.9762 356.32 30.1626C356.638 30.3421 356.887 30.5906 357.066 30.9082C357.252 31.2258 357.346 31.5813 357.346 31.9748V35.5889H356.372V32.2855C356.372 31.8298 356.248 31.4708 355.999 31.2085C355.758 30.9462 355.437 30.815 355.036 30.815C354.636 30.815 354.308 30.9496 354.053 31.2189C353.804 31.4812 353.68 31.8367 353.68 32.2855V35.5889H352.717V30.0073ZM361.385 37.8671C360.798 37.8671 360.281 37.7325 359.832 37.4632C359.39 37.2009 359.076 36.8488 358.889 36.4069L359.79 35.9927C359.894 36.2689 360.084 36.4932 360.36 36.6658C360.636 36.8453 360.974 36.9351 361.375 36.9351C361.865 36.9351 362.272 36.7936 362.597 36.5105C362.921 36.2344 363.083 35.8478 363.083 35.3507V34.574C362.876 34.8571 362.611 35.0745 362.286 35.2264C361.962 35.3783 361.609 35.4542 361.23 35.4542C360.712 35.4542 360.246 35.3334 359.832 35.0918C359.418 34.8433 359.09 34.5084 358.848 34.0873C358.613 33.6593 358.496 33.1864 358.496 32.6686C358.496 32.1508 358.613 31.6814 358.848 31.2603C359.083 30.8323 359.407 30.4974 359.821 30.2558C360.236 30.0073 360.702 29.883 361.219 29.883C361.606 29.883 361.962 29.9624 362.286 30.1212C362.611 30.2731 362.887 30.494 363.114 30.7839V30.0073H364.057V35.3507C364.057 35.8339 363.943 36.2654 363.715 36.6451C363.487 37.0248 363.17 37.3217 362.762 37.5357C362.355 37.7566 361.896 37.8671 361.385 37.8671ZM359.511 32.6686C359.511 33.0069 359.587 33.3176 359.739 33.6006C359.897 33.8837 360.115 34.108 360.391 34.2737C360.667 34.4394 360.974 34.5223 361.313 34.5223C361.637 34.5223 361.934 34.4394 362.203 34.2737C362.479 34.108 362.693 33.8837 362.845 33.6006C363.004 33.3176 363.083 33.0069 363.083 32.6686C363.083 32.3303 363.004 32.0197 362.845 31.7366C362.693 31.4536 362.479 31.2292 362.203 31.0635C361.934 30.8978 361.637 30.815 361.313 30.815C360.974 30.815 360.667 30.8978 360.391 31.0635C360.122 31.2292 359.908 31.4536 359.749 31.7366C359.59 32.0197 359.511 32.3303 359.511 32.6686ZM367.454 27.874H368.469V31.3121H372.331V27.874H373.356V35.5889H372.331V32.244H368.469V35.5889H367.454V27.874ZM377.606 35.7131C377.074 35.7131 376.587 35.5889 376.146 35.3403C375.711 35.0849 375.366 34.7363 375.11 34.2944C374.855 33.8457 374.727 33.3452 374.727 32.7929C374.727 32.2475 374.851 31.7539 375.1 31.3121C375.355 30.8633 375.7 30.5147 376.135 30.2662C376.577 30.0107 377.067 29.883 377.606 29.883C378.137 29.883 378.621 30.0107 379.056 30.2662C379.497 30.5147 379.843 30.8599 380.091 31.3017C380.347 31.7435 380.474 32.2406 380.474 32.7929C380.474 33.3521 380.347 33.8526 380.091 34.2944C379.836 34.7363 379.487 35.0849 379.045 35.3403C378.61 35.5889 378.13 35.7131 377.606 35.7131ZM375.742 32.7929C375.742 33.1657 375.821 33.504 375.98 33.8077C376.146 34.1115 376.37 34.3497 376.653 34.5223C376.943 34.6948 377.261 34.7811 377.606 34.7811C377.944 34.7811 378.255 34.6948 378.538 34.5223C378.821 34.3497 379.042 34.1115 379.201 33.8077C379.366 33.504 379.449 33.1657 379.449 32.7929C379.449 32.4201 379.366 32.0853 379.201 31.7884C379.042 31.4846 378.821 31.2465 378.538 31.0739C378.255 30.9013 377.944 30.815 377.606 30.815C377.261 30.815 376.943 30.9013 376.653 31.0739C376.37 31.2465 376.146 31.4846 375.98 31.7884C375.821 32.0853 375.742 32.4201 375.742 32.7929ZM383.708 35.7131C383.308 35.7131 382.949 35.6199 382.631 35.4335C382.314 35.2471 382.065 34.9882 381.886 34.6569C381.706 34.3186 381.616 33.932 381.616 33.4971V30.0073H382.579V33.3935C382.579 33.8077 382.704 34.1426 382.952 34.398C383.201 34.6534 383.525 34.7811 383.926 34.7811C384.326 34.7811 384.651 34.65 384.899 34.3876C385.148 34.1184 385.272 33.7594 385.272 33.3107V30.0073H386.245V35.5889H385.303V34.9054C385.137 35.1677 384.916 35.368 384.64 35.506C384.364 35.6441 384.053 35.7131 383.708 35.7131ZM387.737 30.0073H388.68V30.67C388.97 30.1868 389.463 29.9451 390.16 29.9451H390.502V30.8564H390.016C389.615 30.8564 389.294 30.9807 389.052 31.2292C388.818 31.4777 388.7 31.8229 388.7 32.2648V35.5889H387.737V30.0073ZM393.356 35.7131C392.818 35.7131 392.341 35.582 391.927 35.3196C391.513 35.0504 391.216 34.6879 391.037 34.2323L391.813 33.8388C391.972 34.1633 392.19 34.4187 392.466 34.6051C392.742 34.7915 393.042 34.8847 393.367 34.8847C393.677 34.8847 393.933 34.8122 394.133 34.6672C394.333 34.5223 394.433 34.3324 394.433 34.0977C394.433 33.8699 394.344 33.6869 394.164 33.5488C393.985 33.4039 393.791 33.3176 393.584 33.29L392.745 33.176C392.248 33.0518 391.875 32.8447 391.627 32.5547C391.378 32.2648 391.254 31.923 391.254 31.5295C391.254 31.205 391.337 30.9185 391.503 30.67C391.675 30.4215 391.91 30.2282 392.207 30.0901C392.511 29.952 392.845 29.883 393.211 29.883C393.695 29.883 394.126 30.0038 394.506 30.2454C394.892 30.4871 395.168 30.8219 395.334 31.2499L394.568 31.6434C394.43 31.3604 394.236 31.136 393.988 30.9703C393.746 30.8046 393.477 30.7218 393.18 30.7218C392.897 30.7218 392.669 30.7908 392.497 30.9289C392.324 31.067 392.238 31.2465 392.238 31.4674C392.238 31.6952 392.317 31.8782 392.476 32.0162C392.642 32.1474 392.821 32.2302 393.015 32.2648L393.936 32.389C394.399 32.5133 394.758 32.7273 395.013 33.0311C395.275 33.3279 395.407 33.6731 395.407 34.0666C395.407 34.3842 395.32 34.6672 395.148 34.9158C394.975 35.1643 394.734 35.361 394.423 35.506C394.112 35.6441 393.757 35.7131 393.356 35.7131Z" fill="white"/>
<path d="M134.436 62.2848C135.065 60.1274 137.739 56.1578 143.402 57.5386C150.481 59.2645 152.133 62.2848 154.964 57.5386C157.796 52.7923 161.336 51.0664 164.639 51.0664" stroke="url(#paint0_linear_1072_220)" stroke-width="0.862956"/>
<rect x="187.076" y="22.5889" width="0.862956" height="41.4219" rx="0.431478" fill="#3D3D3D"/>
<defs>
<linearGradient id="paint0_linear_1072_220" x1="164.403" y1="50.6349" x2="133.337" y2="54.0859" gradientUnits="userSpaceOnUse">
<stop stop-color="#FA7A68" stop-opacity="0"/>
<stop offset="0.447917" stop-color="#FA7A68"/>
<stop offset="1" stop-color="#FA7A68" stop-opacity="0"/>
</linearGradient>
</defs>
</svg>
