<svg width="210" height="64" viewBox="0 0 210 64" fill="none" xmlns="http://www.w3.org/2000/svg">
<path d="M72.915 19.5117C74.6963 19.5117 76.2428 19.8053 77.5543 20.3926C78.8854 20.9799 79.9033 21.8216 80.6081 22.9178C81.3128 24.014 81.6651 25.3158 81.6651 26.8231C81.6651 28.3108 81.3128 29.6125 80.6081 30.7283C79.9033 31.8245 78.8854 32.6663 77.5543 33.2535C76.2428 33.8408 74.6963 34.1344 72.915 34.1344H68.2757V40.0657H64.4585V19.5117H72.915ZM72.7388 30.9045C74.4027 30.9045 75.6653 30.5521 76.5266 29.8474C77.3879 29.1427 77.8186 28.1346 77.8186 26.8231C77.8186 25.5115 77.3879 24.5034 76.5266 23.7987C75.6653 23.094 74.4027 22.7416 72.7388 22.7416H68.2757V30.9045H72.7388Z" fill="white" fill-opacity="0.4"/>
<path d="M91.3803 40.2712C89.7947 40.2712 88.3657 39.9287 87.0933 39.2435C85.821 38.5584 84.8226 37.609 84.0983 36.3953C83.3936 35.1621 83.0413 33.7723 83.0413 32.2258C83.0413 30.6794 83.3936 29.2993 84.0983 28.0857C84.8226 26.872 85.821 25.9226 87.0933 25.2375C88.3657 24.5523 89.7947 24.2098 91.3803 24.2098C92.9855 24.2098 94.4243 24.5523 95.6967 25.2375C96.969 25.9226 97.9576 26.872 98.6623 28.0857C99.3866 29.2993 99.7487 30.6794 99.7487 32.2258C99.7487 33.7723 99.3866 35.1621 98.6623 36.3953C97.9576 37.609 96.969 38.5584 95.6967 39.2435C94.4243 39.9287 92.9855 40.2712 91.3803 40.2712ZM91.3803 37.1294C92.731 37.1294 93.8468 36.6792 94.7277 35.7787C95.6086 34.8783 96.049 33.694 96.049 32.2258C96.049 30.7577 95.6086 29.5734 94.7277 28.6729C93.8468 27.7725 92.731 27.3222 91.3803 27.3222C90.0296 27.3222 88.9138 27.7725 88.033 28.6729C87.1716 29.5734 86.741 30.7577 86.741 32.2258C86.741 33.694 87.1716 34.8783 88.033 35.7787C88.9138 36.6792 90.0296 37.1294 91.3803 37.1294Z" fill="white" fill-opacity="0.4"/>
<path d="M111.216 24.2098C112.743 24.2098 114.103 24.5426 115.297 25.2081C116.511 25.8737 117.46 26.8133 118.145 28.0269C118.831 29.2406 119.173 30.6402 119.173 32.2258C119.173 33.8114 118.831 35.2208 118.145 36.4541C117.46 37.6677 116.511 38.6073 115.297 39.2729C114.103 39.9385 112.743 40.2712 111.216 40.2712C109.102 40.2712 107.428 39.5665 106.195 38.1571V45.7621H102.524V24.3859H106.019V26.4413C106.625 25.6975 107.369 25.1396 108.25 24.7677C109.151 24.3957 110.139 24.2098 111.216 24.2098ZM110.805 37.1294C112.155 37.1294 113.261 36.6792 114.123 35.7787C115.004 34.8783 115.444 33.694 115.444 32.2258C115.444 30.7577 115.004 29.5734 114.123 28.6729C113.261 27.7725 112.155 27.3222 110.805 27.3222C109.924 27.3222 109.131 27.5278 108.426 27.9389C107.722 28.3304 107.164 28.898 106.753 29.6419C106.342 30.3858 106.136 31.2471 106.136 32.2258C106.136 33.2046 106.342 34.0659 106.753 34.8098C107.164 35.5536 107.722 36.1311 108.426 36.5422C109.131 36.9337 109.924 37.1294 110.805 37.1294Z" fill="white" fill-opacity="0.4"/>
<path d="M130.611 24.2098C132.138 24.2098 133.499 24.5426 134.693 25.2081C135.906 25.8737 136.856 26.8133 137.541 28.0269C138.226 29.2406 138.569 30.6402 138.569 32.2258C138.569 33.8114 138.226 35.2208 137.541 36.4541C136.856 37.6677 135.906 38.6073 134.693 39.2729C133.499 39.9385 132.138 40.2712 130.611 40.2712C128.497 40.2712 126.824 39.5665 125.59 38.1571V45.7621H121.92V24.3859H125.414V26.4413C126.021 25.6975 126.765 25.1396 127.646 24.7677C128.546 24.3957 129.535 24.2098 130.611 24.2098ZM130.2 37.1294C131.551 37.1294 132.657 36.6792 133.518 35.7787C134.399 34.8783 134.84 33.694 134.84 32.2258C134.84 30.7577 134.399 29.5734 133.518 28.6729C132.657 27.7725 131.551 27.3222 130.2 27.3222C129.319 27.3222 128.527 27.5278 127.822 27.9389C127.117 28.3304 126.559 28.898 126.148 29.6419C125.737 30.3858 125.532 31.2471 125.532 32.2258C125.532 33.2046 125.737 34.0659 126.148 34.8098C126.559 35.5536 127.117 36.1311 127.822 36.5422C128.527 36.9337 129.319 37.1294 130.2 37.1294Z" fill="white" fill-opacity="0.4"/>
<path d="M148.774 37.1588C150.477 37.1588 151.896 36.5911 153.031 35.4557L154.969 37.7167C154.284 38.5584 153.403 39.1946 152.327 39.6253C151.25 40.0559 150.036 40.2712 148.686 40.2712C146.963 40.2712 145.446 39.9287 144.134 39.2435C142.823 38.5584 141.805 37.609 141.081 36.3953C140.376 35.1621 140.024 33.7723 140.024 32.2258C140.024 30.699 140.366 29.3287 141.051 28.115C141.756 26.8818 142.715 25.9226 143.929 25.2375C145.162 24.5523 146.552 24.2098 148.098 24.2098C149.566 24.2098 150.898 24.5328 152.092 25.1787C153.305 25.8052 154.264 26.7154 154.969 27.9095C155.674 29.084 156.026 30.4641 156.026 32.0497L144.017 34.3987C144.389 35.2991 144.986 35.9843 145.808 36.4541C146.63 36.9239 147.619 37.1588 148.774 37.1588ZM148.098 27.1461C146.748 27.1461 145.651 27.5865 144.81 28.4674C143.987 29.3483 143.576 30.5326 143.576 32.0203V32.0497L152.444 30.3466C152.19 29.3874 151.671 28.6142 150.888 28.0269C150.124 27.4397 149.195 27.1461 148.098 27.1461Z" fill="white" fill-opacity="0.4"/>
<path d="M162.313 26.6763C163.37 25.0319 165.229 24.2098 167.892 24.2098V27.704C167.578 27.6452 167.295 27.6159 167.04 27.6159C165.611 27.6159 164.495 28.0367 163.693 28.8785C162.89 29.7006 162.489 30.8947 162.489 32.4607V40.0657H158.818V24.3859H162.313V26.6763Z" fill="white" fill-opacity="0.4"/>
<path d="M175.173 40.2712C173.901 40.2712 172.658 40.1049 171.444 39.7721C170.231 39.4393 169.262 39.0184 168.537 38.5095L169.947 35.72C170.651 36.1898 171.493 36.5715 172.472 36.8652C173.47 37.1392 174.449 37.2762 175.408 37.2762C177.601 37.2762 178.697 36.6988 178.697 35.5438C178.697 34.9957 178.413 34.614 177.845 34.3987C177.297 34.1833 176.407 33.9778 175.173 33.7821C173.881 33.5863 172.824 33.3612 172.002 33.1067C171.2 32.8522 170.495 32.4118 169.888 31.7854C169.301 31.1394 169.007 30.2487 169.007 29.1134C169.007 27.6256 169.624 26.4413 170.857 25.5605C172.11 24.66 173.793 24.2098 175.907 24.2098C176.984 24.2098 178.061 24.337 179.137 24.5915C180.214 24.8264 181.095 25.1494 181.78 25.5605L180.371 28.3499C179.039 27.5669 177.542 27.1754 175.878 27.1754C174.801 27.1754 173.979 27.3418 173.412 27.6746C172.863 27.9878 172.589 28.4087 172.589 28.9372C172.589 29.5244 172.883 29.9453 173.47 30.1998C174.077 30.4347 175.007 30.6598 176.26 30.8751C177.513 31.0709 178.54 31.296 179.343 31.5505C180.145 31.805 180.831 32.2356 181.398 32.8424C181.986 33.4493 182.279 34.3106 182.279 35.4264C182.279 36.8945 181.643 38.069 180.371 38.9499C179.098 39.8308 177.366 40.2712 175.173 40.2712Z" fill="white" fill-opacity="0.4"/>
<path d="M40.5567 14.2265C36.4033 14.2265 32.4201 15.8764 29.4832 18.8133C26.5464 21.7501 24.8965 25.7334 24.8965 29.8867C24.8965 34.04 26.5464 38.0233 29.4832 40.9601C32.4201 43.897 36.4033 45.5469 40.5567 45.5469L40.5567 29.8867L40.5567 14.2265Z" fill="white" fill-opacity="0.4"/>
<path d="M53.0849 19.7077C50.3852 19.7077 47.7961 20.7801 45.8872 22.6891C43.9782 24.598 42.9058 27.1871 42.9058 29.8868C42.9058 32.5865 43.9782 35.1756 45.8872 37.0845C47.7961 38.9935 50.3852 40.0659 53.0849 40.0659L53.0849 29.8868L53.0849 19.7077Z" fill="white" fill-opacity="0.4"/>
</svg>
