<svg width="210" height="64" viewBox="0 0 210 64" fill="none" xmlns="http://www.w3.org/2000/svg">
<g opacity="0.4">
<path d="M50.7075 43.2252C52.754 43.2252 54.5204 42.811 56.0065 41.9827C57.517 41.1543 58.6865 39.9849 59.5148 38.4744C60.3432 36.9395 60.7573 35.1366 60.7573 33.0658V16.109H55.0929V26.0857H54.9833C54.4229 25.3061 53.6676 24.697 52.7175 24.2585C51.7917 23.8199 50.7684 23.6007 49.6477 23.6007C47.8936 23.6007 46.3343 24.0027 44.97 24.8067C43.63 25.6106 42.5702 26.7313 41.7906 28.1688C41.0353 29.5818 40.6577 31.2264 40.6577 33.1023C40.6577 35.0514 41.0597 36.7933 41.8637 38.3282C42.6677 39.8631 43.8127 41.0691 45.2989 41.9461C46.8094 42.7989 48.6123 43.2252 50.7075 43.2252ZM50.7075 38.3282C49.4163 38.3282 48.3808 37.8653 47.6012 36.9395C46.8216 35.9894 46.4318 34.8199 46.4318 33.4312C46.4318 32.0669 46.8216 30.9218 47.6012 29.996C48.3808 29.0458 49.4163 28.5708 50.7075 28.5708C52.0231 28.5708 53.0586 29.0458 53.8138 29.996C54.5934 30.9218 54.9833 32.0669 54.9833 33.4312C54.9833 34.8199 54.5934 35.9894 53.8138 36.9395C53.0586 37.8653 52.0231 38.3282 50.7075 38.3282Z" fill="white"/>
<path d="M74.1947 43.2252C72.27 43.2252 70.6011 42.8598 69.188 42.1289C67.7993 41.3736 66.7273 40.3625 65.9721 39.0957C65.2168 37.8044 64.8392 36.3792 64.8392 34.8199V24.0392H70.5036V34.6737C70.5036 35.6483 70.8447 36.501 71.5269 37.2319C72.2334 37.9384 73.1105 38.2917 74.1581 38.2917C75.1814 38.2917 76.0341 37.9384 76.7162 37.2319C77.4228 36.501 77.776 35.6483 77.776 34.6737V24.0392H83.4405V34.8199C83.4405 36.3792 83.075 37.8044 82.3441 39.0957C81.6132 40.3625 80.5534 41.3736 79.1647 42.1289C77.776 42.8598 76.1194 43.2252 74.1947 43.2252Z" fill="white"/>
<path d="M87.6797 42.7867V16.109H93.3441V42.7867H87.6797Z" fill="white"/>
<path d="M105.058 43.2252C103.377 43.2252 101.903 42.7989 100.636 41.9461C99.3934 41.0934 98.4189 39.9484 97.7123 38.5109C97.0058 37.0491 96.6525 35.4046 96.6525 33.5774C96.6525 31.6771 97.0545 29.9838 97.8585 28.4977C98.6869 26.9872 99.8563 25.7934 101.367 24.9163C102.902 24.0392 104.717 23.6007 106.812 23.6007C108.907 23.6007 110.686 24.0392 112.148 24.9163C113.634 25.7934 114.767 26.975 115.546 28.4611C116.35 29.9473 116.752 31.6162 116.752 33.4678V42.7867H111.197V39.79H111.051C110.515 40.7645 109.772 41.5807 108.822 42.2385C107.872 42.8963 106.617 43.2252 105.058 43.2252ZM106.739 38.3282C108.03 38.3282 109.053 37.8653 109.809 36.9395C110.588 35.9894 110.978 34.8077 110.978 33.3947C110.978 32.0547 110.588 30.9218 109.809 29.996C109.053 29.0458 108.03 28.5708 106.739 28.5708C105.399 28.5708 104.339 29.0458 103.56 29.996C102.804 30.9218 102.427 32.0547 102.427 33.3947C102.427 34.7834 102.804 35.9528 103.56 36.903C104.339 37.8531 105.399 38.3282 106.739 38.3282Z" fill="white"/>
<path d="M120.941 42.7867V16.109H126.606V42.7867H120.941Z" fill="white"/>
<path d="M130.791 42.7867V24.0392H136.492V42.7867H130.791ZM133.642 21.9196C132.74 21.9196 131.96 21.5907 131.303 20.9329C130.645 20.2751 130.316 19.4955 130.316 18.594C130.316 17.6682 130.645 16.8764 131.303 16.2186C131.96 15.5608 132.74 15.2319 133.642 15.2319C134.567 15.2319 135.347 15.5608 135.98 16.2186C136.638 16.8764 136.967 17.6682 136.967 18.594C136.967 19.4955 136.638 20.2751 135.98 20.9329C135.347 21.5907 134.567 21.9196 133.642 21.9196Z" fill="white"/>
<path d="M139.252 42.7867L144.953 34.6006C143.467 33.8454 142.334 32.8465 141.555 31.604C140.775 30.3371 140.385 28.9119 140.385 27.3282V24.0392H146.05V27.0359C146.05 27.913 146.293 28.6804 146.781 29.3382C147.292 29.9716 147.926 30.398 148.681 30.6173L152.993 24.0392H159.388L153.98 31.8963C155.637 32.5785 156.903 33.5896 157.78 34.9296C158.682 36.2695 159.133 37.78 159.133 39.4611V42.7867H153.432V39.6438C153.432 38.6693 153.103 37.841 152.445 37.1588C151.787 36.4523 151.008 36.0503 150.106 35.9528L145.611 42.7867H139.252Z" fill="white"/>
</g>
</svg>
