<svg width="96" height="16" viewBox="0 0 96 16" fill="none" xmlns="http://www.w3.org/2000/svg">
<path d="M7.99978 12.1735L3.29778 14.8055L4.34778 9.52016L0.391113 5.8615L5.74245 5.22683L7.99978 0.333496L10.2571 5.22683L15.6084 5.8615L11.6518 9.52016L12.7018 14.8055L7.99978 12.1735Z" fill="#FF9345"/>
<path d="M27.9998 12.1735L23.2978 14.8055L24.3478 9.52016L20.3911 5.8615L25.7424 5.22683L27.9998 0.333496L30.2571 5.22683L35.6084 5.8615L31.6518 9.52016L32.7018 14.8055L27.9998 12.1735Z" fill="#FF9345"/>
<path d="M47.9998 12.1735L43.2978 14.8055L44.3478 9.52016L40.3911 5.8615L45.7424 5.22683L47.9998 0.333496L50.2571 5.22683L55.6084 5.8615L51.6518 9.52016L52.7018 14.8055L47.9998 12.1735Z" fill="#FF9345"/>
<path d="M67.9998 12.1735L63.2978 14.8055L64.3478 9.52016L60.3911 5.8615L65.7424 5.22683L67.9998 0.333496L70.2571 5.22683L75.6084 5.8615L71.6518 9.52016L72.7018 14.8055L67.9998 12.1735Z" fill="#FF9345"/>
<path d="M87.9998 12.1735L83.2978 14.8055L84.3478 9.52016L80.3911 5.8615L85.7424 5.22683L87.9998 0.333496L90.2571 5.22683L95.6084 5.8615L91.6518 9.52016L92.7018 14.8055L87.9998 12.1735Z" fill="#FF9345"/>
</svg>
