<svg width="132" height="20" viewBox="0 0 132 20" fill="none" xmlns="http://www.w3.org/2000/svg">
<path d="M10.0001 15.2167L4.12259 18.5067L5.43509 11.9L0.489258 7.32669L7.17842 6.53335L10.0001 0.416687L12.8218 6.53335L19.5109 7.32669L14.5651 11.9L15.8776 18.5067L10.0001 15.2167Z" fill="#FF9345"/>
<path d="M38.0001 15.2167L32.1226 18.5067L33.4351 11.9L28.4893 7.32669L35.1784 6.53335L38.0001 0.416687L40.8218 6.53335L47.5109 7.32669L42.5651 11.9L43.8776 18.5067L38.0001 15.2167Z" fill="#FF9345"/>
<path d="M66.0001 15.2167L60.1226 18.5067L61.4351 11.9L56.4893 7.32669L63.1784 6.53335L66.0001 0.416687L68.8218 6.53335L75.5109 7.32669L70.5651 11.9L71.8776 18.5067L66.0001 15.2167Z" fill="#FF9345"/>
<path d="M94.0001 15.2167L88.1226 18.5067L89.4351 11.9L84.4893 7.32669L91.1784 6.53335L94.0001 0.416687L96.8218 6.53335L103.511 7.32669L98.5651 11.9L99.8776 18.5067L94.0001 15.2167Z" fill="#FF9345"/>
<path d="M122 15.2167L116.123 18.5067L117.435 11.9L112.489 7.32669L119.178 6.53335L122 0.416687L124.822 6.53335L131.511 7.32669L126.565 11.9L127.878 18.5067L122 15.2167Z" fill="#FF9345"/>
</svg>
