<svg width="500" height="205" viewBox="0 0 500 205" fill="none" xmlns="http://www.w3.org/2000/svg">
<rect width="500" height="205" rx="11.5615" fill="white"/>
<path d="M32.4416 30.4303H29.0946V28.3493H38.1126V30.4303H34.8175V41.2693H32.4416V30.4303ZM39.3611 31.8351H41.6329V41.2693H39.3611V31.8351ZM39.1877 29.2337C39.1877 28.8175 39.3033 28.4938 39.5345 28.2626C39.7657 28.0313 40.0837 27.9157 40.4883 27.9157C40.9046 27.9157 41.2283 28.0313 41.4595 28.2626C41.6907 28.4938 41.8064 28.8175 41.8064 29.2337C41.8064 29.6384 41.6907 29.9563 41.4595 30.1876C41.2398 30.4188 40.9161 30.5344 40.4883 30.5344C40.0837 30.5344 39.7657 30.4188 39.5345 30.1876C39.3033 29.9563 39.1877 29.6384 39.1877 29.2337ZM43.7305 31.8351H45.8636V33.0143C46.1064 32.5634 46.4533 32.2224 46.9042 31.9912C47.3666 31.7484 47.8985 31.627 48.4997 31.627C49.124 31.627 49.6963 31.7657 50.2166 32.0432C50.7368 32.3091 51.1357 32.6791 51.4132 33.1531C51.7253 32.6444 52.13 32.2628 52.6271 32.0085C53.1358 31.7541 53.7081 31.627 54.344 31.627C55.003 31.627 55.5985 31.7773 56.1303 32.0779C56.6621 32.3785 57.0783 32.8005 57.3789 33.3439C57.6795 33.8872 57.8298 34.5058 57.8298 35.1995V41.2693H55.558V35.7371C55.558 35.1128 55.3903 34.6214 55.0551 34.263C54.7313 33.893 54.292 33.708 53.737 33.708C53.1937 33.708 52.7543 33.893 52.419 34.263C52.0837 34.633 51.9161 35.1243 51.9161 35.7371V41.2693H49.6443V35.7371C49.6443 35.1128 49.4766 34.6214 49.1413 34.263C48.8176 33.893 48.3783 33.708 47.8233 33.708C47.2799 33.708 46.8406 33.893 46.5053 34.263C46.17 34.633 46.0024 35.1243 46.0024 35.7371V41.2693H43.7305V31.8351ZM64.2262 41.4774C63.2781 41.4774 62.4341 41.2577 61.6942 40.8184C60.9658 40.379 60.3935 39.7836 59.9773 39.0321C59.5726 38.2806 59.3703 37.4482 59.3703 36.5348C59.3703 35.6099 59.5726 34.7775 59.9773 34.0375C60.3935 33.286 60.9543 32.6964 61.6595 32.2686C62.3763 31.8409 63.1741 31.627 64.0527 31.627C65.0008 31.627 65.8217 31.8351 66.5154 32.2513C67.209 32.6559 67.7351 33.2109 68.0935 33.9161C68.4635 34.6214 68.6485 35.396 68.6485 36.24C68.6485 36.6331 68.608 36.9511 68.5271 37.1938H61.7289C61.7982 37.8875 62.0642 38.4425 62.5266 38.8587C62.9891 39.2749 63.5614 39.483 64.2435 39.483C64.7522 39.483 65.1858 39.379 65.5442 39.1709C65.9142 38.9512 66.209 38.6506 66.4286 38.2691L68.2669 39.1709C67.9779 39.8646 67.4692 40.4253 66.7408 40.8531C66.0124 41.2693 65.1742 41.4774 64.2262 41.4774ZM66.2205 35.4596C66.1627 34.8815 65.9373 34.4133 65.5442 34.0549C65.1511 33.6849 64.6539 33.4999 64.0527 33.4999C63.4747 33.4999 62.9833 33.6734 62.5786 34.0202C62.174 34.3555 61.9081 34.8353 61.7809 35.4596H66.2205ZM78.2568 41.4774C77.2394 41.4774 76.3549 41.2866 75.6034 40.9051C74.8635 40.5236 74.2854 40.0438 73.8692 39.4657C73.453 38.876 73.187 38.2633 73.0714 37.6274L75.2912 37.0378C75.4647 37.743 75.8115 38.2922 76.3318 38.6853C76.852 39.0784 77.5053 39.2749 78.2915 39.2749C78.8927 39.2749 79.3782 39.1246 79.7482 38.824C80.1297 38.5234 80.3205 38.165 80.3205 37.7488C80.3205 37.3673 80.1818 37.0378 79.9043 36.7603C79.6384 36.4712 79.2742 36.2805 78.8117 36.188L76.8694 35.8065C75.8404 35.6099 75.0311 35.1648 74.4415 34.4711C73.8518 33.7774 73.557 32.9334 73.557 31.9391C73.557 31.2454 73.7536 30.6095 74.1466 30.0315C74.5513 29.4418 75.0831 28.9794 75.7421 28.6441C76.4127 28.3088 77.1237 28.1412 77.8752 28.1412C78.8349 28.1412 79.6499 28.303 80.3205 28.6267C80.9911 28.9505 81.5113 29.3609 81.8813 29.858C82.2628 30.3436 82.5172 30.8581 82.6444 31.4015L80.4419 32.0952C80.1991 31.4709 79.8696 31.0258 79.4534 30.7598C79.0372 30.4824 78.5111 30.3436 77.8752 30.3436C77.5168 30.3436 77.1931 30.4188 76.9041 30.5691C76.6266 30.7194 76.4069 30.9159 76.2451 31.1587C76.0948 31.39 76.0196 31.627 76.0196 31.8698C76.0196 32.2513 76.1468 32.5866 76.4011 32.8756C76.6555 33.1531 77.0081 33.3323 77.459 33.4132L79.2973 33.8121C80.4188 34.0549 81.2859 34.5173 81.8987 35.1995C82.5114 35.87 82.8178 36.6736 82.8178 37.6101C82.8178 38.2806 82.6328 38.9107 82.2628 39.5004C81.8929 40.09 81.361 40.5698 80.6674 40.9398C79.9852 41.2982 79.1817 41.4774 78.2568 41.4774ZM89.1557 41.4774C88.2077 41.4774 87.3637 41.2577 86.6238 40.8184C85.8954 40.379 85.3231 39.7836 84.9069 39.0321C84.5022 38.2806 84.2999 37.4482 84.2999 36.5348C84.2999 35.6099 84.5022 34.7775 84.9069 34.0375C85.3231 33.286 85.8838 32.6964 86.5891 32.2686C87.3059 31.8409 88.1036 31.627 88.9823 31.627C89.9304 31.627 90.7512 31.8351 91.4449 32.2513C92.1386 32.6559 92.6647 33.2109 93.0231 33.9161C93.393 34.6214 93.578 35.396 93.578 36.24C93.578 36.6331 93.5376 36.9511 93.4566 37.1938H86.6584C86.7278 37.8875 86.9937 38.4425 87.4562 38.8587C87.9187 39.2749 88.4909 39.483 89.1731 39.483C89.6818 39.483 90.1153 39.379 90.4738 39.1709C90.8437 38.9512 91.1385 38.6506 91.3582 38.2691L93.1965 39.1709C92.9075 39.8646 92.3987 40.4253 91.6704 40.8531C90.942 41.2693 90.1038 41.4774 89.1557 41.4774ZM91.1501 35.4596C91.0923 34.8815 90.8668 34.4133 90.4738 34.0549C90.0807 33.6849 89.5835 33.4999 88.9823 33.4999C88.4042 33.4999 87.9129 33.6734 87.5082 34.0202C87.1036 34.3555 86.8376 34.8353 86.7105 35.4596H91.1501ZM99.8786 45.0846C98.8149 45.0846 97.8784 44.8302 97.0691 44.3215C96.2714 43.8244 95.7222 43.1596 95.4216 42.3272L97.5374 41.5294C97.6761 41.9803 97.9536 42.3387 98.3698 42.6046C98.786 42.8706 99.2889 43.0035 99.8786 43.0035C100.572 43.0035 101.133 42.807 101.561 42.4139C102 42.0208 102.22 41.4832 102.22 40.801V39.7778C101.549 40.5178 100.642 40.8878 99.497 40.8878C98.6299 40.8878 97.8437 40.6854 97.1385 40.2808C96.4448 39.8761 95.9014 39.3212 95.5083 38.6159C95.1152 37.9107 94.9187 37.1187 94.9187 36.24C94.9187 35.3613 95.1094 34.5752 95.491 33.8815C95.8841 33.1762 96.4274 32.627 97.1211 32.2339C97.8148 31.8293 98.5895 31.627 99.445 31.627C100.659 31.627 101.624 32.0547 102.341 32.9103V31.8351H104.492V40.801C104.492 41.6219 104.295 42.3561 103.902 43.0035C103.509 43.6625 102.96 44.1712 102.254 44.5296C101.561 44.8996 100.769 45.0846 99.8786 45.0846ZM97.2772 36.2574C97.2772 36.9857 97.5085 37.5927 97.9709 38.0783C98.4449 38.5523 99.0461 38.7893 99.7745 38.7893C100.491 38.7893 101.075 38.5523 101.526 38.0783C101.989 37.6043 102.22 36.9973 102.22 36.2574C102.22 35.5174 101.989 34.9104 101.526 34.4364C101.064 33.9508 100.48 33.708 99.7745 33.708C99.0577 33.708 98.4623 33.9508 97.9883 34.4364C97.5142 34.922 97.2772 35.529 97.2772 36.2574ZM106.613 31.8351H108.746V33.0143C108.989 32.5634 109.336 32.2224 109.787 31.9912C110.249 31.7484 110.781 31.627 111.382 31.627C112.007 31.627 112.579 31.7657 113.099 32.0432C113.62 32.3091 114.019 32.6791 114.296 33.1531C114.608 32.6444 115.013 32.2628 115.51 32.0085C116.019 31.7541 116.591 31.627 117.227 31.627C117.886 31.627 118.481 31.7773 119.013 32.0779C119.545 32.3785 119.961 32.8005 120.262 33.3439C120.562 33.8872 120.713 34.5058 120.713 35.1995V41.2693H118.441V35.7371C118.441 35.1128 118.273 34.6214 117.938 34.263C117.614 33.893 117.175 33.708 116.62 33.708C116.076 33.708 115.637 33.893 115.302 34.263C114.967 34.633 114.799 35.1243 114.799 35.7371V41.2693H112.527V35.7371C112.527 35.1128 112.359 34.6214 112.024 34.263C111.7 33.893 111.261 33.708 110.706 33.708C110.163 33.708 109.723 33.893 109.388 34.263C109.053 34.633 108.885 35.1243 108.885 35.7371V41.2693H106.613V31.8351ZM127.109 41.4774C126.161 41.4774 125.317 41.2577 124.577 40.8184C123.849 40.379 123.276 39.7836 122.86 39.0321C122.455 38.2806 122.253 37.4482 122.253 36.5348C122.253 35.6099 122.455 34.7775 122.86 34.0375C123.276 33.286 123.837 32.6964 124.542 32.2686C125.259 31.8409 126.057 31.627 126.936 31.627C127.884 31.627 128.704 31.8351 129.398 32.2513C130.092 32.6559 130.618 33.2109 130.976 33.9161C131.346 34.6214 131.531 35.396 131.531 36.24C131.531 36.6331 131.491 36.9511 131.41 37.1938H124.612C124.681 37.8875 124.947 38.4425 125.409 38.8587C125.872 39.2749 126.444 39.483 127.126 39.483C127.635 39.483 128.069 39.379 128.427 39.1709C128.797 38.9512 129.092 38.6506 129.311 38.2691L131.15 39.1709C130.861 39.8646 130.352 40.4253 129.624 40.8531C128.895 41.2693 128.057 41.4774 127.109 41.4774ZM129.103 35.4596C129.046 34.8815 128.82 34.4133 128.427 34.0549C128.034 33.6849 127.537 33.4999 126.936 33.4999C126.357 33.4999 125.866 33.6734 125.461 34.0202C125.057 34.3555 124.791 34.8353 124.664 35.4596H129.103ZM133.253 31.8351H135.387V32.997C135.629 32.5577 135.982 32.2224 136.444 31.9912C136.918 31.7484 137.456 31.627 138.057 31.627C138.739 31.627 139.352 31.7773 139.896 32.0779C140.439 32.3785 140.861 32.8005 141.162 33.3439C141.462 33.8872 141.612 34.5058 141.612 35.1995V41.2693H139.341V35.7371C139.341 35.1243 139.161 34.633 138.803 34.263C138.456 33.893 137.999 33.708 137.433 33.708C136.866 33.708 136.404 33.893 136.046 34.263C135.699 34.633 135.525 35.1243 135.525 35.7371V41.2693H133.253V31.8351ZM147.834 41.3733C146.771 41.3733 145.944 41.0843 145.354 40.5062C144.776 39.9166 144.487 39.0899 144.487 38.0263V33.8641H142.857V31.8351H143.031C143.493 31.8351 143.851 31.7137 144.106 31.4709C144.36 31.2281 144.487 30.8755 144.487 30.413V29.6846H146.759V31.8351H148.927V33.8641H146.759V37.9049C146.759 38.8876 147.291 39.379 148.355 39.379C148.54 39.379 148.742 39.3616 148.962 39.3269V41.2866C148.592 41.3444 148.216 41.3733 147.834 41.3733ZM153.508 41.4774C152.514 41.4774 151.722 41.2346 151.132 40.749C150.554 40.2634 150.265 39.6044 150.265 38.772C150.265 37.9742 150.537 37.3152 151.08 36.795C151.624 36.2747 152.439 35.9279 153.525 35.7544L156.335 35.3035V34.9914C156.335 34.5752 156.173 34.2341 155.849 33.9682C155.537 33.7023 155.121 33.5693 154.601 33.5693C154.115 33.5693 153.681 33.7023 153.3 33.9682C152.93 34.2225 152.658 34.5636 152.485 34.9914L150.629 34.0896C150.907 33.3496 151.415 32.7542 152.155 32.3033C152.895 31.8524 153.739 31.627 154.687 31.627C155.45 31.627 156.127 31.7715 156.716 32.0605C157.318 32.338 157.78 32.7369 158.104 33.2571C158.439 33.7658 158.607 34.3439 158.607 34.9914V41.2693H156.456V40.2634C155.716 41.0727 154.734 41.4774 153.508 41.4774ZM152.624 38.6853C152.624 39.009 152.745 39.2691 152.988 39.4657C153.231 39.6507 153.543 39.7432 153.924 39.7432C154.63 39.7432 155.208 39.5235 155.658 39.0842C156.109 38.6333 156.335 38.0783 156.335 37.4193V37.0378L153.959 37.4366C153.508 37.5291 153.173 37.6794 152.953 37.8875C152.733 38.0841 152.624 38.35 152.624 38.6853ZM164.838 41.3733C163.774 41.3733 162.948 41.0843 162.358 40.5062C161.78 39.9166 161.491 39.0899 161.491 38.0263V33.8641H159.861V31.8351H160.034C160.497 31.8351 160.855 31.7137 161.109 31.4709C161.364 31.2281 161.491 30.8755 161.491 30.413V29.6846H163.763V31.8351H165.931V33.8641H163.763V37.9049C163.763 38.8876 164.295 39.379 165.358 39.379C165.543 39.379 165.746 39.3616 165.965 39.3269V41.2866C165.595 41.3444 165.22 41.3733 164.838 41.3733ZM167.701 31.8351H169.973V41.2693H167.701V31.8351ZM167.528 29.2337C167.528 28.8175 167.643 28.4938 167.874 28.2626C168.106 28.0313 168.424 27.9157 168.828 27.9157C169.244 27.9157 169.568 28.0313 169.799 28.2626C170.031 28.4938 170.146 28.8175 170.146 29.2337C170.146 29.6384 170.031 29.9563 169.799 30.1876C169.58 30.4188 169.256 30.5344 168.828 30.5344C168.424 30.5344 168.106 30.4188 167.874 30.1876C167.643 29.9563 167.528 29.6384 167.528 29.2337ZM176.683 41.4774C175.77 41.4774 174.932 41.2635 174.169 40.8357C173.406 40.408 172.799 39.8183 172.348 39.0668C171.909 38.3153 171.689 37.4771 171.689 36.5522C171.689 35.6273 171.909 34.789 172.348 34.0375C172.787 33.286 173.388 32.6964 174.151 32.2686C174.915 31.8409 175.759 31.627 176.683 31.627C177.597 31.627 178.429 31.8409 179.181 32.2686C179.944 32.6964 180.545 33.286 180.984 34.0375C181.435 34.789 181.661 35.6273 181.661 36.5522C181.661 37.4887 181.435 38.3327 180.984 39.0842C180.545 39.8357 179.944 40.4253 179.181 40.8531C178.418 41.2693 177.585 41.4774 176.683 41.4774ZM174.047 36.5522C174.047 37.373 174.29 38.0552 174.776 38.5986C175.273 39.1304 175.909 39.3963 176.683 39.3963C177.181 39.3963 177.626 39.2749 178.019 39.0321C178.412 38.7893 178.718 38.4541 178.938 38.0263C179.169 37.5869 179.285 37.0956 179.285 36.5522C179.285 36.0203 179.169 35.5405 178.938 35.1128C178.718 34.6734 178.412 34.3324 178.019 34.0896C177.626 33.8352 177.181 33.708 176.683 33.708C176.175 33.708 175.718 33.8352 175.313 34.0896C174.92 34.3324 174.608 34.6676 174.377 35.0954C174.157 35.5232 174.047 36.0088 174.047 36.5522ZM183.384 31.8351H185.517V32.997C185.759 32.5577 186.112 32.2224 186.575 31.9912C187.049 31.7484 187.586 31.627 188.187 31.627C188.87 31.627 189.482 31.7773 190.026 32.0779C190.569 32.3785 190.991 32.8005 191.292 33.3439C191.592 33.8872 191.743 34.5058 191.743 35.1995V41.2693H189.471V35.7371C189.471 35.1243 189.291 34.633 188.933 34.263C188.586 33.893 188.13 33.708 187.563 33.708C186.997 33.708 186.534 33.893 186.176 34.263C185.829 34.633 185.655 35.1243 185.655 35.7371V41.2693H183.384V31.8351Z" fill="#0B0B0B"/>
<rect x="408.508" y="41.429" width="61.6615" height="139.702" rx="7.70769" fill="#EBEBEB"/>
<rect x="408.508" y="71.6116" width="61.6615" height="109.519" rx="7.70769" fill="#FFD978"/>
<rect x="408.508" y="97.4819" width="61.6615" height="83.6487" rx="7.70769" fill="#FA7A68"/>
<rect x="408.508" y="115.615" width="61.6615" height="65.5392" rx="7.70769" fill="#CFB8FF"/>
<path d="M39.4977 70.902H42.3187C43.182 70.902 43.9373 71.0793 44.5848 71.4339C45.2399 71.7884 45.7448 72.2933 46.0993 72.9484C46.4539 73.5959 46.6312 74.3474 46.6312 75.2029C46.6312 76.0585 46.4539 76.8138 46.0993 77.469C45.7448 78.1164 45.2399 78.6213 44.5848 78.9836C43.9373 79.3381 43.182 79.5154 42.3187 79.5154H39.4977V70.902ZM42.3303 78.4748C42.9623 78.4748 43.5134 78.3438 43.9836 78.0817C44.4537 77.812 44.816 77.4304 45.0704 76.9372C45.3247 76.4439 45.4519 75.8658 45.4519 75.2029C45.4519 74.5401 45.3247 73.9658 45.0704 73.4803C44.816 72.987 44.4499 72.6093 43.972 72.3472C43.5018 72.0775 42.9546 71.9426 42.3303 71.9426H40.6307V78.4748H42.3303ZM50.8073 79.6541C50.2215 79.6541 49.6897 79.5115 49.2118 79.2263C48.7339 78.9412 48.3601 78.5519 48.0904 78.0586C47.8206 77.5576 47.6857 76.9988 47.6857 76.3822C47.6857 75.7656 47.8167 75.2106 48.0788 74.7173C48.3486 74.224 48.7108 73.8387 49.1656 73.5612C49.628 73.2837 50.1445 73.145 50.7148 73.145C51.3083 73.145 51.8247 73.2837 52.2641 73.5612C52.7111 73.8387 53.0503 74.2086 53.2815 74.6711C53.5204 75.1258 53.6399 75.6153 53.6399 76.1394C53.6399 76.3167 53.6206 76.5094 53.5821 76.7175H48.8187C48.8341 77.1106 48.9343 77.4536 49.1193 77.7465C49.3043 78.0394 49.5433 78.2667 49.8361 78.4286C50.1367 78.5905 50.4643 78.6714 50.8189 78.6714C51.5742 78.6714 52.1562 78.3284 52.5647 77.6424L53.4665 78.1049C53.2661 78.5519 52.9269 78.9219 52.4491 79.2148C51.9712 79.5077 51.4239 79.6541 50.8073 79.6541ZM52.4722 75.7926C52.4568 75.307 52.2795 74.9062 51.9403 74.5902C51.6089 74.2664 51.2004 74.1046 50.7148 74.1046C50.2369 74.1046 49.8246 74.2587 49.4777 74.567C49.1309 74.8676 48.9189 75.2761 48.8419 75.7926H52.4722ZM57.2732 79.6541C56.672 79.6541 56.1402 79.5077 55.6777 79.2148C55.2152 78.9142 54.8838 78.5095 54.6834 78.0008L55.5505 77.5615C55.7278 77.9237 55.9706 78.2089 56.2789 78.417C56.5872 78.6251 56.9225 78.7292 57.2848 78.7292C57.6316 78.7292 57.9168 78.6483 58.1403 78.4864C58.3638 78.3245 58.4756 78.1126 58.4756 77.8505C58.4756 77.5962 58.3754 77.3919 58.175 77.2378C57.9746 77.0759 57.7588 76.9795 57.5276 76.9487L56.5911 76.8215C56.0361 76.6828 55.6199 76.4516 55.3424 76.1278C55.0649 75.8041 54.9262 75.4226 54.9262 74.9833C54.9262 74.621 55.0187 74.3011 55.2037 74.0236C55.3964 73.7462 55.6584 73.5304 55.9899 73.3762C56.329 73.222 56.7028 73.145 57.1113 73.145C57.6509 73.145 58.1326 73.2799 58.5565 73.5496C58.9882 73.8194 59.2965 74.1932 59.4815 74.6711L58.6259 75.1104C58.4717 74.7944 58.2559 74.5439 57.9785 74.3589C57.7087 74.1739 57.4081 74.0815 57.0767 74.0815C56.7606 74.0815 56.5063 74.1585 56.3136 74.3127C56.1209 74.4668 56.0246 74.6672 56.0246 74.9139C56.0246 75.1682 56.1132 75.3725 56.2905 75.5266C56.4755 75.6731 56.6759 75.7656 56.8917 75.8041L57.9206 75.9429C58.4371 76.0816 58.8379 76.3205 59.123 76.6597C59.4159 76.9911 59.5624 77.3765 59.5624 77.8158C59.5624 78.1704 59.466 78.4864 59.2733 78.7639C59.0807 79.0414 58.8109 79.261 58.464 79.4229C58.1172 79.577 57.7202 79.6541 57.2732 79.6541ZM60.9468 73.2837H62.022V79.5154H60.9468V73.2837ZM60.8196 71.6188C60.8196 71.4184 60.8813 71.2566 61.0046 71.1333C61.1279 71.0099 61.2898 70.9483 61.4902 70.9483C61.6906 70.9483 61.8524 71.0099 61.9758 71.1333C62.0991 71.2566 62.1607 71.4184 62.1607 71.6188C62.1607 71.8192 62.0991 71.9811 61.9758 72.1044C61.8524 72.2278 61.6906 72.2894 61.4902 72.2894C61.2898 72.2894 61.1279 72.2278 61.0046 72.1044C60.8813 71.9811 60.8196 71.8192 60.8196 71.6188ZM66.6617 82.0589C66.0066 82.0589 65.4285 81.9086 64.9275 81.608C64.4342 81.3151 64.0835 80.922 63.8754 80.4287L64.8812 79.9663C64.9968 80.2746 65.2088 80.5251 65.5171 80.7178C65.8254 80.9182 66.2031 81.0184 66.6501 81.0184C67.1974 81.0184 67.6521 80.8604 68.0144 80.5444C68.3767 80.2361 68.5578 79.8044 68.5578 79.2495V78.3824C68.3266 78.6984 68.0298 78.9412 67.6676 79.1107C67.3053 79.2803 66.9122 79.3651 66.4883 79.3651C65.9102 79.3651 65.3899 79.2302 64.9275 78.9604C64.465 78.683 64.0989 78.3091 63.8291 77.839C63.5671 77.3611 63.436 76.8331 63.436 76.255C63.436 75.6769 63.5671 75.1528 63.8291 74.6827C64.0912 74.2048 64.4535 73.831 64.9159 73.5612C65.3784 73.2837 65.8986 73.145 66.4767 73.145C66.9084 73.145 67.3053 73.2336 67.6676 73.4109C68.0298 73.5805 68.3381 73.8271 68.5925 74.1508V73.2837H69.6446V79.2495C69.6446 79.789 69.5174 80.2707 69.2631 80.6947C69.0087 81.1186 68.6541 81.45 68.1994 81.689C67.7446 81.9356 67.2321 82.0589 66.6617 82.0589ZM64.5691 76.255C64.5691 76.6327 64.6539 76.9795 64.8234 77.2956C65.0007 77.6116 65.2435 77.8621 65.5518 78.0471C65.8601 78.232 66.2031 78.3245 66.5808 78.3245C66.943 78.3245 67.2745 78.232 67.5751 78.0471C67.8834 77.8621 68.1223 77.6116 68.2919 77.2956C68.4692 76.9795 68.5578 76.6327 68.5578 76.255C68.5578 75.8773 68.4692 75.5305 68.2919 75.2145C68.1223 74.8985 67.8834 74.648 67.5751 74.463C67.2745 74.278 66.943 74.1855 66.5808 74.1855C66.2031 74.1855 65.8601 74.278 65.5518 74.463C65.2512 74.648 65.0123 74.8985 64.835 75.2145C64.6577 75.5305 64.5691 75.8773 64.5691 76.255ZM71.3115 73.2837H72.3636V74.0468C72.5486 73.7539 72.7953 73.5304 73.1036 73.3762C73.4119 73.222 73.7587 73.145 74.1441 73.145C74.5834 73.145 74.9804 73.249 75.3349 73.4571C75.6895 73.6575 75.967 73.935 76.1674 74.2896C76.3755 74.6441 76.4795 75.0411 76.4795 75.4804V79.5154H75.3927V75.8272C75.3927 75.3185 75.254 74.9177 74.9765 74.6248C74.7068 74.332 74.3484 74.1855 73.9013 74.1855C73.4543 74.1855 73.0881 74.3358 72.803 74.6364C72.5255 74.9293 72.3867 75.3262 72.3867 75.8272V79.5154H71.3115V73.2837Z" fill="#0B0B0B"/>
<circle cx="30.8307" cy="75.1498" r="1.92692" fill="#CFB8FF"/>
<path d="M39.4977 102.696H42.3187C43.182 102.696 43.9373 102.874 44.5848 103.228C45.2399 103.583 45.7448 104.088 46.0993 104.743C46.4539 105.39 46.6312 106.142 46.6312 106.997C46.6312 107.853 46.4539 108.608 46.0993 109.263C45.7448 109.911 45.2399 110.416 44.5848 110.778C43.9373 111.133 43.182 111.31 42.3187 111.31H39.4977V102.696ZM42.3303 110.269C42.9623 110.269 43.5134 110.138 43.9836 109.876C44.4537 109.606 44.816 109.225 45.0704 108.732C45.3247 108.238 45.4519 107.66 45.4519 106.997C45.4519 106.334 45.3247 105.76 45.0704 105.275C44.816 104.781 44.4499 104.404 43.972 104.142C43.5018 103.872 42.9546 103.737 42.3303 103.737H40.6307V110.269H42.3303ZM50.8073 111.449C50.2215 111.449 49.6897 111.306 49.2118 111.021C48.7339 110.736 48.3601 110.346 48.0904 109.853C47.8206 109.352 47.6857 108.793 47.6857 108.177C47.6857 107.56 47.8167 107.005 48.0788 106.512C48.3486 106.018 48.7108 105.633 49.1656 105.356C49.628 105.078 50.1445 104.939 50.7148 104.939C51.3083 104.939 51.8247 105.078 52.2641 105.356C52.7111 105.633 53.0503 106.003 53.2815 106.466C53.5204 106.92 53.6399 107.41 53.6399 107.934C53.6399 108.111 53.6206 108.304 53.5821 108.512H48.8187C48.8341 108.905 48.9343 109.248 49.1193 109.541C49.3043 109.834 49.5433 110.061 49.8361 110.223C50.1367 110.385 50.4643 110.466 50.8189 110.466C51.5742 110.466 52.1562 110.123 52.5647 109.437L53.4665 109.899C53.2661 110.346 52.9269 110.716 52.4491 111.009C51.9712 111.302 51.4239 111.449 50.8073 111.449ZM52.4722 107.587C52.4568 107.101 52.2795 106.701 51.9403 106.385C51.6089 106.061 51.2004 105.899 50.7148 105.899C50.2369 105.899 49.8246 106.053 49.4777 106.361C49.1309 106.662 48.9189 107.071 48.8419 107.587H52.4722ZM54.2237 105.078H55.4261L57.1719 109.795L58.9292 105.078H60.1316L57.6806 111.31H56.6631L54.2237 105.078ZM63.8479 111.449C63.2621 111.449 62.7303 111.306 62.2524 111.021C61.7746 110.736 61.4007 110.346 61.131 109.853C60.8612 109.352 60.7263 108.793 60.7263 108.177C60.7263 107.56 60.8573 107.005 61.1194 106.512C61.3892 106.018 61.7514 105.633 62.2062 105.356C62.6686 105.078 63.1851 104.939 63.7554 104.939C64.3489 104.939 64.8653 105.078 65.3047 105.356C65.7517 105.633 66.0909 106.003 66.3221 106.466C66.561 106.92 66.6805 107.41 66.6805 107.934C66.6805 108.111 66.6612 108.304 66.6227 108.512H61.8593C61.8748 108.905 61.975 109.248 62.1599 109.541C62.3449 109.834 62.5839 110.061 62.8768 110.223C63.1774 110.385 63.5049 110.466 63.8595 110.466C64.6148 110.466 65.1968 110.123 65.6053 109.437L66.5071 109.899C66.3067 110.346 65.9675 110.716 65.4897 111.009C65.0118 111.302 64.4645 111.449 63.8479 111.449ZM65.5128 107.587C65.4974 107.101 65.3201 106.701 64.981 106.385C64.6495 106.061 64.241 105.899 63.7554 105.899C63.2776 105.899 62.8652 106.053 62.5183 106.361C62.1715 106.662 61.9595 107.071 61.8825 107.587H65.5128ZM68.0824 102.558H69.1576V111.31H68.0824V102.558ZM73.7858 111.449C73.1923 111.449 72.6489 111.31 72.1556 111.032C71.67 110.747 71.2846 110.358 70.9995 109.865C70.7143 109.364 70.5717 108.805 70.5717 108.188C70.5717 107.579 70.7104 107.028 70.9879 106.535C71.2731 106.034 71.6585 105.645 72.144 105.367C72.6373 105.082 73.1846 104.939 73.7858 104.939C74.3793 104.939 74.9188 105.082 75.4044 105.367C75.8977 105.645 76.2831 106.03 76.5606 106.523C76.8457 107.017 76.9883 107.572 76.9883 108.188C76.9883 108.813 76.8457 109.371 76.5606 109.865C76.2754 110.358 75.8861 110.747 75.3928 111.032C74.9073 111.31 74.3716 111.449 73.7858 111.449ZM71.7047 108.188C71.7047 108.604 71.7933 108.982 71.9706 109.321C72.1556 109.66 72.4061 109.926 72.7221 110.119C73.0458 110.312 73.4004 110.408 73.7858 110.408C74.1635 110.408 74.5103 110.312 74.8263 110.119C75.1423 109.926 75.389 109.66 75.5663 109.321C75.7512 108.982 75.8437 108.604 75.8437 108.188C75.8437 107.772 75.7512 107.398 75.5663 107.067C75.389 106.728 75.1423 106.462 74.8263 106.269C74.5103 106.076 74.1635 105.98 73.7858 105.98C73.4004 105.98 73.0458 106.076 72.7221 106.269C72.4061 106.462 72.1556 106.728 71.9706 107.067C71.7933 107.398 71.7047 107.772 71.7047 108.188ZM78.3907 105.078H79.4428V105.945C79.6895 105.629 79.9978 105.383 80.3677 105.205C80.7454 105.028 81.1655 104.939 81.6279 104.939C82.206 104.939 82.7301 105.082 83.2003 105.367C83.6705 105.652 84.0405 106.045 84.3102 106.546C84.58 107.04 84.7149 107.591 84.7149 108.2C84.7149 108.809 84.58 109.36 84.3102 109.853C84.0405 110.346 83.6705 110.736 83.2003 111.021C82.7301 111.306 82.2022 111.449 81.6164 111.449C81.1693 111.449 80.757 111.364 80.3793 111.194C80.0093 111.017 79.7049 110.766 79.4659 110.443V113.622H78.3907V105.078ZM79.4659 108.2C79.4659 108.616 79.5546 108.994 79.7319 109.333C79.9168 109.664 80.1673 109.926 80.4834 110.119C80.7994 110.312 81.1501 110.408 81.5355 110.408C81.9208 110.408 82.2677 110.312 82.576 110.119C82.892 109.926 83.1348 109.664 83.3044 109.333C83.4816 108.994 83.5703 108.616 83.5703 108.2C83.5703 107.784 83.4816 107.406 83.3044 107.067C83.1271 106.728 82.8843 106.462 82.576 106.269C82.2677 106.076 81.9208 105.98 81.5355 105.98C81.1501 105.98 80.7994 106.076 80.4834 106.269C80.1673 106.462 79.9168 106.728 79.7319 107.067C79.5546 107.406 79.4659 107.784 79.4659 108.2ZM86.1247 105.078H87.1768V105.853C87.3541 105.56 87.5931 105.336 87.8937 105.182C88.202 105.02 88.5411 104.939 88.9111 104.939C89.335 104.939 89.7204 105.043 90.0672 105.252C90.4218 105.452 90.6916 105.726 90.8765 106.072C91.0769 105.71 91.3467 105.433 91.6858 105.24C92.0327 105.04 92.4142 104.939 92.8304 104.939C93.2544 104.939 93.6436 105.043 93.9982 105.252C94.3527 105.452 94.634 105.729 94.8421 106.084C95.0503 106.439 95.1543 106.835 95.1543 107.275V111.31H94.0675V107.622C94.0675 107.113 93.9326 106.712 93.6629 106.419C93.4008 106.126 93.0578 105.98 92.6339 105.98C92.2023 105.98 91.8516 106.13 91.5818 106.431C91.312 106.724 91.1771 107.121 91.1771 107.622V111.31H90.0904V107.622C90.0904 107.113 89.9593 106.712 89.6973 106.419C89.4352 106.126 89.0884 105.98 88.6567 105.98C88.2328 105.98 87.8821 106.13 87.6046 106.431C87.3349 106.724 87.2 107.121 87.2 107.622V111.31H86.1247V105.078ZM99.5487 111.449C98.9629 111.449 98.4311 111.306 97.9532 111.021C97.4753 110.736 97.1015 110.346 96.8317 109.853C96.562 109.352 96.4271 108.793 96.4271 108.177C96.4271 107.56 96.5581 107.005 96.8202 106.512C97.0899 106.018 97.4522 105.633 97.9069 105.356C98.3694 105.078 98.8858 104.939 99.4562 104.939C100.05 104.939 100.566 105.078 101.005 105.356C101.452 105.633 101.792 106.003 102.023 106.466C102.262 106.92 102.381 107.41 102.381 107.934C102.381 108.111 102.362 108.304 102.323 108.512H97.5601C97.5755 108.905 97.6757 109.248 97.8607 109.541C98.0457 109.834 98.2846 110.061 98.5775 110.223C98.8781 110.385 99.2057 110.466 99.5602 110.466C100.316 110.466 100.898 110.123 101.306 109.437L102.208 109.899C102.007 110.346 101.668 110.716 101.19 111.009C100.713 111.302 100.165 111.449 99.5487 111.449ZM101.214 107.587C101.198 107.101 101.021 106.701 100.682 106.385C100.35 106.061 99.9418 105.899 99.4562 105.899C98.9783 105.899 98.566 106.053 98.2191 106.361C97.8723 106.662 97.6603 107.071 97.5832 107.587H101.214ZM103.783 105.078H104.835V105.841C105.02 105.548 105.267 105.325 105.575 105.171C105.884 105.016 106.23 104.939 106.616 104.939C107.055 104.939 107.452 105.043 107.807 105.252C108.161 105.452 108.439 105.729 108.639 106.084C108.847 106.439 108.951 106.835 108.951 107.275V111.31H107.864V107.622C107.864 107.113 107.726 106.712 107.448 106.419C107.178 106.126 106.82 105.98 106.373 105.98C105.926 105.98 105.56 106.13 105.275 106.431C104.997 106.724 104.858 107.121 104.858 107.622V111.31H103.783V105.078ZM113.022 111.379C112.413 111.379 111.943 111.21 111.611 110.87C111.288 110.524 111.126 110.03 111.126 109.391V106.107H109.993V105.078H110.224C110.501 105.078 110.721 104.997 110.883 104.835C111.045 104.666 111.126 104.438 111.126 104.153V103.645H112.201V105.078H113.6V106.107H112.201V109.356C112.201 110.05 112.548 110.396 113.241 110.396C113.388 110.396 113.53 110.385 113.669 110.362V111.321C113.507 111.36 113.292 111.379 113.022 111.379Z" fill="#0B0B0B"/>
<circle cx="30.8307" cy="106.945" r="1.92692" fill="#FA7A68"/>
<path d="M43.4633 143.243C42.6617 143.243 41.9372 143.054 41.2897 142.676C40.65 142.291 40.149 141.763 39.7867 141.092C39.4245 140.414 39.2433 139.651 39.2433 138.803C39.2433 137.955 39.4245 137.192 39.7867 136.514C40.149 135.836 40.65 135.308 41.2897 134.93C41.9372 134.545 42.6617 134.352 43.4633 134.352C44.0337 134.352 44.5578 134.456 45.0357 134.664C45.5135 134.864 45.9182 135.13 46.2496 135.462C46.5811 135.793 46.82 136.152 46.9664 136.537L45.9259 137.011C45.7178 136.518 45.3979 136.129 44.9663 135.843C44.5424 135.55 44.0414 135.404 43.4633 135.404C42.8621 135.404 42.3264 135.547 41.8562 135.832C41.3938 136.117 41.0315 136.518 40.7695 137.034C40.5074 137.551 40.3764 138.14 40.3764 138.803C40.3764 139.466 40.5074 140.056 40.7695 140.572C41.0315 141.081 41.3938 141.478 41.8562 141.763C42.3264 142.048 42.8621 142.191 43.4633 142.191C44.0414 142.191 44.5424 142.048 44.9663 141.763C45.3979 141.47 45.7178 141.077 45.9259 140.584L46.9664 141.058C46.82 141.451 46.5811 141.813 46.2496 142.144C45.9182 142.476 45.5135 142.742 45.0357 142.942C44.5578 143.143 44.0337 143.243 43.4633 143.243ZM51.2272 143.243C50.6337 143.243 50.0904 143.104 49.5971 142.827C49.1115 142.541 48.7261 142.152 48.4409 141.659C48.1557 141.158 48.0131 140.599 48.0131 139.982C48.0131 139.373 48.1519 138.822 48.4293 138.329C48.7145 137.828 49.0999 137.439 49.5855 137.161C50.0788 136.876 50.626 136.734 51.2272 136.734C51.8207 136.734 52.3603 136.876 52.8459 137.161C53.3391 137.439 53.7245 137.824 54.002 138.318C54.2872 138.811 54.4298 139.366 54.4298 139.982C54.4298 140.607 54.2872 141.166 54.002 141.659C53.7168 142.152 53.3276 142.541 52.8343 142.827C52.3487 143.104 51.813 143.243 51.2272 143.243ZM49.1462 139.982C49.1462 140.399 49.2348 140.776 49.4121 141.115C49.5971 141.455 49.8476 141.72 50.1636 141.913C50.4873 142.106 50.8419 142.202 51.2272 142.202C51.6049 142.202 51.9518 142.106 52.2678 141.913C52.5838 141.72 52.8304 141.455 53.0077 141.115C53.1927 140.776 53.2852 140.399 53.2852 139.982C53.2852 139.566 53.1927 139.192 53.0077 138.861C52.8304 138.522 52.5838 138.256 52.2678 138.063C51.9518 137.87 51.6049 137.774 51.2272 137.774C50.8419 137.774 50.4873 137.87 50.1636 138.063C49.8476 138.256 49.5971 138.522 49.4121 138.861C49.2348 139.192 49.1462 139.566 49.1462 139.982ZM55.8322 136.872H56.8843V137.739C57.1309 137.423 57.4392 137.177 57.8092 137C58.1869 136.822 58.6069 136.734 59.0694 136.734C59.6475 136.734 60.1716 136.876 60.6418 137.161C61.1119 137.447 61.4819 137.84 61.7517 138.341C62.0214 138.834 62.1563 139.385 62.1563 139.994C62.1563 140.603 62.0214 141.154 61.7517 141.647C61.4819 142.141 61.1119 142.53 60.6418 142.815C60.1716 143.1 59.6436 143.243 59.0578 143.243C58.6108 143.243 58.1984 143.158 57.8207 142.988C57.4508 142.811 57.1463 142.561 56.9074 142.237V145.416H55.8322V136.872ZM56.9074 139.994C56.9074 140.41 56.996 140.788 57.1733 141.127C57.3583 141.458 57.6088 141.72 57.9248 141.913C58.2408 142.106 58.5915 142.202 58.9769 142.202C59.3623 142.202 59.7091 142.106 60.0174 141.913C60.3335 141.72 60.5762 141.458 60.7458 141.127C60.9231 140.788 61.0117 140.41 61.0117 139.994C61.0117 139.578 60.9231 139.2 60.7458 138.861C60.5685 138.522 60.3257 138.256 60.0174 138.063C59.7091 137.87 59.3623 137.774 58.9769 137.774C58.5915 137.774 58.2408 137.87 57.9248 138.063C57.6088 138.256 57.3583 138.522 57.1733 138.861C56.996 139.2 56.9074 139.578 56.9074 139.994ZM65.2222 143.092L62.748 136.872H63.9158L65.8118 141.74L67.6964 136.872H68.8872L65.4419 145.416H64.251L65.2222 143.092ZM69.1385 136.872H70.3293L71.8208 141.439L73.2775 136.872H74.2949L75.7517 141.439L77.2547 136.872H78.434L76.2951 143.104H75.2661L73.7862 138.41L72.3064 143.104H71.2774L69.1385 136.872ZM79.3956 136.872H80.4477V137.612C80.7714 137.073 81.3225 136.803 82.101 136.803H82.4825V137.82H81.9391C81.4921 137.82 81.1337 137.959 80.8639 138.237C80.6018 138.514 80.4708 138.899 80.4708 139.393V143.104H79.3956V136.872ZM83.4376 136.872H84.5128V143.104H83.4376V136.872ZM83.3104 135.207C83.3104 135.007 83.3721 134.845 83.4954 134.722C83.6187 134.599 83.7806 134.537 83.981 134.537C84.1814 134.537 84.3432 134.599 84.4666 134.722C84.5899 134.845 84.6516 135.007 84.6516 135.207C84.6516 135.408 84.5899 135.57 84.4666 135.693C84.3432 135.816 84.1814 135.878 83.981 135.878C83.7806 135.878 83.6187 135.816 83.4954 135.693C83.3721 135.57 83.3104 135.408 83.3104 135.207ZM88.7132 143.173C88.1043 143.173 87.6341 143.004 87.3027 142.665C86.9789 142.318 86.8171 141.825 86.8171 141.185V137.901H85.6841V136.872H85.9153C86.1928 136.872 86.4124 136.791 86.5743 136.63C86.7362 136.46 86.8171 136.233 86.8171 135.947V135.439H87.8923V136.872H89.2913V137.901H87.8923V141.15C87.8923 141.844 88.2392 142.191 88.9328 142.191C89.0793 142.191 89.2219 142.179 89.3606 142.156V143.116C89.1988 143.154 88.9829 143.173 88.7132 143.173ZM93.2971 143.173C92.6882 143.173 92.2181 143.004 91.8866 142.665C91.5629 142.318 91.4011 141.825 91.4011 141.185V137.901H90.268V136.872H90.4993C90.7767 136.872 90.9964 136.791 91.1583 136.63C91.3201 136.46 91.4011 136.233 91.4011 135.947V135.439H92.4763V136.872H93.8752V137.901H92.4763V141.15C92.4763 141.844 92.8231 142.191 93.5168 142.191C93.6633 142.191 93.8059 142.179 93.9446 142.156V143.116C93.7827 143.154 93.5669 143.173 93.2971 143.173ZM95.3491 136.872H96.4244V143.104H95.3491V136.872ZM95.222 135.207C95.222 135.007 95.2836 134.845 95.4069 134.722C95.5303 134.599 95.6921 134.537 95.8925 134.537C96.0929 134.537 96.2548 134.599 96.3781 134.722C96.5014 134.845 96.5631 135.007 96.5631 135.207C96.5631 135.408 96.5014 135.57 96.3781 135.693C96.2548 135.816 96.0929 135.878 95.8925 135.878C95.6921 135.878 95.5303 135.816 95.4069 135.693C95.2836 135.57 95.222 135.408 95.222 135.207ZM98.0927 136.872H99.1448V137.635C99.3298 137.343 99.5765 137.119 99.8848 136.965C100.193 136.811 100.54 136.734 100.925 136.734C101.365 136.734 101.762 136.838 102.116 137.046C102.471 137.246 102.748 137.524 102.949 137.878C103.157 138.233 103.261 138.63 103.261 139.069V143.104H102.174V139.416C102.174 138.907 102.035 138.506 101.758 138.213C101.488 137.921 101.13 137.774 100.683 137.774C100.235 137.774 99.8694 137.924 99.5842 138.225C99.3067 138.518 99.168 138.915 99.168 139.416V143.104H98.0927V136.872ZM107.771 145.648C107.116 145.648 106.537 145.497 106.036 145.197C105.543 144.904 105.192 144.511 104.984 144.017L105.99 143.555C106.106 143.863 106.318 144.114 106.626 144.306C106.934 144.507 107.312 144.607 107.759 144.607C108.306 144.607 108.761 144.449 109.123 144.133C109.486 143.825 109.667 143.393 109.667 142.838V141.971C109.436 142.287 109.139 142.53 108.777 142.699C108.414 142.869 108.021 142.954 107.597 142.954C107.019 142.954 106.499 142.819 106.036 142.549C105.574 142.272 105.208 141.898 104.938 141.428C104.676 140.95 104.545 140.422 104.545 139.844C104.545 139.266 104.676 138.741 104.938 138.271C105.2 137.793 105.562 137.42 106.025 137.15C106.487 136.872 107.008 136.734 107.586 136.734C108.017 136.734 108.414 136.822 108.777 137C109.139 137.169 109.447 137.416 109.701 137.739V136.872H110.754V142.838C110.754 143.378 110.626 143.859 110.372 144.283C110.118 144.707 109.763 145.039 109.308 145.278C108.854 145.524 108.341 145.648 107.771 145.648ZM105.678 139.844C105.678 140.221 105.763 140.568 105.932 140.884C106.11 141.2 106.352 141.451 106.661 141.636C106.969 141.821 107.312 141.913 107.69 141.913C108.052 141.913 108.383 141.821 108.684 141.636C108.992 141.451 109.231 141.2 109.401 140.884C109.578 140.568 109.667 140.221 109.667 139.844C109.667 139.466 109.578 139.119 109.401 138.803C109.231 138.487 108.992 138.237 108.684 138.052C108.383 137.867 108.052 137.774 107.69 137.774C107.312 137.774 106.969 137.867 106.661 138.052C106.36 138.237 106.121 138.487 105.944 138.803C105.767 139.119 105.678 139.466 105.678 139.844Z" fill="#0B0B0B"/>
<circle cx="30.8307" cy="138.738" r="1.92692" fill="#FFD978"/>
<path d="M39.4977 166.285H40.4457L44.9663 172.643V166.285H46.1109V174.898H45.1628L40.6307 168.447V174.898H39.4977V166.285ZM50.8659 175.037C50.2724 175.037 49.7291 174.898 49.2358 174.62C48.7502 174.335 48.3648 173.946 48.0796 173.453C47.7944 172.952 47.6518 172.393 47.6518 171.776C47.6518 171.167 47.7906 170.616 48.068 170.123C48.3532 169.622 48.7386 169.233 49.2242 168.955C49.7175 168.67 50.2647 168.528 50.8659 168.528C51.4594 168.528 51.999 168.67 52.4846 168.955C52.9778 169.233 53.3632 169.618 53.6407 170.111C53.9259 170.605 54.0685 171.16 54.0685 171.776C54.0685 172.401 53.9259 172.959 53.6407 173.453C53.3555 173.946 52.9663 174.335 52.473 174.62C51.9874 174.898 51.4517 175.037 50.8659 175.037ZM48.7849 171.776C48.7849 172.193 48.8735 172.57 49.0508 172.909C49.2358 173.249 49.4863 173.514 49.8023 173.707C50.126 173.9 50.4806 173.996 50.8659 173.996C51.2436 173.996 51.5905 173.9 51.9065 173.707C52.2225 173.514 52.4691 173.249 52.6464 172.909C52.8314 172.57 52.9239 172.193 52.9239 171.776C52.9239 171.36 52.8314 170.986 52.6464 170.655C52.4691 170.316 52.2225 170.05 51.9065 169.857C51.5905 169.664 51.2436 169.568 50.8659 169.568C50.4806 169.568 50.126 169.664 49.8023 169.857C49.4863 170.05 49.2358 170.316 49.0508 170.655C48.8735 170.986 48.7849 171.36 48.7849 171.776ZM57.8899 174.967C57.281 174.967 56.8109 174.798 56.4794 174.459C56.1557 174.112 55.9938 173.618 55.9938 172.979V169.695H54.8608V168.666H55.092C55.3695 168.666 55.5892 168.585 55.751 168.423C55.9129 168.254 55.9938 168.027 55.9938 167.741V167.233H57.0691V168.666H58.468V169.695H57.0691V172.944C57.0691 173.638 57.4159 173.985 58.1096 173.985C58.256 173.985 58.3986 173.973 58.5374 173.95V174.91C58.3755 174.948 58.1597 174.967 57.8899 174.967ZM65.0273 175.037C64.4415 175.037 63.9174 174.929 63.4549 174.713C62.9925 174.489 62.6109 174.197 62.3103 173.834C62.0097 173.464 61.8016 173.067 61.686 172.643L62.7265 172.32C62.8884 172.836 63.189 173.245 63.6283 173.545C64.0754 173.846 64.5417 173.996 65.0273 173.996C65.351 173.996 65.64 173.931 65.8944 173.8C66.1565 173.669 66.3607 173.503 66.5072 173.302C66.6536 173.102 66.7268 172.902 66.7268 172.701C66.7268 172.385 66.6151 172.1 66.3915 171.846C66.1757 171.591 65.8751 171.422 65.4897 171.337L64.033 171.013C63.4164 170.882 62.9269 170.589 62.5647 170.135C62.2101 169.672 62.0328 169.144 62.0328 168.551C62.0328 168.096 62.1485 167.687 62.3797 167.325C62.6186 166.955 62.9424 166.666 63.3509 166.458C63.7594 166.25 64.2103 166.146 64.7036 166.146C65.2508 166.146 65.7364 166.242 66.1603 166.435C66.5919 166.628 66.9426 166.886 67.2124 167.21C67.4899 167.526 67.6864 167.869 67.8021 168.239L66.7731 168.608C66.6035 168.154 66.3222 167.803 65.9291 167.556C65.5437 167.31 65.139 167.186 64.7151 167.186C64.4222 167.186 64.1602 167.252 63.9289 167.383C63.6977 167.506 63.5166 167.668 63.3855 167.869C63.2545 168.069 63.189 168.273 63.189 168.481C63.189 168.805 63.3046 169.102 63.5358 169.372C63.7748 169.634 64.0715 169.803 64.4261 169.88L65.7441 170.181C66.4378 170.335 66.9696 170.628 67.3396 171.06C67.7096 171.491 67.8945 172.008 67.8945 172.609C67.8945 173.064 67.7751 173.476 67.5361 173.846C67.2972 174.216 66.9581 174.509 66.5187 174.725C66.0871 174.933 65.5899 175.037 65.0273 175.037ZM69.4147 168.666H70.4668V169.533C70.7135 169.217 71.0218 168.971 71.3917 168.793C71.7694 168.616 72.1895 168.528 72.6519 168.528C73.23 168.528 73.7541 168.67 74.2243 168.955C74.6945 169.241 75.0645 169.634 75.3342 170.135C75.604 170.628 75.7389 171.179 75.7389 171.788C75.7389 172.397 75.604 172.948 75.3342 173.441C75.0645 173.934 74.6945 174.324 74.2243 174.609C73.7541 174.894 73.2262 175.037 72.6404 175.037C72.1933 175.037 71.781 174.952 71.4033 174.782C71.0333 174.605 70.7289 174.355 70.4899 174.031V177.21H69.4147V168.666ZM70.4899 171.788C70.4899 172.204 70.5786 172.582 70.7559 172.921C70.9408 173.252 71.1913 173.514 71.5074 173.707C71.8234 173.9 72.1741 173.996 72.5595 173.996C72.9448 173.996 73.2917 173.9 73.6 173.707C73.916 173.514 74.1588 173.252 74.3284 172.921C74.5056 172.582 74.5943 172.204 74.5943 171.788C74.5943 171.372 74.5056 170.994 74.3284 170.655C74.1511 170.316 73.9083 170.05 73.6 169.857C73.2917 169.664 72.9448 169.568 72.5595 169.568C72.1741 169.568 71.8234 169.664 71.5074 169.857C71.1913 170.05 70.9408 170.316 70.7559 170.655C70.5786 170.994 70.4899 171.372 70.4899 171.788ZM80.016 175.037C79.4302 175.037 78.8984 174.894 78.4205 174.609C77.9426 174.324 77.5688 173.934 77.299 173.441C77.0293 172.94 76.8944 172.381 76.8944 171.765C76.8944 171.148 77.0254 170.593 77.2875 170.1C77.5573 169.607 77.9195 169.221 78.3743 168.944C78.8367 168.666 79.3531 168.528 79.9235 168.528C80.517 168.528 81.0334 168.666 81.4728 168.944C81.9198 169.221 82.2589 169.591 82.4902 170.054C82.7291 170.508 82.8486 170.998 82.8486 171.522C82.8486 171.699 82.8293 171.892 82.7908 172.1H78.0274C78.0428 172.493 78.143 172.836 78.328 173.129C78.513 173.422 78.7519 173.649 79.0448 173.811C79.3454 173.973 79.673 174.054 80.0276 174.054C80.7829 174.054 81.3649 173.711 81.7734 173.025L82.6752 173.487C82.4748 173.934 82.1356 174.304 81.6577 174.597C81.1799 174.89 80.6326 175.037 80.016 175.037ZM81.6809 171.175C81.6655 170.69 81.4882 170.289 81.149 169.973C80.8176 169.649 80.4091 169.487 79.9235 169.487C79.4456 169.487 79.0333 169.641 78.6864 169.95C78.3396 170.25 78.1276 170.659 78.0505 171.175H81.6809ZM87.1409 175.037C86.532 175.037 85.9847 174.894 85.4992 174.609C85.0136 174.324 84.6359 173.934 84.3661 173.441C84.0964 172.94 83.9615 172.385 83.9615 171.776C83.9615 171.16 84.0964 170.605 84.3661 170.111C84.6359 169.618 85.0097 169.233 85.4876 168.955C85.9732 168.67 86.5243 168.528 87.1409 168.528C87.7421 168.528 88.2893 168.686 88.7826 169.002C89.2836 169.31 89.6382 169.711 89.8463 170.204L88.8751 170.666C88.7287 170.335 88.4975 170.069 88.1814 169.869C87.8731 169.668 87.5263 169.568 87.1409 169.568C86.7632 169.568 86.4164 169.664 86.1004 169.857C85.7921 170.05 85.5493 170.316 85.372 170.655C85.1947 170.986 85.1061 171.364 85.1061 171.788C85.1061 172.204 85.1947 172.582 85.372 172.921C85.557 173.252 85.8036 173.514 86.1119 173.707C86.4202 173.9 86.7632 173.996 87.1409 173.996C87.534 173.996 87.8847 173.896 88.193 173.696C88.5013 173.495 88.7287 173.222 88.8751 172.875L89.8463 173.36C89.6459 173.846 89.2952 174.247 88.7942 174.563C88.2932 174.879 87.7421 175.037 87.1409 175.037ZM91.2168 168.666H92.292V174.898H91.2168V168.666ZM91.0896 167.001C91.0896 166.801 91.1513 166.639 91.2746 166.516C91.3979 166.393 91.5598 166.331 91.7602 166.331C91.9606 166.331 92.1224 166.393 92.2458 166.516C92.3691 166.639 92.4308 166.801 92.4308 167.001C92.4308 167.202 92.3691 167.364 92.2458 167.487C92.1224 167.61 91.9606 167.672 91.7602 167.672C91.5598 167.672 91.3979 167.61 91.2746 167.487C91.1513 167.364 91.0896 167.202 91.0896 167.001ZM95.7871 175.037C95.1705 175.037 94.6695 174.875 94.2841 174.551C93.8987 174.22 93.706 173.792 93.706 173.268C93.706 172.759 93.8718 172.335 94.2032 171.996C94.5423 171.649 95.0549 171.418 95.7409 171.302L97.8682 170.955V170.666C97.8682 170.327 97.741 170.054 97.4867 169.846C97.2323 169.63 96.9047 169.522 96.5039 169.522C96.1494 169.522 95.8334 169.614 95.5559 169.799C95.2861 169.977 95.0857 170.216 94.9547 170.516L94.0182 170.031C94.1955 169.599 94.5192 169.241 94.9894 168.955C95.4595 168.67 95.9721 168.528 96.5271 168.528C96.9972 168.528 97.4134 168.62 97.7757 168.805C98.1457 168.982 98.4309 169.233 98.6313 169.557C98.8394 169.88 98.9434 170.25 98.9434 170.666V174.898H97.8913V174.089C97.6678 174.382 97.3711 174.613 97.0011 174.782C96.6388 174.952 96.2342 175.037 95.7871 175.037ZM94.8391 173.233C94.8391 173.487 94.9393 173.699 95.1397 173.869C95.3478 174.039 95.606 174.123 95.9143 174.123C96.292 174.123 96.6273 174.042 96.9202 173.881C97.2208 173.711 97.452 173.484 97.6138 173.198C97.7834 172.913 97.8682 172.597 97.8682 172.25V171.857L95.9837 172.169C95.2206 172.3 94.8391 172.655 94.8391 173.233ZM101.27 169.695H100.079V168.666H101.27V168.227C101.27 167.795 101.366 167.421 101.559 167.105C101.751 166.789 102.009 166.551 102.333 166.389C102.665 166.227 103.035 166.146 103.443 166.146C103.651 166.146 103.832 166.165 103.987 166.204V167.163C103.871 167.14 103.732 167.129 103.57 167.129C102.761 167.129 102.356 167.495 102.356 168.227V168.666H105.998V174.898H104.923V169.695H102.356V174.898H101.27V169.695ZM110.365 175.037C109.779 175.037 109.247 174.894 108.77 174.609C108.292 174.324 107.918 173.934 107.648 173.441C107.378 172.94 107.243 172.381 107.243 171.765C107.243 171.148 107.374 170.593 107.637 170.1C107.906 169.607 108.269 169.221 108.723 168.944C109.186 168.666 109.702 168.528 110.273 168.528C110.866 168.528 111.382 168.666 111.822 168.944C112.269 169.221 112.608 169.591 112.839 170.054C113.078 170.508 113.198 170.998 113.198 171.522C113.198 171.699 113.178 171.892 113.14 172.1H108.376C108.392 172.493 108.492 172.836 108.677 173.129C108.862 173.422 109.101 173.649 109.394 173.811C109.694 173.973 110.022 174.054 110.377 174.054C111.132 174.054 111.714 173.711 112.122 173.025L113.024 173.487C112.824 173.934 112.485 174.304 112.007 174.597C111.529 174.89 110.982 175.037 110.365 175.037ZM112.03 171.175C112.014 170.69 111.837 170.289 111.498 169.973C111.167 169.649 110.758 169.487 110.273 169.487C109.795 169.487 109.382 169.641 109.035 169.95C108.689 170.25 108.477 170.659 108.4 171.175H112.03ZM117.432 175.037C116.854 175.037 116.33 174.894 115.86 174.609C115.39 174.324 115.02 173.934 114.75 173.441C114.48 172.948 114.345 172.397 114.345 171.788C114.345 171.179 114.48 170.628 114.75 170.135C115.02 169.634 115.39 169.241 115.86 168.955C116.33 168.67 116.854 168.528 117.432 168.528C117.887 168.528 118.295 168.612 118.658 168.782C119.028 168.951 119.336 169.19 119.583 169.499V166.146H120.669V174.898H119.617V173.985C119.386 174.316 119.078 174.574 118.692 174.759C118.315 174.944 117.895 175.037 117.432 175.037ZM115.478 171.788C115.478 172.204 115.567 172.582 115.744 172.921C115.921 173.252 116.164 173.514 116.473 173.707C116.789 173.9 117.139 173.996 117.525 173.996C117.91 173.996 118.257 173.9 118.565 173.707C118.881 173.514 119.128 173.252 119.305 172.921C119.49 172.582 119.583 172.204 119.583 171.788C119.583 171.372 119.49 170.994 119.305 170.655C119.128 170.316 118.881 170.05 118.565 169.857C118.257 169.664 117.91 169.568 117.525 169.568C117.139 169.568 116.789 169.664 116.473 169.857C116.164 170.05 115.921 170.316 115.744 170.655C115.567 170.994 115.478 171.372 115.478 171.788Z" fill="#0B0B0B"/>
<circle cx="30.8307" cy="172.46" r="1.92692" fill="#757575"/>
<path opacity="0.5" d="M308.922 145.416H307.563V144.597H309.876V151.775H308.922V145.416ZM313.692 151.891C313.236 151.891 312.825 151.791 312.458 151.592C312.099 151.386 311.816 151.104 311.611 150.744C311.412 150.384 311.312 149.976 311.312 149.52C311.312 149.141 311.379 148.769 311.514 148.403C311.649 148.037 311.868 147.654 312.169 147.256L314.193 144.597H315.33L313.171 147.41C313.345 147.333 313.563 147.295 313.827 147.295C314.244 147.295 314.623 147.394 314.963 147.593C315.304 147.786 315.57 148.056 315.763 148.403C315.962 148.75 316.062 149.138 316.062 149.569C316.062 150.005 315.959 150.4 315.754 150.754C315.548 151.107 315.265 151.386 314.906 151.592C314.546 151.791 314.141 151.891 313.692 151.891ZM312.266 149.578C312.266 150.002 312.401 150.352 312.67 150.628C312.94 150.905 313.281 151.043 313.692 151.043C313.961 151.043 314.202 150.982 314.414 150.86C314.633 150.731 314.803 150.555 314.925 150.33C315.047 150.105 315.108 149.854 315.108 149.578C315.108 149.154 314.973 148.804 314.703 148.528C314.44 148.252 314.103 148.114 313.692 148.114C313.281 148.114 312.94 148.252 312.67 148.528C312.401 148.804 312.266 149.154 312.266 149.578ZM319.45 151.891C318.884 151.891 318.38 151.743 317.937 151.447C317.494 151.152 317.189 150.754 317.022 150.253L317.793 149.925C317.927 150.272 318.146 150.545 318.448 150.744C318.75 150.943 319.084 151.043 319.45 151.043C319.739 151.043 319.996 150.978 320.22 150.85C320.452 150.715 320.632 150.532 320.76 150.301C320.895 150.063 320.962 149.8 320.962 149.511C320.962 149.215 320.895 148.952 320.76 148.721C320.632 148.483 320.452 148.3 320.22 148.172C319.996 148.037 319.742 147.969 319.459 147.969C319.17 147.969 318.904 148.037 318.66 148.172C318.416 148.306 318.236 148.477 318.12 148.682L317.359 148.518L317.908 144.587H321.627V145.406H318.583L318.284 147.507C318.624 147.263 319.048 147.141 319.556 147.141C320.012 147.141 320.42 147.247 320.779 147.459C321.139 147.664 321.418 147.947 321.617 148.306C321.817 148.666 321.916 149.068 321.916 149.511C321.916 149.96 321.807 150.365 321.589 150.725C321.377 151.084 321.081 151.37 320.702 151.582C320.33 151.788 319.912 151.891 319.45 151.891ZM323.19 144.481H324.086V147.189C324.24 146.958 324.442 146.781 324.693 146.659C324.95 146.53 325.236 146.466 325.55 146.466C325.917 146.466 326.247 146.553 326.543 146.726C326.838 146.893 327.069 147.125 327.236 147.42C327.41 147.716 327.497 148.046 327.497 148.412V151.775H326.591V148.701C326.591 148.278 326.475 147.944 326.244 147.699C326.013 147.455 325.714 147.333 325.348 147.333C324.982 147.333 324.68 147.459 324.442 147.709C324.205 147.953 324.086 148.284 324.086 148.701V151.775H323.19V144.481ZM333.691 150.118H330.165V149.337L333.672 144.597H334.577V149.337H335.512V150.118H334.577V151.775H333.691V150.118ZM333.691 149.337V145.84L331.128 149.337H333.691ZM339.392 151.891C338.827 151.891 338.329 151.736 337.898 151.428C337.468 151.12 337.134 150.686 336.896 150.127C336.659 149.562 336.54 148.913 336.54 148.181C336.54 147.449 336.659 146.803 336.896 146.245C337.134 145.686 337.465 145.252 337.889 144.944C338.319 144.636 338.817 144.481 339.382 144.481C339.947 144.481 340.445 144.636 340.875 144.944C341.306 145.252 341.64 145.686 341.877 146.245C342.115 146.803 342.234 147.449 342.234 148.181C342.234 148.913 342.115 149.562 341.877 150.127C341.64 150.686 341.306 151.12 340.875 151.428C340.452 151.736 339.957 151.891 339.392 151.891ZM337.484 148.181C337.484 148.746 337.561 149.244 337.715 149.675C337.876 150.098 338.101 150.429 338.39 150.667C338.679 150.898 339.013 151.014 339.392 151.014C339.771 151.014 340.102 150.898 340.384 150.667C340.673 150.429 340.895 150.098 341.049 149.675C341.209 149.244 341.29 148.746 341.29 148.181C341.29 147.616 341.209 147.121 341.049 146.697C340.895 146.274 340.673 145.946 340.384 145.715C340.095 145.477 339.761 145.358 339.382 145.358C339.003 145.358 338.669 145.477 338.38 145.715C338.098 145.946 337.876 146.274 337.715 146.697C337.561 147.121 337.484 147.616 337.484 148.181ZM343.56 146.582H344.437V147.227C344.584 146.983 344.784 146.797 345.034 146.669C345.291 146.534 345.574 146.466 345.882 146.466C346.235 146.466 346.556 146.553 346.845 146.726C347.141 146.893 347.366 147.121 347.52 147.41C347.687 147.109 347.912 146.877 348.194 146.717C348.483 146.55 348.801 146.466 349.148 146.466C349.501 146.466 349.826 146.553 350.121 146.726C350.417 146.893 350.651 147.125 350.825 147.42C350.998 147.716 351.085 148.046 351.085 148.412V151.775H350.179V148.701C350.179 148.278 350.067 147.944 349.842 147.699C349.623 147.455 349.338 147.333 348.984 147.333C348.625 147.333 348.332 147.459 348.108 147.709C347.883 147.953 347.77 148.284 347.77 148.701V151.775H346.865V148.701C346.865 148.278 346.755 147.944 346.537 147.699C346.319 147.455 346.03 147.333 345.67 147.333C345.317 147.333 345.024 147.459 344.793 147.709C344.568 147.953 344.456 148.284 344.456 148.701V151.775H343.56V146.582Z" fill="#0B0B0B"/>
<path opacity="0.5" d="M316.648 113.314C316.475 113.391 316.256 113.429 315.993 113.429C315.575 113.429 315.196 113.333 314.856 113.14C314.516 112.941 314.246 112.668 314.047 112.321C313.854 111.974 313.758 111.583 313.758 111.146C313.758 110.709 313.86 110.314 314.066 109.961C314.272 109.608 314.554 109.331 314.914 109.132C315.274 108.933 315.678 108.834 316.128 108.834C316.584 108.834 316.992 108.936 317.351 109.142C317.718 109.341 318 109.62 318.199 109.98C318.405 110.34 318.508 110.748 318.508 111.204C318.508 111.583 318.44 111.955 318.305 112.321C318.17 112.687 317.952 113.07 317.65 113.468L315.627 116.127H314.49L316.648 113.314ZM314.712 111.146C314.712 111.57 314.843 111.92 315.107 112.196C315.376 112.466 315.717 112.601 316.128 112.601C316.539 112.601 316.879 112.466 317.149 112.196C317.419 111.92 317.554 111.57 317.554 111.146C317.554 110.87 317.493 110.619 317.371 110.394C317.249 110.17 317.078 109.993 316.86 109.864C316.642 109.736 316.398 109.672 316.128 109.672C315.864 109.672 315.624 109.736 315.405 109.864C315.187 109.993 315.017 110.17 314.895 110.394C314.773 110.619 314.712 110.87 314.712 111.146ZM322.522 116.243C321.956 116.243 321.459 116.088 321.028 115.78C320.598 115.472 320.264 115.038 320.026 114.479C319.789 113.914 319.67 113.265 319.67 112.533C319.67 111.801 319.789 111.155 320.026 110.597C320.264 110.038 320.595 109.604 321.019 109.296C321.449 108.988 321.947 108.834 322.512 108.834C323.077 108.834 323.575 108.988 324.005 109.296C324.436 109.604 324.77 110.038 325.007 110.597C325.245 111.155 325.364 111.801 325.364 112.533C325.364 113.265 325.245 113.914 325.007 114.479C324.77 115.038 324.436 115.472 324.005 115.78C323.581 116.088 323.087 116.243 322.522 116.243ZM320.614 112.533C320.614 113.098 320.691 113.596 320.845 114.027C321.006 114.451 321.231 114.781 321.52 115.019C321.809 115.25 322.143 115.366 322.522 115.366C322.901 115.366 323.231 115.25 323.514 115.019C323.803 114.781 324.025 114.451 324.179 114.027C324.339 113.596 324.42 113.098 324.42 112.533C324.42 111.968 324.339 111.473 324.179 111.05C324.025 110.626 323.803 110.298 323.514 110.067C323.225 109.829 322.891 109.71 322.512 109.71C322.133 109.71 321.799 109.829 321.51 110.067C321.227 110.298 321.006 110.626 320.845 111.05C320.691 111.473 320.614 111.968 320.614 112.533ZM326.69 108.834H327.586V111.541C327.74 111.31 327.942 111.133 328.193 111.011C328.45 110.883 328.736 110.818 329.05 110.818C329.417 110.818 329.747 110.905 330.043 111.078C330.338 111.245 330.569 111.477 330.736 111.772C330.91 112.068 330.997 112.398 330.997 112.764V116.127H330.091V113.054C330.091 112.63 329.975 112.296 329.744 112.052C329.513 111.807 329.214 111.685 328.848 111.685C328.482 111.685 328.18 111.811 327.942 112.061C327.705 112.305 327.586 112.636 327.586 113.054V116.127H326.69V108.834ZM334.965 109.768H333.607V108.949H335.919V116.127H334.965V109.768ZM339.82 116.243C339.254 116.243 338.75 116.095 338.307 115.799C337.864 115.504 337.559 115.106 337.392 114.605L338.163 114.277C338.297 114.624 338.516 114.897 338.818 115.096C339.12 115.295 339.454 115.395 339.82 115.395C340.109 115.395 340.366 115.33 340.59 115.202C340.822 115.067 341.002 114.884 341.13 114.653C341.265 114.415 341.332 114.152 341.332 113.863C341.332 113.567 341.265 113.304 341.13 113.073C341.002 112.835 340.822 112.652 340.59 112.524C340.366 112.389 340.112 112.321 339.829 112.321C339.54 112.321 339.274 112.389 339.03 112.524C338.786 112.658 338.606 112.829 338.49 113.034L337.729 112.87L338.278 108.94H341.997V109.758H338.953L338.654 111.859C338.994 111.615 339.418 111.493 339.926 111.493C340.382 111.493 340.79 111.599 341.149 111.811C341.509 112.016 341.788 112.299 341.987 112.658C342.187 113.018 342.286 113.42 342.286 113.863C342.286 114.312 342.177 114.717 341.959 115.077C341.747 115.436 341.451 115.722 341.072 115.934C340.7 116.14 340.282 116.243 339.82 116.243ZM343.56 110.934H344.437V111.579C344.584 111.335 344.784 111.149 345.034 111.021C345.291 110.886 345.574 110.818 345.882 110.818C346.235 110.818 346.556 110.905 346.845 111.078C347.141 111.245 347.366 111.473 347.52 111.762C347.687 111.461 347.912 111.229 348.194 111.069C348.483 110.902 348.801 110.818 349.148 110.818C349.501 110.818 349.826 110.905 350.121 111.078C350.417 111.245 350.651 111.477 350.824 111.772C350.998 112.068 351.085 112.398 351.085 112.764V116.127H350.179V113.054C350.179 112.63 350.067 112.296 349.842 112.052C349.623 111.807 349.337 111.685 348.984 111.685C348.625 111.685 348.332 111.811 348.107 112.061C347.883 112.305 347.77 112.636 347.77 113.054V116.127H346.865V113.054C346.865 112.63 346.755 112.296 346.537 112.052C346.319 111.807 346.03 111.685 345.67 111.685C345.317 111.685 345.024 111.811 344.793 112.061C344.568 112.305 344.456 112.636 344.456 113.054V116.127H343.56V110.934Z" fill="#0B0B0B"/>
<path opacity="0.5" d="M311.18 85.6817H309.821V84.8627H312.134V92.0405H311.18V85.6817ZM314.859 85.6817H313.5V84.8627H315.812V92.0405H314.859V85.6817ZM319.713 92.1561C319.148 92.1561 318.643 92.0084 318.2 91.713C317.757 91.4175 317.452 91.0193 317.285 90.5183L318.056 90.1907C318.191 90.5375 318.409 90.8105 318.711 91.0096C319.013 91.2087 319.347 91.3083 319.713 91.3083C320.002 91.3083 320.259 91.2441 320.484 91.1156C320.715 90.9807 320.895 90.7977 321.023 90.5664C321.158 90.3288 321.226 90.0654 321.226 89.7764C321.226 89.4809 321.158 89.2176 321.023 88.9864C320.895 88.7487 320.715 88.5656 320.484 88.4372C320.259 88.3023 320.005 88.2349 319.723 88.2349C319.433 88.2349 319.167 88.3023 318.923 88.4372C318.679 88.5721 318.499 88.7423 318.383 88.9478L317.622 88.784L318.171 84.8531H321.89V85.672H318.846L318.547 87.7724C318.888 87.5283 319.311 87.4063 319.819 87.4063C320.275 87.4063 320.683 87.5123 321.042 87.7242C321.402 87.9298 321.682 88.2124 321.881 88.5721C322.08 88.9318 322.179 89.3332 322.179 89.7764C322.179 90.226 322.07 90.6307 321.852 90.9904C321.64 91.35 321.344 91.6359 320.965 91.8478C320.593 92.0534 320.175 92.1561 319.713 92.1561ZM323.453 84.7471H324.349V87.4545C324.503 87.2232 324.706 87.0466 324.956 86.9245C325.213 86.7961 325.499 86.7319 325.814 86.7319C326.18 86.7319 326.511 86.8186 326.806 86.992C327.101 87.159 327.333 87.3902 327.5 87.6857C327.673 87.9811 327.76 88.3119 327.76 88.678V92.0405H326.854V88.9671C326.854 88.5432 326.739 88.2092 326.507 87.9651C326.276 87.721 325.977 87.599 325.611 87.599C325.245 87.599 324.943 87.7242 324.706 87.9747C324.468 88.2188 324.349 88.5496 324.349 88.9671V92.0405H323.453V84.7471ZM332.846 92.1561C332.275 92.1561 331.767 92.0084 331.324 91.713C330.881 91.4175 330.576 91.0128 330.409 90.499L331.208 90.1714C331.343 90.5247 331.555 90.8041 331.844 91.0096C332.133 91.2087 332.467 91.3083 332.846 91.3083C333.302 91.3083 333.672 91.1798 333.954 90.9229C334.237 90.6596 334.378 90.2999 334.378 89.8438C334.378 89.3878 334.234 89.0313 333.945 88.7744C333.662 88.511 333.293 88.3794 332.837 88.3794C332.644 88.3794 332.445 88.4051 332.239 88.4565L332.037 88.0229L333.954 85.6817H330.775V84.8627H335.024V85.6528L333.386 87.676C333.964 87.7467 334.43 87.9779 334.783 88.3697C335.142 88.7551 335.322 89.2401 335.322 89.8246C335.322 90.2549 335.216 90.6499 335.004 91.0096C334.792 91.3629 334.497 91.6423 334.118 91.8478C333.745 92.0534 333.322 92.1561 332.846 92.1561ZM339.392 92.1561C338.826 92.1561 338.328 92.002 337.898 91.6937C337.468 91.3854 337.134 90.9518 336.896 90.393C336.658 89.8278 336.54 89.179 336.54 88.4468C336.54 87.7146 336.658 87.0691 336.896 86.5103C337.134 85.9515 337.465 85.5179 337.889 85.2096C338.319 84.9013 338.817 84.7471 339.382 84.7471C339.947 84.7471 340.445 84.9013 340.875 85.2096C341.306 85.5179 341.64 85.9515 341.877 86.5103C342.115 87.0691 342.234 87.7146 342.234 88.4468C342.234 89.179 342.115 89.8278 341.877 90.393C341.64 90.9518 341.306 91.3854 340.875 91.6937C340.451 92.002 339.957 92.1561 339.392 92.1561ZM337.484 88.4468C337.484 89.012 337.561 89.5098 337.715 89.9402C337.876 90.3641 338.1 90.6949 338.39 90.9325C338.679 91.1638 339.013 91.2794 339.392 91.2794C339.77 91.2794 340.101 91.1638 340.384 90.9325C340.673 90.6949 340.895 90.3641 341.049 89.9402C341.209 89.5098 341.29 89.012 341.29 88.4468C341.29 87.8816 341.209 87.387 341.049 86.9631C340.895 86.5392 340.673 86.2116 340.384 85.9804C340.095 85.7427 339.761 85.6239 339.382 85.6239C339.003 85.6239 338.669 85.7427 338.38 85.9804C338.097 86.2116 337.876 86.5392 337.715 86.9631C337.561 87.387 337.484 87.8816 337.484 88.4468ZM343.56 86.8475H344.437V87.493C344.584 87.2489 344.783 87.0626 345.034 86.9342C345.291 86.7993 345.573 86.7319 345.882 86.7319C346.235 86.7319 346.556 86.8186 346.845 86.992C347.141 87.159 347.365 87.387 347.52 87.676C347.687 87.3742 347.911 87.1429 348.194 86.9824C348.483 86.8154 348.801 86.7319 349.148 86.7319C349.501 86.7319 349.825 86.8186 350.121 86.992C350.416 87.159 350.651 87.3902 350.824 87.6857C350.998 87.9811 351.084 88.3119 351.084 88.678V92.0405H350.179V88.9671C350.179 88.5432 350.066 88.2092 349.842 87.9651C349.623 87.721 349.337 87.599 348.984 87.599C348.624 87.599 348.332 87.7242 348.107 87.9747C347.882 88.2188 347.77 88.5496 347.77 88.9671V92.0405H346.864V88.9671C346.864 88.5432 346.755 88.2092 346.537 87.9651C346.318 87.721 346.029 87.599 345.67 87.599C345.316 87.599 345.024 87.7242 344.793 87.9747C344.568 88.2188 344.456 88.5496 344.456 88.9671V92.0405H343.56V86.8475Z" fill="#0B0B0B"/>
<path opacity="0.5" d="M307.416 57.741H306.058V56.9221H308.37V64.0999H307.416V57.741ZM313.321 62.4427H309.794V61.6623L313.301 56.9221H314.207V61.6623H315.141V62.4427H314.207V64.0999H313.321V62.4427ZM313.321 61.6623V58.1649L310.758 61.6623H313.321ZM319.021 64.2155C318.456 64.2155 317.958 64.0613 317.528 63.753C317.098 63.4447 316.764 63.0111 316.526 62.4523C316.288 61.8871 316.169 61.2384 316.169 60.5061C316.169 59.7739 316.288 59.1284 316.526 58.5696C316.764 58.0108 317.094 57.5772 317.518 57.2689C317.949 56.9606 318.446 56.8064 319.012 56.8064C319.577 56.8064 320.075 56.9606 320.505 57.2689C320.935 57.5772 321.269 58.0108 321.507 58.5696C321.745 59.1284 321.864 59.7739 321.864 60.5061C321.864 61.2384 321.745 61.8871 321.507 62.4523C321.269 63.0111 320.935 63.4447 320.505 63.753C320.081 64.0613 319.587 64.2155 319.021 64.2155ZM317.114 60.5061C317.114 61.0714 317.191 61.5692 317.345 61.9995C317.505 62.4234 317.73 62.7542 318.019 62.9919C318.308 63.2231 318.642 63.3387 319.021 63.3387C319.4 63.3387 319.731 63.2231 320.014 62.9919C320.303 62.7542 320.524 62.4234 320.678 61.9995C320.839 61.5692 320.919 61.0714 320.919 60.5061C320.919 59.9409 320.839 59.4463 320.678 59.0224C320.524 58.5985 320.303 58.2709 320.014 58.0397C319.725 57.802 319.391 57.6832 319.012 57.6832C318.633 57.6832 318.299 57.802 318.01 58.0397C317.727 58.2709 317.505 58.5985 317.345 59.0224C317.191 59.4463 317.114 59.9409 317.114 60.5061ZM323.19 56.8064H324.086V59.5138C324.24 59.2825 324.442 59.1059 324.693 58.9839C324.949 58.8554 325.235 58.7912 325.55 58.7912C325.916 58.7912 326.247 58.8779 326.542 59.0513C326.838 59.2183 327.069 59.4495 327.236 59.745C327.41 60.0405 327.496 60.3713 327.496 60.7374V64.0999H326.591V61.0264C326.591 60.6025 326.475 60.2685 326.244 60.0244C326.012 59.7803 325.714 59.6583 325.348 59.6583C324.982 59.6583 324.68 59.7835 324.442 60.034C324.204 60.2781 324.086 60.6089 324.086 61.0264V64.0999H323.19V56.8064ZM333.691 62.4427H330.164V61.6623L333.671 56.9221H334.577V61.6623H335.512V62.4427H334.577V64.0999H333.691V62.4427ZM333.691 61.6623V58.1649L331.128 61.6623H333.691ZM339.391 64.2155C338.826 64.2155 338.328 64.0613 337.898 63.753C337.468 63.4447 337.134 63.0111 336.896 62.4523C336.658 61.8871 336.54 61.2384 336.54 60.5061C336.54 59.7739 336.658 59.1284 336.896 58.5696C337.134 58.0108 337.464 57.5772 337.888 57.2689C338.319 56.9606 338.816 56.8064 339.382 56.8064C339.947 56.8064 340.445 56.9606 340.875 57.2689C341.305 57.5772 341.639 58.0108 341.877 58.5696C342.115 59.1284 342.234 59.7739 342.234 60.5061C342.234 61.2384 342.115 61.8871 341.877 62.4523C341.639 63.0111 341.305 63.4447 340.875 63.753C340.451 64.0613 339.957 64.2155 339.391 64.2155ZM337.484 60.5061C337.484 61.0714 337.561 61.5692 337.715 61.9995C337.876 62.4234 338.1 62.7542 338.389 62.9919C338.678 63.2231 339.012 63.3387 339.391 63.3387C339.77 63.3387 340.101 63.2231 340.384 62.9919C340.673 62.7542 340.894 62.4234 341.049 61.9995C341.209 61.5692 341.289 61.0714 341.289 60.5061C341.289 59.9409 341.209 59.4463 341.049 59.0224C340.894 58.5985 340.673 58.2709 340.384 58.0397C340.095 57.802 339.761 57.6832 339.382 57.6832C339.003 57.6832 338.669 57.802 338.38 58.0397C338.097 58.2709 337.876 58.5985 337.715 59.0224C337.561 59.4463 337.484 59.9409 337.484 60.5061ZM343.56 58.9068H344.436V59.5523C344.584 59.3082 344.783 59.122 345.034 58.9935C345.291 58.8586 345.573 58.7912 345.882 58.7912C346.235 58.7912 346.556 58.8779 346.845 59.0513C347.14 59.2183 347.365 59.4463 347.519 59.7354C347.686 59.4335 347.911 59.2023 348.194 59.0417C348.483 58.8747 348.801 58.7912 349.148 58.7912C349.501 58.7912 349.825 58.8779 350.121 59.0513C350.416 59.2183 350.651 59.4495 350.824 59.745C350.998 60.0405 351.084 60.3713 351.084 60.7374V64.0999H350.179V61.0264C350.179 60.6025 350.066 60.2685 349.841 60.0244C349.623 59.7803 349.337 59.6583 348.984 59.6583C348.624 59.6583 348.332 59.7835 348.107 60.034C347.882 60.2781 347.77 60.6089 347.77 61.0264V64.0999H346.864V61.0264C346.864 60.6025 346.755 60.2685 346.537 60.0244C346.318 59.7803 346.029 59.6583 345.67 59.6583C345.316 59.6583 345.024 59.7835 344.793 60.034C344.568 60.2781 344.456 60.6089 344.456 61.0264V64.0999H343.56V58.9068Z" fill="#0B0B0B"/>
<rect x="356.481" y="147.41" width="52.0269" height="0.963462" fill="#E6E6E6"/>
<rect x="356.481" y="111.761" width="52.0269" height="0.963462" fill="#E9E9E9"/>
<rect x="356.481" y="87.675" width="52.0269" height="0.963462" fill="#E6E6E6"/>
<rect x="356.481" y="59.7346" width="52.0269" height="0.963462" fill="#E6E6E6"/>
</svg>
