<svg width="433" height="88" viewBox="0 0 433 88" fill="none" xmlns="http://www.w3.org/2000/svg">
<rect x="0.64209" y="0.790039" width="431.478" height="86.2956" rx="13.8073" fill="#272727"/>
<path d="M14.4492 21.5007C14.4492 16.7347 18.3128 12.8711 23.0788 12.8711L50.3447 12.8711C53.7633 12.8711 56.8596 14.8891 58.2397 18.0167L68.141 40.4535C69.1204 42.6729 69.1204 45.2021 68.141 47.4215L58.2397 69.8584C56.8596 72.986 53.7633 75.0039 50.3447 75.0039H23.0788C18.3128 75.0039 14.4492 71.1404 14.4492 66.3744L14.4492 21.5007Z" fill="white"/>
<path d="M30.504 30.1517H28.3707V29.375H33.4449V30.1517H31.3324V37.0898H30.504V30.1517ZM35.9062 37.2141C35.5196 37.2141 35.1675 37.1244 34.85 36.9449C34.5324 36.7585 34.2804 36.4996 34.094 36.1682C33.9145 35.8368 33.8248 35.4606 33.8248 35.0395V31.5393H34.6014V34.9463C34.6014 35.395 34.7326 35.7574 34.9949 36.0336C35.2642 36.3028 35.6128 36.4374 36.0408 36.4374C36.4758 36.4374 36.8279 36.2959 37.0971 36.0129C37.3663 35.7229 37.501 35.3329 37.501 34.8427V31.5393H38.2776V37.0898H37.501V36.4064C37.3353 36.6618 37.1109 36.862 36.8279 37.007C36.5517 37.1451 36.2445 37.2141 35.9062 37.2141ZM42.4016 37.2141C41.8907 37.2141 41.4247 37.0898 41.0036 36.8413C40.5825 36.5859 40.2511 36.2372 40.0095 35.7954C39.7679 35.3467 39.647 34.8462 39.647 34.2939C39.647 33.7485 39.761 33.2583 39.9888 32.8234C40.2235 32.3816 40.5445 32.0364 40.9518 31.7878C41.3592 31.5393 41.8148 31.415 42.3188 31.415C42.8296 31.415 43.2784 31.5393 43.665 31.7878C44.0516 32.0364 44.3484 32.3643 44.5555 32.7716C44.7696 33.1789 44.8766 33.607 44.8766 34.0557C44.8766 34.2283 44.8628 34.394 44.8351 34.5528H40.4651C40.472 34.9394 40.5652 35.2811 40.7447 35.5779C40.9311 35.8679 41.1693 36.0923 41.4593 36.2511C41.7561 36.4098 42.0702 36.4892 42.4016 36.4892C43.1265 36.4892 43.6926 36.1509 44.0999 35.4744L44.7627 35.8265C44.5832 36.22 44.2794 36.5514 43.8514 36.8206C43.4302 37.0829 42.947 37.2141 42.4016 37.2141ZM44.0378 33.8279C44.0378 33.5103 43.9584 33.2238 43.7996 32.9684C43.6477 32.706 43.4406 32.5024 43.1783 32.3574C42.9159 32.2124 42.6294 32.1399 42.3188 32.1399C42.015 32.1399 41.7285 32.209 41.4593 32.347C41.1969 32.4851 40.976 32.6819 40.7965 32.9373C40.6239 33.1927 40.5204 33.4896 40.4858 33.8279H44.0378Z" fill="#0B0B0B"/>
<path d="M29.0508 59.8864L32.5371 56.2447C33.285 55.4623 33.8315 54.8697 34.1767 54.467C34.5219 54.0528 34.7693 53.6961 34.9189 53.3969C35.0684 53.0863 35.1432 52.7699 35.1432 52.4477C35.1432 51.9184 34.9764 51.4984 34.6427 51.1878C34.309 50.8656 33.8718 50.7045 33.331 50.7045C32.7672 50.7045 32.284 50.8656 31.8813 51.1878C31.49 51.4984 31.2024 51.9587 31.0183 52.5685L28.9645 51.9299C29.1025 51.2626 29.3787 50.6815 29.7929 50.1867C30.2186 49.6805 30.7421 49.2893 31.3635 49.0131C31.9848 48.737 32.6407 48.5989 33.331 48.5989C34.148 48.5989 34.8728 48.7542 35.5057 49.0649C36.1385 49.3641 36.6275 49.7898 36.9727 50.3421C37.3294 50.8829 37.5077 51.5042 37.5077 52.2061C37.5077 52.8964 37.3179 53.5695 36.9382 54.2254C36.57 54.8697 35.9659 55.6291 35.126 56.5036L32.1056 59.6793H37.6803V61.6641H29.0508V59.8864ZM44.6647 61.8712C43.6522 61.8712 42.7547 61.595 41.9723 61.0427C41.2014 60.4904 40.5973 59.7138 40.1601 58.7128C39.7344 57.7002 39.5215 56.5381 39.5215 55.2264C39.5215 53.9147 39.7344 52.7584 40.1601 51.7573C40.5973 50.7563 41.2014 49.9796 41.9723 49.4273C42.7432 48.8751 43.6349 48.5989 44.6475 48.5989C45.6715 48.5989 46.5747 48.8751 47.3572 49.4273C48.1396 49.9796 48.7436 50.7563 49.1694 51.7573C49.6066 52.7584 49.8252 53.9147 49.8252 55.2264C49.8252 56.5381 49.6066 57.7002 49.1694 58.7128C48.7436 59.7138 48.1396 60.4904 47.3572 61.0427C46.5863 61.595 45.6888 61.8712 44.6647 61.8712ZM41.8688 55.2264C41.8688 56.6186 42.1161 57.7175 42.6109 58.5229C43.1057 59.3283 43.7903 59.731 44.6647 59.731C45.5392 59.731 46.2238 59.3341 46.7186 58.5402C47.2248 57.7347 47.478 56.6302 47.478 55.2264C47.478 53.8342 47.2248 52.7411 46.7186 51.9472C46.2238 51.1417 45.5334 50.739 44.6475 50.739C43.773 50.739 43.0884 51.136 42.5936 51.9299C42.1104 52.7238 41.8688 53.8227 41.8688 55.2264Z" fill="#0B0B0B"/>
<path d="M216.274 52.5882H210.822V50.8019H218.495V52.5882L213.789 62.3896H211.459L216.274 52.5882ZM219.965 50.631H221.999V54.7784C222.238 54.447 222.553 54.1933 222.947 54.0172C223.34 53.8412 223.781 53.7532 224.267 53.7532C224.878 53.7532 225.427 53.8878 225.914 54.157C226.401 54.4263 226.779 54.8043 227.048 55.291C227.317 55.7777 227.452 56.3317 227.452 56.953V62.3896H225.417V57.4346C225.417 56.8857 225.256 56.4456 224.935 56.1142C224.625 55.7829 224.216 55.6172 223.708 55.6172C223.211 55.6172 222.802 55.7829 222.481 56.1142C222.16 56.4456 221.999 56.8857 221.999 57.4346V62.3896H219.965V50.631ZM235.537 62.576C234.905 62.576 234.304 62.457 233.735 62.2188C233.176 61.9806 232.694 61.6441 232.29 61.2091C231.897 60.7742 231.628 60.272 231.483 59.7024L233.331 59.05C233.517 59.5678 233.802 59.9665 234.185 60.2461C234.569 60.5257 235.019 60.6655 235.537 60.6655C236.158 60.6655 236.655 60.4894 237.028 60.1373C237.411 59.7852 237.603 59.3089 237.603 58.7083C237.603 58.118 237.411 57.652 237.028 57.3103C236.655 56.9582 236.153 56.7822 235.521 56.7822C235.086 56.7822 234.693 56.865 234.341 57.0307L233.859 56.021L236.857 52.6037H232.135V50.8174H239.234V52.4795L236.857 55.2599C237.727 55.3945 238.421 55.7673 238.939 56.3783C239.456 56.9789 239.715 57.7349 239.715 58.6461C239.715 59.3814 239.534 60.0493 239.172 60.6499C238.809 61.2505 238.307 61.7217 237.665 62.0635C237.033 62.4052 236.324 62.576 235.537 62.576ZM245.98 62.576C245.069 62.576 244.261 62.3275 243.557 61.8305C242.863 61.3334 242.32 60.6344 241.926 59.7335C241.543 58.8222 241.351 57.7763 241.351 56.5958C241.351 55.4152 241.543 54.3745 241.926 53.4736C242.32 52.5727 242.863 51.8737 243.557 51.3766C244.251 50.8795 245.053 50.631 245.965 50.631C246.886 50.631 247.699 50.8795 248.403 51.3766C249.108 51.8737 249.651 52.5727 250.034 53.4736C250.428 54.3745 250.625 55.4152 250.625 56.5958C250.625 57.7763 250.428 58.8222 250.034 59.7335C249.651 60.6344 249.108 61.3334 248.403 61.8305C247.71 62.3275 246.902 62.576 245.98 62.576ZM243.464 56.5958C243.464 57.8488 243.686 58.8377 244.132 59.5626C244.577 60.2875 245.193 60.6499 245.98 60.6499C246.767 60.6499 247.383 60.2927 247.829 59.5781C248.284 58.8533 248.512 57.8591 248.512 56.5958C248.512 55.3427 248.284 54.359 247.829 53.6445C247.383 52.9196 246.762 52.5571 245.965 52.5571C245.178 52.5571 244.561 52.9144 244.116 53.6289C243.681 54.3434 243.464 55.3324 243.464 56.5958ZM252.427 53.9396H254.337V54.9958C254.555 54.592 254.865 54.2865 255.269 54.0794C255.683 53.8619 256.16 53.7532 256.698 53.7532C257.257 53.7532 257.77 53.8774 258.236 54.126C258.702 54.3642 259.059 54.6955 259.308 55.1201C259.587 54.6645 259.95 54.3227 260.395 54.0949C260.851 53.8671 261.363 53.7532 261.933 53.7532C262.523 53.7532 263.056 53.8878 263.533 54.157C264.009 54.4263 264.382 54.8043 264.651 55.291C264.92 55.7777 265.055 56.3317 265.055 56.953V62.3896H263.02V57.4346C263.02 56.8754 262.87 56.4353 262.57 56.1142C262.28 55.7829 261.886 55.6172 261.389 55.6172C260.903 55.6172 260.509 55.7829 260.209 56.1142C259.908 56.4456 259.758 56.8857 259.758 57.4346V62.3896H257.723V57.4346C257.723 56.8754 257.573 56.4353 257.273 56.1142C256.983 55.7829 256.589 55.6172 256.092 55.6172C255.606 55.6172 255.212 55.7829 254.912 56.1142C254.612 56.4456 254.461 56.8857 254.461 57.4346V62.3896H252.427V53.9396Z" fill="white"/>
<path d="M97.8865 62.576C97.0684 62.576 96.3487 62.4207 95.7274 62.1101C95.1061 61.789 94.6245 61.3645 94.2828 60.8363C93.9411 60.2978 93.7702 59.7024 93.7702 59.05C93.7702 58.4183 93.9152 57.8643 94.2052 57.388C94.5055 56.9116 94.9352 56.5284 95.4944 56.2385C95.1009 56.0003 94.7902 55.6638 94.5624 55.2288C94.3449 54.7836 94.2362 54.302 94.2362 53.7842C94.2362 53.1836 94.3915 52.6451 94.7022 52.1688C95.0129 51.6924 95.4426 51.3196 95.9915 51.0504C96.5507 50.7708 97.1823 50.631 97.8865 50.631C98.5803 50.631 99.2017 50.7656 99.7505 51.0349C100.31 51.3041 100.745 51.6821 101.055 52.1688C101.366 52.6451 101.521 53.1836 101.521 53.7842C101.521 54.2917 101.413 54.7628 101.195 55.1978C100.978 55.6327 100.672 55.9796 100.279 56.2385C100.838 56.5388 101.262 56.9271 101.552 57.4035C101.853 57.8798 102.003 58.4339 102.003 59.0655C102.003 59.7076 101.832 60.2978 101.49 60.8363C101.148 61.3645 100.662 61.789 100.03 62.1101C99.4088 62.4207 98.6942 62.576 97.8865 62.576ZM95.8983 58.9879C95.8983 59.5264 96.0795 59.9613 96.4419 60.2927C96.8044 60.624 97.2859 60.7897 97.8865 60.7897C98.4871 60.7897 98.9687 60.624 99.3311 60.2927C99.7039 59.9613 99.8903 59.5264 99.8903 58.9879C99.8903 58.4494 99.7039 58.0196 99.3311 57.6986C98.9687 57.3672 98.4871 57.2016 97.8865 57.2016C97.2859 57.2016 96.8044 57.3672 96.4419 57.6986C96.0795 58.0196 95.8983 58.4494 95.8983 58.9879ZM96.3487 53.9085C96.3487 54.3434 96.4885 54.7059 96.7681 54.9958C97.0581 55.2754 97.4309 55.4152 97.8865 55.4152C98.3318 55.4152 98.6942 55.2754 98.9738 54.9958C99.2638 54.7059 99.4088 54.3434 99.4088 53.9085C99.4088 53.4736 99.2638 53.1163 98.9738 52.8367C98.6942 52.5571 98.3318 52.4173 97.8865 52.4173C97.4309 52.4173 97.0581 52.5571 96.7681 52.8367C96.4885 53.1163 96.3487 53.4736 96.3487 53.9085ZM107.344 62.576C106.712 62.576 106.111 62.457 105.542 62.2188C104.983 61.9806 104.501 61.6441 104.097 61.2091C103.704 60.7742 103.435 60.272 103.29 59.7024L105.138 59.05C105.324 59.5678 105.609 59.9665 105.992 60.2461C106.375 60.5257 106.826 60.6655 107.344 60.6655C107.965 60.6655 108.462 60.4894 108.835 60.1373C109.218 59.7852 109.41 59.3089 109.41 58.7083C109.41 58.118 109.218 57.652 108.835 57.3103C108.462 56.9582 107.96 56.7822 107.328 56.7822C106.893 56.7822 106.5 56.865 106.148 57.0307L105.666 56.021L108.664 52.6037H103.942V50.8174H111.041V52.4795L108.664 55.2599C109.534 55.3945 110.228 55.7673 110.745 56.3783C111.263 56.9789 111.522 57.7349 111.522 58.6461C111.522 59.3814 111.341 60.0493 110.978 60.6499C110.616 61.2505 110.114 61.7217 109.472 62.0635C108.84 62.4052 108.131 62.576 107.344 62.576ZM124.047 50.8174H126.222L116.84 62.3896H114.665L124.047 50.8174ZM113.422 53.66C113.422 53.1111 113.557 52.6037 113.826 52.1377C114.095 51.6717 114.463 51.3041 114.929 51.0349C115.395 50.7656 115.913 50.631 116.482 50.631C117.042 50.631 117.549 50.7656 118.005 51.0349C118.471 51.3041 118.838 51.6717 119.107 52.1377C119.377 52.6037 119.511 53.1111 119.511 53.66C119.511 54.2088 119.377 54.7162 119.107 55.1822C118.838 55.6482 118.471 56.0159 118.005 56.2851C117.549 56.5543 117.042 56.689 116.482 56.689C115.913 56.689 115.395 56.5543 114.929 56.2851C114.463 56.0159 114.095 55.6482 113.826 55.1822C113.557 54.7162 113.422 54.2088 113.422 53.66ZM115.053 53.66C115.053 54.0535 115.183 54.3952 115.442 54.6852C115.711 54.9751 116.058 55.1201 116.482 55.1201C116.907 55.1201 117.243 54.9751 117.492 54.6852C117.751 54.3952 117.88 54.0535 117.88 53.66C117.88 53.2665 117.751 52.9247 117.492 52.6348C117.243 52.3345 116.907 52.1843 116.482 52.1843C116.058 52.1843 115.711 52.3345 115.442 52.6348C115.183 52.9247 115.053 53.2665 115.053 53.66ZM121.313 59.5471C121.313 58.9982 121.448 58.4908 121.717 58.0248C121.986 57.5588 122.354 57.1912 122.82 56.922C123.286 56.6527 123.798 56.5181 124.358 56.5181C124.917 56.5181 125.429 56.6527 125.895 56.922C126.361 57.1912 126.729 57.5588 126.998 58.0248C127.268 58.4908 127.402 58.9982 127.402 59.5471C127.402 60.0959 127.268 60.6033 126.998 61.0693C126.729 61.5353 126.361 61.9029 125.895 62.1722C125.429 62.4414 124.917 62.576 124.358 62.576C123.798 62.576 123.286 62.4414 122.82 62.1722C122.354 61.9029 121.986 61.5353 121.717 61.0693C121.448 60.6033 121.313 60.0959 121.313 59.5471ZM122.944 59.5471C122.944 59.9406 123.074 60.2823 123.332 60.5723C123.591 60.8622 123.933 61.0072 124.358 61.0072C124.782 61.0072 125.124 60.8622 125.383 60.5723C125.642 60.2823 125.771 59.9406 125.771 59.5471C125.771 59.1536 125.642 58.8118 125.383 58.5219C125.124 58.2216 124.782 58.0714 124.358 58.0714C123.933 58.0714 123.591 58.2216 123.332 58.5219C123.074 58.8118 122.944 59.1536 122.944 59.5471Z" fill="#F9F871"/>
<path d="M328.296 62.576C327.478 62.576 326.758 62.4207 326.137 62.1101C325.515 61.789 325.034 61.3645 324.692 60.8363C324.35 60.2978 324.179 59.7024 324.179 59.05C324.179 58.4183 324.324 57.8643 324.614 57.388C324.915 56.9116 325.344 56.5284 325.904 56.2385C325.51 56.0003 325.199 55.6638 324.972 55.2288C324.754 54.7836 324.645 54.302 324.645 53.7842C324.645 53.1836 324.801 52.6451 325.111 52.1688C325.422 51.6924 325.852 51.3196 326.401 51.0504C326.96 50.7708 327.592 50.631 328.296 50.631C328.99 50.631 329.611 50.7656 330.16 51.0349C330.719 51.3041 331.154 51.6821 331.464 52.1688C331.775 52.6451 331.93 53.1836 331.93 53.7842C331.93 54.2917 331.822 54.7628 331.604 55.1978C331.387 55.6327 331.081 55.9796 330.688 56.2385C331.247 56.5388 331.672 56.9271 331.962 57.4035C332.262 57.8798 332.412 58.4339 332.412 59.0655C332.412 59.7076 332.241 60.2978 331.899 60.8363C331.558 61.3645 331.071 61.789 330.439 62.1101C329.818 62.4207 329.103 62.576 328.296 62.576ZM326.307 58.9879C326.307 59.5264 326.489 59.9613 326.851 60.2927C327.214 60.624 327.695 60.7897 328.296 60.7897C328.896 60.7897 329.378 60.624 329.74 60.2927C330.113 59.9613 330.299 59.5264 330.299 58.9879C330.299 58.4494 330.113 58.0196 329.74 57.6986C329.378 57.3672 328.896 57.2016 328.296 57.2016C327.695 57.2016 327.214 57.3672 326.851 57.6986C326.489 58.0196 326.307 58.4494 326.307 58.9879ZM326.758 53.9085C326.758 54.3434 326.898 54.7059 327.177 54.9958C327.467 55.2754 327.84 55.4152 328.296 55.4152C328.741 55.4152 329.103 55.2754 329.383 54.9958C329.673 54.7059 329.818 54.3434 329.818 53.9085C329.818 53.4736 329.673 53.1163 329.383 52.8367C329.103 52.5571 328.741 52.4173 328.296 52.4173C327.84 52.4173 327.467 52.5571 327.177 52.8367C326.898 53.1163 326.758 53.4736 326.758 53.9085ZM334.149 50.631H336.184V54.7784C336.422 54.447 336.738 54.1933 337.132 54.0172C337.525 53.8412 337.965 53.7532 338.452 53.7532C339.063 53.7532 339.612 53.8878 340.098 54.157C340.585 54.4263 340.963 54.8043 341.232 55.291C341.502 55.7777 341.636 56.3317 341.636 56.953V62.3896H339.601V57.4346C339.601 56.8857 339.441 56.4456 339.12 56.1142C338.809 55.7829 338.4 55.6172 337.893 55.6172C337.396 55.6172 336.987 55.7829 336.666 56.1142C336.345 56.4456 336.184 56.8857 336.184 57.4346V62.3896H334.149V50.631ZM351.042 59.8422H345.729V58.0714L350.917 50.8174H353.123V58.0714H354.816V59.8422H353.123V62.3896H351.042V59.8422ZM351.042 58.0714V53.427L347.811 58.0714H351.042ZM359.947 62.576C359.336 62.576 358.751 62.4621 358.192 62.2343C357.632 62.0065 357.156 61.6803 356.762 61.2557C356.369 60.8311 356.1 60.3341 355.955 59.7645L357.788 59.1121C357.964 59.6196 358.243 60.0079 358.626 60.2771C359.01 60.536 359.45 60.6655 359.947 60.6655C360.537 60.6655 361.019 60.4791 361.391 60.1063C361.764 59.7231 361.951 59.2312 361.951 58.6306C361.951 58.03 361.764 57.5433 361.391 57.1705C361.019 56.7977 360.537 56.6113 359.947 56.6113C359.533 56.6113 359.165 56.7045 358.844 56.8909C358.523 57.0669 358.29 57.3155 358.145 57.6365L356.421 57.2482L357.337 50.8174L363.644 50.8174V52.6037L358.844 52.6037L358.487 55.2599C358.953 54.9596 359.558 54.8094 360.304 54.8094C361.05 54.8094 361.707 54.9751 362.277 55.3065C362.857 55.6275 363.302 56.078 363.613 56.6579C363.923 57.2378 364.079 57.8954 364.079 58.6306C364.079 59.3762 363.897 60.0493 363.535 60.6499C363.183 61.2505 362.691 61.7217 362.059 62.0635C361.428 62.4052 360.723 62.576 359.947 62.576ZM365.838 53.9396H367.748V54.9958C367.966 54.592 368.276 54.2865 368.68 54.0794C369.094 53.8619 369.571 53.7532 370.109 53.7532C370.668 53.7532 371.181 53.8774 371.647 54.126C372.113 54.3642 372.47 54.6955 372.719 55.1201C372.998 54.6645 373.361 54.3227 373.806 54.0949C374.262 53.8671 374.774 53.7532 375.344 53.7532C375.934 53.7532 376.467 53.8878 376.944 54.157C377.42 54.4263 377.793 54.8043 378.062 55.291C378.331 55.7777 378.466 56.3317 378.466 56.953V62.3896H376.431V57.4346C376.431 56.8754 376.281 56.4353 375.981 56.1142C375.691 55.7829 375.297 55.6172 374.8 55.6172C374.313 55.6172 373.92 55.7829 373.62 56.1142C373.319 56.4456 373.169 56.8857 373.169 57.4346V62.3896H371.134V57.4346C371.134 56.8754 370.984 56.4353 370.684 56.1142C370.394 55.7829 370 55.6172 369.503 55.6172C369.017 55.6172 368.623 55.7829 368.323 56.1142C368.023 56.4456 367.872 56.8857 367.872 57.4346V62.3896H365.838V53.9396Z" fill="white"/>
<path d="M93.8375 28.5117H96.561C97.0719 28.5117 97.5206 28.6084 97.9072 28.8017C98.3007 28.995 98.6045 29.2711 98.8185 29.6301C99.0325 29.9891 99.1395 30.4102 99.1395 30.8935C99.1395 31.3767 99.0325 31.7979 98.8185 32.1569C98.6045 32.5159 98.3007 32.792 97.9072 32.9853C97.5206 33.1786 97.0719 33.2753 96.561 33.2753H94.8524V36.2266H93.8375V28.5117ZM96.5921 32.3433C97.0546 32.3433 97.424 32.2121 97.7001 31.9498C97.9763 31.6874 98.1143 31.3353 98.1143 30.8935C98.1143 30.4517 97.9763 30.0996 97.7001 29.8372C97.424 29.5749 97.0546 29.4437 96.5921 29.4437H94.8524V32.3433H96.5921ZM100.398 30.645H101.34V31.3077C101.63 30.8245 102.124 30.5828 102.821 30.5828H103.163V31.4941H102.676C102.276 31.4941 101.955 31.6184 101.713 31.8669C101.478 32.1154 101.361 32.4606 101.361 32.9025V36.2266H100.398V30.645ZM106.669 36.3508C106.138 36.3508 105.651 36.2266 105.209 35.978C104.774 35.7226 104.429 35.374 104.174 34.9321C103.918 34.4834 103.791 33.9829 103.791 33.4306C103.791 32.8852 103.915 32.3916 104.163 31.9498C104.419 31.501 104.764 31.1524 105.199 30.9038C105.641 30.6484 106.131 30.5207 106.669 30.5207C107.201 30.5207 107.684 30.6484 108.119 30.9038C108.561 31.1524 108.906 31.4976 109.155 31.9394C109.41 32.3812 109.538 32.8783 109.538 33.4306C109.538 33.9898 109.41 34.4903 109.155 34.9321C108.899 35.374 108.551 35.7226 108.109 35.978C107.674 36.2266 107.194 36.3508 106.669 36.3508ZM104.805 33.4306C104.805 33.8034 104.885 34.1417 105.044 34.4454C105.209 34.7492 105.434 34.9874 105.717 35.1599C106.007 35.3325 106.324 35.4188 106.669 35.4188C107.008 35.4188 107.318 35.3325 107.601 35.1599C107.884 34.9874 108.105 34.7492 108.264 34.4454C108.43 34.1417 108.513 33.8034 108.513 33.4306C108.513 33.0578 108.43 32.723 108.264 32.4261C108.105 32.1223 107.884 31.8842 107.601 31.7116C107.318 31.539 107.008 31.4527 106.669 31.4527C106.324 31.4527 106.007 31.539 105.717 31.7116C105.434 31.8842 105.209 32.1223 105.044 32.4261C104.885 32.723 104.805 33.0578 104.805 33.4306ZM113.331 36.3508C112.813 36.3508 112.344 36.2231 111.923 35.9677C111.502 35.7122 111.17 35.3636 110.929 34.9218C110.687 34.4799 110.566 33.9863 110.566 33.4409C110.566 32.8956 110.687 32.4019 110.929 31.9601C111.17 31.5114 111.502 31.1593 111.923 30.9038C112.344 30.6484 112.813 30.5207 113.331 30.5207C113.738 30.5207 114.104 30.5966 114.429 30.7485C114.76 30.9004 115.036 31.1144 115.257 31.3906V28.3875H116.231V36.2266H115.288V35.4085C115.081 35.7053 114.805 35.9366 114.46 36.1023C114.122 36.268 113.745 36.3508 113.331 36.3508ZM111.581 33.4409C111.581 33.8137 111.66 34.152 111.819 34.4558C111.978 34.7526 112.195 34.9874 112.472 35.1599C112.755 35.3325 113.069 35.4188 113.414 35.4188C113.759 35.4188 114.07 35.3325 114.346 35.1599C114.629 34.9874 114.85 34.7526 115.009 34.4558C115.174 34.152 115.257 33.8137 115.257 33.4409C115.257 33.0681 115.174 32.7299 115.009 32.4261C114.85 32.1223 114.629 31.8842 114.346 31.7116C114.07 31.539 113.759 31.4527 113.414 31.4527C113.069 31.4527 112.755 31.539 112.472 31.7116C112.195 31.8842 111.978 32.1223 111.819 32.4261C111.66 32.7299 111.581 33.0681 111.581 33.4409ZM119.699 36.3508C119.299 36.3508 118.94 36.2576 118.622 36.0712C118.305 35.8848 118.056 35.6259 117.877 35.2946C117.697 34.9563 117.607 34.5697 117.607 34.1348V30.645H118.57V34.0312C118.57 34.4454 118.695 34.7802 118.943 35.0357C119.192 35.2911 119.516 35.4188 119.917 35.4188C120.317 35.4188 120.641 35.2877 120.89 35.0253C121.139 34.7561 121.263 34.3971 121.263 33.9484V30.645H122.236V36.2266H121.294V35.5431C121.128 35.8054 120.907 36.0056 120.631 36.1437C120.355 36.2818 120.044 36.3508 119.699 36.3508ZM126.317 36.3508C125.772 36.3508 125.282 36.2231 124.847 35.9677C124.412 35.7122 124.073 35.3636 123.832 34.9218C123.59 34.473 123.469 33.976 123.469 33.4306C123.469 32.8783 123.59 32.3812 123.832 31.9394C124.073 31.4976 124.408 31.1524 124.836 30.9038C125.271 30.6484 125.765 30.5207 126.317 30.5207C126.856 30.5207 127.346 30.6622 127.788 30.9453C128.236 31.2214 128.554 31.5804 128.74 32.0222L127.87 32.4365C127.739 32.1396 127.532 31.9014 127.249 31.7219C126.973 31.5424 126.662 31.4527 126.317 31.4527C125.979 31.4527 125.668 31.539 125.385 31.7116C125.109 31.8842 124.891 32.1223 124.733 32.4261C124.574 32.723 124.495 33.0612 124.495 33.4409C124.495 33.8137 124.574 34.152 124.733 34.4558C124.898 34.7526 125.119 34.9874 125.395 35.1599C125.672 35.3325 125.979 35.4188 126.317 35.4188C126.669 35.4188 126.983 35.3291 127.259 35.1496C127.536 34.9701 127.739 34.725 127.87 34.4144L128.74 34.8493C128.561 35.2842 128.247 35.6432 127.798 35.9263C127.349 36.2093 126.856 36.3508 126.317 36.3508ZM132.236 36.2887C131.69 36.2887 131.269 36.1368 130.972 35.8331C130.682 35.5224 130.537 35.0806 130.537 34.5076V31.5666H129.522V30.645H129.73C129.978 30.645 130.175 30.5725 130.32 30.4275C130.465 30.2756 130.537 30.072 130.537 29.8165V29.3609H131.5V30.645H132.753V31.5666H131.5V34.4765C131.5 35.0978 131.811 35.4085 132.432 35.4085C132.564 35.4085 132.691 35.3981 132.816 35.3774V36.2369C132.671 36.2714 132.477 36.2887 132.236 36.2887ZM134.074 30.645H135.037V36.2266H134.074V30.645ZM133.96 29.1538C133.96 28.9743 134.015 28.8293 134.125 28.7188C134.236 28.6084 134.381 28.5532 134.56 28.5532C134.74 28.5532 134.885 28.6084 134.995 28.7188C135.106 28.8293 135.161 28.9743 135.161 29.1538C135.161 29.3333 135.106 29.4782 134.995 29.5887C134.885 29.6992 134.74 29.7544 134.56 29.7544C134.381 29.7544 134.236 29.6992 134.125 29.5887C134.015 29.4782 133.96 29.3333 133.96 29.1538ZM135.899 30.645L136.976 30.645L138.54 34.87L140.114 30.645H141.191L138.996 36.2266H138.084L135.899 30.645ZM142.053 30.645H143.016V36.2266H142.053V30.645ZM141.939 29.1538C141.939 28.9743 141.994 28.8293 142.104 28.7188C142.215 28.6084 142.36 28.5532 142.539 28.5532C142.719 28.5532 142.864 28.6084 142.974 28.7188C143.085 28.8293 143.14 28.9743 143.14 29.1538C143.14 29.3333 143.085 29.4782 142.974 29.5887C142.864 29.6992 142.719 29.7544 142.539 29.7544C142.36 29.7544 142.215 29.6992 142.104 29.5887C141.994 29.4782 141.939 29.3333 141.939 29.1538ZM146.778 36.2887C146.232 36.2887 145.811 36.1368 145.514 35.8331C145.224 35.5224 145.079 35.0806 145.079 34.5076V31.5666H144.065V30.645H144.272C144.52 30.645 144.717 30.5725 144.862 30.4275C145.007 30.2756 145.079 30.072 145.079 29.8165V29.3609H146.043V30.645H147.296V31.5666H146.043V34.4765C146.043 35.0978 146.353 35.4085 146.975 35.4085C147.106 35.4085 147.233 35.3981 147.358 35.3774V36.2369C147.213 36.2714 147.019 36.2887 146.778 36.2887ZM150.2 36.2162L147.984 30.645H149.03L150.728 35.0046L152.416 30.645H153.483L150.397 38.2977H149.33L150.2 36.2162Z" fill="white"/>
<path d="M211.199 28.5117H213.923C214.434 28.5117 214.882 28.6084 215.269 28.8017C215.663 28.995 215.966 29.2711 216.18 29.6301C216.394 29.9891 216.501 30.4102 216.501 30.8935C216.501 31.3767 216.394 31.7979 216.18 32.1569C215.966 32.5159 215.663 32.792 215.269 32.9853C214.882 33.1786 214.434 33.2753 213.923 33.2753H212.214V36.2266H211.199V28.5117ZM213.954 32.3433C214.416 32.3433 214.786 32.2121 215.062 31.9498C215.338 31.6874 215.476 31.3353 215.476 30.8935C215.476 30.4517 215.338 30.0996 215.062 29.8372C214.786 29.5749 214.416 29.4437 213.954 29.4437H212.214V32.3433H213.954ZM217.76 30.645H218.702V31.3077C218.992 30.8245 219.486 30.5828 220.183 30.5828H220.525V31.4941H220.038C219.638 31.4941 219.317 31.6184 219.075 31.8669C218.84 32.1154 218.723 32.4606 218.723 32.9025V36.2266H217.76V30.645ZM224.031 36.3508C223.5 36.3508 223.013 36.2266 222.571 35.978C222.136 35.7226 221.791 35.374 221.536 34.9321C221.28 34.4834 221.152 33.9829 221.152 33.4306C221.152 32.8852 221.277 32.3916 221.525 31.9498C221.781 31.501 222.126 31.1524 222.561 30.9038C223.003 30.6484 223.493 30.5207 224.031 30.5207C224.563 30.5207 225.046 30.6484 225.481 30.9038C225.923 31.1524 226.268 31.4976 226.517 31.9394C226.772 32.3812 226.9 32.8783 226.9 33.4306C226.9 33.9898 226.772 34.4903 226.517 34.9321C226.261 35.374 225.912 35.7226 225.471 35.978C225.036 36.2266 224.556 36.3508 224.031 36.3508ZM222.167 33.4306C222.167 33.8034 222.247 34.1417 222.405 34.4454C222.571 34.7492 222.795 34.9874 223.079 35.1599C223.368 35.3325 223.686 35.4188 224.031 35.4188C224.37 35.4188 224.68 35.3325 224.963 35.1599C225.246 34.9874 225.467 34.7492 225.626 34.4454C225.792 34.1417 225.875 33.8034 225.875 33.4306C225.875 33.0578 225.792 32.723 225.626 32.4261C225.467 32.1223 225.246 31.8842 224.963 31.7116C224.68 31.539 224.37 31.4527 224.031 31.4527C223.686 31.4527 223.368 31.539 223.079 31.7116C222.795 31.8842 222.571 32.1223 222.405 32.4261C222.247 32.723 222.167 33.0578 222.167 33.4306ZM230.693 36.3508C230.175 36.3508 229.706 36.2231 229.285 35.9677C228.863 35.7122 228.532 35.3636 228.29 34.9218C228.049 34.4799 227.928 33.9863 227.928 33.4409C227.928 32.8956 228.049 32.4019 228.29 31.9601C228.532 31.5114 228.863 31.1593 229.285 30.9038C229.706 30.6484 230.175 30.5207 230.693 30.5207C231.1 30.5207 231.466 30.5966 231.791 30.7485C232.122 30.9004 232.398 31.1144 232.619 31.3906V28.3875H233.592V36.2266H232.65V35.4085C232.443 35.7053 232.167 35.9366 231.822 36.1023C231.483 36.268 231.107 36.3508 230.693 36.3508ZM228.943 33.4409C228.943 33.8137 229.022 34.152 229.181 34.4558C229.34 34.7526 229.557 34.9874 229.833 35.1599C230.116 35.3325 230.431 35.4188 230.776 35.4188C231.121 35.4188 231.432 35.3325 231.708 35.1599C231.991 34.9874 232.212 34.7526 232.37 34.4558C232.536 34.152 232.619 33.8137 232.619 33.4409C232.619 33.0681 232.536 32.7299 232.37 32.4261C232.212 32.1223 231.991 31.8842 231.708 31.7116C231.432 31.539 231.121 31.4527 230.776 31.4527C230.431 31.4527 230.116 31.539 229.833 31.7116C229.557 31.8842 229.34 32.1223 229.181 32.4261C229.022 32.7299 228.943 33.0681 228.943 33.4409ZM237.061 36.3508C236.661 36.3508 236.302 36.2576 235.984 36.0712C235.666 35.8848 235.418 35.6259 235.238 35.2946C235.059 34.9563 234.969 34.5697 234.969 34.1348V30.645H235.932V34.0312C235.932 34.4454 236.056 34.7802 236.305 35.0357C236.554 35.2911 236.878 35.4188 237.278 35.4188C237.679 35.4188 238.003 35.2877 238.252 35.0253C238.5 34.7561 238.625 34.3971 238.625 33.9484V30.645H239.598V36.2266H238.656V35.5431C238.49 35.8054 238.269 36.0056 237.993 36.1437C237.717 36.2818 237.406 36.3508 237.061 36.3508ZM243.679 36.3508C243.134 36.3508 242.643 36.2231 242.208 35.9677C241.773 35.7122 241.435 35.3636 241.194 34.9218C240.952 34.473 240.831 33.976 240.831 33.4306C240.831 32.8783 240.952 32.3812 241.194 31.9394C241.435 31.4976 241.77 31.1524 242.198 30.9038C242.633 30.6484 243.127 30.5207 243.679 30.5207C244.217 30.5207 244.708 30.6622 245.149 30.9453C245.598 31.2214 245.916 31.5804 246.102 32.0222L245.232 32.4365C245.101 32.1396 244.894 31.9014 244.611 31.7219C244.335 31.5424 244.024 31.4527 243.679 31.4527C243.341 31.4527 243.03 31.539 242.747 31.7116C242.471 31.8842 242.253 32.1223 242.095 32.4261C241.936 32.723 241.856 33.0612 241.856 33.4409C241.856 33.8137 241.936 34.152 242.095 34.4558C242.26 34.7526 242.481 34.9874 242.757 35.1599C243.033 35.3325 243.341 35.4188 243.679 35.4188C244.031 35.4188 244.345 35.3291 244.621 35.1496C244.897 34.9701 245.101 34.725 245.232 34.4144L246.102 34.8493C245.923 35.2842 245.608 35.6432 245.16 35.9263C244.711 36.2093 244.217 36.3508 243.679 36.3508ZM249.597 36.2887C249.052 36.2887 248.631 36.1368 248.334 35.8331C248.044 35.5224 247.899 35.0806 247.899 34.5076V31.5666H246.884V30.645H247.091C247.34 30.645 247.537 30.5725 247.682 30.4275C247.827 30.2756 247.899 30.072 247.899 29.8165V29.3609H248.862V30.645H250.115V31.5666H248.862V34.4765C248.862 35.0978 249.173 35.4085 249.794 35.4085C249.925 35.4085 250.053 35.3981 250.177 35.3774V36.2369C250.032 36.2714 249.839 36.2887 249.597 36.2887ZM251.435 30.645H252.398V36.2266H251.435V30.645ZM251.321 29.1538C251.321 28.9743 251.377 28.8293 251.487 28.7188C251.598 28.6084 251.743 28.5532 251.922 28.5532C252.102 28.5532 252.247 28.6084 252.357 28.7188C252.467 28.8293 252.523 28.9743 252.523 29.1538C252.523 29.3333 252.467 29.4782 252.357 29.5887C252.247 29.6992 252.102 29.7544 251.922 29.7544C251.743 29.7544 251.598 29.6992 251.487 29.5887C251.377 29.4782 251.321 29.3333 251.321 29.1538ZM253.261 30.645L254.338 30.645L255.902 34.87L257.476 30.645H258.553L256.357 36.2266H255.446L253.261 30.645ZM261.881 36.3508C261.357 36.3508 260.88 36.2231 260.452 35.9677C260.024 35.7122 259.689 35.3636 259.448 34.9218C259.206 34.473 259.085 33.9725 259.085 33.4202C259.085 32.8679 259.203 32.3709 259.437 31.929C259.679 31.4872 260.004 31.142 260.411 30.8935C260.825 30.645 261.288 30.5207 261.799 30.5207C262.33 30.5207 262.793 30.645 263.186 30.8935C263.587 31.142 263.89 31.4734 264.097 31.8876C264.311 32.2949 264.418 32.7333 264.418 33.2028C264.418 33.3615 264.401 33.5341 264.367 33.7205H260.1C260.114 34.0726 260.204 34.3798 260.369 34.6422C260.535 34.9045 260.749 35.1082 261.012 35.2531C261.281 35.3981 261.574 35.4706 261.892 35.4706C262.568 35.4706 263.09 35.1634 263.455 34.549L264.263 34.9632C264.084 35.3636 263.78 35.695 263.352 35.9573C262.924 36.2197 262.434 36.3508 261.881 36.3508ZM263.373 32.8921C263.359 32.4572 263.2 32.0982 262.896 31.8151C262.599 31.5252 262.233 31.3802 261.799 31.3802C261.371 31.3802 261.001 31.5183 260.691 31.7944C260.38 32.0637 260.19 32.4296 260.121 32.8921H263.373ZM269.732 36.2887C269.187 36.2887 268.765 36.1368 268.469 35.8331C268.179 35.5224 268.034 35.0806 268.034 34.5076V31.5666H267.019V30.645H267.226C267.474 30.645 267.671 30.5725 267.816 30.4275C267.961 30.2756 268.034 30.072 268.034 29.8165V29.3609H268.997V30.645H270.25V31.5666H268.997V34.4765C268.997 35.0978 269.307 35.4085 269.929 35.4085C270.06 35.4085 270.188 35.3981 270.312 35.3774V36.2369C270.167 36.2714 269.974 36.2887 269.732 36.2887ZM271.57 30.645H272.533V36.2266H271.57V30.645ZM271.456 29.1538C271.456 28.9743 271.511 28.8293 271.622 28.7188C271.732 28.6084 271.877 28.5532 272.057 28.5532C272.236 28.5532 272.381 28.6084 272.492 28.7188C272.602 28.8293 272.657 28.9743 272.657 29.1538C272.657 29.3333 272.602 29.4782 272.492 29.5887C272.381 29.6992 272.236 29.7544 272.057 29.7544C271.877 29.7544 271.732 29.6992 271.622 29.5887C271.511 29.4782 271.456 29.3333 271.456 29.1538ZM274.027 30.645H274.97V31.3388C275.128 31.0764 275.342 30.8762 275.612 30.7382C275.888 30.5932 276.192 30.5207 276.523 30.5207C276.903 30.5207 277.248 30.6139 277.559 30.8003C277.876 30.9798 278.118 31.2249 278.283 31.5355C278.463 31.2111 278.705 30.9625 279.008 30.7899C279.319 30.6104 279.661 30.5207 280.033 30.5207C280.413 30.5207 280.762 30.6139 281.079 30.8003C281.397 30.9798 281.649 31.2283 281.835 31.5459C282.022 31.8635 282.115 32.219 282.115 32.6125V36.2266H281.142V32.9232C281.142 32.4675 281.021 32.1085 280.779 31.8462C280.544 31.5839 280.237 31.4527 279.857 31.4527C279.471 31.4527 279.157 31.5873 278.915 31.8566C278.673 32.1189 278.553 32.4744 278.553 32.9232V36.2266H277.579V32.9232C277.579 32.4675 277.462 32.1085 277.227 31.8462C276.992 31.5839 276.682 31.4527 276.295 31.4527C275.915 31.4527 275.601 31.5873 275.353 31.8566C275.111 32.1189 274.99 32.4744 274.99 32.9232V36.2266H274.027V30.645ZM286.051 36.3508C285.526 36.3508 285.05 36.2231 284.622 35.9677C284.194 35.7122 283.859 35.3636 283.617 34.9218C283.376 34.473 283.255 33.9725 283.255 33.4202C283.255 32.8679 283.372 32.3709 283.607 31.929C283.849 31.4872 284.173 31.142 284.58 30.8935C284.995 30.645 285.457 30.5207 285.968 30.5207C286.5 30.5207 286.962 30.645 287.356 30.8935C287.756 31.142 288.06 31.4734 288.267 31.8876C288.481 32.2949 288.588 32.7333 288.588 33.2028C288.588 33.3615 288.571 33.5341 288.536 33.7205H284.27C284.284 34.0726 284.373 34.3798 284.539 34.6422C284.705 34.9045 284.919 35.1082 285.181 35.2531C285.45 35.3981 285.744 35.4706 286.061 35.4706C286.738 35.4706 287.259 35.1634 287.625 34.549L288.433 34.9632C288.253 35.3636 287.949 35.695 287.521 35.9573C287.093 36.2197 286.603 36.3508 286.051 36.3508ZM287.542 32.8921C287.528 32.4572 287.37 32.0982 287.066 31.8151C286.769 31.5252 286.403 31.3802 285.968 31.3802C285.54 31.3802 285.171 31.5183 284.86 31.7944C284.549 32.0637 284.36 32.4296 284.29 32.8921H287.542Z" fill="white"/>
<path d="M323.502 28.5117H324.568L326.256 34.8493L328.017 28.5117H329.083L330.823 34.8286L332.521 28.5117H333.588L331.424 36.2266H330.295L328.545 29.9511L326.795 36.2266H325.666L323.502 28.5117ZM336.705 36.3508C336.173 36.3508 335.687 36.2266 335.245 35.978C334.81 35.7226 334.465 35.374 334.209 34.9321C333.954 34.4834 333.826 33.9829 333.826 33.4306C333.826 32.8852 333.95 32.3916 334.199 31.9498C334.454 31.501 334.8 31.1524 335.234 30.9038C335.676 30.6484 336.166 30.5207 336.705 30.5207C337.236 30.5207 337.72 30.6484 338.155 30.9038C338.597 31.1524 338.942 31.4976 339.19 31.9394C339.446 32.3812 339.573 32.8783 339.573 33.4306C339.573 33.9898 339.446 34.4903 339.19 34.9321C338.935 35.374 338.586 35.7226 338.144 35.978C337.709 36.2266 337.23 36.3508 336.705 36.3508ZM334.841 33.4306C334.841 33.8034 334.92 34.1417 335.079 34.4454C335.245 34.7492 335.469 34.9874 335.752 35.1599C336.042 35.3325 336.36 35.4188 336.705 35.4188C337.043 35.4188 337.354 35.3325 337.637 35.1599C337.92 34.9874 338.141 34.7492 338.3 34.4454C338.465 34.1417 338.548 33.8034 338.548 33.4306C338.548 33.0578 338.465 32.723 338.3 32.4261C338.141 32.1223 337.92 31.8842 337.637 31.7116C337.354 31.539 337.043 31.4527 336.705 31.4527C336.36 31.4527 336.042 31.539 335.752 31.7116C335.469 31.8842 335.245 32.1223 335.079 32.4261C334.92 32.723 334.841 33.0578 334.841 33.4306ZM340.829 30.645H341.772V31.3077C342.062 30.8245 342.555 30.5828 343.253 30.5828L343.594 30.5828V31.4941H343.108C342.707 31.4941 342.386 31.6184 342.145 31.8669C341.91 32.1154 341.793 32.4606 341.793 32.9025V36.2266H340.829V30.645ZM344.45 28.3875H345.413V33.2649L347.981 30.645H349.213L347.07 32.8921L349.358 36.2266H348.219L346.366 33.5445L345.413 34.549V36.2266H344.45V28.3875ZM350.224 30.645H351.187V36.2266H350.224V30.645ZM350.11 29.1538C350.11 28.9743 350.166 28.8293 350.276 28.7188C350.386 28.6084 350.531 28.5532 350.711 28.5532C350.89 28.5532 351.035 28.6084 351.146 28.7188C351.256 28.8293 351.312 28.9743 351.312 29.1538C351.312 29.3333 351.256 29.4782 351.146 29.5887C351.035 29.6992 350.89 29.7544 350.711 29.7544C350.531 29.7544 350.386 29.6992 350.276 29.5887C350.166 29.4782 350.11 29.3333 350.11 29.1538ZM352.682 30.645H353.624V31.3284C353.79 31.0661 354.011 30.8659 354.287 30.7278C354.563 30.5897 354.874 30.5207 355.219 30.5207C355.612 30.5207 355.968 30.6139 356.285 30.8003C356.603 30.9798 356.851 31.2283 357.031 31.5459C357.217 31.8635 357.311 32.219 357.311 32.6125V36.2266H356.337V32.9232C356.337 32.4675 356.213 32.1085 355.964 31.8462C355.723 31.5839 355.402 31.4527 355.001 31.4527C354.601 31.4527 354.273 31.5873 354.017 31.8566C353.769 32.1189 353.645 32.4744 353.645 32.9232V36.2266H352.682V30.645ZM361.35 38.5048C360.763 38.5048 360.245 38.3701 359.797 38.1009C359.355 37.8386 359.041 37.4865 358.854 37.0446L359.755 36.6304C359.859 36.9066 360.049 37.1309 360.325 37.3035C360.601 37.483 360.939 37.5728 361.34 37.5728C361.83 37.5728 362.237 37.4312 362.562 37.1482C362.886 36.8721 363.048 36.4854 363.048 35.9884V35.2117C362.841 35.4948 362.575 35.7122 362.251 35.8641C361.926 36.016 361.574 36.0919 361.195 36.0919C360.677 36.0919 360.211 35.9711 359.797 35.7295C359.382 35.481 359.055 35.1461 358.813 34.725C358.578 34.297 358.461 33.8241 358.461 33.3063C358.461 32.7885 358.578 32.3191 358.813 31.898C359.048 31.4699 359.372 31.1351 359.786 30.8935C360.201 30.645 360.667 30.5207 361.184 30.5207C361.571 30.5207 361.926 30.6001 362.251 30.7589C362.575 30.9108 362.852 31.1317 363.079 31.4216V30.645H364.022V35.9884C364.022 36.4716 363.908 36.9031 363.68 37.2828C363.452 37.6625 363.135 37.9594 362.727 38.1734C362.32 38.3943 361.861 38.5048 361.35 38.5048ZM359.476 33.3063C359.476 33.6446 359.552 33.9553 359.703 34.2383C359.862 34.5214 360.08 34.7457 360.356 34.9114C360.632 35.0771 360.939 35.1599 361.277 35.1599C361.602 35.1599 361.899 35.0771 362.168 34.9114C362.444 34.7457 362.658 34.5214 362.81 34.2383C362.969 33.9553 363.048 33.6446 363.048 33.3063C363.048 32.968 362.969 32.6574 362.81 32.3743C362.658 32.0913 362.444 31.8669 362.168 31.7012C361.899 31.5355 361.602 31.4527 361.277 31.4527C360.939 31.4527 360.632 31.5355 360.356 31.7012C360.087 31.8669 359.873 32.0913 359.714 32.3743C359.555 32.6574 359.476 32.968 359.476 33.3063ZM367.419 28.5117H368.433V31.9498H372.296V28.5117H373.321V36.2266H372.296V32.8817H368.433V36.2266H367.419V28.5117ZM377.571 36.3508C377.039 36.3508 376.552 36.2266 376.11 35.978C375.676 35.7226 375.33 35.374 375.075 34.9321C374.82 34.4834 374.692 33.9829 374.692 33.4306C374.692 32.8852 374.816 32.3916 375.065 31.9498C375.32 31.501 375.665 31.1524 376.1 30.9038C376.542 30.6484 377.032 30.5207 377.571 30.5207C378.102 30.5207 378.585 30.6484 379.02 30.9038C379.462 31.1524 379.807 31.4976 380.056 31.9394C380.311 32.3812 380.439 32.8783 380.439 33.4306C380.439 33.9898 380.311 34.4903 380.056 34.9321C379.8 35.374 379.452 35.7226 379.01 35.978C378.575 36.2266 378.095 36.3508 377.571 36.3508ZM375.707 33.4306C375.707 33.8034 375.786 34.1417 375.945 34.4454C376.11 34.7492 376.335 34.9874 376.618 35.1599C376.908 35.3325 377.225 35.4188 377.571 35.4188C377.909 35.4188 378.22 35.3325 378.503 35.1599C378.786 34.9874 379.007 34.7492 379.165 34.4454C379.331 34.1417 379.414 33.8034 379.414 33.4306C379.414 33.0578 379.331 32.723 379.165 32.4261C379.007 32.1223 378.786 31.8842 378.503 31.7116C378.22 31.539 377.909 31.4527 377.571 31.4527C377.225 31.4527 376.908 31.539 376.618 31.7116C376.335 31.8842 376.11 32.1223 375.945 32.4261C375.786 32.723 375.707 33.0578 375.707 33.4306ZM383.673 36.3508C383.273 36.3508 382.914 36.2576 382.596 36.0712C382.279 35.8848 382.03 35.6259 381.85 35.2946C381.671 34.9563 381.581 34.5697 381.581 34.1348V30.645H382.544V34.0312C382.544 34.4454 382.669 34.7802 382.917 35.0357C383.166 35.2911 383.49 35.4188 383.891 35.4188C384.291 35.4188 384.615 35.2877 384.864 35.0253C385.112 34.7561 385.237 34.3971 385.237 33.9484V30.645H386.21V36.2266H385.268V35.5431C385.102 35.8054 384.881 36.0056 384.605 36.1437C384.329 36.2818 384.018 36.3508 383.673 36.3508ZM387.702 30.645H388.644V31.3077C388.934 30.8245 389.428 30.5828 390.125 30.5828H390.467V31.4941H389.98C389.58 31.4941 389.259 31.6184 389.017 31.8669C388.783 32.1154 388.665 32.4606 388.665 32.9025V36.2266H387.702V30.645ZM393.321 36.3508C392.783 36.3508 392.306 36.2197 391.892 35.9573C391.478 35.6881 391.181 35.3256 391.002 34.87L391.778 34.4765C391.937 34.801 392.154 35.0564 392.431 35.2428C392.707 35.4292 393.007 35.5224 393.331 35.5224C393.642 35.5224 393.898 35.4499 394.098 35.3049C394.298 35.1599 394.398 34.9701 394.398 34.7354C394.398 34.5076 394.308 34.3246 394.129 34.1865C393.949 34.0416 393.756 33.9553 393.549 33.9276L392.71 33.8137C392.213 33.6895 391.84 33.4824 391.592 33.1924C391.343 32.9025 391.219 32.5607 391.219 32.1672C391.219 31.8427 391.302 31.5562 391.467 31.3077C391.64 31.0592 391.875 30.8659 392.172 30.7278C392.475 30.5897 392.81 30.5207 393.176 30.5207C393.659 30.5207 394.091 30.6415 394.471 30.8831C394.857 31.1248 395.133 31.4596 395.299 31.8876L394.533 32.2811C394.395 31.9981 394.201 31.7737 393.953 31.608C393.711 31.4423 393.442 31.3595 393.145 31.3595C392.862 31.3595 392.634 31.4285 392.462 31.5666C392.289 31.7047 392.203 31.8842 392.203 32.1051C392.203 32.3329 392.282 32.5159 392.441 32.6539C392.607 32.7851 392.786 32.8679 392.979 32.9025L393.901 33.0267C394.364 33.151 394.723 33.365 394.978 33.6688C395.24 33.9656 395.372 34.3108 395.372 34.7043C395.372 35.0219 395.285 35.3049 395.113 35.5535C394.94 35.802 394.698 35.9987 394.388 36.1437C394.077 36.2818 393.722 36.3508 393.321 36.3508Z" fill="white"/>
<path d="M134.4 62.9225C135.029 60.7651 137.703 56.7955 143.367 58.1763C150.445 59.9022 152.097 62.9225 154.929 58.1763C157.76 53.43 161.3 51.7041 164.603 51.7041" stroke="url(#paint0_linear_1072_206)" stroke-width="0.862956"/>
<rect x="187.041" y="23.2266" width="0.862956" height="41.4219" rx="0.431478" fill="#3D3D3D"/>
<defs>
<linearGradient id="paint0_linear_1072_206" x1="164.367" y1="51.2726" x2="133.301" y2="54.7236" gradientUnits="userSpaceOnUse">
<stop stop-color="#F9F871" stop-opacity="0"/>
<stop offset="0.338542" stop-color="#F9F871"/>
<stop offset="1" stop-color="#F9F871" stop-opacity="0"/>
</linearGradient>
</defs>
</svg>
