<svg width="797" height="352" viewBox="0 0 797 352" fill="none" xmlns="http://www.w3.org/2000/svg">
<rect width="797" height="351.091" rx="18.4422" fill="#191919"/>
<path d="M51.7156 49.4477H46.3766V46.1281H60.7615V49.4477H55.5055V66.7373H51.7156V49.4477ZM62.753 51.6885H66.3769V66.7373H62.753V51.6885ZM62.4764 47.539C62.4764 46.8751 62.6608 46.3587 63.0297 45.9898C63.3985 45.621 63.9057 45.4366 64.5511 45.4366C65.2151 45.4366 65.7314 45.621 66.1003 45.9898C66.4691 46.3587 66.6535 46.8751 66.6535 47.539C66.6535 48.1844 66.4691 48.6916 66.1003 49.0605C65.7499 49.4293 65.2335 49.6137 64.5511 49.6137C63.9057 49.6137 63.3985 49.4293 63.0297 49.0605C62.6608 48.6916 62.4764 48.1844 62.4764 47.539ZM69.7229 51.6885H73.1255V53.5696C73.5127 52.8503 74.066 52.3063 74.7853 51.9374C75.5229 51.5502 76.3713 51.3565 77.3303 51.3565C78.3262 51.3565 79.2391 51.5778 80.069 52.0204C80.8988 52.4446 81.5351 53.0347 81.9777 53.7909C82.4757 52.9794 83.1211 52.3708 83.9141 51.9651C84.7256 51.5594 85.6385 51.3565 86.6528 51.3565C87.704 51.3565 88.6538 51.5963 89.5021 52.0758C90.3505 52.5553 91.0144 53.2284 91.4939 54.0952C91.9734 54.962 92.2131 55.9486 92.2131 57.0551V66.7373H88.5892V57.9127C88.5892 56.9168 88.3218 56.133 87.787 55.5613C87.2706 54.9712 86.5698 54.6761 85.6846 54.6761C84.8178 54.6761 84.117 54.9712 83.5822 55.5613C83.0474 56.1515 82.78 56.9353 82.78 57.9127V66.7373H79.1561V57.9127C79.1561 56.9168 78.8886 56.133 78.3538 55.5613C77.8374 54.9712 77.1366 54.6761 76.2514 54.6761C75.3846 54.6761 74.6838 54.9712 74.149 55.5613C73.6142 56.1515 73.3468 56.9353 73.3468 57.9127V66.7373H69.7229V51.6885ZM102.416 67.0693C100.904 67.0693 99.5576 66.7189 98.3773 66.0181C97.2154 65.3173 96.3026 64.3675 95.6386 63.1687C94.9932 61.97 94.6704 60.6422 94.6704 59.1852C94.6704 57.7098 94.9932 56.382 95.6386 55.2017C96.3026 54.003 97.197 53.0624 98.322 52.38C99.4654 51.6977 100.738 51.3565 102.14 51.3565C103.652 51.3565 104.961 51.6885 106.068 52.3524C107.174 52.9979 108.013 53.8831 108.585 55.0081C109.175 56.133 109.47 57.3687 109.47 58.7149C109.47 59.342 109.406 59.8491 109.277 60.2364H98.4326C98.5433 61.343 98.9675 62.2282 99.7051 62.8921C100.443 63.556 101.356 63.888 102.444 63.888C103.255 63.888 103.947 63.722 104.519 63.39C105.109 63.0396 105.579 62.5601 105.929 61.9516L108.862 63.39C108.401 64.4966 107.589 65.391 106.427 66.0734C105.265 66.7373 103.928 67.0693 102.416 67.0693ZM105.597 57.4701C105.505 56.548 105.146 55.8011 104.519 55.2294C103.892 54.6392 103.099 54.3441 102.14 54.3441C101.217 54.3441 100.434 54.6208 99.7881 55.174C99.1427 55.7089 98.7185 56.4742 98.5156 57.4701H105.597ZM124.797 67.0693C123.174 67.0693 121.763 66.765 120.564 66.1564C119.384 65.5478 118.462 64.7824 117.798 63.8603C117.134 62.9198 116.71 61.9423 116.526 60.928L120.066 59.9875C120.343 61.1124 120.896 61.9884 121.726 62.6155C122.556 63.2425 123.598 63.556 124.852 63.556C125.811 63.556 126.586 63.3163 127.176 62.8368C127.784 62.3573 128.089 61.7856 128.089 61.1217C128.089 60.5131 127.867 59.9875 127.425 59.5448C127.001 59.0838 126.42 58.7795 125.682 58.632L122.584 58.0234C120.942 57.7098 119.651 56.9998 118.711 55.8933C117.77 54.7868 117.3 53.4405 117.3 51.8544C117.3 50.7479 117.614 49.7336 118.241 48.8115C118.886 47.8709 119.734 47.1332 120.786 46.5984C121.855 46.0636 122.99 45.7962 124.188 45.7962C125.719 45.7962 127.019 46.0544 128.089 46.5708C129.158 47.0871 129.988 47.7418 130.578 48.5349C131.187 49.3094 131.593 50.1301 131.796 50.9969L128.282 52.1034C127.895 51.1075 127.37 50.3975 126.706 49.9733C126.042 49.5307 125.203 49.3094 124.188 49.3094C123.617 49.3094 123.1 49.4293 122.639 49.669C122.196 49.9088 121.846 50.2223 121.588 50.6096C121.348 50.9784 121.228 51.3565 121.228 51.7438C121.228 52.3524 121.431 52.8872 121.837 53.3483C122.243 53.7909 122.805 54.0767 123.524 54.2058L126.457 54.8421C128.246 55.2294 129.629 55.9671 130.606 57.0551C131.584 58.1248 132.072 59.4065 132.072 60.9003C132.072 61.97 131.777 62.9751 131.187 63.9156C130.597 64.8562 129.749 65.6216 128.642 66.2117C127.554 66.7834 126.272 67.0693 124.797 67.0693ZM142.182 67.0693C140.67 67.0693 139.324 66.7189 138.143 66.0181C136.981 65.3173 136.069 64.3675 135.405 63.1687C134.759 61.97 134.436 60.6422 134.436 59.1852C134.436 57.7098 134.759 56.382 135.405 55.2017C136.069 54.003 136.963 53.0624 138.088 52.38C139.231 51.6977 140.504 51.3565 141.906 51.3565C143.418 51.3565 144.727 51.6885 145.834 52.3524C146.94 52.9979 147.779 53.8831 148.351 55.0081C148.941 56.133 149.236 57.3687 149.236 58.7149C149.236 59.342 149.172 59.8491 149.043 60.2364H138.199C138.309 61.343 138.733 62.2282 139.471 62.8921C140.209 63.556 141.122 63.888 142.21 63.888C143.021 63.888 143.713 63.722 144.285 63.39C144.875 63.0396 145.345 62.5601 145.695 61.9516L148.628 63.39C148.167 64.4966 147.355 65.391 146.193 66.0734C145.031 66.7373 143.694 67.0693 142.182 67.0693ZM145.363 57.4701C145.271 56.548 144.912 55.8011 144.285 55.2294C143.658 54.6392 142.864 54.3441 141.906 54.3441C140.983 54.3441 140.2 54.6208 139.554 55.174C138.909 55.7089 138.484 56.4742 138.282 57.4701H145.363ZM159.286 72.8232C157.59 72.8232 156.096 72.4175 154.805 71.606C153.533 70.813 152.657 69.7526 152.177 68.4248L155.552 67.1523C155.773 67.8715 156.216 68.4432 156.88 68.8674C157.544 69.2915 158.346 69.5036 159.286 69.5036C160.393 69.5036 161.287 69.1901 161.97 68.5631C162.671 67.936 163.021 67.0785 163.021 65.9904V64.3583C161.951 65.5386 160.504 66.1287 158.678 66.1287C157.295 66.1287 156.041 65.806 154.916 65.1605C153.809 64.515 152.942 63.6298 152.315 62.5048C151.688 61.3798 151.375 60.1166 151.375 58.7149C151.375 57.3133 151.679 56.0593 152.288 54.9527C152.915 53.8278 153.781 52.9518 154.888 52.3247C155.995 51.6792 157.23 51.3565 158.595 51.3565C160.531 51.3565 162.071 52.0389 163.215 53.4036V51.6885H166.645V65.9904C166.645 67.2998 166.331 68.4709 165.704 69.5036C165.077 70.5548 164.201 71.3663 163.076 71.938C161.97 72.5282 160.707 72.8232 159.286 72.8232ZM155.137 58.7426C155.137 59.9045 155.506 60.8727 156.244 61.6473C157 62.4034 157.959 62.7815 159.121 62.7815C160.264 62.7815 161.195 62.4034 161.915 61.6473C162.652 60.8911 163.021 59.9229 163.021 58.7426C163.021 57.5623 162.652 56.5941 161.915 55.838C161.177 55.0634 160.245 54.6761 159.121 54.6761C157.977 54.6761 157.027 55.0634 156.271 55.838C155.515 56.6125 155.137 57.5808 155.137 58.7426ZM170.029 51.6885H173.432V53.5696C173.819 52.8503 174.372 52.3063 175.092 51.9374C175.829 51.5502 176.678 51.3565 177.637 51.3565C178.633 51.3565 179.546 51.5778 180.375 52.0204C181.205 52.4446 181.842 53.0347 182.284 53.7909C182.782 52.9794 183.428 52.3708 184.221 51.9651C185.032 51.5594 185.945 51.3565 186.959 51.3565C188.011 51.3565 188.96 51.5963 189.809 52.0758C190.657 52.5553 191.321 53.2284 191.8 54.0952C192.28 54.962 192.52 55.9486 192.52 57.0551V66.7373H188.896V57.9127C188.896 56.9168 188.628 56.133 188.093 55.5613C187.577 54.9712 186.876 54.6761 185.991 54.6761C185.124 54.6761 184.423 54.9712 183.889 55.5613C183.354 56.1515 183.086 56.9353 183.086 57.9127V66.7373H179.463V57.9127C179.463 56.9168 179.195 56.133 178.66 55.5613C178.144 54.9712 177.443 54.6761 176.558 54.6761C175.691 54.6761 174.99 54.9712 174.455 55.5613C173.921 56.1515 173.653 56.9353 173.653 57.9127V66.7373H170.029V51.6885ZM202.723 67.0693C201.21 67.0693 199.864 66.7189 198.684 66.0181C197.522 65.3173 196.609 64.3675 195.945 63.1687C195.3 61.97 194.977 60.6422 194.977 59.1852C194.977 57.7098 195.3 56.382 195.945 55.2017C196.609 54.003 197.503 53.0624 198.628 52.38C199.772 51.6977 201.044 51.3565 202.446 51.3565C203.958 51.3565 205.268 51.6885 206.374 52.3524C207.481 52.9979 208.32 53.8831 208.892 55.0081C209.482 56.133 209.777 57.3687 209.777 58.7149C209.777 59.342 209.712 59.8491 209.583 60.2364H198.739C198.85 61.343 199.274 62.2282 200.012 62.8921C200.749 63.556 201.662 63.888 202.75 63.888C203.562 63.888 204.253 63.722 204.825 63.39C205.415 63.0396 205.885 62.5601 206.236 61.9516L209.168 63.39C208.707 64.4966 207.896 65.391 206.734 66.0734C205.572 66.7373 204.235 67.0693 202.723 67.0693ZM205.904 57.4701C205.812 56.548 205.452 55.8011 204.825 55.2294C204.198 54.6392 203.405 54.3441 202.446 54.3441C201.524 54.3441 200.74 54.6208 200.095 55.174C199.449 55.7089 199.025 56.4742 198.822 57.4701H205.904ZM212.524 51.6885H215.926V53.5419C216.314 52.8411 216.876 52.3063 217.614 51.9374C218.37 51.5502 219.228 51.3565 220.187 51.3565C221.275 51.3565 222.252 51.5963 223.119 52.0758C223.986 52.5553 224.659 53.2284 225.138 54.0952C225.618 54.962 225.858 55.9486 225.858 57.0551V66.7373H222.234V57.9127C222.234 56.9353 221.948 56.1515 221.376 55.5613C220.823 54.9712 220.094 54.6761 219.191 54.6761C218.287 54.6761 217.549 54.9712 216.978 55.5613C216.424 56.1515 216.148 56.9353 216.148 57.9127V66.7373H212.524V51.6885ZM235.782 66.9033C234.086 66.9033 232.767 66.4422 231.827 65.5201C230.904 64.5796 230.443 63.2609 230.443 61.5643V54.9251H227.843V51.6885H228.12C228.857 51.6885 229.429 51.4948 229.835 51.1075C230.241 50.7203 230.443 50.1578 230.443 49.4201V48.2582H234.067V51.6885H237.525V54.9251H234.067V61.3706C234.067 62.9382 234.916 63.722 236.612 63.722C236.907 63.722 237.23 63.6943 237.581 63.639V66.765C236.99 66.8572 236.391 66.9033 235.782 66.9033ZM244.833 67.0693C243.247 67.0693 241.983 66.682 241.043 65.9074C240.121 65.1328 239.66 64.0816 239.66 62.7538C239.66 61.4813 240.093 60.4301 240.96 59.6002C241.827 58.7703 243.127 58.217 244.86 57.9404L249.342 57.2211V56.7232C249.342 56.0593 249.084 55.5152 248.567 55.0911C248.069 54.6669 247.405 54.4548 246.575 54.4548C245.801 54.4548 245.109 54.6669 244.501 55.0911C243.911 55.4968 243.477 56.0408 243.201 56.7232L240.241 55.2847C240.683 54.1044 241.495 53.1546 242.675 52.4354C243.855 51.7161 245.201 51.3565 246.714 51.3565C247.931 51.3565 249.01 51.587 249.95 52.0481C250.909 52.4907 251.647 53.127 252.163 53.9569C252.698 54.7683 252.966 55.6904 252.966 56.7232V66.7373H249.535V65.1328C248.355 66.4238 246.788 67.0693 244.833 67.0693ZM243.422 62.6155C243.422 63.1319 243.615 63.5468 244.003 63.8603C244.39 64.1554 244.888 64.3029 245.497 64.3029C246.622 64.3029 247.544 63.9525 248.263 63.2517C248.982 62.5325 249.342 61.6473 249.342 60.5961V59.9875L245.552 60.6237C244.833 60.7713 244.298 61.011 243.947 61.343C243.597 61.6565 243.422 62.0806 243.422 62.6155ZM262.905 66.9033C261.209 66.9033 259.89 66.4422 258.95 65.5201C258.027 64.5796 257.566 63.2609 257.566 61.5643V54.9251H254.966V51.6885H255.243C255.98 51.6885 256.552 51.4948 256.958 51.1075C257.364 50.7203 257.566 50.1578 257.566 49.4201V48.2582H261.19V51.6885H264.648V54.9251H261.19V61.3706C261.19 62.9382 262.039 63.722 263.735 63.722C264.03 63.722 264.353 63.6943 264.704 63.639V66.765C264.113 66.8572 263.514 66.9033 262.905 66.9033ZM267.472 51.6885H271.096V66.7373H267.472V51.6885ZM267.196 47.539C267.196 46.8751 267.38 46.3587 267.749 45.9898C268.118 45.621 268.625 45.4366 269.27 45.4366C269.934 45.4366 270.451 45.621 270.82 45.9898C271.188 46.3587 271.373 46.8751 271.373 47.539C271.373 48.1844 271.188 48.6916 270.82 49.0605C270.469 49.4293 269.953 49.6137 269.27 49.6137C268.625 49.6137 268.118 49.4293 267.749 49.0605C267.38 48.6916 267.196 48.1844 267.196 47.539ZM281.801 67.0693C280.344 67.0693 279.007 66.7281 277.789 66.0457C276.572 65.3634 275.604 64.4228 274.885 63.2241C274.184 62.0253 273.834 60.6883 273.834 59.2129C273.834 57.7375 274.184 56.4005 274.885 55.2017C275.586 54.003 276.545 53.0624 277.762 52.38C278.979 51.6977 280.325 51.3565 281.801 51.3565C283.257 51.3565 284.585 51.6977 285.784 52.38C287.001 53.0624 287.96 54.003 288.661 55.2017C289.38 56.4005 289.74 57.7375 289.74 59.2129C289.74 60.7067 289.38 62.053 288.661 63.2517C287.96 64.4505 287.001 65.391 285.784 66.0734C284.567 66.7373 283.239 67.0693 281.801 67.0693ZM277.596 59.2129C277.596 60.5223 277.983 61.6104 278.758 62.4772C279.551 63.3255 280.565 63.7497 281.801 63.7497C282.594 63.7497 283.304 63.556 283.931 63.1687C284.558 62.7815 285.046 62.2466 285.397 61.5643C285.766 60.8635 285.95 60.0797 285.95 59.2129C285.95 58.3645 285.766 57.5992 285.397 56.9168C285.046 56.216 284.558 55.672 283.931 55.2847C283.304 54.879 282.594 54.6761 281.801 54.6761C280.989 54.6761 280.261 54.879 279.615 55.2847C278.988 55.672 278.49 56.2068 278.121 56.8892C277.771 57.5715 277.596 58.3461 277.596 59.2129ZM292.488 51.6885H295.891V53.5419C296.278 52.8411 296.84 52.3063 297.578 51.9374C298.334 51.5502 299.192 51.3565 300.151 51.3565C301.239 51.3565 302.216 51.5963 303.083 52.0758C303.95 52.5553 304.623 53.2284 305.103 54.0952C305.582 54.962 305.822 55.9486 305.822 57.0551V66.7373H302.198V57.9127C302.198 56.9353 301.912 56.1515 301.34 55.5613C300.787 54.9712 300.059 54.6761 299.155 54.6761C298.251 54.6761 297.514 54.9712 296.942 55.5613C296.389 56.1515 296.112 56.9353 296.112 57.9127V66.7373H292.488V51.6885Z" fill="white"/>
<rect x="651.162" y="98.084" width="98.2885" height="222.843" rx="12.2948" fill="#85B3F7"/>
<rect x="651.161" y="146.229" width="98.2885" height="174.698" rx="12.2948" fill="#FFD978"/>
<rect x="651.161" y="187.496" width="98.2885" height="133.431" rx="12.2948" fill="#FA7A68"/>
<rect x="651.161" y="216.422" width="98.2885" height="104.544" rx="12.2948" fill="#CFB8FF"/>
<path d="M62.9604 126.766H67.4603C68.8373 126.766 70.0422 127.049 71.075 127.615C72.12 128.18 72.9253 128.986 73.4909 130.031C74.0564 131.063 74.3392 132.262 74.3392 133.627C74.3392 134.992 74.0564 136.197 73.4909 137.242C72.9253 138.274 72.12 139.08 71.075 139.658C70.0422 140.223 68.8373 140.506 67.4603 140.506H62.9604V126.766ZM67.4787 138.846C68.4869 138.846 69.366 138.637 70.116 138.219C70.8659 137.789 71.4438 137.18 71.8495 136.393C72.2553 135.606 72.4581 134.684 72.4581 133.627C72.4581 132.57 72.2553 131.654 71.8495 130.879C71.4438 130.092 70.8598 129.49 70.0975 129.072C69.3475 128.641 68.4746 128.426 67.4787 128.426H64.7677V138.846H67.4787ZM81.0008 140.727C80.0663 140.727 79.218 140.5 78.4557 140.045C77.6935 139.59 77.0972 138.969 76.6668 138.182C76.2365 137.383 76.0214 136.492 76.0214 135.508C76.0214 134.524 76.2304 133.639 76.6484 132.852C77.0787 132.065 77.6566 131.451 78.382 131.008C79.1196 130.566 79.9434 130.344 80.8532 130.344C81.7999 130.344 82.6237 130.566 83.3245 131.008C84.0376 131.451 84.5785 132.041 84.9474 132.779C85.3285 133.504 85.5191 134.285 85.5191 135.121C85.5191 135.404 85.4884 135.711 85.4269 136.043H77.8287C77.8533 136.67 78.0131 137.217 78.3082 137.684C78.6033 138.151 78.9844 138.514 79.4516 138.772C79.9311 139.03 80.4536 139.16 81.0192 139.16C82.2241 139.16 83.1523 138.612 83.804 137.518L85.2425 138.256C84.9228 138.969 84.3818 139.559 83.6195 140.026C82.8573 140.494 81.9843 140.727 81.0008 140.727ZM83.6564 134.567C83.6318 133.793 83.3491 133.154 82.8081 132.649C82.2794 132.133 81.6278 131.875 80.8532 131.875C80.0909 131.875 79.4332 132.121 78.8799 132.613C78.3266 133.092 77.9885 133.744 77.8656 134.567H83.6564ZM91.3147 140.727C90.3557 140.727 89.5074 140.494 88.7697 140.026C88.032 139.547 87.5033 138.901 87.1836 138.09L88.5668 137.389C88.8496 137.967 89.2369 138.422 89.7287 138.754C90.2205 139.086 90.7553 139.252 91.3331 139.252C91.8864 139.252 92.3413 139.123 92.6979 138.865C93.0544 138.606 93.2327 138.268 93.2327 137.85C93.2327 137.444 93.0729 137.119 92.7532 136.873C92.4335 136.615 92.0893 136.461 91.7204 136.412L90.2266 136.209C89.3414 135.988 88.6775 135.619 88.2348 135.102C87.7922 134.586 87.5709 133.977 87.5709 133.277C87.5709 132.699 87.7185 132.188 88.0135 131.746C88.3209 131.303 88.7389 130.959 89.2676 130.713C89.8086 130.467 90.4049 130.344 91.0565 130.344C91.9171 130.344 92.6856 130.559 93.3618 130.99C94.0503 131.42 94.5421 132.016 94.8372 132.779L93.4724 133.479C93.2265 132.975 92.8823 132.576 92.4397 132.281C92.0094 131.986 91.5299 131.838 91.0012 131.838C90.4971 131.838 90.0914 131.961 89.784 132.207C89.4766 132.453 89.3229 132.772 89.3229 133.166C89.3229 133.572 89.4643 133.897 89.7471 134.143C90.0422 134.377 90.3618 134.524 90.7061 134.586L92.3475 134.807C93.1712 135.029 93.8105 135.41 94.2654 135.951C94.7327 136.479 94.9663 137.094 94.9663 137.795C94.9663 138.36 94.8126 138.865 94.5052 139.307C94.1978 139.75 93.7675 140.1 93.2142 140.358C92.661 140.604 92.0278 140.727 91.3147 140.727ZM97.1746 130.566H98.8897V140.506H97.1746V130.566ZM96.9717 127.91C96.9717 127.59 97.0701 127.332 97.2668 127.135C97.4635 126.939 97.7217 126.84 98.0413 126.84C98.361 126.84 98.6192 126.939 98.8159 127.135C99.0126 127.332 99.111 127.59 99.111 127.91C99.111 128.23 99.0126 128.488 98.8159 128.684C98.6192 128.881 98.361 128.979 98.0413 128.979C97.7217 128.979 97.4635 128.881 97.2668 128.684C97.0701 128.488 96.9717 128.23 96.9717 127.91ZM106.291 144.563C105.246 144.563 104.323 144.323 103.524 143.844C102.737 143.377 102.178 142.75 101.846 141.963L103.451 141.225C103.635 141.717 103.973 142.116 104.465 142.424C104.957 142.744 105.559 142.903 106.272 142.903C107.145 142.903 107.871 142.651 108.448 142.147C109.026 141.655 109.315 140.967 109.315 140.082V138.699C108.946 139.203 108.473 139.59 107.895 139.86C107.317 140.131 106.69 140.266 106.014 140.266C105.092 140.266 104.262 140.051 103.524 139.621C102.787 139.178 102.203 138.582 101.772 137.832C101.354 137.069 101.145 136.227 101.145 135.305C101.145 134.383 101.354 133.547 101.772 132.797C102.19 132.035 102.768 131.438 103.506 131.008C104.244 130.566 105.073 130.344 105.996 130.344C106.684 130.344 107.317 130.486 107.895 130.768C108.473 131.039 108.965 131.432 109.37 131.949V130.566H111.049V140.082C111.049 140.942 110.846 141.711 110.44 142.387C110.034 143.063 109.469 143.592 108.743 143.973C108.018 144.366 107.2 144.563 106.291 144.563ZM102.953 135.305C102.953 135.908 103.088 136.461 103.358 136.965C103.641 137.469 104.028 137.869 104.52 138.164C105.012 138.459 105.559 138.606 106.162 138.606C106.739 138.606 107.268 138.459 107.748 138.164C108.239 137.869 108.62 137.469 108.891 136.965C109.174 136.461 109.315 135.908 109.315 135.305C109.315 134.703 109.174 134.149 108.891 133.645C108.62 133.141 108.239 132.742 107.748 132.447C107.268 132.152 106.739 132.004 106.162 132.004C105.559 132.004 105.012 132.152 104.52 132.447C104.041 132.742 103.66 133.141 103.377 133.645C103.094 134.149 102.953 134.703 102.953 135.305ZM113.708 130.566H115.386V131.783C115.681 131.315 116.074 130.959 116.566 130.713C117.058 130.467 117.611 130.344 118.226 130.344C118.927 130.344 119.56 130.51 120.126 130.842C120.691 131.162 121.134 131.604 121.453 132.17C121.785 132.736 121.951 133.369 121.951 134.07V140.506H120.218V134.623C120.218 133.811 119.996 133.172 119.554 132.705C119.124 132.238 118.552 132.004 117.839 132.004C117.126 132.004 116.542 132.244 116.087 132.723C115.644 133.19 115.423 133.824 115.423 134.623V140.506H113.708V130.566Z" fill="white"/>
<ellipse cx="49.1438" cy="132.874" rx="3.07152" ry="3.0737" fill="#CFB8FF"/>
<path d="M62.9604 177.482H67.4603C68.8373 177.482 70.0422 177.765 71.075 178.33C72.12 178.896 72.9253 179.701 73.4909 180.746C74.0564 181.779 74.3392 182.978 74.3392 184.342C74.3392 185.707 74.0564 186.912 73.4909 187.957C72.9253 188.99 72.12 189.795 71.075 190.373C70.0422 190.938 68.8373 191.221 67.4603 191.221H62.9604V177.482ZM67.4787 189.561C68.4869 189.561 69.366 189.352 70.116 188.934C70.8659 188.504 71.4438 187.895 71.8495 187.109C72.2553 186.322 72.4581 185.4 72.4581 184.342C72.4581 183.285 72.2553 182.369 71.8495 181.594C71.4438 180.807 70.8598 180.205 70.0975 179.787C69.3475 179.357 68.4746 179.142 67.4787 179.142H64.7677V189.561H67.4787ZM81.0008 191.442C80.0663 191.442 79.218 191.215 78.4557 190.76C77.6935 190.305 77.0972 189.684 76.6668 188.897C76.2365 188.098 76.0214 187.207 76.0214 186.223C76.0214 185.24 76.2304 184.355 76.6484 183.568C77.0787 182.781 77.6566 182.166 78.382 181.723C79.1196 181.281 79.9434 181.06 80.8532 181.06C81.7999 181.06 82.6237 181.281 83.3245 181.723C84.0376 182.166 84.5785 182.756 84.9474 183.494C85.3285 184.219 85.5191 185 85.5191 185.836C85.5191 186.119 85.4884 186.426 85.4269 186.758H77.8287C77.8533 187.385 78.0131 187.932 78.3082 188.4C78.6033 188.867 78.9844 189.229 79.4516 189.488C79.9311 189.746 80.4536 189.875 81.0192 189.875C82.2241 189.875 83.1523 189.328 83.804 188.234L85.2425 188.971C84.9228 189.684 84.3818 190.274 83.6195 190.742C82.8573 191.209 81.9843 191.442 81.0008 191.442ZM83.6564 185.283C83.6318 184.508 83.3491 183.869 82.8081 183.365C82.2794 182.848 81.6278 182.59 80.8532 182.59C80.0909 182.59 79.4332 182.836 78.8799 183.328C78.3266 183.807 77.9885 184.459 77.8656 185.283H83.6564ZM86.4503 181.281H88.3683L91.153 188.805L93.9563 181.281H95.8742L91.9645 191.221H90.3416L86.4503 181.281ZM101.802 191.442C100.868 191.442 100.02 191.215 99.2572 190.76C98.495 190.305 97.8987 189.684 97.4683 188.897C97.038 188.098 96.8229 187.207 96.8229 186.223C96.8229 185.24 97.0319 184.355 97.4499 183.568C97.8802 182.781 98.4581 182.166 99.1835 181.723C99.9212 181.281 100.745 181.06 101.655 181.06C102.601 181.06 103.425 181.281 104.126 181.723C104.839 182.166 105.38 182.756 105.749 183.494C106.13 184.219 106.321 185 106.321 185.836C106.321 186.119 106.29 186.426 106.228 186.758H98.6302C98.6548 187.385 98.8146 187.932 99.1097 188.4C99.4048 188.867 99.7859 189.229 100.253 189.488C100.733 189.746 101.255 189.875 101.821 189.875C103.026 189.875 103.954 189.328 104.605 188.234L106.044 188.971C105.724 189.684 105.183 190.274 104.421 190.742C103.659 191.209 102.786 191.442 101.802 191.442ZM104.458 185.283C104.433 184.508 104.151 183.869 103.61 183.365C103.081 182.848 102.429 182.59 101.655 182.59C100.892 182.59 100.235 182.836 99.6814 183.328C99.1281 183.807 98.79 184.459 98.6671 185.283H104.458ZM108.557 177.26H110.272V191.221H108.557V177.26ZM117.654 191.442C116.708 191.442 115.841 191.221 115.054 190.779C114.28 190.324 113.665 189.703 113.21 188.916C112.755 188.117 112.528 187.225 112.528 186.242C112.528 185.271 112.749 184.391 113.191 183.605C113.646 182.805 114.261 182.185 115.036 181.742C115.823 181.287 116.695 181.06 117.654 181.06C118.601 181.06 119.462 181.287 120.236 181.742C121.023 182.185 121.638 182.799 122.081 183.586C122.536 184.373 122.763 185.258 122.763 186.242C122.763 187.238 122.536 188.129 122.081 188.916C121.626 189.703 121.005 190.324 120.218 190.779C119.443 191.221 118.589 191.442 117.654 191.442ZM114.335 186.242C114.335 186.906 114.476 187.508 114.759 188.049C115.054 188.59 115.454 189.014 115.958 189.322C116.474 189.629 117.04 189.783 117.654 189.783C118.257 189.783 118.81 189.629 119.314 189.322C119.818 189.014 120.212 188.59 120.495 188.049C120.79 187.508 120.937 186.906 120.937 186.242C120.937 185.578 120.79 184.982 120.495 184.453C120.212 183.912 119.818 183.488 119.314 183.18C118.81 182.873 118.257 182.719 117.654 182.719C117.04 182.719 116.474 182.873 115.958 183.18C115.454 183.488 115.054 183.912 114.759 184.453C114.476 184.982 114.335 185.578 114.335 186.242ZM125 181.281H126.678V182.664C127.072 182.16 127.563 181.766 128.154 181.484C128.756 181.201 129.426 181.06 130.164 181.06C131.086 181.06 131.922 181.287 132.672 181.742C133.422 182.197 134.012 182.824 134.442 183.623C134.873 184.41 135.088 185.289 135.088 186.26C135.088 187.232 134.873 188.111 134.442 188.897C134.012 189.684 133.422 190.305 132.672 190.76C131.922 191.215 131.08 191.442 130.145 191.442C129.432 191.442 128.774 191.307 128.172 191.037C127.582 190.754 127.096 190.354 126.715 189.838V194.91H125V181.281ZM126.715 186.26C126.715 186.924 126.856 187.527 127.139 188.068C127.434 188.596 127.834 189.014 128.338 189.322C128.842 189.629 129.401 189.783 130.016 189.783C130.631 189.783 131.184 189.629 131.676 189.322C132.18 189.014 132.567 188.596 132.838 188.068C133.121 187.527 133.262 186.924 133.262 186.26C133.262 185.596 133.121 184.994 132.838 184.453C132.555 183.912 132.168 183.488 131.676 183.18C131.184 182.873 130.631 182.719 130.016 182.719C129.401 182.719 128.842 182.873 128.338 183.18C127.834 183.488 127.434 183.912 127.139 184.453C126.856 184.994 126.715 185.596 126.715 186.26ZM137.337 181.281H139.015V182.516C139.298 182.049 139.679 181.693 140.158 181.447C140.65 181.189 141.191 181.06 141.781 181.06C142.458 181.06 143.072 181.226 143.626 181.557C144.191 181.877 144.621 182.314 144.917 182.867C145.236 182.289 145.666 181.846 146.207 181.539C146.761 181.219 147.369 181.06 148.033 181.06C148.709 181.06 149.33 181.226 149.896 181.557C150.461 181.877 150.91 182.32 151.242 182.885C151.574 183.451 151.74 184.084 151.74 184.785V191.221H150.007V185.338C150.007 184.527 149.791 183.887 149.361 183.42C148.943 182.953 148.396 182.719 147.72 182.719C147.031 182.719 146.472 182.959 146.041 183.439C145.611 183.906 145.396 184.539 145.396 185.338V191.221H143.662V185.338C143.662 184.527 143.453 183.887 143.035 183.42C142.617 182.953 142.064 182.719 141.376 182.719C140.699 182.719 140.14 182.959 139.697 183.439C139.267 183.906 139.052 184.539 139.052 185.338V191.221H137.337V181.281ZM158.75 191.442C157.815 191.442 156.967 191.215 156.205 190.76C155.442 190.305 154.846 189.684 154.416 188.897C153.986 188.098 153.77 187.207 153.77 186.223C153.77 185.24 153.979 184.355 154.397 183.568C154.828 182.781 155.406 182.166 156.131 181.723C156.869 181.281 157.692 181.06 158.602 181.06C159.549 181.06 160.373 181.281 161.073 181.723C161.787 182.166 162.328 182.756 162.696 183.494C163.078 184.219 163.268 185 163.268 185.836C163.268 186.119 163.237 186.426 163.176 186.758H155.578C155.602 187.385 155.762 187.932 156.057 188.4C156.352 188.867 156.733 189.229 157.201 189.488C157.68 189.746 158.203 189.875 158.768 189.875C159.973 189.875 160.901 189.328 161.553 188.234L162.991 188.971C162.672 189.684 162.131 190.274 161.369 190.742C160.606 191.209 159.733 191.442 158.75 191.442ZM161.405 185.283C161.381 184.508 161.098 183.869 160.557 183.365C160.028 182.848 159.377 182.59 158.602 182.59C157.84 182.59 157.182 182.836 156.629 183.328C156.076 183.807 155.738 184.459 155.615 185.283H161.405ZM165.504 181.281H167.183V182.498C167.478 182.031 167.871 181.674 168.363 181.428C168.855 181.182 169.408 181.06 170.023 181.06C170.723 181.06 171.357 181.226 171.922 181.557C172.488 181.877 172.93 182.32 173.25 182.885C173.582 183.451 173.748 184.084 173.748 184.785V191.221H172.014V185.338C172.014 184.527 171.793 183.887 171.351 183.42C170.92 182.953 170.349 182.719 169.635 182.719C168.922 182.719 168.338 182.959 167.883 183.439C167.441 183.906 167.219 184.539 167.219 185.338V191.221H165.504V181.281ZM180.241 191.332C179.27 191.332 178.52 191.061 177.991 190.52C177.475 189.967 177.217 189.18 177.217 188.16V182.922H175.409V181.281H175.778C176.221 181.281 176.571 181.152 176.829 180.894C177.087 180.623 177.217 180.26 177.217 179.805V178.994H178.932V181.281H181.163V182.922H178.932V188.104C178.932 189.211 179.485 189.764 180.592 189.764C180.825 189.764 181.053 189.746 181.274 189.709V191.24C181.016 191.301 180.671 191.332 180.241 191.332Z" fill="white"/>
<ellipse cx="49.1438" cy="183.59" rx="3.07152" ry="3.0737" fill="#FA7A68"/>
<path d="M69.2861 242.159C68.0074 242.159 66.8517 241.858 65.8189 241.256C64.7985 240.641 63.9993 239.799 63.4214 238.729C62.8436 237.647 62.5547 236.43 62.5547 235.077C62.5547 233.725 62.8436 232.508 63.4214 231.426C63.9993 230.344 64.7985 229.502 65.8189 228.899C66.8517 228.285 68.0074 227.977 69.2861 227.977C70.1959 227.977 71.0319 228.143 71.7942 228.475C72.5565 228.795 73.202 229.219 73.7306 229.748C74.2593 230.276 74.6405 230.848 74.8741 231.463L73.2143 232.219C72.8823 231.432 72.3721 230.811 71.6836 230.356C71.0073 229.889 70.2082 229.655 69.2861 229.655C68.3271 229.655 67.4726 229.883 66.7226 230.338C65.9849 230.793 65.4071 231.432 64.989 232.256C64.571 233.08 64.362 234.02 64.362 235.077C64.362 236.135 64.571 237.075 64.989 237.899C65.4071 238.711 65.9849 239.344 66.7226 239.799C67.4726 240.254 68.3271 240.481 69.2861 240.481C70.2082 240.481 71.0073 240.254 71.6836 239.799C72.3721 239.331 72.8823 238.704 73.2143 237.918L74.8741 238.674C74.6405 239.301 74.2593 239.879 73.7306 240.407C73.202 240.936 72.5565 241.36 71.7942 241.68C71.0319 241.999 70.1959 242.159 69.2861 242.159ZM81.6706 242.159C80.7239 242.159 79.8571 241.938 79.0702 241.495C78.2957 241.04 77.6809 240.42 77.226 239.633C76.7711 238.834 76.5436 237.942 76.5436 236.959C76.5436 235.987 76.765 235.108 77.2076 234.321C77.6625 233.522 78.2772 232.901 79.0518 232.459C79.8387 232.004 80.7116 231.776 81.6706 231.776C82.6173 231.776 83.4779 232.004 84.2525 232.459C85.0394 232.901 85.6541 233.516 86.0967 234.303C86.5516 235.09 86.7791 235.975 86.7791 236.959C86.7791 237.954 86.5516 238.846 86.0967 239.633C85.6418 240.42 85.0209 241.04 84.234 241.495C83.4595 241.938 82.605 242.159 81.6706 242.159ZM78.351 236.959C78.351 237.623 78.4924 238.225 78.7752 238.766C79.0702 239.307 79.4698 239.731 79.9739 240.038C80.4903 240.346 81.0558 240.499 81.6706 240.499C82.273 240.499 82.8263 240.346 83.3304 240.038C83.8345 239.731 84.2279 239.307 84.5107 238.766C84.8058 238.225 84.9533 237.623 84.9533 236.959C84.9533 236.295 84.8058 235.698 84.5107 235.17C84.2279 234.629 83.8345 234.205 83.3304 233.897C82.8263 233.59 82.273 233.436 81.6706 233.436C81.0558 233.436 80.4903 233.59 79.9739 233.897C79.4698 234.205 79.0702 234.629 78.7752 235.17C78.4924 235.698 78.351 236.295 78.351 236.959ZM89.016 231.998H90.6943V233.381C91.0877 232.877 91.5795 232.483 92.1697 232.201C92.7721 231.918 93.4422 231.776 94.1799 231.776C95.102 231.776 95.938 232.004 96.688 232.459C97.438 232.914 98.0281 233.541 98.4585 234.34C98.8888 235.127 99.1039 236.006 99.1039 236.977C99.1039 237.948 98.8888 238.827 98.4585 239.614C98.0281 240.401 97.438 241.022 96.688 241.477C95.938 241.932 95.0958 242.159 94.1614 242.159C93.4483 242.159 92.7906 242.024 92.1881 241.754C91.598 241.471 91.1123 241.071 90.7312 240.555V245.626H89.016V231.998ZM90.7312 236.977C90.7312 237.641 90.8726 238.243 91.1553 238.784C91.4504 239.313 91.85 239.731 92.3541 240.038C92.8582 240.346 93.4176 240.499 94.0323 240.499C94.6471 240.499 95.2003 240.346 95.6921 240.038C96.1962 239.731 96.5835 239.313 96.854 238.784C97.1368 238.243 97.2782 237.641 97.2782 236.977C97.2782 236.313 97.1368 235.711 96.854 235.17C96.5712 234.629 96.1839 234.205 95.6921 233.897C95.2003 233.59 94.6471 233.436 94.0323 233.436C93.4176 233.436 92.8582 233.59 92.3541 233.897C91.85 234.205 91.4504 234.629 91.1553 235.17C90.8726 235.711 90.7312 236.313 90.7312 236.977ZM103.994 241.92L100.048 231.998H101.91L104.935 239.762L107.941 231.998H109.841L104.345 245.626H102.445L103.994 241.92ZM110.241 231.998H112.141L114.52 239.282L116.844 231.998H118.467L120.79 239.282L123.188 231.998H125.069L121.657 241.938H120.016L117.655 234.45L115.295 241.938H113.653L110.241 231.998ZM126.603 231.998H128.281V233.178C128.797 232.317 129.677 231.887 130.918 231.887H131.527V233.51H130.66C129.947 233.51 129.375 233.731 128.945 234.174C128.527 234.616 128.318 235.231 128.318 236.018V241.938H126.603V231.998ZM133.05 231.998H134.766V241.938H133.05V231.998ZM132.848 229.342C132.848 229.022 132.946 228.764 133.143 228.567C133.339 228.371 133.598 228.272 133.917 228.272C134.237 228.272 134.495 228.371 134.692 228.567C134.888 228.764 134.987 229.022 134.987 229.342C134.987 229.662 134.888 229.92 134.692 230.117C134.495 230.313 134.237 230.412 133.917 230.412C133.598 230.412 133.339 230.313 133.143 230.117C132.946 229.92 132.848 229.662 132.848 229.342ZM141.466 242.049C140.494 242.049 139.744 241.778 139.216 241.237C138.699 240.684 138.441 239.897 138.441 238.877V233.639H136.634V231.998H137.003C137.445 231.998 137.796 231.869 138.054 231.61C138.312 231.34 138.441 230.977 138.441 230.522V229.711H140.156V231.998H142.388V233.639H140.156V238.821C140.156 239.928 140.71 240.481 141.816 240.481C142.05 240.481 142.277 240.463 142.498 240.426V241.956C142.24 242.018 141.896 242.049 141.466 242.049ZM148.778 242.049C147.806 242.049 147.056 241.778 146.528 241.237C146.011 240.684 145.753 239.897 145.753 238.877V233.639H143.946V231.998H144.315C144.757 231.998 145.108 231.869 145.366 231.61C145.624 231.34 145.753 230.977 145.753 230.522V229.711H147.468V231.998H149.7V233.639H147.468V238.821C147.468 239.928 148.022 240.481 149.128 240.481C149.362 240.481 149.589 240.463 149.81 240.426V241.956C149.552 242.018 149.208 242.049 148.778 242.049ZM152.051 231.998H153.766V241.938H152.051V231.998ZM151.848 229.342C151.848 229.022 151.946 228.764 152.143 228.567C152.34 228.371 152.598 228.272 152.918 228.272C153.237 228.272 153.496 228.371 153.692 228.567C153.889 228.764 153.987 229.022 153.987 229.342C153.987 229.662 153.889 229.92 153.692 230.117C153.496 230.313 153.237 230.412 152.918 230.412C152.598 230.412 152.34 230.313 152.143 230.117C151.946 229.92 151.848 229.662 151.848 229.342ZM156.427 231.998H158.106V233.215C158.401 232.748 158.794 232.391 159.286 232.145C159.778 231.899 160.331 231.776 160.946 231.776C161.646 231.776 162.28 231.942 162.845 232.274C163.411 232.594 163.853 233.037 164.173 233.602C164.505 234.168 164.671 234.801 164.671 235.502V241.938H162.937V236.055C162.937 235.243 162.716 234.604 162.274 234.137C161.843 233.67 161.271 233.436 160.558 233.436C159.845 233.436 159.261 233.676 158.806 234.155C158.364 234.623 158.142 235.256 158.142 236.055V241.938H156.427V231.998ZM171.865 245.995C170.82 245.995 169.898 245.756 169.099 245.276C168.312 244.809 167.752 244.182 167.42 243.395L169.025 242.657C169.209 243.149 169.547 243.549 170.039 243.856C170.531 244.176 171.133 244.335 171.846 244.335C172.719 244.335 173.445 244.083 174.023 243.579C174.6 243.088 174.889 242.399 174.889 241.514V240.131C174.521 240.635 174.047 241.022 173.469 241.293C172.892 241.563 172.264 241.698 171.588 241.698C170.666 241.698 169.836 241.483 169.099 241.053C168.361 240.61 167.777 240.014 167.347 239.264C166.929 238.502 166.72 237.659 166.72 236.737C166.72 235.815 166.929 234.979 167.347 234.229C167.765 233.467 168.342 232.871 169.08 232.44C169.818 231.998 170.648 231.776 171.57 231.776C172.258 231.776 172.892 231.918 173.469 232.201C174.047 232.471 174.539 232.864 174.945 233.381V231.998H176.623V241.514C176.623 242.374 176.42 243.143 176.014 243.819C175.609 244.495 175.043 245.024 174.318 245.405C173.592 245.799 172.775 245.995 171.865 245.995ZM168.527 236.737C168.527 237.34 168.662 237.893 168.933 238.397C169.215 238.901 169.603 239.301 170.094 239.596C170.586 239.891 171.133 240.038 171.736 240.038C172.314 240.038 172.842 239.891 173.322 239.596C173.814 239.301 174.195 238.901 174.465 238.397C174.748 237.893 174.889 237.34 174.889 236.737C174.889 236.135 174.748 235.582 174.465 235.077C174.195 234.573 173.814 234.174 173.322 233.879C172.842 233.584 172.314 233.436 171.736 233.436C171.133 233.436 170.586 233.584 170.094 233.879C169.615 234.174 169.234 234.573 168.951 235.077C168.668 235.582 168.527 236.135 168.527 236.737Z" fill="white"/>
<ellipse cx="49.1438" cy="234.306" rx="3.07152" ry="3.0737" fill="#FFD978"/>
<path d="M62.9604 278.914H64.4727L71.6836 289.058V278.914H73.5093V292.654H71.9971L64.7677 282.363V292.654H62.9604V278.914ZM81.0943 292.875C80.1476 292.875 79.2808 292.654 78.4939 292.211C77.7193 291.756 77.1046 291.135 76.6497 290.349C76.1948 289.549 75.9673 288.658 75.9673 287.674C75.9673 286.703 76.1886 285.824 76.6312 285.037C77.0862 284.238 77.7009 283.617 78.4755 283.175C79.2623 282.72 80.1353 282.492 81.0943 282.492C82.041 282.492 82.9016 282.72 83.6762 283.175C84.463 283.617 85.0778 284.232 85.5204 285.019C85.9753 285.806 86.2027 286.691 86.2027 287.674C86.2027 288.67 85.9753 289.562 85.5204 290.349C85.0655 291.135 84.4446 291.756 83.6577 292.211C82.8832 292.654 82.0287 292.875 81.0943 292.875ZM77.7747 287.674C77.7747 288.338 77.9161 288.941 78.1988 289.482C78.4939 290.023 78.8935 290.447 79.3976 290.754C79.914 291.062 80.4795 291.215 81.0943 291.215C81.6967 291.215 82.25 291.062 82.7541 290.754C83.2581 290.447 83.6516 290.023 83.9344 289.482C84.2294 288.941 84.377 288.338 84.377 287.674C84.377 287.01 84.2294 286.414 83.9344 285.886C83.6516 285.345 83.2581 284.92 82.7541 284.613C82.25 284.306 81.6967 284.152 81.0943 284.152C80.4795 284.152 79.914 284.306 79.3976 284.613C78.8935 284.92 78.4939 285.345 78.1988 285.886C77.9161 286.414 77.7747 287.01 77.7747 287.674ZM92.2985 292.764C91.3272 292.764 90.5772 292.494 90.0485 291.953C89.5321 291.4 89.274 290.613 89.274 289.592V284.355H87.4666V282.713H87.8355C88.2781 282.713 88.6285 282.584 88.8867 282.326C89.1449 282.056 89.274 281.693 89.274 281.238V280.427H90.9891V282.713H93.2206V284.355H90.9891V289.537C90.9891 290.644 91.5423 291.197 92.6489 291.197C92.8825 291.197 93.1099 291.178 93.3312 291.142V292.672C93.073 292.734 92.7288 292.764 92.2985 292.764ZM103.684 292.875C102.749 292.875 101.913 292.703 101.175 292.359C100.438 292.002 99.8291 291.535 99.3496 290.957C98.8701 290.367 98.5381 289.734 98.3537 289.058L100.014 288.541C100.272 289.365 100.751 290.017 101.452 290.496C102.165 290.976 102.909 291.215 103.684 291.215C104.2 291.215 104.661 291.111 105.067 290.902C105.485 290.693 105.811 290.428 106.044 290.109C106.278 289.789 106.395 289.469 106.395 289.15C106.395 288.646 106.216 288.191 105.86 287.785C105.515 287.379 105.036 287.109 104.421 286.974L102.097 286.457C101.114 286.248 100.333 285.781 99.7553 285.056C99.1898 284.318 98.907 283.476 98.907 282.529C98.907 281.804 99.0914 281.152 99.4602 280.574C99.8414 279.984 100.358 279.523 101.009 279.191C101.661 278.859 102.38 278.693 103.167 278.693C104.04 278.693 104.815 278.847 105.491 279.154C106.179 279.461 106.739 279.873 107.169 280.39C107.612 280.894 107.925 281.441 108.11 282.031L106.468 282.621C106.198 281.896 105.749 281.336 105.122 280.943C104.507 280.55 103.862 280.353 103.186 280.353C102.718 280.353 102.3 280.457 101.931 280.666C101.563 280.863 101.274 281.121 101.065 281.441C100.856 281.761 100.751 282.086 100.751 282.418C100.751 282.935 100.936 283.408 101.304 283.838C101.686 284.256 102.159 284.527 102.725 284.65L104.827 285.129C105.933 285.375 106.782 285.842 107.372 286.531C107.962 287.22 108.257 288.043 108.257 289.002C108.257 289.728 108.067 290.385 107.685 290.976C107.304 291.566 106.763 292.033 106.063 292.377C105.374 292.709 104.581 292.875 103.684 292.875ZM110.682 282.713H112.36V284.097C112.754 283.593 113.245 283.199 113.836 282.916C114.438 282.634 115.108 282.492 115.846 282.492C116.768 282.492 117.604 282.72 118.354 283.175C119.104 283.629 119.694 284.256 120.124 285.056C120.555 285.842 120.77 286.722 120.77 287.693C120.77 288.664 120.555 289.543 120.124 290.33C119.694 291.117 119.104 291.738 118.354 292.193C117.604 292.648 116.762 292.875 115.827 292.875C115.114 292.875 114.457 292.74 113.854 292.469C113.264 292.187 112.778 291.787 112.397 291.271V296.342H110.682V282.713ZM112.397 287.693C112.397 288.357 112.539 288.959 112.821 289.5C113.116 290.029 113.516 290.447 114.02 290.754C114.524 291.062 115.084 291.215 115.698 291.215C116.313 291.215 116.866 291.062 117.358 290.754C117.862 290.447 118.249 290.029 118.52 289.5C118.803 288.959 118.944 288.357 118.944 287.693C118.944 287.029 118.803 286.426 118.52 285.886C118.237 285.345 117.85 284.92 117.358 284.613C116.866 284.306 116.313 284.152 115.698 284.152C115.084 284.152 114.524 284.306 114.02 284.613C113.516 284.92 113.116 285.345 112.821 285.886C112.539 286.426 112.397 287.029 112.397 287.693ZM127.593 292.875C126.658 292.875 125.81 292.648 125.047 292.193C124.285 291.738 123.689 291.117 123.259 290.33C122.828 289.531 122.613 288.64 122.613 287.656C122.613 286.672 122.822 285.787 123.24 285C123.67 284.213 124.248 283.599 124.974 283.156C125.711 282.713 126.535 282.492 127.445 282.492C128.392 282.492 129.215 282.713 129.916 283.156C130.629 283.599 131.17 284.189 131.539 284.927C131.92 285.652 132.111 286.433 132.111 287.269C132.111 287.551 132.08 287.859 132.019 288.191H124.42C124.445 288.818 124.605 289.365 124.9 289.832C125.195 290.299 125.576 290.662 126.043 290.92C126.523 291.178 127.045 291.308 127.611 291.308C128.816 291.308 129.744 290.76 130.396 289.666L131.834 290.404C131.515 291.117 130.974 291.707 130.211 292.174C129.449 292.642 128.576 292.875 127.593 292.875ZM130.248 286.715C130.224 285.941 129.941 285.302 129.4 284.797C128.871 284.281 128.22 284.023 127.445 284.023C126.683 284.023 126.025 284.269 125.472 284.761C124.918 285.24 124.58 285.892 124.457 286.715H130.248ZM138.958 292.875C137.986 292.875 137.113 292.648 136.339 292.193C135.564 291.738 134.962 291.117 134.532 290.33C134.101 289.531 133.886 288.646 133.886 287.674C133.886 286.691 134.101 285.806 134.532 285.019C134.962 284.232 135.558 283.617 136.32 283.175C137.095 282.72 137.974 282.492 138.958 282.492C139.917 282.492 140.79 282.744 141.576 283.248C142.376 283.74 142.941 284.379 143.273 285.166L141.724 285.904C141.49 285.375 141.122 284.951 140.617 284.631C140.126 284.312 139.572 284.152 138.958 284.152C138.355 284.152 137.802 284.306 137.298 284.613C136.806 284.92 136.419 285.345 136.136 285.886C135.853 286.414 135.712 287.017 135.712 287.693C135.712 288.357 135.853 288.959 136.136 289.5C136.431 290.029 136.825 290.447 137.316 290.754C137.808 291.062 138.355 291.215 138.958 291.215C139.585 291.215 140.144 291.055 140.636 290.736C141.128 290.416 141.49 289.98 141.724 289.426L143.273 290.201C142.953 290.976 142.394 291.615 141.595 292.119C140.796 292.623 139.917 292.875 138.958 292.875ZM145.459 282.713H147.174V292.654H145.459V282.713ZM145.256 280.058C145.256 279.738 145.355 279.48 145.551 279.283C145.748 279.086 146.006 278.988 146.326 278.988C146.646 278.988 146.904 279.086 147.101 279.283C147.297 279.48 147.396 279.738 147.396 280.058C147.396 280.377 147.297 280.636 147.101 280.832C146.904 281.029 146.646 281.127 146.326 281.127C146.006 281.127 145.748 281.029 145.551 280.832C145.355 280.636 145.256 280.377 145.256 280.058ZM152.75 292.875C151.766 292.875 150.967 292.617 150.352 292.101C149.737 291.572 149.43 290.89 149.43 290.053C149.43 289.242 149.694 288.566 150.223 288.025C150.764 287.472 151.582 287.103 152.676 286.918L156.069 286.365V285.904C156.069 285.363 155.866 284.927 155.461 284.595C155.055 284.25 154.532 284.078 153.893 284.078C153.327 284.078 152.823 284.226 152.381 284.521C151.95 284.804 151.631 285.185 151.422 285.664L149.928 284.89C150.211 284.201 150.727 283.629 151.477 283.175C152.227 282.72 153.045 282.492 153.93 282.492C154.68 282.492 155.344 282.64 155.922 282.935C156.512 283.218 156.967 283.617 157.286 284.134C157.618 284.65 157.784 285.24 157.784 285.904V292.654H156.106V291.363C155.749 291.83 155.276 292.199 154.686 292.469C154.108 292.74 153.463 292.875 152.75 292.875ZM151.237 289.998C151.237 290.404 151.397 290.742 151.717 291.012C152.049 291.283 152.461 291.418 152.952 291.418C153.555 291.418 154.09 291.289 154.557 291.031C155.036 290.76 155.405 290.398 155.663 289.943C155.934 289.488 156.069 288.984 156.069 288.431V287.804L153.063 288.301C151.846 288.51 151.237 289.076 151.237 289.998ZM161.495 284.355H159.595V282.713H161.495V282.013C161.495 281.324 161.648 280.728 161.956 280.224C162.263 279.72 162.675 279.339 163.191 279.08C163.72 278.822 164.31 278.693 164.962 278.693C165.294 278.693 165.583 278.724 165.829 278.785V280.316C165.644 280.279 165.423 280.261 165.165 280.261C163.874 280.261 163.228 280.845 163.228 282.013V282.713H169.038V292.654H167.322V284.355H163.228V292.654H161.495V284.355ZM176.003 292.875C175.069 292.875 174.221 292.648 173.458 292.193C172.696 291.738 172.1 291.117 171.669 290.33C171.239 289.531 171.024 288.64 171.024 287.656C171.024 286.672 171.233 285.787 171.651 285C172.081 284.213 172.659 283.599 173.385 283.156C174.122 282.713 174.946 282.492 175.856 282.492C176.802 282.492 177.626 282.713 178.327 283.156C179.04 283.599 179.581 284.189 179.95 284.927C180.331 285.652 180.522 286.433 180.522 287.269C180.522 287.551 180.491 287.859 180.429 288.191H172.831C172.856 288.818 173.016 289.365 173.311 289.832C173.606 290.299 173.987 290.662 174.454 290.92C174.934 291.178 175.456 291.308 176.022 291.308C177.227 291.308 178.155 290.76 178.807 289.666L180.245 290.404C179.925 291.117 179.384 291.707 178.622 292.174C177.86 292.642 176.987 292.875 176.003 292.875ZM178.659 286.715C178.634 285.941 178.352 285.302 177.811 284.797C177.282 284.281 176.63 284.023 175.856 284.023C175.093 284.023 174.436 284.269 173.882 284.761C173.329 285.24 172.991 285.892 172.868 286.715H178.659ZM187.276 292.875C186.354 292.875 185.518 292.648 184.768 292.193C184.018 291.738 183.428 291.117 182.998 290.33C182.567 289.543 182.352 288.664 182.352 287.693C182.352 286.722 182.567 285.842 182.998 285.056C183.428 284.256 184.018 283.629 184.768 283.175C185.518 282.72 186.354 282.492 187.276 282.492C188.002 282.492 188.653 282.627 189.231 282.898C189.821 283.168 190.313 283.55 190.706 284.041V278.693H192.44V292.654H190.762V291.197C190.393 291.726 189.901 292.137 189.286 292.433C188.684 292.728 188.014 292.875 187.276 292.875ZM184.159 287.693C184.159 288.357 184.301 288.959 184.584 289.5C184.866 290.029 185.254 290.447 185.746 290.754C186.25 291.062 186.809 291.215 187.424 291.215C188.039 291.215 188.592 291.062 189.084 290.754C189.588 290.447 189.981 290.029 190.264 289.5C190.559 288.959 190.706 288.357 190.706 287.693C190.706 287.029 190.559 286.426 190.264 285.886C189.981 285.345 189.588 284.92 189.084 284.613C188.592 284.306 188.039 284.152 187.424 284.152C186.809 284.152 186.25 284.306 185.746 284.613C185.254 284.92 184.866 285.345 184.584 285.886C184.301 286.426 184.159 287.029 184.159 287.693Z" fill="white"/>
<ellipse cx="49.1438" cy="288.096" rx="3.07152" ry="3.0737" fill="#757575"/>
<path opacity="0.5" d="M492.373 263.626H490.206V262.32H493.895V273.769H492.373V263.626ZM499.982 273.953C499.254 273.953 498.598 273.795 498.014 273.477C497.441 273.149 496.99 272.698 496.662 272.125C496.344 271.551 496.186 270.9 496.186 270.173C496.186 269.568 496.293 268.974 496.508 268.39C496.723 267.806 497.072 267.196 497.553 266.561L500.781 262.32H502.594L499.152 266.807C499.428 266.684 499.777 266.623 500.197 266.623C500.863 266.623 501.467 266.781 502.01 267.099C502.553 267.406 502.978 267.837 503.286 268.39C503.603 268.943 503.762 269.563 503.762 270.25C503.762 270.946 503.598 271.576 503.27 272.14C502.943 272.703 502.492 273.149 501.918 273.477C501.344 273.795 500.699 273.953 499.982 273.953ZM497.707 270.265C497.707 270.941 497.922 271.5 498.353 271.94C498.783 272.381 499.326 272.601 499.982 272.601C500.412 272.601 500.796 272.504 501.134 272.309C501.483 272.104 501.754 271.822 501.949 271.464C502.143 271.105 502.241 270.706 502.241 270.265C502.241 269.589 502.026 269.03 501.595 268.59C501.175 268.149 500.637 267.929 499.982 267.929C499.326 267.929 498.783 268.149 498.353 268.59C497.922 269.03 497.707 269.589 497.707 270.265ZM509.166 273.953C508.265 273.953 507.46 273.718 506.753 273.247C506.046 272.775 505.56 272.14 505.293 271.341L506.523 270.818C506.738 271.372 507.086 271.807 507.568 272.125C508.05 272.442 508.582 272.601 509.166 272.601C509.627 272.601 510.037 272.499 510.396 272.294C510.765 272.079 511.051 271.787 511.256 271.418C511.472 271.039 511.579 270.619 511.579 270.157C511.579 269.686 511.472 269.266 511.256 268.897C511.051 268.518 510.765 268.226 510.396 268.021C510.037 267.806 509.632 267.698 509.182 267.698C508.721 267.698 508.295 267.806 507.906 268.021C507.517 268.236 507.23 268.508 507.045 268.836L505.831 268.574L506.707 262.304H512.64V263.61H507.783L507.307 266.961C507.85 266.571 508.526 266.377 509.335 266.377C510.063 266.377 510.713 266.546 511.287 266.884C511.861 267.212 512.307 267.663 512.624 268.236C512.942 268.81 513.101 269.45 513.101 270.157C513.101 270.875 512.926 271.52 512.578 272.094C512.24 272.668 511.769 273.124 511.164 273.462C510.57 273.79 509.904 273.953 509.166 273.953ZM515.133 262.135H516.562V266.454C516.808 266.085 517.13 265.803 517.53 265.608C517.94 265.403 518.396 265.301 518.898 265.301C519.482 265.301 520.009 265.439 520.481 265.716C520.952 265.982 521.321 266.351 521.587 266.822C521.864 267.294 522.002 267.821 522.002 268.405V273.769H520.558V268.866C520.558 268.19 520.373 267.658 520.004 267.268C519.635 266.879 519.159 266.684 518.575 266.684C517.991 266.684 517.509 266.884 517.13 267.284C516.751 267.673 516.562 268.201 516.562 268.866V273.769H515.133V262.135ZM531.883 271.126H526.258V269.881L531.852 262.32H533.297V269.881H534.788V271.126H533.297V273.769H531.883V271.126ZM531.883 269.881V264.302L527.795 269.881H531.883ZM540.977 273.953C540.075 273.953 539.281 273.708 538.594 273.216C537.908 272.724 537.375 272.032 536.996 271.141C536.617 270.239 536.427 269.205 536.427 268.037C536.427 266.869 536.617 265.839 536.996 264.948C537.375 264.056 537.903 263.365 538.579 262.873C539.266 262.381 540.06 262.135 540.961 262.135C541.863 262.135 542.657 262.381 543.343 262.873C544.03 263.365 544.563 264.056 544.942 264.948C545.321 265.839 545.51 266.869 545.51 268.037C545.51 269.205 545.321 270.239 544.942 271.141C544.563 272.032 544.03 272.724 543.343 273.216C542.667 273.708 541.878 273.953 540.977 273.953ZM537.934 268.037C537.934 268.938 538.057 269.732 538.302 270.419C538.559 271.095 538.917 271.623 539.378 272.002C539.839 272.371 540.372 272.555 540.977 272.555C541.581 272.555 542.109 272.371 542.56 272.002C543.021 271.623 543.374 271.095 543.62 270.419C543.876 269.732 544.004 268.938 544.004 268.037C544.004 267.135 543.876 266.346 543.62 265.67C543.374 264.994 543.021 264.471 542.56 264.102C542.098 263.723 541.566 263.534 540.961 263.534C540.357 263.534 539.824 263.723 539.363 264.102C538.912 264.471 538.559 264.994 538.302 265.67C538.057 266.346 537.934 267.135 537.934 268.037ZM547.625 265.485H549.024V266.515C549.26 266.126 549.577 265.829 549.977 265.624C550.387 265.409 550.837 265.301 551.329 265.301C551.893 265.301 552.405 265.439 552.866 265.716C553.337 265.982 553.696 266.346 553.942 266.807C554.208 266.326 554.567 265.957 555.018 265.701C555.479 265.434 555.986 265.301 556.539 265.301C557.103 265.301 557.62 265.439 558.091 265.716C558.563 265.982 558.937 266.351 559.213 266.822C559.49 267.294 559.628 267.821 559.628 268.405V273.769H558.184V268.866C558.184 268.19 558.004 267.658 557.646 267.268C557.297 266.879 556.841 266.684 556.278 266.684C555.704 266.684 555.238 266.884 554.879 267.284C554.521 267.673 554.342 268.201 554.342 268.866V273.769H552.897V268.866C552.897 268.19 552.723 267.658 552.374 267.268C552.026 266.879 551.565 266.684 550.991 266.684C550.428 266.684 549.961 266.884 549.593 267.284C549.234 267.673 549.055 268.201 549.055 268.866V273.769H547.625V265.485Z" fill="white"/>
<path opacity="0.5" d="M504.697 212.418C504.421 212.541 504.072 212.603 503.652 212.603C502.986 212.603 502.382 212.449 501.839 212.142C501.296 211.824 500.865 211.388 500.548 210.835C500.24 210.282 500.087 209.657 500.087 208.96C500.087 208.264 500.251 207.633 500.578 207.07C500.906 206.506 501.357 206.066 501.931 205.748C502.505 205.431 503.15 205.272 503.867 205.272C504.595 205.272 505.245 205.436 505.819 205.764C506.403 206.081 506.854 206.527 507.172 207.101C507.499 207.674 507.663 208.325 507.663 209.052C507.663 209.657 507.556 210.251 507.341 210.835C507.125 211.419 506.777 212.029 506.296 212.664L503.068 216.906H501.255L504.697 212.418ZM501.608 208.96C501.608 209.636 501.818 210.195 502.238 210.635C502.669 211.066 503.212 211.281 503.867 211.281C504.523 211.281 505.066 211.066 505.496 210.635C505.927 210.195 506.142 209.636 506.142 208.96C506.142 208.52 506.045 208.12 505.85 207.762C505.655 207.403 505.384 207.121 505.035 206.916C504.687 206.711 504.298 206.609 503.867 206.609C503.447 206.609 503.063 206.711 502.715 206.916C502.366 207.121 502.095 207.403 501.9 207.762C501.706 208.12 501.608 208.52 501.608 208.96ZM514.066 217.09C513.165 217.09 512.371 216.844 511.684 216.352C510.998 215.861 510.465 215.169 510.086 214.278C509.707 213.376 509.517 212.341 509.517 211.173C509.517 210.005 509.707 208.976 510.086 208.084C510.465 207.193 510.993 206.501 511.669 206.009C512.355 205.518 513.149 205.272 514.051 205.272C514.953 205.272 515.747 205.518 516.433 206.009C517.12 206.501 517.652 207.193 518.031 208.084C518.411 208.976 518.6 210.005 518.6 211.173C518.6 212.341 518.411 213.376 518.031 214.278C517.652 215.169 517.12 215.861 516.433 216.352C515.757 216.844 514.968 217.09 514.066 217.09ZM511.023 211.173C511.023 212.075 511.146 212.869 511.392 213.555C511.648 214.232 512.007 214.759 512.468 215.138C512.929 215.507 513.462 215.692 514.066 215.692C514.671 215.692 515.199 215.507 515.649 215.138C516.11 214.759 516.464 214.232 516.71 213.555C516.966 212.869 517.094 212.075 517.094 211.173C517.094 210.272 516.966 209.483 516.71 208.807C516.464 208.13 516.11 207.608 515.649 207.239C515.188 206.86 514.656 206.67 514.051 206.67C513.447 206.67 512.914 206.86 512.453 207.239C512.002 207.608 511.648 208.13 511.392 208.807C511.146 209.483 511.023 210.272 511.023 211.173ZM520.715 205.272H522.145V209.59C522.39 209.222 522.713 208.94 523.113 208.745C523.523 208.54 523.979 208.438 524.481 208.438C525.065 208.438 525.592 208.576 526.064 208.853C526.535 209.119 526.904 209.488 527.17 209.959C527.447 210.431 527.585 210.958 527.585 211.542V216.906H526.14V212.003C526.14 211.327 525.956 210.794 525.587 210.405C525.218 210.016 524.742 209.821 524.158 209.821C523.574 209.821 523.092 210.021 522.713 210.42C522.334 210.81 522.145 211.337 522.145 212.003V216.906H520.715V205.272ZM533.916 206.763H531.749V205.456H535.437V216.906H533.916V206.763ZM541.659 217.09C540.757 217.09 539.953 216.855 539.246 216.383C538.539 215.912 538.052 215.277 537.786 214.478L539.016 213.955C539.231 214.508 539.579 214.944 540.061 215.261C540.542 215.579 541.075 215.738 541.659 215.738C542.12 215.738 542.53 215.635 542.888 215.43C543.257 215.215 543.544 214.923 543.749 214.554C543.964 214.175 544.072 213.755 544.072 213.294C544.072 212.823 543.964 212.403 543.749 212.034C543.544 211.655 543.257 211.363 542.888 211.158C542.53 210.943 542.125 210.835 541.674 210.835C541.213 210.835 540.788 210.943 540.399 211.158C540.009 211.373 539.723 211.645 539.538 211.972L538.324 211.711L539.2 205.441H545.132V206.747H540.276L539.799 210.098C540.342 209.708 541.019 209.514 541.828 209.514C542.555 209.514 543.206 209.683 543.78 210.021C544.354 210.349 544.799 210.799 545.117 211.373C545.434 211.947 545.593 212.587 545.593 213.294C545.593 214.011 545.419 214.657 545.071 215.231C544.733 215.804 544.261 216.26 543.657 216.598C543.063 216.926 542.397 217.09 541.659 217.09ZM547.625 208.622H549.024V209.652C549.259 209.262 549.577 208.965 549.977 208.76C550.386 208.545 550.837 208.438 551.329 208.438C551.892 208.438 552.405 208.576 552.866 208.853C553.337 209.119 553.696 209.483 553.942 209.944C554.208 209.462 554.567 209.093 555.017 208.837C555.478 208.571 555.986 208.438 556.539 208.438C557.102 208.438 557.62 208.576 558.091 208.853C558.562 209.119 558.936 209.488 559.213 209.959C559.49 210.431 559.628 210.958 559.628 211.542V216.906H558.183V212.003C558.183 211.327 558.004 210.794 557.645 210.405C557.297 210.016 556.841 209.821 556.278 209.821C555.704 209.821 555.238 210.021 554.879 210.42C554.521 210.81 554.341 211.337 554.341 212.003V216.906H552.897V212.003C552.897 211.327 552.722 210.794 552.374 210.405C552.026 210.016 551.565 209.821 550.991 209.821C550.427 209.821 549.961 210.021 549.592 210.42C549.234 210.81 549.054 211.337 549.054 212.003V216.906H547.625V208.622Z" fill="white"/>
<path opacity="0.5" d="M495.974 168.342H493.807V167.035H497.496V178.485H495.974V168.342ZM501.842 168.342H499.676V167.035H503.364V178.485H501.842V168.342ZM509.586 178.669C508.684 178.669 507.88 178.434 507.173 177.962C506.466 177.491 505.979 176.856 505.713 176.057L506.942 175.534C507.157 176.087 507.506 176.523 507.987 176.84C508.469 177.158 509.002 177.317 509.586 177.317C510.047 177.317 510.457 177.214 510.815 177.009C511.184 176.794 511.471 176.502 511.676 176.133C511.891 175.754 511.999 175.334 511.999 174.873C511.999 174.402 511.891 173.982 511.676 173.613C511.471 173.234 511.184 172.942 510.815 172.737C510.457 172.522 510.052 172.414 509.601 172.414C509.14 172.414 508.715 172.522 508.325 172.737C507.936 172.952 507.649 173.224 507.465 173.552L506.251 173.29L507.127 167.02H513.059V168.326H508.203L507.726 171.677C508.269 171.287 508.945 171.093 509.755 171.093C510.482 171.093 511.133 171.262 511.707 171.6C512.28 171.928 512.726 172.378 513.044 172.952C513.361 173.526 513.52 174.166 513.52 174.873C513.52 175.59 513.346 176.236 512.998 176.81C512.659 177.383 512.188 177.839 511.584 178.177C510.989 178.505 510.323 178.669 509.586 178.669ZM515.552 166.851H516.981V171.169C517.227 170.801 517.55 170.519 517.949 170.324C518.359 170.119 518.815 170.017 519.317 170.017C519.901 170.017 520.429 170.155 520.9 170.432C521.371 170.698 521.74 171.067 522.007 171.538C522.283 172.01 522.422 172.537 522.422 173.121V178.485H520.977V173.582C520.977 172.906 520.793 172.373 520.424 171.984C520.055 171.595 519.578 171.4 518.994 171.4C518.41 171.4 517.929 171.6 517.55 171.999C517.171 172.389 516.981 172.916 516.981 173.582V178.485H515.552V166.851ZM530.535 178.669C529.623 178.669 528.814 178.434 528.107 177.962C527.4 177.491 526.913 176.846 526.647 176.026L527.922 175.503C528.138 176.067 528.476 176.513 528.937 176.84C529.398 177.158 529.931 177.317 530.535 177.317C531.263 177.317 531.852 177.112 532.303 176.702C532.753 176.282 532.979 175.708 532.979 174.981C532.979 174.253 532.748 173.685 532.287 173.275C531.836 172.855 531.247 172.645 530.52 172.645C530.212 172.645 529.895 172.686 529.567 172.768L529.244 172.076L532.303 168.342H527.231V167.035H534.008V168.296L531.396 171.523C532.318 171.636 533.061 172.004 533.624 172.629C534.198 173.244 534.485 174.018 534.485 174.95C534.485 175.637 534.316 176.267 533.978 176.84C533.64 177.404 533.168 177.85 532.564 178.177C531.97 178.505 531.293 178.669 530.535 178.669ZM540.976 178.669C540.074 178.669 539.28 178.423 538.594 177.932C537.907 177.44 537.374 176.748 536.995 175.857C536.616 174.955 536.427 173.92 536.427 172.752C536.427 171.584 536.616 170.555 536.995 169.663C537.374 168.772 537.902 168.08 538.578 167.589C539.265 167.097 540.059 166.851 540.96 166.851C541.862 166.851 542.656 167.097 543.342 167.589C544.029 168.08 544.562 168.772 544.941 169.663C545.32 170.555 545.509 171.584 545.509 172.752C545.509 173.92 545.32 174.955 544.941 175.857C544.562 176.748 544.029 177.44 543.342 177.932C542.666 178.423 541.877 178.669 540.976 178.669ZM537.933 172.752C537.933 173.654 538.056 174.448 538.302 175.135C538.558 175.811 538.916 176.338 539.377 176.717C539.838 177.086 540.371 177.271 540.976 177.271C541.58 177.271 542.108 177.086 542.559 176.717C543.02 176.338 543.373 175.811 543.619 175.135C543.875 174.448 544.003 173.654 544.003 172.752C544.003 171.851 543.875 171.062 543.619 170.386C543.373 169.709 543.02 169.187 542.559 168.818C542.098 168.439 541.565 168.249 540.96 168.249C540.356 168.249 539.823 168.439 539.362 168.818C538.911 169.187 538.558 169.709 538.302 170.386C538.056 171.062 537.933 171.851 537.933 172.752ZM547.625 170.201H549.023V171.231C549.259 170.842 549.576 170.544 549.976 170.34C550.386 170.124 550.837 170.017 551.328 170.017C551.892 170.017 552.404 170.155 552.865 170.432C553.337 170.698 553.695 171.062 553.941 171.523C554.207 171.041 554.566 170.673 555.017 170.416C555.478 170.15 555.985 170.017 556.538 170.017C557.102 170.017 557.619 170.155 558.091 170.432C558.562 170.698 558.936 171.067 559.213 171.538C559.489 172.01 559.627 172.537 559.627 173.121V178.485H558.183V173.582C558.183 172.906 558.004 172.373 557.645 171.984C557.297 171.595 556.841 171.4 556.277 171.4C555.703 171.4 555.237 171.6 554.879 171.999C554.52 172.389 554.341 172.916 554.341 173.582V178.485H552.896V173.582C552.896 172.906 552.722 172.373 552.374 171.984C552.025 171.595 551.564 171.4 550.99 171.4C550.427 171.4 549.961 171.6 549.592 171.999C549.233 172.389 549.054 172.916 549.054 173.582V178.485H547.625V170.201Z" fill="white"/>
<path opacity="0.5" d="M489.971 123.773H487.804V122.466H491.493V133.916H489.971V123.773ZM499.39 131.273H493.765V130.028L499.359 122.466H500.804V130.028H502.294V131.273H500.804V133.916H499.39V131.273ZM499.39 130.028V124.449L495.302 130.028H499.39ZM508.483 134.1C507.582 134.1 506.788 133.855 506.101 133.363C505.415 132.871 504.882 132.179 504.503 131.288C504.124 130.386 503.934 129.352 503.934 128.184C503.934 127.016 504.124 125.986 504.503 125.094C504.882 124.203 505.41 123.512 506.086 123.02C506.772 122.528 507.566 122.282 508.468 122.282C509.369 122.282 510.164 122.528 510.85 123.02C511.536 123.512 512.069 124.203 512.448 125.094C512.827 125.986 513.017 127.016 513.017 128.184C513.017 129.352 512.827 130.386 512.448 131.288C512.069 132.179 511.536 132.871 510.85 133.363C510.174 133.855 509.385 134.1 508.483 134.1ZM505.44 128.184C505.44 129.085 505.563 129.879 505.809 130.566C506.065 131.242 506.424 131.77 506.885 132.149C507.346 132.517 507.879 132.702 508.483 132.702C509.088 132.702 509.615 132.517 510.066 132.149C510.527 131.77 510.881 131.242 511.127 130.566C511.383 129.879 511.511 129.085 511.511 128.184C511.511 127.282 511.383 126.493 511.127 125.817C510.881 125.141 510.527 124.618 510.066 124.249C509.605 123.87 509.072 123.681 508.468 123.681C507.863 123.681 507.331 123.87 506.87 124.249C506.419 124.618 506.065 125.141 505.809 125.817C505.563 126.493 505.44 127.282 505.44 128.184ZM515.132 122.282H516.561V126.601C516.807 126.232 517.13 125.95 517.53 125.755C517.939 125.55 518.395 125.448 518.897 125.448C519.481 125.448 520.009 125.586 520.48 125.863C520.952 126.129 521.321 126.498 521.587 126.969C521.864 127.441 522.002 127.968 522.002 128.552V133.916H520.557V129.013C520.557 128.337 520.373 127.804 520.004 127.415C519.635 127.026 519.159 126.831 518.575 126.831C517.991 126.831 517.509 127.031 517.13 127.431C516.751 127.82 516.561 128.347 516.561 129.013V133.916H515.132V122.282ZM531.883 131.273H526.258V130.028L531.852 122.466H533.297V130.028H534.787V131.273H533.297V133.916H531.883V131.273ZM531.883 130.028V124.449L527.795 130.028H531.883ZM540.976 134.1C540.075 134.1 539.281 133.855 538.594 133.363C537.908 132.871 537.375 132.179 536.996 131.288C536.617 130.386 536.427 129.352 536.427 128.184C536.427 127.016 536.617 125.986 536.996 125.094C537.375 124.203 537.902 123.512 538.579 123.02C539.265 122.528 540.059 122.282 540.961 122.282C541.862 122.282 542.656 122.528 543.343 123.02C544.029 123.512 544.562 124.203 544.941 125.094C545.32 125.986 545.51 127.016 545.51 128.184C545.51 129.352 545.32 130.386 544.941 131.288C544.562 132.179 544.029 132.871 543.343 133.363C542.667 133.855 541.878 134.1 540.976 134.1ZM537.933 128.184C537.933 129.085 538.056 129.879 538.302 130.566C538.558 131.242 538.917 131.77 539.378 132.149C539.839 132.517 540.372 132.702 540.976 132.702C541.581 132.702 542.108 132.517 542.559 132.149C543.02 131.77 543.374 131.242 543.62 130.566C543.876 129.879 544.004 129.085 544.004 128.184C544.004 127.282 543.876 126.493 543.62 125.817C543.374 125.141 543.02 124.618 542.559 124.249C542.098 123.87 541.565 123.681 540.961 123.681C540.356 123.681 539.824 123.87 539.362 124.249C538.912 124.618 538.558 125.141 538.302 125.817C538.056 126.493 537.933 127.282 537.933 128.184ZM547.625 125.632H549.024V126.662C549.259 126.273 549.577 125.976 549.976 125.771C550.386 125.556 550.837 125.448 551.329 125.448C551.892 125.448 552.405 125.586 552.866 125.863C553.337 126.129 553.696 126.493 553.942 126.954C554.208 126.473 554.567 126.104 555.017 125.848C555.478 125.581 555.986 125.448 556.539 125.448C557.102 125.448 557.62 125.586 558.091 125.863C558.562 126.129 558.936 126.498 559.213 126.969C559.49 127.441 559.628 127.968 559.628 128.552V133.916H558.183V129.013C558.183 128.337 558.004 127.804 557.645 127.415C557.297 127.026 556.841 126.831 556.278 126.831C555.704 126.831 555.238 127.031 554.879 127.431C554.52 127.82 554.341 128.347 554.341 129.013V133.916H552.897V129.013C552.897 128.337 552.722 127.804 552.374 127.415C552.026 127.026 551.565 126.831 550.991 126.831C550.427 126.831 549.961 127.031 549.592 127.431C549.234 127.82 549.054 128.347 549.054 129.013V133.916H547.625V125.632Z" fill="white"/>
<rect opacity="0.3" x="568.23" y="267.138" width="82.9309" height="1.53685" fill="#E6E6E6"/>
<rect opacity="0.3" x="568.23" y="210.275" width="82.9309" height="1.53685" fill="#E9E9E9"/>
<rect opacity="0.3" x="568.23" y="171.854" width="82.9309" height="1.53685" fill="#E6E6E6"/>
<rect opacity="0.3" x="568.23" y="127.285" width="82.9309" height="1.53685" fill="#E6E6E6"/>
</svg>
