<svg width="500" height="320" viewBox="0 0 500 320" fill="none" xmlns="http://www.w3.org/2000/svg">
<rect width="500" height="320" rx="16" fill="#191919"/>
<path d="M28.22 29.1H31.14L33.9 40.3L36.8 29.1H39.62L42.5 40.3L45.26 29.1H48.18L44.18 44H41.06L38.2 33.28L35.34 44H32.22L28.22 29.1ZM54.2666 44.24C53.2132 44.24 52.2466 43.9933 51.3666 43.5C50.4866 43.0067 49.7866 42.3267 49.2666 41.46C48.7599 40.5933 48.5066 39.6267 48.5066 38.56C48.5066 37.4933 48.7599 36.5267 49.2666 35.66C49.7732 34.7933 50.4666 34.1133 51.3466 33.62C52.2266 33.1267 53.1999 32.88 54.2666 32.88C55.3199 32.88 56.2799 33.1267 57.1466 33.62C58.0266 34.1133 58.7199 34.7933 59.2266 35.66C59.7466 36.5267 60.0066 37.4933 60.0066 38.56C60.0066 39.64 59.7466 40.6133 59.2266 41.48C58.7199 42.3467 58.0266 43.0267 57.1466 43.52C56.2666 44 55.3066 44.24 54.2666 44.24ZM51.2266 38.56C51.2266 39.5067 51.5066 40.2933 52.0666 40.92C52.6399 41.5333 53.3732 41.84 54.2666 41.84C54.8399 41.84 55.3532 41.7 55.8066 41.42C56.2599 41.14 56.6132 40.7533 56.8666 40.26C57.1332 39.7533 57.2666 39.1867 57.2666 38.56C57.2666 37.9467 57.1332 37.3933 56.8666 36.9C56.6132 36.3933 56.2599 36 55.8066 35.72C55.3532 35.4267 54.8399 35.28 54.2666 35.28C53.6799 35.28 53.1532 35.4267 52.6866 35.72C52.2332 36 51.8732 36.3867 51.6066 36.88C51.3532 37.3733 51.2266 37.9333 51.2266 38.56ZM61.9934 33.12H64.4534V34.64C64.7201 34.0533 65.1001 33.6333 65.5934 33.38C66.0868 33.1267 66.6868 33 67.3934 33H68.0334V35.32H67.0934C66.3468 35.32 65.7468 35.5533 65.2934 36.02C64.8401 36.4867 64.6134 37.1267 64.6134 37.94V44H61.9934V33.12ZM69.4739 28.86H72.0939V37.44L76.2139 33.12H79.4739L75.4539 37.5L79.5539 44H76.5539L73.4939 39.16L72.0939 40.68V44H69.4739V28.86ZM90.1116 44.24C88.9382 44.24 87.9182 44.02 87.0516 43.58C86.1982 43.14 85.5316 42.5867 85.0516 41.92C84.5716 41.24 84.2649 40.5333 84.1316 39.8L86.6916 39.12C86.8916 39.9333 87.2916 40.5667 87.8916 41.02C88.4916 41.4733 89.2449 41.7 90.1516 41.7C90.8449 41.7 91.4049 41.5267 91.8316 41.18C92.2716 40.8333 92.4916 40.42 92.4916 39.94C92.4916 39.5 92.3316 39.12 92.0116 38.8C91.7049 38.4667 91.2849 38.2467 90.7516 38.14L88.5116 37.7C87.3249 37.4733 86.3916 36.96 85.7116 36.16C85.0316 35.36 84.6916 34.3867 84.6916 33.24C84.6916 32.44 84.9182 31.7067 85.3716 31.04C85.8382 30.36 86.4516 29.8267 87.2116 29.44C87.9849 29.0533 88.8049 28.86 89.6716 28.86C90.7782 28.86 91.7182 29.0467 92.4916 29.42C93.2649 29.7933 93.8649 30.2667 94.2916 30.84C94.7316 31.4 95.0249 31.9933 95.1716 32.62L92.6316 33.42C92.3516 32.7 91.9716 32.1867 91.4916 31.88C91.0116 31.56 90.4049 31.4 89.6716 31.4C89.2582 31.4 88.8849 31.4867 88.5516 31.66C88.2316 31.8333 87.9782 32.06 87.7916 32.34C87.6182 32.6067 87.5316 32.88 87.5316 33.16C87.5316 33.6 87.6782 33.9867 87.9716 34.32C88.2649 34.64 88.6716 34.8467 89.1916 34.94L91.3116 35.4C92.6049 35.68 93.6049 36.2133 94.3116 37C95.0182 37.7733 95.3716 38.7 95.3716 39.78C95.3716 40.5533 95.1582 41.28 94.7316 41.96C94.3049 42.64 93.6916 43.1933 92.8916 43.62C92.1049 44.0333 91.1782 44.24 90.1116 44.24ZM101.401 44.24C100.134 44.24 99.1341 43.8333 98.4008 43.02C97.6674 42.2067 97.3008 41.1267 97.3008 39.78V33.12H99.9208V39.56C99.9208 40.24 100.121 40.7933 100.521 41.22C100.934 41.6333 101.467 41.84 102.121 41.84C102.774 41.84 103.301 41.6267 103.701 41.2C104.114 40.7733 104.321 40.2067 104.321 39.5V33.12H106.941V44H104.461V42.7C104.167 43.2067 103.754 43.5933 103.221 43.86C102.701 44.1133 102.094 44.24 101.401 44.24ZM109.376 33.12H111.836V34.48C112.116 33.96 112.516 33.5667 113.036 33.3C113.57 33.02 114.183 32.88 114.876 32.88C115.596 32.88 116.256 33.04 116.856 33.36C117.456 33.6667 117.916 34.0933 118.236 34.64C118.596 34.0533 119.063 33.6133 119.636 33.32C120.223 33.0267 120.883 32.88 121.616 32.88C122.376 32.88 123.063 33.0533 123.676 33.4C124.29 33.7467 124.77 34.2333 125.116 34.86C125.463 35.4867 125.636 36.2 125.636 37V44H123.016V37.62C123.016 36.9 122.823 36.3333 122.436 35.92C122.063 35.4933 121.556 35.28 120.916 35.28C120.29 35.28 119.783 35.4933 119.396 35.92C119.01 36.3467 118.816 36.9133 118.816 37.62V44H116.196V37.62C116.196 36.9 116.003 36.3333 115.616 35.92C115.243 35.4933 114.736 35.28 114.096 35.28C113.47 35.28 112.963 35.4933 112.576 35.92C112.19 36.3467 111.996 36.9133 111.996 37.62V44H109.376V33.12ZM127.853 33.12H130.313V34.48C130.593 33.96 130.993 33.5667 131.513 33.3C132.046 33.02 132.659 32.88 133.353 32.88C134.073 32.88 134.733 33.04 135.333 33.36C135.933 33.6667 136.393 34.0933 136.713 34.64C137.073 34.0533 137.539 33.6133 138.113 33.32C138.699 33.0267 139.359 32.88 140.093 32.88C140.853 32.88 141.539 33.0533 142.153 33.4C142.766 33.7467 143.246 34.2333 143.593 34.86C143.939 35.4867 144.113 36.2 144.113 37V44H141.493V37.62C141.493 36.9 141.299 36.3333 140.913 35.92C140.539 35.4933 140.033 35.28 139.393 35.28C138.766 35.28 138.259 35.4933 137.873 35.92C137.486 36.3467 137.293 36.9133 137.293 37.62V44H134.673V37.62C134.673 36.9 134.479 36.3333 134.093 35.92C133.719 35.4933 133.213 35.28 132.573 35.28C131.946 35.28 131.439 35.4933 131.053 35.92C130.666 36.3467 130.473 36.9133 130.473 37.62V44H127.853V33.12ZM149.629 44.24C148.483 44.24 147.569 43.96 146.889 43.4C146.223 42.84 145.889 42.08 145.889 41.12C145.889 40.2 146.203 39.44 146.829 38.84C147.456 38.24 148.396 37.84 149.649 37.64L152.889 37.12V36.76C152.889 36.28 152.703 35.8867 152.329 35.58C151.969 35.2733 151.489 35.12 150.889 35.12C150.329 35.12 149.829 35.2733 149.389 35.58C148.963 35.8733 148.649 36.2667 148.449 36.76L146.309 35.72C146.629 34.8667 147.216 34.18 148.069 33.66C148.923 33.14 149.896 32.88 150.989 32.88C151.869 32.88 152.649 33.0467 153.329 33.38C154.023 33.7 154.556 34.16 154.929 34.76C155.316 35.3467 155.509 36.0133 155.509 36.76V44H153.029V42.84C152.176 43.7733 151.043 44.24 149.629 44.24ZM148.609 41.02C148.609 41.3933 148.749 41.6933 149.029 41.92C149.309 42.1333 149.669 42.24 150.109 42.24C150.923 42.24 151.589 41.9867 152.109 41.48C152.629 40.96 152.889 40.32 152.889 39.56V39.12L150.149 39.58C149.629 39.6867 149.243 39.86 148.989 40.1C148.736 40.3267 148.609 40.6333 148.609 41.02ZM157.931 33.12H160.391V34.64C160.658 34.0533 161.038 33.6333 161.531 33.38C162.024 33.1267 162.624 33 163.331 33H163.971V35.32H163.031C162.284 35.32 161.684 35.5533 161.231 36.02C160.778 36.4867 160.551 37.1267 160.551 37.94V44H157.931V33.12ZM168.651 43.84L164.411 33.12H167.231L170.051 40.62L172.851 33.12H175.691L169.811 48H166.991L168.651 43.84Z" fill="white"/>
<path d="M68.6 289.86H69.092C69.516 289.86 69.852 289.736 70.1 289.488C70.348 289.232 70.472 288.888 70.472 288.456V282.06H71.66V288.432C71.66 289.216 71.428 289.84 70.964 290.304C70.5 290.768 69.876 291 69.092 291H68.6V289.86ZM75.3889 291.144C74.7489 291.144 74.2289 290.976 73.8289 290.64C73.4289 290.296 73.2289 289.852 73.2289 289.308C73.2289 288.78 73.4009 288.34 73.7449 287.988C74.0969 287.628 74.6289 287.388 75.3409 287.268L77.5489 286.908V286.608C77.5489 286.256 77.4169 285.972 77.1529 285.756C76.8889 285.532 76.5489 285.42 76.1329 285.42C75.7649 285.42 75.4369 285.516 75.1489 285.708C74.8689 285.892 74.6609 286.14 74.5249 286.452L73.5529 285.948C73.7369 285.5 74.0729 285.128 74.5609 284.832C75.0489 284.536 75.5809 284.388 76.1569 284.388C76.6449 284.388 77.0769 284.484 77.4529 284.676C77.8369 284.86 78.1329 285.12 78.3409 285.456C78.5569 285.792 78.6649 286.176 78.6649 286.608V291H77.5729V290.16C77.3409 290.464 77.0329 290.704 76.6489 290.88C76.2729 291.056 75.8529 291.144 75.3889 291.144ZM74.4049 289.272C74.4049 289.536 74.5089 289.756 74.7169 289.932C74.9329 290.108 75.2009 290.196 75.5209 290.196C75.9129 290.196 76.2609 290.112 76.5649 289.944C76.8769 289.768 77.1169 289.532 77.2849 289.236C77.4609 288.94 77.5489 288.612 77.5489 288.252V287.844L75.5929 288.168C74.8009 288.304 74.4049 288.672 74.4049 289.272ZM80.3953 284.532H81.4873V285.324C81.6793 285.02 81.9353 284.788 82.2553 284.628C82.5753 284.468 82.9353 284.388 83.3353 284.388C83.7913 284.388 84.2033 284.496 84.5713 284.712C84.9393 284.92 85.2273 285.208 85.4353 285.576C85.6513 285.944 85.7593 286.356 85.7593 286.812V291H84.6313V287.172C84.6313 286.644 84.4873 286.228 84.1993 285.924C83.9193 285.62 83.5473 285.468 83.0833 285.468C82.6193 285.468 82.2393 285.624 81.9433 285.936C81.6553 286.24 81.5113 286.652 81.5113 287.172V291H80.3953V284.532Z" fill="white"/>
<path d="M30.136 252.08H28.444V251.06H31.324V260H30.136V252.08ZM36.938 260.144C36.234 260.144 35.614 259.952 35.078 259.568C34.542 259.184 34.126 258.644 33.83 257.948C33.534 257.244 33.386 256.436 33.386 255.524C33.386 254.612 33.534 253.808 33.83 253.112C34.126 252.416 34.538 251.876 35.066 251.492C35.602 251.108 36.222 250.916 36.926 250.916C37.63 250.916 38.25 251.108 38.786 251.492C39.322 251.876 39.738 252.416 40.034 253.112C40.33 253.808 40.478 254.612 40.478 255.524C40.478 256.436 40.33 257.244 40.034 257.948C39.738 258.644 39.322 259.184 38.786 259.568C38.258 259.952 37.642 260.144 36.938 260.144ZM34.562 255.524C34.562 256.228 34.658 256.848 34.85 257.384C35.05 257.912 35.33 258.324 35.69 258.62C36.05 258.908 36.466 259.052 36.938 259.052C37.41 259.052 37.822 258.908 38.174 258.62C38.534 258.324 38.81 257.912 39.002 257.384C39.202 256.848 39.302 256.228 39.302 255.524C39.302 254.82 39.202 254.204 39.002 253.676C38.81 253.148 38.534 252.74 38.174 252.452C37.814 252.156 37.398 252.008 36.926 252.008C36.454 252.008 36.038 252.156 35.678 252.452C35.326 252.74 35.05 253.148 34.85 253.676C34.658 254.204 34.562 254.82 34.562 255.524ZM45.6216 260.144C44.9176 260.144 44.2976 259.952 43.7616 259.568C43.2256 259.184 42.8096 258.644 42.5136 257.948C42.2176 257.244 42.0696 256.436 42.0696 255.524C42.0696 254.612 42.2176 253.808 42.5136 253.112C42.8096 252.416 43.2216 251.876 43.7496 251.492C44.2856 251.108 44.9056 250.916 45.6096 250.916C46.3136 250.916 46.9336 251.108 47.4696 251.492C48.0056 251.876 48.4216 252.416 48.7176 253.112C49.0136 253.808 49.1616 254.612 49.1616 255.524C49.1616 256.436 49.0136 257.244 48.7176 257.948C48.4216 258.644 48.0056 259.184 47.4696 259.568C46.9416 259.952 46.3256 260.144 45.6216 260.144ZM43.2456 255.524C43.2456 256.228 43.3416 256.848 43.5336 257.384C43.7336 257.912 44.0136 258.324 44.3736 258.62C44.7336 258.908 45.1496 259.052 45.6216 259.052C46.0936 259.052 46.5056 258.908 46.8576 258.62C47.2176 258.324 47.4936 257.912 47.6856 257.384C47.8856 256.848 47.9856 256.228 47.9856 255.524C47.9856 254.82 47.8856 254.204 47.6856 253.676C47.4936 253.148 47.2176 252.74 46.8576 252.452C46.4976 252.156 46.0816 252.008 45.6096 252.008C45.1376 252.008 44.7216 252.156 44.3616 252.452C44.0096 252.74 43.7336 253.148 43.5336 253.676C43.3416 254.204 43.2456 254.82 43.2456 255.524Z" fill="white"/>
<path d="M28.648 204.184L31.12 201.508L31.336 201.28C31.848 200.728 32.216 200.316 32.44 200.044C32.672 199.764 32.844 199.504 32.956 199.264C33.076 199.016 33.136 198.756 33.136 198.484C33.136 198.004 32.992 197.632 32.704 197.368C32.424 197.096 32.044 196.96 31.564 196.96C31.084 196.96 30.676 197.1 30.34 197.38C30.004 197.652 29.772 198.04 29.644 198.544L28.576 198.268C28.728 197.548 29.076 196.976 29.62 196.552C30.164 196.128 30.812 195.916 31.564 195.916C32.1 195.916 32.576 196.024 32.992 196.24C33.416 196.448 33.744 196.744 33.976 197.128C34.208 197.504 34.324 197.936 34.324 198.424C34.324 198.896 34.184 199.36 33.904 199.816C33.632 200.264 33.16 200.852 32.488 201.58L30.28 203.98H34.516V205H28.648V204.184ZM39.5396 205.144C38.8356 205.144 38.2156 204.952 37.6796 204.568C37.1436 204.184 36.7276 203.644 36.4316 202.948C36.1356 202.244 35.9876 201.436 35.9876 200.524C35.9876 199.612 36.1356 198.808 36.4316 198.112C36.7276 197.416 37.1396 196.876 37.6676 196.492C38.2036 196.108 38.8236 195.916 39.5276 195.916C40.2316 195.916 40.8516 196.108 41.3876 196.492C41.9236 196.876 42.3396 197.416 42.6356 198.112C42.9316 198.808 43.0796 199.612 43.0796 200.524C43.0796 201.436 42.9316 202.244 42.6356 202.948C42.3396 203.644 41.9236 204.184 41.3876 204.568C40.8596 204.952 40.2436 205.144 39.5396 205.144ZM37.1636 200.524C37.1636 201.228 37.2596 201.848 37.4516 202.384C37.6516 202.912 37.9316 203.324 38.2916 203.62C38.6516 203.908 39.0676 204.052 39.5396 204.052C40.0116 204.052 40.4236 203.908 40.7756 203.62C41.1356 203.324 41.4116 202.912 41.6036 202.384C41.8036 201.848 41.9036 201.228 41.9036 200.524C41.9036 199.82 41.8036 199.204 41.6036 198.676C41.4116 198.148 41.1356 197.74 40.7756 197.452C40.4156 197.156 39.9996 197.008 39.5276 197.008C39.0556 197.008 38.6396 197.156 38.2796 197.452C37.9276 197.74 37.6516 198.148 37.4516 198.676C37.2596 199.204 37.1636 199.82 37.1636 200.524ZM48.2232 205.144C47.5192 205.144 46.8992 204.952 46.3632 204.568C45.8272 204.184 45.4112 203.644 45.1152 202.948C44.8192 202.244 44.6712 201.436 44.6712 200.524C44.6712 199.612 44.8192 198.808 45.1152 198.112C45.4112 197.416 45.8232 196.876 46.3512 196.492C46.8872 196.108 47.5072 195.916 48.2112 195.916C48.9152 195.916 49.5352 196.108 50.0712 196.492C50.6072 196.876 51.0232 197.416 51.3192 198.112C51.6152 198.808 51.7632 199.612 51.7632 200.524C51.7632 201.436 51.6152 202.244 51.3192 202.948C51.0232 203.644 50.6072 204.184 50.0712 204.568C49.5432 204.952 48.9272 205.144 48.2232 205.144ZM45.8472 200.524C45.8472 201.228 45.9432 201.848 46.1352 202.384C46.3352 202.912 46.6152 203.324 46.9752 203.62C47.3352 203.908 47.7512 204.052 48.2232 204.052C48.6952 204.052 49.1072 203.908 49.4592 203.62C49.8192 203.324 50.0952 202.912 50.2872 202.384C50.4872 201.848 50.5872 201.228 50.5872 200.524C50.5872 199.82 50.4872 199.204 50.2872 198.676C50.0952 198.148 49.8192 197.74 49.4592 197.452C49.0992 197.156 48.6832 197.008 48.2112 197.008C47.7392 197.008 47.3232 197.156 46.9632 197.452C46.6112 197.74 46.3352 198.148 46.1352 198.676C45.9432 199.204 45.8472 199.82 45.8472 200.524Z" fill="white"/>
<path d="M31.528 150.144C30.816 150.144 30.184 149.96 29.632 149.592C29.08 149.224 28.7 148.72 28.492 148.08L29.488 147.672C29.656 148.112 29.92 148.46 30.28 148.716C30.64 148.964 31.056 149.088 31.528 149.088C32.096 149.088 32.556 148.928 32.908 148.608C33.26 148.28 33.436 147.832 33.436 147.264C33.436 146.696 33.256 146.252 32.896 145.932C32.544 145.604 32.084 145.44 31.516 145.44C31.276 145.44 31.028 145.472 30.772 145.536L30.52 144.996L32.908 142.08H28.948V141.06H34.24V142.044L32.2 144.564C32.92 144.652 33.5 144.94 33.94 145.428C34.388 145.908 34.612 146.512 34.612 147.24C34.612 147.776 34.48 148.268 34.216 148.716C33.952 149.156 33.584 149.504 33.112 149.76C32.648 150.016 32.12 150.144 31.528 150.144ZM39.6802 150.144C38.9762 150.144 38.3562 149.952 37.8202 149.568C37.2842 149.184 36.8682 148.644 36.5722 147.948C36.2762 147.244 36.1282 146.436 36.1282 145.524C36.1282 144.612 36.2762 143.808 36.5722 143.112C36.8682 142.416 37.2802 141.876 37.8082 141.492C38.3442 141.108 38.9642 140.916 39.6682 140.916C40.3722 140.916 40.9922 141.108 41.5282 141.492C42.0642 141.876 42.4802 142.416 42.7762 143.112C43.0722 143.808 43.2202 144.612 43.2202 145.524C43.2202 146.436 43.0722 147.244 42.7762 147.948C42.4802 148.644 42.0642 149.184 41.5282 149.568C41.0002 149.952 40.3842 150.144 39.6802 150.144ZM37.3042 145.524C37.3042 146.228 37.4002 146.848 37.5922 147.384C37.7922 147.912 38.0722 148.324 38.4322 148.62C38.7922 148.908 39.2082 149.052 39.6802 149.052C40.1522 149.052 40.5642 148.908 40.9162 148.62C41.2762 148.324 41.5522 147.912 41.7442 147.384C41.9442 146.848 42.0442 146.228 42.0442 145.524C42.0442 144.82 41.9442 144.204 41.7442 143.676C41.5522 143.148 41.2762 142.74 40.9162 142.452C40.5562 142.156 40.1402 142.008 39.6682 142.008C39.1962 142.008 38.7802 142.156 38.4202 142.452C38.0682 142.74 37.7922 143.148 37.5922 143.676C37.4002 144.204 37.3042 144.82 37.3042 145.524ZM48.3638 150.144C47.6598 150.144 47.0398 149.952 46.5038 149.568C45.9678 149.184 45.5518 148.644 45.2558 147.948C44.9598 147.244 44.8118 146.436 44.8118 145.524C44.8118 144.612 44.9598 143.808 45.2558 143.112C45.5518 142.416 45.9638 141.876 46.4918 141.492C47.0278 141.108 47.6478 140.916 48.3518 140.916C49.0558 140.916 49.6758 141.108 50.2118 141.492C50.7478 141.876 51.1638 142.416 51.4598 143.112C51.7558 143.808 51.9038 144.612 51.9038 145.524C51.9038 146.436 51.7558 147.244 51.4598 147.948C51.1638 148.644 50.7478 149.184 50.2118 149.568C49.6838 149.952 49.0678 150.144 48.3638 150.144ZM45.9878 145.524C45.9878 146.228 46.0838 146.848 46.2758 147.384C46.4758 147.912 46.7558 148.324 47.1158 148.62C47.4758 148.908 47.8918 149.052 48.3638 149.052C48.8358 149.052 49.2478 148.908 49.5998 148.62C49.9598 148.324 50.2358 147.912 50.4278 147.384C50.6278 146.848 50.7278 146.228 50.7278 145.524C50.7278 144.82 50.6278 144.204 50.4278 143.676C50.2358 143.148 49.9598 142.74 49.5998 142.452C49.2398 142.156 48.8238 142.008 48.3518 142.008C47.8798 142.008 47.4638 142.156 47.1038 142.452C46.7518 142.74 46.4758 143.148 46.2758 143.676C46.0838 144.204 45.9878 144.82 45.9878 145.524Z" fill="white"/>
<path d="M32.908 92.936H28.516V91.964L32.884 86.06H34.012V91.964H35.176V92.936H34.012V95H32.908V92.936ZM32.908 91.964V87.608L29.716 91.964H32.908ZM40.0083 95.144C39.3043 95.144 38.6843 94.952 38.1483 94.568C37.6123 94.184 37.1963 93.644 36.9003 92.948C36.6043 92.244 36.4563 91.436 36.4563 90.524C36.4563 89.612 36.6043 88.808 36.9003 88.112C37.1963 87.416 37.6083 86.876 38.1363 86.492C38.6723 86.108 39.2923 85.916 39.9963 85.916C40.7003 85.916 41.3203 86.108 41.8563 86.492C42.3923 86.876 42.8083 87.416 43.1043 88.112C43.4003 88.808 43.5483 89.612 43.5483 90.524C43.5483 91.436 43.4003 92.244 43.1043 92.948C42.8083 93.644 42.3923 94.184 41.8563 94.568C41.3283 94.952 40.7123 95.144 40.0083 95.144ZM37.6323 90.524C37.6323 91.228 37.7283 91.848 37.9203 92.384C38.1203 92.912 38.4003 93.324 38.7603 93.62C39.1203 93.908 39.5363 94.052 40.0083 94.052C40.4803 94.052 40.8923 93.908 41.2443 93.62C41.6043 93.324 41.8803 92.912 42.0723 92.384C42.2723 91.848 42.3723 91.228 42.3723 90.524C42.3723 89.82 42.2723 89.204 42.0723 88.676C41.8803 88.148 41.6043 87.74 41.2443 87.452C40.8843 87.156 40.4683 87.008 39.9963 87.008C39.5243 87.008 39.1083 87.156 38.7483 87.452C38.3963 87.74 38.1203 88.148 37.9203 88.676C37.7283 89.204 37.6323 89.82 37.6323 90.524ZM48.6919 95.144C47.9879 95.144 47.3679 94.952 46.8319 94.568C46.2959 94.184 45.8799 93.644 45.5839 92.948C45.2879 92.244 45.1399 91.436 45.1399 90.524C45.1399 89.612 45.2879 88.808 45.5839 88.112C45.8799 87.416 46.2919 86.876 46.8199 86.492C47.3559 86.108 47.9759 85.916 48.6799 85.916C49.3839 85.916 50.0039 86.108 50.5399 86.492C51.0759 86.876 51.4919 87.416 51.7879 88.112C52.0839 88.808 52.2319 89.612 52.2319 90.524C52.2319 91.436 52.0839 92.244 51.7879 92.948C51.4919 93.644 51.0759 94.184 50.5399 94.568C50.0119 94.952 49.3959 95.144 48.6919 95.144ZM46.3159 90.524C46.3159 91.228 46.4119 91.848 46.6039 92.384C46.8039 92.912 47.0839 93.324 47.4439 93.62C47.8039 93.908 48.2199 94.052 48.6919 94.052C49.1639 94.052 49.5759 93.908 49.9279 93.62C50.2879 93.324 50.5639 92.912 50.7559 92.384C50.9559 91.848 51.0559 91.228 51.0559 90.524C51.0559 89.82 50.9559 89.204 50.7559 88.676C50.5639 88.148 50.2879 87.74 49.9279 87.452C49.5679 87.156 49.1519 87.008 48.6799 87.008C48.2079 87.008 47.7919 87.156 47.4319 87.452C47.0799 87.74 46.8039 88.148 46.6039 88.676C46.4119 89.204 46.3159 89.82 46.3159 90.524Z" fill="white"/>
<path d="M120.996 282.06H126.66V283.14H122.172V286.032H126.24V287.112H122.172V291H120.996V282.06ZM130.625 291.144C130.017 291.144 129.465 290.996 128.969 290.7C128.473 290.404 128.085 290 127.805 289.488C127.525 288.968 127.385 288.388 127.385 287.748C127.385 287.108 127.521 286.532 127.793 286.02C128.073 285.508 128.449 285.108 128.921 284.82C129.401 284.532 129.937 284.388 130.529 284.388C131.145 284.388 131.681 284.532 132.137 284.82C132.601 285.108 132.953 285.492 133.193 285.972C133.441 286.444 133.565 286.952 133.565 287.496C133.565 287.68 133.545 287.88 133.505 288.096H128.561C128.577 288.504 128.681 288.86 128.873 289.164C129.065 289.468 129.313 289.704 129.617 289.872C129.929 290.04 130.269 290.124 130.637 290.124C131.421 290.124 132.025 289.768 132.449 289.056L133.385 289.536C133.177 290 132.825 290.384 132.329 290.688C131.833 290.992 131.265 291.144 130.625 291.144ZM132.353 287.136C132.337 286.632 132.153 286.216 131.801 285.888C131.457 285.552 131.033 285.384 130.529 285.384C130.033 285.384 129.605 285.544 129.245 285.864C128.885 286.176 128.665 286.6 128.585 287.136H132.353ZM138.368 291.144C137.896 291.144 137.464 291.052 137.072 290.868C136.68 290.676 136.36 290.408 136.112 290.064V291H135.02V281.916H136.136V285.408C136.392 285.088 136.712 284.84 137.096 284.664C137.488 284.48 137.916 284.388 138.38 284.388C138.98 284.388 139.524 284.536 140.012 284.832C140.5 285.128 140.884 285.536 141.164 286.056C141.444 286.568 141.584 287.14 141.584 287.772C141.584 288.404 141.444 288.976 141.164 289.488C140.884 290 140.5 290.404 140.012 290.7C139.524 290.996 138.976 291.144 138.368 291.144ZM136.136 287.772C136.136 288.204 136.228 288.596 136.412 288.948C136.604 289.292 136.864 289.564 137.192 289.764C137.52 289.964 137.884 290.064 138.284 290.064C138.684 290.064 139.044 289.964 139.364 289.764C139.692 289.564 139.944 289.292 140.12 288.948C140.304 288.596 140.396 288.204 140.396 287.772C140.396 287.34 140.304 286.948 140.12 286.596C139.936 286.244 139.684 285.968 139.364 285.768C139.044 285.568 138.684 285.468 138.284 285.468C137.884 285.468 137.52 285.568 137.192 285.768C136.864 285.968 136.604 286.244 136.412 286.596C136.228 286.948 136.136 287.34 136.136 287.772Z" fill="white"/>
<path d="M174.996 282.06H176.076L179.148 286.428L182.196 282.06H183.276V291H182.088V284.268L179.184 288.36H179.088L176.172 284.208V291H174.996V282.06ZM187.026 291.144C186.386 291.144 185.866 290.976 185.466 290.64C185.066 290.296 184.866 289.852 184.866 289.308C184.866 288.78 185.038 288.34 185.382 287.988C185.734 287.628 186.266 287.388 186.978 287.268L189.186 286.908V286.608C189.186 286.256 189.054 285.972 188.79 285.756C188.526 285.532 188.186 285.42 187.77 285.42C187.402 285.42 187.074 285.516 186.786 285.708C186.506 285.892 186.298 286.14 186.162 286.452L185.19 285.948C185.374 285.5 185.71 285.128 186.198 284.832C186.686 284.536 187.218 284.388 187.794 284.388C188.282 284.388 188.714 284.484 189.09 284.676C189.474 284.86 189.77 285.12 189.978 285.456C190.194 285.792 190.302 286.176 190.302 286.608V291H189.21V290.16C188.978 290.464 188.67 290.704 188.286 290.88C187.91 291.056 187.49 291.144 187.026 291.144ZM186.042 289.272C186.042 289.536 186.146 289.756 186.354 289.932C186.57 290.108 186.838 290.196 187.158 290.196C187.55 290.196 187.898 290.112 188.202 289.944C188.514 289.768 188.754 289.532 188.922 289.236C189.098 288.94 189.186 288.612 189.186 288.252V287.844L187.23 288.168C186.438 288.304 186.042 288.672 186.042 289.272ZM192.032 284.532H193.124V285.3C193.46 284.74 194.032 284.46 194.84 284.46H195.236V285.516H194.672C194.208 285.516 193.836 285.66 193.556 285.948C193.284 286.236 193.148 286.636 193.148 287.148V291H192.032V284.532Z" fill="white"/>
<path d="M232.336 282.06H233.728L236.932 291H235.672L234.94 288.9H231.124L230.392 291H229.132L232.336 282.06ZM234.568 287.82L233.032 283.392L231.496 287.82H234.568ZM237.927 284.532H239.019V285.432C239.275 285.104 239.595 284.848 239.979 284.664C240.371 284.48 240.807 284.388 241.287 284.388C241.887 284.388 242.431 284.536 242.919 284.832C243.407 285.128 243.791 285.536 244.071 286.056C244.351 286.568 244.491 287.14 244.491 287.772C244.491 288.404 244.351 288.976 244.071 289.488C243.791 290 243.407 290.404 242.919 290.7C242.431 290.996 241.883 291.144 241.275 291.144C240.811 291.144 240.383 291.056 239.991 290.88C239.607 290.696 239.291 290.436 239.043 290.1V293.4H237.927V284.532ZM239.043 287.772C239.043 288.204 239.135 288.596 239.319 288.948C239.511 289.292 239.771 289.564 240.099 289.764C240.427 289.964 240.791 290.064 241.191 290.064C241.591 290.064 241.951 289.964 242.271 289.764C242.599 289.564 242.851 289.292 243.027 288.948C243.211 288.596 243.303 288.204 243.303 287.772C243.303 287.34 243.211 286.948 243.027 286.596C242.843 286.244 242.591 285.968 242.271 285.768C241.951 285.568 241.591 285.468 241.191 285.468C240.791 285.468 240.427 285.568 240.099 285.768C239.771 285.968 239.511 286.244 239.319 286.596C239.135 286.948 239.043 287.34 239.043 287.772ZM245.954 284.532H247.046V285.3C247.382 284.74 247.954 284.46 248.762 284.46H249.158V285.516H248.594C248.13 285.516 247.758 285.66 247.478 285.948C247.206 286.236 247.07 286.636 247.07 287.148V291H245.954V284.532Z" fill="white"/>
<path d="M281.996 282.06H283.076L286.148 286.428L289.196 282.06H290.276V291H289.088V284.268L286.184 288.36H286.088L283.172 284.208V291H281.996V282.06ZM294.026 291.144C293.386 291.144 292.866 290.976 292.466 290.64C292.066 290.296 291.866 289.852 291.866 289.308C291.866 288.78 292.038 288.34 292.382 287.988C292.734 287.628 293.266 287.388 293.978 287.268L296.186 286.908V286.608C296.186 286.256 296.054 285.972 295.79 285.756C295.526 285.532 295.186 285.42 294.77 285.42C294.402 285.42 294.074 285.516 293.786 285.708C293.506 285.892 293.298 286.14 293.162 286.452L292.19 285.948C292.374 285.5 292.71 285.128 293.198 284.832C293.686 284.536 294.218 284.388 294.794 284.388C295.282 284.388 295.714 284.484 296.09 284.676C296.474 284.86 296.77 285.12 296.978 285.456C297.194 285.792 297.302 286.176 297.302 286.608V291H296.21V290.16C295.978 290.464 295.67 290.704 295.286 290.88C294.91 291.056 294.49 291.144 294.026 291.144ZM293.042 289.272C293.042 289.536 293.146 289.756 293.354 289.932C293.57 290.108 293.838 290.196 294.158 290.196C294.55 290.196 294.898 290.112 295.202 289.944C295.514 289.768 295.754 289.532 295.922 289.236C296.098 288.94 296.186 288.612 296.186 288.252V287.844L294.23 288.168C293.438 288.304 293.042 288.672 293.042 289.272ZM300.868 290.988L298.3 284.532H299.512L301.48 289.584L303.436 284.532H304.672L301.096 293.4H299.86L300.868 290.988Z" fill="white"/>
<path d="M338.6 289.86H339.092C339.516 289.86 339.852 289.736 340.1 289.488C340.348 289.232 340.472 288.888 340.472 288.456V282.06H341.66V288.432C341.66 289.216 341.428 289.84 340.964 290.304C340.5 290.768 339.876 291 339.092 291H338.6V289.86ZM345.785 291.144C345.321 291.144 344.905 291.036 344.537 290.82C344.169 290.604 343.881 290.304 343.673 289.92C343.465 289.528 343.361 289.08 343.361 288.576V284.532H344.477V288.456C344.477 288.936 344.621 289.324 344.909 289.62C345.197 289.916 345.573 290.064 346.037 290.064C346.501 290.064 346.877 289.912 347.165 289.608C347.453 289.296 347.597 288.88 347.597 288.36V284.532H348.725V291H347.633V290.208C347.441 290.512 347.185 290.744 346.865 290.904C346.545 291.064 346.185 291.144 345.785 291.144ZM350.454 284.532H351.546V285.324C351.738 285.02 351.994 284.788 352.314 284.628C352.634 284.468 352.994 284.388 353.394 284.388C353.85 284.388 354.262 284.496 354.63 284.712C354.998 284.92 355.286 285.208 355.494 285.576C355.71 285.944 355.818 286.356 355.818 286.812V291H354.69V287.172C354.69 286.644 354.546 286.228 354.258 285.924C353.978 285.62 353.606 285.468 353.142 285.468C352.678 285.468 352.298 285.624 352.002 285.936C351.714 286.24 351.57 286.652 351.57 287.172V291H350.454V284.532Z" fill="white"/>
<path d="M394.6 289.86H395.092C395.516 289.86 395.852 289.736 396.1 289.488C396.348 289.232 396.472 288.888 396.472 288.456V282.06H397.66V288.432C397.66 289.216 397.428 289.84 396.964 290.304C396.5 290.768 395.876 291 395.092 291H394.6V289.86ZM401.785 291.144C401.321 291.144 400.905 291.036 400.537 290.82C400.169 290.604 399.881 290.304 399.673 289.92C399.465 289.528 399.361 289.08 399.361 288.576V284.532H400.477V288.456C400.477 288.936 400.621 289.324 400.909 289.62C401.197 289.916 401.573 290.064 402.037 290.064C402.501 290.064 402.877 289.912 403.165 289.608C403.453 289.296 403.597 288.88 403.597 288.36V284.532H404.725V291H403.633V290.208C403.441 290.512 403.185 290.744 402.865 290.904C402.545 291.064 402.185 291.144 401.785 291.144ZM406.454 281.916H407.57V291H406.454V281.916Z" fill="white"/>
<path d="M447.336 282.06H448.728L451.932 291H450.672L449.94 288.9H446.124L445.392 291H444.132L447.336 282.06ZM449.568 287.82L448.032 283.392L446.496 287.82H449.568ZM455.101 291.144C454.637 291.144 454.221 291.036 453.853 290.82C453.485 290.604 453.197 290.304 452.989 289.92C452.781 289.528 452.677 289.08 452.677 288.576V284.532H453.793V288.456C453.793 288.936 453.937 289.324 454.225 289.62C454.513 289.916 454.889 290.064 455.353 290.064C455.817 290.064 456.193 289.912 456.481 289.608C456.769 289.296 456.913 288.88 456.913 288.36V284.532H458.041V291H456.949V290.208C456.757 290.512 456.501 290.744 456.181 290.904C455.861 291.064 455.501 291.144 455.101 291.144ZM462.854 293.64C462.174 293.64 461.574 293.484 461.054 293.172C460.542 292.868 460.178 292.46 459.962 291.948L461.006 291.468C461.126 291.788 461.346 292.048 461.666 292.248C461.986 292.456 462.378 292.56 462.842 292.56C463.41 292.56 463.882 292.396 464.258 292.068C464.634 291.748 464.822 291.3 464.822 290.724V289.824C464.582 290.152 464.274 290.404 463.898 290.58C463.522 290.756 463.114 290.844 462.674 290.844C462.074 290.844 461.534 290.704 461.054 290.424C460.574 290.136 460.194 289.748 459.914 289.26C459.642 288.764 459.506 288.216 459.506 287.616C459.506 287.016 459.642 286.472 459.914 285.984C460.186 285.488 460.562 285.1 461.042 284.82C461.522 284.532 462.062 284.388 462.662 284.388C463.11 284.388 463.522 284.48 463.898 284.664C464.274 284.84 464.594 285.096 464.858 285.432V284.532H465.95V290.724C465.95 291.284 465.818 291.784 465.554 292.224C465.29 292.664 464.922 293.008 464.45 293.256C463.978 293.512 463.446 293.64 462.854 293.64ZM460.682 287.616C460.682 288.008 460.77 288.368 460.946 288.696C461.13 289.024 461.382 289.284 461.702 289.476C462.022 289.668 462.378 289.764 462.77 289.764C463.146 289.764 463.49 289.668 463.802 289.476C464.122 289.284 464.37 289.024 464.546 288.696C464.73 288.368 464.822 288.008 464.822 287.616C464.822 287.224 464.73 286.864 464.546 286.536C464.37 286.208 464.122 285.948 463.802 285.756C463.49 285.564 463.146 285.468 462.77 285.468C462.378 285.468 462.022 285.564 461.702 285.756C461.39 285.948 461.142 286.208 460.958 286.536C460.774 286.864 460.682 287.224 460.682 287.616Z" fill="white"/>
<path d="M77 80L77 268" stroke="#3D3D3D" stroke-linecap="round" stroke-dasharray="1 8"/>
<path d="M131 80L131 268" stroke="#3D3D3D" stroke-linecap="round" stroke-dasharray="1 8"/>
<path d="M185 80L185 268" stroke="#3D3D3D" stroke-linecap="round" stroke-dasharray="1 8"/>
<path d="M239 80L239 268" stroke="#3D3D3D" stroke-linecap="round" stroke-dasharray="1 8"/>
<path d="M293 80L293 268" stroke="#3D3D3D" stroke-linecap="round" stroke-dasharray="1 8"/>
<path d="M347 80L347 268" stroke="#3D3D3D" stroke-linecap="round" stroke-dasharray="1 8"/>
<path d="M401 80L401 268" stroke="#3D3D3D" stroke-linecap="round" stroke-dasharray="1 8"/>
<path d="M455 80L455 268" stroke="#3D3D3D" stroke-linecap="round" stroke-dasharray="1 8"/>
<path d="M389.996 32.06H391.172V39.92H395.096V41H389.996V32.06ZM398.182 41.144C397.542 41.144 397.022 40.976 396.622 40.64C396.222 40.296 396.022 39.852 396.022 39.308C396.022 38.78 396.194 38.34 396.538 37.988C396.89 37.628 397.422 37.388 398.134 37.268L400.342 36.908V36.608C400.342 36.256 400.21 35.972 399.946 35.756C399.682 35.532 399.342 35.42 398.926 35.42C398.558 35.42 398.23 35.516 397.942 35.708C397.662 35.892 397.454 36.14 397.318 36.452L396.346 35.948C396.53 35.5 396.866 35.128 397.354 34.832C397.842 34.536 398.374 34.388 398.95 34.388C399.438 34.388 399.87 34.484 400.246 34.676C400.63 34.86 400.926 35.12 401.134 35.456C401.35 35.792 401.458 36.176 401.458 36.608V41H400.366V40.16C400.134 40.464 399.826 40.704 399.442 40.88C399.066 41.056 398.646 41.144 398.182 41.144ZM397.198 39.272C397.198 39.536 397.302 39.756 397.51 39.932C397.726 40.108 397.994 40.196 398.314 40.196C398.706 40.196 399.054 40.112 399.358 39.944C399.67 39.768 399.91 39.532 400.078 39.236C400.254 38.94 400.342 38.612 400.342 38.252V37.844L398.386 38.168C397.594 38.304 397.198 38.672 397.198 39.272ZM405.504 41.144C404.88 41.144 404.328 40.992 403.848 40.688C403.368 40.376 403.024 39.956 402.816 39.428L403.716 38.972C403.9 39.348 404.152 39.644 404.472 39.86C404.792 40.076 405.14 40.184 405.516 40.184C405.876 40.184 406.172 40.1 406.404 39.932C406.636 39.764 406.752 39.544 406.752 39.272C406.752 39.008 406.648 38.796 406.44 38.636C406.232 38.468 406.008 38.368 405.768 38.336L404.796 38.204C404.22 38.06 403.788 37.82 403.5 37.484C403.212 37.148 403.068 36.752 403.068 36.296C403.068 35.92 403.164 35.588 403.356 35.3C403.556 35.012 403.828 34.788 404.172 34.628C404.524 34.468 404.912 34.388 405.336 34.388C405.896 34.388 406.396 34.528 406.836 34.808C407.284 35.088 407.604 35.476 407.796 35.972L406.908 36.428C406.748 36.1 406.524 35.84 406.236 35.648C405.956 35.456 405.644 35.36 405.3 35.36C404.972 35.36 404.708 35.44 404.508 35.6C404.308 35.76 404.208 35.968 404.208 36.224C404.208 36.488 404.3 36.7 404.484 36.86C404.676 37.012 404.884 37.108 405.108 37.148L406.176 37.292C406.712 37.436 407.128 37.684 407.424 38.036C407.728 38.38 407.88 38.78 407.88 39.236C407.88 39.604 407.78 39.932 407.58 40.22C407.38 40.508 407.1 40.736 406.74 40.904C406.38 41.064 405.968 41.144 405.504 41.144ZM411.945 41.072C411.313 41.072 410.825 40.896 410.481 40.544C410.145 40.184 409.977 39.672 409.977 39.008V35.6H408.801V34.532H409.041C409.329 34.532 409.557 34.448 409.725 34.28C409.893 34.104 409.977 33.868 409.977 33.572V33.044H411.093V34.532H412.545V35.6H411.093V38.972C411.093 39.692 411.453 40.052 412.173 40.052C412.325 40.052 412.473 40.04 412.617 40.016V41.012C412.449 41.052 412.225 41.072 411.945 41.072ZM419.065 41.144C418.473 41.144 417.945 41.028 417.481 40.796C417.017 40.556 416.653 40.228 416.389 39.812C416.133 39.396 416.005 38.932 416.005 38.42C416.005 37.908 416.133 37.452 416.389 37.052C416.645 36.652 417.001 36.344 417.457 36.128C417.137 35.928 416.885 35.664 416.701 35.336C416.525 35.008 416.437 34.652 416.437 34.268C416.437 33.828 416.549 33.428 416.773 33.068C417.005 32.708 417.321 32.428 417.721 32.228C418.121 32.02 418.569 31.916 419.065 31.916C419.561 31.916 420.009 32.016 420.409 32.216C420.809 32.416 421.121 32.696 421.345 33.056C421.569 33.416 421.681 33.82 421.681 34.268C421.681 34.652 421.589 35.008 421.405 35.336C421.221 35.664 420.973 35.928 420.661 36.128C421.125 36.352 421.485 36.664 421.741 37.064C421.997 37.464 422.125 37.916 422.125 38.42C422.125 38.932 421.993 39.396 421.729 39.812C421.473 40.228 421.109 40.556 420.637 40.796C420.173 41.028 419.649 41.144 419.065 41.144ZM417.193 38.408C417.193 38.92 417.365 39.336 417.709 39.656C418.053 39.968 418.505 40.124 419.065 40.124C419.625 40.124 420.077 39.968 420.421 39.656C420.765 39.336 420.937 38.92 420.937 38.408C420.937 37.896 420.765 37.484 420.421 37.172C420.077 36.852 419.625 36.692 419.065 36.692C418.505 36.692 418.053 36.848 417.709 37.16C417.365 37.472 417.193 37.888 417.193 38.408ZM417.613 34.292C417.613 34.7 417.749 35.032 418.021 35.288C418.301 35.544 418.649 35.672 419.065 35.672C419.473 35.672 419.813 35.544 420.085 35.288C420.357 35.032 420.493 34.7 420.493 34.292C420.493 33.892 420.357 33.568 420.085 33.32C419.813 33.064 419.473 32.936 419.065 32.936C418.649 32.936 418.301 33.064 418.021 33.32C417.749 33.568 417.613 33.892 417.613 34.292ZM425.902 32.06H426.982L430.054 36.428L433.102 32.06H434.182V41H432.994V34.268L430.09 38.36H429.994L427.078 34.208V41H425.902V32.06ZM439.108 41.144C438.492 41.144 437.928 41 437.416 40.712C436.912 40.416 436.512 40.012 436.216 39.5C435.92 38.98 435.772 38.4 435.772 37.76C435.772 37.128 435.916 36.556 436.204 36.044C436.5 35.524 436.9 35.12 437.404 34.832C437.916 34.536 438.484 34.388 439.108 34.388C439.724 34.388 440.284 34.536 440.788 34.832C441.3 35.12 441.7 35.52 441.988 36.032C442.284 36.544 442.432 37.12 442.432 37.76C442.432 38.408 442.284 38.988 441.988 39.5C441.692 40.012 441.288 40.416 440.776 40.712C440.272 41 439.716 41.144 439.108 41.144ZM436.948 37.76C436.948 38.192 437.04 38.584 437.224 38.936C437.416 39.288 437.676 39.564 438.004 39.764C438.34 39.964 438.708 40.064 439.108 40.064C439.5 40.064 439.86 39.964 440.188 39.764C440.516 39.564 440.772 39.288 440.956 38.936C441.148 38.584 441.244 38.192 441.244 37.76C441.244 37.328 441.148 36.94 440.956 36.596C440.772 36.244 440.516 35.968 440.188 35.768C439.86 35.568 439.5 35.468 439.108 35.468C438.708 35.468 438.34 35.568 438.004 35.768C437.676 35.968 437.416 36.244 437.224 36.596C437.04 36.94 436.948 37.328 436.948 37.76ZM443.887 34.532H444.979V35.324C445.171 35.02 445.427 34.788 445.747 34.628C446.067 34.468 446.427 34.388 446.827 34.388C447.283 34.388 447.695 34.496 448.063 34.712C448.431 34.92 448.719 35.208 448.927 35.576C449.143 35.944 449.251 36.356 449.251 36.812V41H448.123V37.172C448.123 36.644 447.979 36.228 447.691 35.924C447.411 35.62 447.039 35.468 446.575 35.468C446.111 35.468 445.731 35.624 445.435 35.936C445.147 36.24 445.003 36.652 445.003 37.172V41H443.887V34.532ZM453.476 41.072C452.844 41.072 452.356 40.896 452.012 40.544C451.676 40.184 451.508 39.672 451.508 39.008V35.6H450.332V34.532H450.572C450.86 34.532 451.088 34.448 451.256 34.28C451.424 34.104 451.508 33.868 451.508 33.572V33.044H452.624V34.532H454.076V35.6H452.624V38.972C452.624 39.692 452.984 40.052 453.704 40.052C453.856 40.052 454.004 40.04 454.148 40.016V41.012C453.98 41.052 453.756 41.072 453.476 41.072ZM455.606 31.916H456.722V35.288C456.914 35 457.166 34.78 457.478 34.628C457.798 34.468 458.154 34.388 458.546 34.388C459.002 34.388 459.414 34.496 459.782 34.712C460.15 34.92 460.438 35.208 460.646 35.576C460.862 35.944 460.97 36.356 460.97 36.812V41H459.842V37.172C459.842 36.644 459.698 36.228 459.41 35.924C459.122 35.62 458.75 35.468 458.294 35.468C457.838 35.468 457.462 35.624 457.166 35.936C456.87 36.24 456.722 36.652 456.722 37.172V41H455.606V31.916ZM464.883 41.144C464.259 41.144 463.707 40.992 463.227 40.688C462.747 40.376 462.403 39.956 462.195 39.428L463.095 38.972C463.279 39.348 463.531 39.644 463.851 39.86C464.171 40.076 464.519 40.184 464.895 40.184C465.255 40.184 465.551 40.1 465.783 39.932C466.015 39.764 466.131 39.544 466.131 39.272C466.131 39.008 466.027 38.796 465.819 38.636C465.611 38.468 465.387 38.368 465.147 38.336L464.175 38.204C463.599 38.06 463.167 37.82 462.879 37.484C462.591 37.148 462.447 36.752 462.447 36.296C462.447 35.92 462.543 35.588 462.735 35.3C462.935 35.012 463.207 34.788 463.551 34.628C463.903 34.468 464.291 34.388 464.715 34.388C465.275 34.388 465.775 34.528 466.215 34.808C466.663 35.088 466.983 35.476 467.175 35.972L466.287 36.428C466.127 36.1 465.903 35.84 465.615 35.648C465.335 35.456 465.023 35.36 464.679 35.36C464.351 35.36 464.087 35.44 463.887 35.6C463.687 35.76 463.587 35.968 463.587 36.224C463.587 36.488 463.679 36.7 463.863 36.86C464.055 37.012 464.263 37.108 464.487 37.148L465.555 37.292C466.091 37.436 466.507 37.684 466.803 38.036C467.107 38.38 467.259 38.78 467.259 39.236C467.259 39.604 467.159 39.932 466.959 40.22C466.759 40.508 466.479 40.736 466.119 40.904C465.759 41.064 465.347 41.144 464.883 41.144Z" fill="white"/>
<circle cx="382" cy="37" r="2" fill="#FFD978"/>
<path d="M234.627 119.881L198.898 180.881C190.308 195.547 200.885 214 217.882 214H433.5C445.65 214 455.5 204.15 455.5 192V171.613C455.5 165.778 453.182 160.182 449.056 156.056L408.444 115.444C404.318 111.318 398.722 109 392.887 109H253.61C245.799 109 238.574 113.141 234.627 119.881Z" fill="url(#paint0_linear_702_532)"/>
<path d="M79.5 216H166.89C174.701 216 181.926 211.859 185.873 205.119L234.627 121.881C238.574 115.141 245.799 111 253.61 111H392.887C398.722 111 404.318 113.318 408.444 117.444L455.5 164.5" stroke="#C9FA75" stroke-width="3" stroke-linecap="round"/>
<circle cx="456" cy="164" r="4.5" fill="#272727" stroke="#C9FA75" stroke-width="3"/>
<rect x="424" y="128" width="64" height="24" rx="12" fill="#1A1A1A"/>
<path d="M474 143L471 140H477L474 143Z" fill="white"/>
<path d="M439.648 144.184L442.12 141.508L442.336 141.28C442.848 140.728 443.216 140.316 443.44 140.044C443.672 139.764 443.844 139.504 443.956 139.264C444.076 139.016 444.136 138.756 444.136 138.484C444.136 138.004 443.992 137.632 443.704 137.368C443.424 137.096 443.044 136.96 442.564 136.96C442.084 136.96 441.676 137.1 441.34 137.38C441.004 137.652 440.772 138.04 440.644 138.544L439.576 138.268C439.728 137.548 440.076 136.976 440.62 136.552C441.164 136.128 441.812 135.916 442.564 135.916C443.1 135.916 443.576 136.024 443.992 136.24C444.416 136.448 444.744 136.744 444.976 137.128C445.208 137.504 445.324 137.936 445.324 138.424C445.324 138.896 445.184 139.36 444.904 139.816C444.632 140.264 444.16 140.852 443.488 141.58L441.28 143.98H445.516V145H439.648V144.184ZM449.964 145.144C449.372 145.144 448.844 145.028 448.38 144.796C447.916 144.556 447.552 144.228 447.288 143.812C447.032 143.396 446.904 142.932 446.904 142.42C446.904 141.908 447.032 141.452 447.288 141.052C447.544 140.652 447.9 140.344 448.356 140.128C448.036 139.928 447.784 139.664 447.6 139.336C447.424 139.008 447.336 138.652 447.336 138.268C447.336 137.828 447.448 137.428 447.672 137.068C447.904 136.708 448.22 136.428 448.62 136.228C449.02 136.02 449.468 135.916 449.964 135.916C450.46 135.916 450.908 136.016 451.308 136.216C451.708 136.416 452.02 136.696 452.244 137.056C452.468 137.416 452.58 137.82 452.58 138.268C452.58 138.652 452.488 139.008 452.304 139.336C452.12 139.664 451.872 139.928 451.56 140.128C452.024 140.352 452.384 140.664 452.64 141.064C452.896 141.464 453.024 141.916 453.024 142.42C453.024 142.932 452.892 143.396 452.628 143.812C452.372 144.228 452.008 144.556 451.536 144.796C451.072 145.028 450.548 145.144 449.964 145.144ZM448.092 142.408C448.092 142.92 448.264 143.336 448.608 143.656C448.952 143.968 449.404 144.124 449.964 144.124C450.524 144.124 450.976 143.968 451.32 143.656C451.664 143.336 451.836 142.92 451.836 142.408C451.836 141.896 451.664 141.484 451.32 141.172C450.976 140.852 450.524 140.692 449.964 140.692C449.404 140.692 448.952 140.848 448.608 141.16C448.264 141.472 448.092 141.888 448.092 142.408ZM448.512 138.292C448.512 138.7 448.648 139.032 448.92 139.288C449.2 139.544 449.548 139.672 449.964 139.672C450.372 139.672 450.712 139.544 450.984 139.288C451.256 139.032 451.392 138.7 451.392 138.292C451.392 137.892 451.256 137.568 450.984 137.32C450.712 137.064 450.372 136.936 449.964 136.936C449.548 136.936 449.2 137.064 448.92 137.32C448.648 137.568 448.512 137.892 448.512 138.292ZM462.742 136.06H464.074L456.778 145H455.446L462.742 136.06ZM454.438 138.256C454.438 137.832 454.542 137.44 454.75 137.08C454.958 136.72 455.242 136.436 455.602 136.228C455.962 136.02 456.358 135.916 456.79 135.916C457.214 135.916 457.602 136.02 457.954 136.228C458.314 136.436 458.598 136.72 458.806 137.08C459.014 137.44 459.118 137.832 459.118 138.256C459.118 138.68 459.014 139.072 458.806 139.432C458.598 139.792 458.314 140.076 457.954 140.284C457.602 140.492 457.214 140.596 456.79 140.596C456.358 140.596 455.962 140.492 455.602 140.284C455.242 140.076 454.958 139.792 454.75 139.432C454.542 139.072 454.438 138.68 454.438 138.256ZM455.458 138.256C455.458 138.616 455.586 138.932 455.842 139.204C456.098 139.476 456.414 139.612 456.79 139.612C457.166 139.612 457.478 139.476 457.726 139.204C457.974 138.932 458.098 138.616 458.098 138.256C458.098 137.896 457.974 137.58 457.726 137.308C457.478 137.028 457.166 136.888 456.79 136.888C456.542 136.888 456.314 136.952 456.106 137.08C455.906 137.208 455.746 137.38 455.626 137.596C455.514 137.804 455.458 138.024 455.458 138.256ZM460.306 142.804C460.306 142.38 460.41 141.988 460.618 141.628C460.826 141.268 461.11 140.984 461.47 140.776C461.83 140.568 462.226 140.464 462.658 140.464C463.082 140.464 463.47 140.568 463.822 140.776C464.182 140.984 464.466 141.268 464.674 141.628C464.882 141.988 464.986 142.38 464.986 142.804C464.986 143.228 464.882 143.62 464.674 143.98C464.466 144.34 464.182 144.624 463.822 144.832C463.47 145.04 463.082 145.144 462.658 145.144C462.226 145.144 461.83 145.04 461.47 144.832C461.11 144.624 460.826 144.34 460.618 143.98C460.41 143.62 460.306 143.228 460.306 142.804ZM461.326 142.804C461.326 143.164 461.454 143.48 461.71 143.752C461.966 144.024 462.282 144.16 462.658 144.16C463.034 144.16 463.346 144.024 463.594 143.752C463.842 143.48 463.966 143.164 463.966 142.804C463.966 142.444 463.842 142.128 463.594 141.856C463.346 141.576 463.034 141.436 462.658 141.436C462.41 141.436 462.182 141.5 461.974 141.628C461.774 141.756 461.614 141.928 461.494 142.144C461.382 142.352 461.326 142.572 461.326 142.804Z" fill="white"/>
<defs>
<linearGradient id="paint0_linear_702_532" x1="317.5" y1="109" x2="317" y2="214" gradientUnits="userSpaceOnUse">
<stop stop-color="#B4FF34" stop-opacity="0.12"/>
<stop offset="1" stop-color="#B4FF34" stop-opacity="0"/>
</linearGradient>
</defs>
</svg>
