<svg width="210" height="64" viewBox="0 0 210 64" fill="none" xmlns="http://www.w3.org/2000/svg">
<g opacity="0.4">
<path d="M73.855 43.4167V19.5366H83.6635C85.3089 19.5366 86.762 19.8251 88.0228 20.4021C89.3049 20.979 90.3093 21.8338 91.0358 22.9664C91.7624 24.099 92.1257 25.4986 92.1257 27.1654C92.1257 28.7895 91.7517 30.1678 91.0038 31.3004C90.2772 32.433 89.2729 33.2984 87.9907 33.8967C86.7299 34.4737 85.2875 34.7622 83.6635 34.7622H78.8233V43.4167H73.855ZM78.8233 30.4349H83.6955C84.7426 30.4349 85.576 30.1358 86.1957 29.5374C86.8368 28.9391 87.1573 28.1484 87.1573 27.1654C87.1573 26.1611 86.8368 25.3597 86.1957 24.7614C85.576 24.1631 84.7426 23.8639 83.6955 23.8639H78.8233V30.4349Z" fill="white"/>
<path d="M94.5385 43.4167V25.9153H99.026V28.5438C99.4748 27.4539 100.105 26.7167 100.917 26.332C101.751 25.926 102.702 25.723 103.77 25.723H105.597V29.89H103.289C102.114 29.89 101.163 30.2533 100.436 30.9798C99.7098 31.685 99.3465 32.6894 99.3465 33.9929V43.4167H94.5385Z" fill="white"/>
<path d="M107.529 24.3447V19.5366H112.337V24.3447H107.529ZM107.529 43.4167V25.9153H112.337V43.4167H107.529Z" fill="white"/>
<path d="M123.941 43.6091C121.825 43.6091 120.18 43.0428 119.004 41.9102C117.85 40.7563 117.273 39.1536 117.273 37.1021V30.0823H114.26V25.9153H114.485C116.344 25.9153 117.273 25.0178 117.273 23.2228V20.6585H122.081V25.9153H126.184V30.0823H122.081V37.1021C122.081 38.8758 123.075 39.7626 125.062 39.7626C125.362 39.7626 125.736 39.7305 126.184 39.6664V43.4488C125.479 43.5556 124.731 43.6091 123.941 43.6091Z" fill="white"/>
<path d="M136.837 43.8014C135.106 43.8014 133.525 43.4061 132.093 42.6154C130.683 41.8247 129.561 40.7456 128.728 39.378C127.894 37.989 127.478 36.4183 127.478 34.666C127.478 32.8924 127.894 31.3218 128.728 29.9541C129.561 28.5865 130.683 27.5073 132.093 26.7167C133.525 25.926 135.106 25.5307 136.837 25.5307C138.568 25.5307 140.139 25.926 141.549 26.7167C142.981 27.5073 144.113 28.5865 144.947 29.9541C145.78 31.3218 146.197 32.8924 146.197 34.666C146.197 36.4183 145.78 37.989 144.947 39.378C144.113 40.7456 142.981 41.8247 141.549 42.6154C140.139 43.4061 138.568 43.8014 136.837 43.8014ZM136.837 39.4741C138.162 39.4741 139.22 39.0254 140.011 38.1279C140.823 37.2303 141.229 36.0764 141.229 34.666C141.229 33.277 140.823 32.1338 140.011 31.2363C139.22 30.3174 138.162 29.858 136.837 29.858C135.534 29.858 134.476 30.3174 133.664 31.2363C132.852 32.1338 132.446 33.277 132.446 34.666C132.446 36.0764 132.852 37.2303 133.664 38.1279C134.476 39.0254 135.534 39.4741 136.837 39.4741Z" fill="white"/>
<path d="M148.442 43.4167V25.9153H152.929V28.0309C153.356 27.1975 153.955 26.5778 154.724 26.1718C155.515 25.7444 156.444 25.5307 157.513 25.5307C158.645 25.5307 159.66 25.7658 160.558 26.2359C161.455 26.6846 162.182 27.3471 162.738 28.2232C163.229 27.4112 163.945 26.7594 164.885 26.2679C165.825 25.7764 166.883 25.5307 168.058 25.5307C169.277 25.5307 170.356 25.8085 171.296 26.3641C172.236 26.8983 172.963 27.6676 173.476 28.672C174.01 29.655 174.277 30.8196 174.277 32.1658V43.4167H169.469V33.1916C169.469 32.1231 169.202 31.3004 168.667 30.7234C168.155 30.1464 167.471 29.858 166.616 29.858C165.761 29.858 165.067 30.1464 164.533 30.7234C164.02 31.3004 163.763 32.1231 163.763 33.1916V43.4167H158.955V33.1916C158.955 32.1231 158.688 31.3004 158.154 30.7234C157.641 30.1464 156.957 29.858 156.102 29.858C155.248 29.858 154.553 30.1464 154.019 30.7234C153.506 31.3004 153.25 32.1231 153.25 33.1916V43.4167H148.442Z" fill="white"/>
<path d="M29.7999 31.7452C29.7999 35.0041 30.7663 38.1899 32.5769 40.8996C34.3874 43.6093 36.9609 45.7212 39.9717 46.9684C42.9826 48.2155 46.2957 48.5418 49.492 47.906C52.6883 47.2703 55.6243 45.7009 57.9287 43.3965C60.2332 41.0921 61.8025 38.1561 62.4383 34.9598C63.0741 31.7635 62.7477 28.4504 61.5006 25.4395C60.2535 22.4286 58.1415 19.8552 55.4318 18.0446C52.7221 16.2341 49.5363 15.2677 46.2774 15.2677L46.2774 31.7452L29.7999 31.7452Z" fill="url(#paint0_angular_702_199)"/>
</g>
<defs>
<radialGradient id="paint0_angular_702_199" cx="0" cy="0" r="1" gradientUnits="userSpaceOnUse" gradientTransform="translate(46.2774 31.7452) rotate(-90) scale(16.4775)">
<stop stop-color="white"/>
<stop offset="1" stop-color="white" stop-opacity="0"/>
</radialGradient>
</defs>
</svg>
