<svg width="210" height="64" viewBox="0 0 210 64" fill="none" xmlns="http://www.w3.org/2000/svg">
<circle cx="32.0099" cy="32.0099" r="16.005" fill="white" fill-opacity="0.4"/>
<circle cx="32.0098" cy="32.0098" r="8.44708" fill="#898989" stroke="#0B0B0B" stroke-width="4.44583"/>
<g opacity="0.4">
<path d="M66.4921 40.2612C72.1436 40.2612 75.5545 36.8753 75.5545 31.6719C75.5545 26.4685 72.1436 23.0825 66.4921 23.0825C60.965 23.0825 57.5293 26.4685 57.5293 31.6719C57.5293 36.8753 60.965 40.2612 66.4921 40.2612ZM66.4921 36.6761C62.8323 36.6761 61.4879 35.3815 61.4879 31.6719C61.4879 27.9623 62.8323 26.6676 66.4921 26.6676C70.1519 26.6676 71.571 27.9623 71.571 31.6719C71.571 35.3815 70.1519 36.6761 66.4921 36.6761Z" fill="white"/>
<path d="M85.7226 40.2612C90.926 40.2612 94.2373 37.672 94.2373 33.4395V33.0661H90.0795V33.4395C90.0795 35.6304 88.8347 36.6761 85.7973 36.6761C82.1375 36.6761 80.7682 35.3815 80.7682 31.6719C80.7682 27.9623 82.1375 26.6676 85.7973 26.6676C88.8347 26.6676 90.0795 27.7133 90.0795 29.9042V30.2777H94.2373V29.9042C94.2373 25.6718 90.9011 23.0825 85.7226 23.0825C80.2205 23.0825 76.8096 26.4685 76.8096 31.6719C76.8096 36.8753 80.2205 40.2612 85.7226 40.2612Z" fill="white"/>
<path d="M105.142 40.0123V26.6925H111.341V23.3315H95.2083V26.6925H101.408V40.0123H105.142Z" fill="white"/>
<path d="M121.27 40.2612C126.921 40.2612 130.332 36.8753 130.332 31.6719C130.332 26.4685 126.921 23.0825 121.27 23.0825C115.743 23.0825 112.307 26.4685 112.307 31.6719C112.307 36.8753 115.743 40.2612 121.27 40.2612ZM121.27 36.6761C117.61 36.6761 116.265 35.3815 116.265 31.6719C116.265 27.9623 117.61 26.6676 121.27 26.6676C124.929 26.6676 126.349 27.9623 126.349 31.6719C126.349 35.3815 124.929 36.6761 121.27 36.6761Z" fill="white"/>
<path d="M135.695 40.0123V35.4064H140.674C144.533 35.4064 147.023 33.1906 147.023 29.3565C147.023 25.5224 144.533 23.3315 140.674 23.3315H131.961V40.0123H135.695ZM140.276 26.6925C142.343 26.6925 143.313 27.315 143.313 29.3565C143.313 31.4478 142.343 32.0453 140.276 32.0453H135.695V26.6925H140.276Z" fill="white"/>
<path d="M156.414 40.2612C161.867 40.2612 164.605 37.5226 164.605 33.0412V23.3315H160.871V32.7673C160.871 35.6055 159.825 36.6263 156.414 36.6263C153.028 36.6263 151.958 35.6055 151.958 32.7673V23.3315H148.223V33.0412C148.223 37.5226 150.987 40.2612 156.414 40.2612Z" fill="white"/>
<path d="M174.054 40.2612C179.357 40.2612 181.473 37.8213 181.473 35.1076C181.473 32.8171 180.129 30.9997 176.394 30.4021L171.714 29.6552C170.319 29.4063 169.772 29.0577 169.772 28.0867C169.772 27.0162 170.593 26.4934 173.282 26.4934C176.593 26.4934 177.415 27.1656 177.415 28.759V29.1075H181.174V28.9581C181.174 25.4477 178.784 23.0825 173.656 23.0825C168.054 23.0825 166.012 25.7216 166.012 28.2361C166.012 30.9499 167.78 32.4437 170.768 32.9167L175.448 33.5889C177.166 33.8877 177.739 34.2611 177.739 35.2819C177.739 36.4022 177.041 36.8504 174.054 36.8504C170.668 36.8504 169.896 36.228 169.896 34.6844V34.2362H166.162V34.3856C166.162 38.2695 169 40.2612 174.054 40.2612Z" fill="white"/>
</g>
</svg>
