<svg width="520" height="212" viewBox="0 0 520 212" fill="none" xmlns="http://www.w3.org/2000/svg">
<rect width="520" height="212" rx="12" fill="#191919"/>
<path d="M33.672 31.75H30.198V29.59H39.558V31.75H36.138V43H33.672V31.75ZM40.8539 33.208H43.2119V43H40.8539V33.208ZM40.6739 30.508C40.6739 30.076 40.7939 29.74 41.0339 29.5C41.2739 29.26 41.6039 29.14 42.0239 29.14C42.4559 29.14 42.7919 29.26 43.0319 29.5C43.2719 29.74 43.3919 30.076 43.3919 30.508C43.3919 30.928 43.2719 31.258 43.0319 31.498C42.8039 31.738 42.4679 31.858 42.0239 31.858C41.6039 31.858 41.2739 31.738 41.0339 31.498C40.7939 31.258 40.6739 30.928 40.6739 30.508ZM45.389 33.208H47.603V34.432C47.855 33.964 48.215 33.61 48.683 33.37C49.163 33.118 49.715 32.992 50.339 32.992C50.987 32.992 51.581 33.136 52.121 33.424C52.661 33.7 53.075 34.084 53.363 34.576C53.687 34.048 54.107 33.652 54.623 33.388C55.151 33.124 55.745 32.992 56.405 32.992C57.089 32.992 57.707 33.148 58.259 33.46C58.811 33.772 59.243 34.21 59.555 34.774C59.867 35.338 60.023 35.98 60.023 36.7V43H57.665V37.258C57.665 36.61 57.491 36.1 57.143 35.728C56.807 35.344 56.351 35.152 55.775 35.152C55.211 35.152 54.755 35.344 54.407 35.728C54.059 36.112 53.885 36.622 53.885 37.258V43H51.527V37.258C51.527 36.61 51.353 36.1 51.005 35.728C50.669 35.344 50.213 35.152 49.637 35.152C49.073 35.152 48.617 35.344 48.269 35.728C47.921 36.112 47.747 36.622 47.747 37.258V43H45.389V33.208ZM66.6619 43.216C65.6779 43.216 64.8019 42.988 64.0339 42.532C63.2779 42.076 62.6839 41.458 62.2519 40.678C61.8319 39.898 61.6219 39.034 61.6219 38.086C61.6219 37.126 61.8319 36.262 62.2519 35.494C62.6839 34.714 63.2659 34.102 63.9979 33.658C64.7419 33.214 65.5699 32.992 66.4819 32.992C67.4659 32.992 68.3179 33.208 69.0379 33.64C69.7579 34.06 70.3039 34.636 70.6759 35.368C71.0599 36.1 71.2519 36.904 71.2519 37.78C71.2519 38.188 71.2099 38.518 71.1259 38.77H64.0699C64.1419 39.49 64.4179 40.066 64.8979 40.498C65.3779 40.93 65.9719 41.146 66.6799 41.146C67.2079 41.146 67.6579 41.038 68.0299 40.822C68.4139 40.594 68.7199 40.282 68.9479 39.886L70.8559 40.822C70.5559 41.542 70.0279 42.124 69.2719 42.568C68.5159 43 67.6459 43.216 66.6619 43.216ZM68.7319 36.97C68.6719 36.37 68.4379 35.884 68.0299 35.512C67.6219 35.128 67.1059 34.936 66.4819 34.936C65.8819 34.936 65.3719 35.116 64.9519 35.476C64.5319 35.824 64.2559 36.322 64.1239 36.97H68.7319ZM81.2246 43.216C80.1686 43.216 79.2506 43.018 78.4706 42.622C77.7026 42.226 77.1026 41.728 76.6706 41.128C76.2386 40.516 75.9626 39.88 75.8426 39.22L78.1466 38.608C78.3266 39.34 78.6866 39.91 79.2266 40.318C79.7666 40.726 80.4446 40.93 81.2606 40.93C81.8846 40.93 82.3886 40.774 82.7726 40.462C83.1686 40.15 83.3666 39.778 83.3666 39.346C83.3666 38.95 83.2226 38.608 82.9346 38.32C82.6586 38.02 82.2806 37.822 81.8006 37.726L79.7846 37.33C78.7166 37.126 77.8766 36.664 77.2646 35.944C76.6526 35.224 76.3466 34.348 76.3466 33.316C76.3466 32.596 76.5506 31.936 76.9586 31.336C77.3786 30.724 77.9306 30.244 78.6146 29.896C79.3106 29.548 80.0486 29.374 80.8286 29.374C81.8246 29.374 82.6706 29.542 83.3666 29.878C84.0626 30.214 84.6026 30.64 84.9866 31.156C85.3826 31.66 85.6466 32.194 85.7786 32.758L83.4926 33.478C83.2406 32.83 82.8986 32.368 82.4666 32.092C82.0346 31.804 81.4886 31.66 80.8286 31.66C80.4566 31.66 80.1206 31.738 79.8206 31.894C79.5326 32.05 79.3046 32.254 79.1366 32.506C78.9806 32.746 78.9026 32.992 78.9026 33.244C78.9026 33.64 79.0346 33.988 79.2986 34.288C79.5626 34.576 79.9286 34.762 80.3966 34.846L82.3046 35.26C83.4686 35.512 84.3686 35.992 85.0046 36.7C85.6406 37.396 85.9586 38.23 85.9586 39.202C85.9586 39.898 85.7666 40.552 85.3826 41.164C84.9986 41.776 84.4466 42.274 83.7266 42.658C83.0186 43.03 82.1846 43.216 81.2246 43.216ZM92.5369 43.216C91.5529 43.216 90.6769 42.988 89.9089 42.532C89.1529 42.076 88.5589 41.458 88.1269 40.678C87.7069 39.898 87.4969 39.034 87.4969 38.086C87.4969 37.126 87.7069 36.262 88.1269 35.494C88.5589 34.714 89.1409 34.102 89.8729 33.658C90.6169 33.214 91.4449 32.992 92.3569 32.992C93.3409 32.992 94.1929 33.208 94.9129 33.64C95.6329 34.06 96.1789 34.636 96.5509 35.368C96.9349 36.1 97.1269 36.904 97.1269 37.78C97.1269 38.188 97.0849 38.518 97.0009 38.77H89.9449C90.0169 39.49 90.2929 40.066 90.7729 40.498C91.2529 40.93 91.8469 41.146 92.5549 41.146C93.0829 41.146 93.5329 41.038 93.9049 40.822C94.2889 40.594 94.5949 40.282 94.8229 39.886L96.7309 40.822C96.4309 41.542 95.9029 42.124 95.1469 42.568C94.3909 43 93.5209 43.216 92.5369 43.216ZM94.6069 36.97C94.5469 36.37 94.3129 35.884 93.9049 35.512C93.4969 35.128 92.9809 34.936 92.3569 34.936C91.7569 34.936 91.2469 35.116 90.8269 35.476C90.4069 35.824 90.1309 36.322 89.9989 36.97H94.6069ZM103.666 46.96C102.562 46.96 101.59 46.696 100.75 46.168C99.9224 45.652 99.3524 44.962 99.0404 44.098L101.236 43.27C101.38 43.738 101.668 44.11 102.1 44.386C102.532 44.662 103.054 44.8 103.666 44.8C104.386 44.8 104.968 44.596 105.412 44.188C105.868 43.78 106.096 43.222 106.096 42.514V41.452C105.4 42.22 104.458 42.604 103.27 42.604C102.37 42.604 101.554 42.394 100.822 41.974C100.102 41.554 99.5384 40.978 99.1304 40.246C98.7224 39.514 98.5184 38.692 98.5184 37.78C98.5184 36.868 98.7164 36.052 99.1124 35.332C99.5204 34.6 100.084 34.03 100.804 33.622C101.524 33.202 102.328 32.992 103.216 32.992C104.476 32.992 105.478 33.436 106.222 34.324V33.208H108.454V42.514C108.454 43.366 108.25 44.128 107.842 44.8C107.434 45.484 106.864 46.012 106.132 46.384C105.412 46.768 104.59 46.96 103.666 46.96ZM100.966 37.798C100.966 38.554 101.206 39.184 101.686 39.688C102.178 40.18 102.802 40.426 103.558 40.426C104.302 40.426 104.908 40.18 105.376 39.688C105.856 39.196 106.096 38.566 106.096 37.798C106.096 37.03 105.856 36.4 105.376 35.908C104.896 35.404 104.29 35.152 103.558 35.152C102.814 35.152 102.196 35.404 101.704 35.908C101.212 36.412 100.966 37.042 100.966 37.798ZM110.657 33.208H112.871V34.432C113.123 33.964 113.483 33.61 113.951 33.37C114.431 33.118 114.983 32.992 115.607 32.992C116.255 32.992 116.849 33.136 117.389 33.424C117.929 33.7 118.343 34.084 118.631 34.576C118.955 34.048 119.375 33.652 119.891 33.388C120.419 33.124 121.013 32.992 121.673 32.992C122.357 32.992 122.975 33.148 123.527 33.46C124.079 33.772 124.511 34.21 124.823 34.774C125.135 35.338 125.291 35.98 125.291 36.7V43H122.933V37.258C122.933 36.61 122.759 36.1 122.411 35.728C122.075 35.344 121.619 35.152 121.043 35.152C120.479 35.152 120.023 35.344 119.675 35.728C119.327 36.112 119.153 36.622 119.153 37.258V43H116.795V37.258C116.795 36.61 116.621 36.1 116.273 35.728C115.937 35.344 115.481 35.152 114.905 35.152C114.341 35.152 113.885 35.344 113.537 35.728C113.189 36.112 113.015 36.622 113.015 37.258V43H110.657V33.208ZM131.93 43.216C130.946 43.216 130.07 42.988 129.302 42.532C128.546 42.076 127.952 41.458 127.52 40.678C127.1 39.898 126.89 39.034 126.89 38.086C126.89 37.126 127.1 36.262 127.52 35.494C127.952 34.714 128.534 34.102 129.266 33.658C130.01 33.214 130.838 32.992 131.75 32.992C132.734 32.992 133.586 33.208 134.306 33.64C135.026 34.06 135.572 34.636 135.944 35.368C136.328 36.1 136.52 36.904 136.52 37.78C136.52 38.188 136.478 38.518 136.394 38.77H129.338C129.41 39.49 129.686 40.066 130.166 40.498C130.646 40.93 131.24 41.146 131.948 41.146C132.476 41.146 132.926 41.038 133.298 40.822C133.682 40.594 133.988 40.282 134.216 39.886L136.124 40.822C135.824 41.542 135.296 42.124 134.54 42.568C133.784 43 132.914 43.216 131.93 43.216ZM134 36.97C133.94 36.37 133.706 35.884 133.298 35.512C132.89 35.128 132.374 34.936 131.75 34.936C131.15 34.936 130.64 35.116 130.22 35.476C129.8 35.824 129.524 36.322 129.392 36.97H134ZM138.307 33.208H140.521V34.414C140.773 33.958 141.139 33.61 141.619 33.37C142.111 33.118 142.669 32.992 143.293 32.992C144.001 32.992 144.637 33.148 145.201 33.46C145.765 33.772 146.203 34.21 146.515 34.774C146.827 35.338 146.983 35.98 146.983 36.7V43H144.625V37.258C144.625 36.622 144.439 36.112 144.067 35.728C143.707 35.344 143.233 35.152 142.645 35.152C142.057 35.152 141.577 35.344 141.205 35.728C140.845 36.112 140.665 36.622 140.665 37.258V43H138.307V33.208ZM153.441 43.108C152.337 43.108 151.479 42.808 150.867 42.208C150.267 41.596 149.967 40.738 149.967 39.634V35.314H148.275V33.208H148.455C148.935 33.208 149.307 33.082 149.571 32.83C149.835 32.578 149.967 32.212 149.967 31.732V30.976H152.325V33.208H154.575V35.314H152.325V39.508C152.325 40.528 152.877 41.038 153.981 41.038C154.173 41.038 154.383 41.02 154.611 40.984V43.018C154.227 43.078 153.837 43.108 153.441 43.108ZM159.33 43.216C158.298 43.216 157.476 42.964 156.864 42.46C156.264 41.956 155.964 41.272 155.964 40.408C155.964 39.58 156.246 38.896 156.81 38.356C157.374 37.816 158.22 37.456 159.348 37.276L162.264 36.808V36.484C162.264 36.052 162.096 35.698 161.76 35.422C161.436 35.146 161.004 35.008 160.464 35.008C159.96 35.008 159.51 35.146 159.114 35.422C158.73 35.686 158.448 36.04 158.268 36.484L156.342 35.548C156.63 34.78 157.158 34.162 157.926 33.694C158.694 33.226 159.57 32.992 160.554 32.992C161.346 32.992 162.048 33.142 162.66 33.442C163.284 33.73 163.764 34.144 164.1 34.684C164.448 35.212 164.622 35.812 164.622 36.484V43H162.39V41.956C161.622 42.796 160.602 43.216 159.33 43.216ZM158.412 40.318C158.412 40.654 158.538 40.924 158.79 41.128C159.042 41.32 159.366 41.416 159.762 41.416C160.494 41.416 161.094 41.188 161.562 40.732C162.03 40.264 162.264 39.688 162.264 39.004V38.608L159.798 39.022C159.33 39.118 158.982 39.274 158.754 39.49C158.526 39.694 158.412 39.97 158.412 40.318ZM171.089 43.108C169.985 43.108 169.127 42.808 168.515 42.208C167.915 41.596 167.615 40.738 167.615 39.634V35.314H165.923V33.208H166.103C166.583 33.208 166.955 33.082 167.219 32.83C167.483 32.578 167.615 32.212 167.615 31.732V30.976H169.973V33.208H172.223V35.314H169.973V39.508C169.973 40.528 170.525 41.038 171.629 41.038C171.821 41.038 172.031 41.02 172.259 40.984V43.018C171.875 43.078 171.485 43.108 171.089 43.108ZM174.061 33.208H176.419V43H174.061V33.208ZM173.881 30.508C173.881 30.076 174.001 29.74 174.241 29.5C174.481 29.26 174.811 29.14 175.231 29.14C175.663 29.14 175.999 29.26 176.239 29.5C176.479 29.74 176.599 30.076 176.599 30.508C176.599 30.928 176.479 31.258 176.239 31.498C176.011 31.738 175.675 31.858 175.231 31.858C174.811 31.858 174.481 31.738 174.241 31.498C174.001 31.258 173.881 30.928 173.881 30.508ZM183.384 43.216C182.436 43.216 181.566 42.994 180.774 42.55C179.982 42.106 179.352 41.494 178.884 40.714C178.428 39.934 178.2 39.064 178.2 38.104C178.2 37.144 178.428 36.274 178.884 35.494C179.34 34.714 179.964 34.102 180.756 33.658C181.548 33.214 182.424 32.992 183.384 32.992C184.332 32.992 185.196 33.214 185.976 33.658C186.768 34.102 187.392 34.714 187.848 35.494C188.316 36.274 188.55 37.144 188.55 38.104C188.55 39.076 188.316 39.952 187.848 40.732C187.392 41.512 186.768 42.124 185.976 42.568C185.184 43 184.32 43.216 183.384 43.216ZM180.648 38.104C180.648 38.956 180.9 39.664 181.404 40.228C181.92 40.78 182.58 41.056 183.384 41.056C183.9 41.056 184.362 40.93 184.77 40.678C185.178 40.426 185.496 40.078 185.724 39.634C185.964 39.178 186.084 38.668 186.084 38.104C186.084 37.552 185.964 37.054 185.724 36.61C185.496 36.154 185.178 35.8 184.77 35.548C184.362 35.284 183.9 35.152 183.384 35.152C182.856 35.152 182.382 35.284 181.962 35.548C181.554 35.8 181.23 36.148 180.99 36.592C180.762 37.036 180.648 37.54 180.648 38.104ZM190.338 33.208H192.552V34.414C192.804 33.958 193.17 33.61 193.65 33.37C194.142 33.118 194.7 32.992 195.324 32.992C196.032 32.992 196.668 33.148 197.232 33.46C197.796 33.772 198.234 34.21 198.546 34.774C198.858 35.338 199.014 35.98 199.014 36.7V43H196.656V37.258C196.656 36.622 196.47 36.112 196.098 35.728C195.738 35.344 195.264 35.152 194.676 35.152C194.088 35.152 193.608 35.344 193.236 35.728C192.876 36.112 192.696 36.622 192.696 37.258V43H190.338V33.208Z" fill="white"/>
<rect x="424" y="43" width="64" height="145" rx="8" fill="#272727"/>
<rect x="424" y="74.3271" width="64" height="113.673" rx="8" fill="#FFD978"/>
<rect x="424" y="101.179" width="64" height="86.821" rx="8" fill="#FA7A68"/>
<rect x="424" y="120" width="64" height="68.0247" rx="8" fill="#CFB8FF"/>
<path d="M40.996 74.06H43.924C44.82 74.06 45.604 74.244 46.276 74.612C46.956 74.98 47.48 75.504 47.848 76.184C48.216 76.856 48.4 77.636 48.4 78.524C48.4 79.412 48.216 80.196 47.848 80.876C47.48 81.548 46.956 82.072 46.276 82.448C45.604 82.816 44.82 83 43.924 83H40.996V74.06ZM43.936 81.92C44.592 81.92 45.164 81.784 45.652 81.512C46.14 81.232 46.516 80.836 46.78 80.324C47.044 79.812 47.176 79.212 47.176 78.524C47.176 77.836 47.044 77.24 46.78 76.736C46.516 76.224 46.136 75.832 45.64 75.56C45.152 75.28 44.584 75.14 43.936 75.14H42.172V81.92H43.936ZM52.7345 83.144C52.1265 83.144 51.5745 82.996 51.0785 82.7C50.5825 82.404 50.1945 82 49.9145 81.488C49.6345 80.968 49.4945 80.388 49.4945 79.748C49.4945 79.108 49.6305 78.532 49.9025 78.02C50.1825 77.508 50.5585 77.108 51.0305 76.82C51.5105 76.532 52.0465 76.388 52.6385 76.388C53.2545 76.388 53.7905 76.532 54.2465 76.82C54.7105 77.108 55.0625 77.492 55.3025 77.972C55.5505 78.444 55.6745 78.952 55.6745 79.496C55.6745 79.68 55.6545 79.88 55.6145 80.096H50.6705C50.6865 80.504 50.7905 80.86 50.9825 81.164C51.1745 81.468 51.4225 81.704 51.7265 81.872C52.0385 82.04 52.3785 82.124 52.7465 82.124C53.5305 82.124 54.1345 81.768 54.5585 81.056L55.4945 81.536C55.2865 82 54.9345 82.384 54.4385 82.688C53.9425 82.992 53.3745 83.144 52.7345 83.144ZM54.4625 79.136C54.4465 78.632 54.2625 78.216 53.9105 77.888C53.5665 77.552 53.1425 77.384 52.6385 77.384C52.1425 77.384 51.7145 77.544 51.3545 77.864C50.9945 78.176 50.7745 78.6 50.6945 79.136H54.4625ZM59.4456 83.144C58.8216 83.144 58.2696 82.992 57.7896 82.688C57.3096 82.376 56.9656 81.956 56.7576 81.428L57.6576 80.972C57.8416 81.348 58.0936 81.644 58.4136 81.86C58.7336 82.076 59.0816 82.184 59.4576 82.184C59.8176 82.184 60.1136 82.1 60.3456 81.932C60.5776 81.764 60.6936 81.544 60.6936 81.272C60.6936 81.008 60.5896 80.796 60.3816 80.636C60.1736 80.468 59.9496 80.368 59.7096 80.336L58.7376 80.204C58.1616 80.06 57.7296 79.82 57.4416 79.484C57.1536 79.148 57.0096 78.752 57.0096 78.296C57.0096 77.92 57.1056 77.588 57.2976 77.3C57.4976 77.012 57.7696 76.788 58.1136 76.628C58.4656 76.468 58.8536 76.388 59.2776 76.388C59.8376 76.388 60.3376 76.528 60.7776 76.808C61.2256 77.088 61.5456 77.476 61.7376 77.972L60.8496 78.428C60.6896 78.1 60.4656 77.84 60.1776 77.648C59.8976 77.456 59.5856 77.36 59.2416 77.36C58.9136 77.36 58.6496 77.44 58.4496 77.6C58.2496 77.76 58.1496 77.968 58.1496 78.224C58.1496 78.488 58.2416 78.7 58.4256 78.86C58.6176 79.012 58.8256 79.108 59.0496 79.148L60.1176 79.292C60.6536 79.436 61.0696 79.684 61.3656 80.036C61.6696 80.38 61.8216 80.78 61.8216 81.236C61.8216 81.604 61.7216 81.932 61.5216 82.22C61.3216 82.508 61.0416 82.736 60.6816 82.904C60.3216 83.064 59.9096 83.144 59.4456 83.144ZM63.2585 76.532H64.3745V83H63.2585V76.532ZM63.1265 74.804C63.1265 74.596 63.1905 74.428 63.3185 74.3C63.4465 74.172 63.6145 74.108 63.8225 74.108C64.0305 74.108 64.1985 74.172 64.3265 74.3C64.4545 74.428 64.5185 74.596 64.5185 74.804C64.5185 75.012 64.4545 75.18 64.3265 75.308C64.1985 75.436 64.0305 75.5 63.8225 75.5C63.6145 75.5 63.4465 75.436 63.3185 75.308C63.1905 75.18 63.1265 75.012 63.1265 74.804ZM69.1902 85.64C68.5102 85.64 67.9102 85.484 67.3902 85.172C66.8782 84.868 66.5142 84.46 66.2982 83.948L67.3422 83.468C67.4622 83.788 67.6822 84.048 68.0022 84.248C68.3222 84.456 68.7142 84.56 69.1782 84.56C69.7462 84.56 70.2182 84.396 70.5942 84.068C70.9702 83.748 71.1582 83.3 71.1582 82.724V81.824C70.9182 82.152 70.6102 82.404 70.2342 82.58C69.8582 82.756 69.4502 82.844 69.0102 82.844C68.4102 82.844 67.8702 82.704 67.3902 82.424C66.9102 82.136 66.5302 81.748 66.2502 81.26C65.9782 80.764 65.8422 80.216 65.8422 79.616C65.8422 79.016 65.9782 78.472 66.2502 77.984C66.5222 77.488 66.8982 77.1 67.3782 76.82C67.8582 76.532 68.3982 76.388 68.9982 76.388C69.4462 76.388 69.8582 76.48 70.2342 76.664C70.6102 76.84 70.9302 77.096 71.1942 77.432V76.532H72.2862V82.724C72.2862 83.284 72.1542 83.784 71.8902 84.224C71.6262 84.664 71.2582 85.008 70.7862 85.256C70.3142 85.512 69.7822 85.64 69.1902 85.64ZM67.0182 79.616C67.0182 80.008 67.1062 80.368 67.2822 80.696C67.4662 81.024 67.7182 81.284 68.0382 81.476C68.3582 81.668 68.7142 81.764 69.1062 81.764C69.4822 81.764 69.8262 81.668 70.1382 81.476C70.4582 81.284 70.7062 81.024 70.8822 80.696C71.0662 80.368 71.1582 80.008 71.1582 79.616C71.1582 79.224 71.0662 78.864 70.8822 78.536C70.7062 78.208 70.4582 77.948 70.1382 77.756C69.8262 77.564 69.4822 77.468 69.1062 77.468C68.7142 77.468 68.3582 77.564 68.0382 77.756C67.7262 77.948 67.4782 78.208 67.2942 78.536C67.1102 78.864 67.0182 79.224 67.0182 79.616ZM74.0163 76.532H75.1083V77.324C75.3003 77.02 75.5563 76.788 75.8763 76.628C76.1963 76.468 76.5563 76.388 76.9563 76.388C77.4123 76.388 77.8243 76.496 78.1923 76.712C78.5603 76.92 78.8483 77.208 79.0563 77.576C79.2723 77.944 79.3803 78.356 79.3803 78.812V83H78.2523V79.172C78.2523 78.644 78.1083 78.228 77.8203 77.924C77.5403 77.62 77.1683 77.468 76.7043 77.468C76.2403 77.468 75.8603 77.624 75.5643 77.936C75.2763 78.24 75.1323 78.652 75.1323 79.172V83H74.0163V76.532Z" fill="white"/>
<circle cx="32" cy="78" r="2" fill="#CFB8FF"/>
<path d="M40.996 107.06H43.924C44.82 107.06 45.604 107.244 46.276 107.612C46.956 107.98 47.48 108.504 47.848 109.184C48.216 109.856 48.4 110.636 48.4 111.524C48.4 112.412 48.216 113.196 47.848 113.876C47.48 114.548 46.956 115.072 46.276 115.448C45.604 115.816 44.82 116 43.924 116H40.996V107.06ZM43.936 114.92C44.592 114.92 45.164 114.784 45.652 114.512C46.14 114.232 46.516 113.836 46.78 113.324C47.044 112.812 47.176 112.212 47.176 111.524C47.176 110.836 47.044 110.24 46.78 109.736C46.516 109.224 46.136 108.832 45.64 108.56C45.152 108.28 44.584 108.14 43.936 108.14H42.172V114.92H43.936ZM52.7345 116.144C52.1265 116.144 51.5745 115.996 51.0785 115.7C50.5825 115.404 50.1945 115 49.9145 114.488C49.6345 113.968 49.4945 113.388 49.4945 112.748C49.4945 112.108 49.6305 111.532 49.9025 111.02C50.1825 110.508 50.5585 110.108 51.0305 109.82C51.5105 109.532 52.0465 109.388 52.6385 109.388C53.2545 109.388 53.7905 109.532 54.2465 109.82C54.7105 110.108 55.0625 110.492 55.3025 110.972C55.5505 111.444 55.6745 111.952 55.6745 112.496C55.6745 112.68 55.6545 112.88 55.6145 113.096H50.6705C50.6865 113.504 50.7905 113.86 50.9825 114.164C51.1745 114.468 51.4225 114.704 51.7265 114.872C52.0385 115.04 52.3785 115.124 52.7465 115.124C53.5305 115.124 54.1345 114.768 54.5585 114.056L55.4945 114.536C55.2865 115 54.9345 115.384 54.4385 115.688C53.9425 115.992 53.3745 116.144 52.7345 116.144ZM54.4625 112.136C54.4465 111.632 54.2625 111.216 53.9105 110.888C53.5665 110.552 53.1425 110.384 52.6385 110.384C52.1425 110.384 51.7145 110.544 51.3545 110.864C50.9945 111.176 50.7745 111.6 50.6945 112.136H54.4625ZM56.2804 109.532H57.5284L59.3404 114.428L61.1644 109.532H62.4124L59.8684 116H58.8124L56.2804 109.532ZM66.2697 116.144C65.6617 116.144 65.1097 115.996 64.6137 115.7C64.1177 115.404 63.7297 115 63.4497 114.488C63.1697 113.968 63.0297 113.388 63.0297 112.748C63.0297 112.108 63.1657 111.532 63.4377 111.02C63.7177 110.508 64.0937 110.108 64.5657 109.82C65.0457 109.532 65.5817 109.388 66.1737 109.388C66.7897 109.388 67.3257 109.532 67.7817 109.82C68.2457 110.108 68.5977 110.492 68.8377 110.972C69.0857 111.444 69.2097 111.952 69.2097 112.496C69.2097 112.68 69.1897 112.88 69.1497 113.096H64.2057C64.2217 113.504 64.3257 113.86 64.5177 114.164C64.7097 114.468 64.9577 114.704 65.2617 114.872C65.5737 115.04 65.9137 115.124 66.2817 115.124C67.0657 115.124 67.6697 114.768 68.0937 114.056L69.0297 114.536C68.8217 115 68.4697 115.384 67.9737 115.688C67.4777 115.992 66.9097 116.144 66.2697 116.144ZM67.9977 112.136C67.9817 111.632 67.7977 111.216 67.4457 110.888C67.1017 110.552 66.6777 110.384 66.1737 110.384C65.6777 110.384 65.2497 110.544 64.8897 110.864C64.5297 111.176 64.3097 111.6 64.2297 112.136H67.9977ZM70.6648 106.916H71.7808V116H70.6648V106.916ZM76.5844 116.144C75.9684 116.144 75.4044 116 74.8924 115.712C74.3884 115.416 73.9884 115.012 73.6924 114.5C73.3964 113.98 73.2484 113.4 73.2484 112.76C73.2484 112.128 73.3924 111.556 73.6804 111.044C73.9764 110.524 74.3764 110.12 74.8804 109.832C75.3924 109.536 75.9604 109.388 76.5844 109.388C77.2004 109.388 77.7604 109.536 78.2644 109.832C78.7764 110.12 79.1764 110.52 79.4644 111.032C79.7604 111.544 79.9084 112.12 79.9084 112.76C79.9084 113.408 79.7604 113.988 79.4644 114.5C79.1684 115.012 78.7644 115.416 78.2524 115.712C77.7484 116 77.1924 116.144 76.5844 116.144ZM74.4244 112.76C74.4244 113.192 74.5164 113.584 74.7004 113.936C74.8924 114.288 75.1524 114.564 75.4804 114.764C75.8164 114.964 76.1844 115.064 76.5844 115.064C76.9764 115.064 77.3364 114.964 77.6644 114.764C77.9924 114.564 78.2484 114.288 78.4324 113.936C78.6244 113.584 78.7204 113.192 78.7204 112.76C78.7204 112.328 78.6244 111.94 78.4324 111.596C78.2484 111.244 77.9924 110.968 77.6644 110.768C77.3364 110.568 76.9764 110.468 76.5844 110.468C76.1844 110.468 75.8164 110.568 75.4804 110.768C75.1524 110.968 74.8924 111.244 74.7004 111.596C74.5164 111.94 74.4244 112.328 74.4244 112.76ZM81.364 109.532H82.456V110.432C82.712 110.104 83.032 109.848 83.416 109.664C83.808 109.48 84.244 109.388 84.724 109.388C85.324 109.388 85.868 109.536 86.356 109.832C86.844 110.128 87.228 110.536 87.508 111.056C87.788 111.568 87.928 112.14 87.928 112.772C87.928 113.404 87.788 113.976 87.508 114.488C87.228 115 86.844 115.404 86.356 115.7C85.868 115.996 85.32 116.144 84.712 116.144C84.248 116.144 83.82 116.056 83.428 115.88C83.044 115.696 82.728 115.436 82.48 115.1V118.4H81.364V109.532ZM82.48 112.772C82.48 113.204 82.572 113.596 82.756 113.948C82.948 114.292 83.208 114.564 83.536 114.764C83.864 114.964 84.228 115.064 84.628 115.064C85.028 115.064 85.388 114.964 85.708 114.764C86.036 114.564 86.288 114.292 86.464 113.948C86.648 113.596 86.74 113.204 86.74 112.772C86.74 112.34 86.648 111.948 86.464 111.596C86.28 111.244 86.028 110.968 85.708 110.768C85.388 110.568 85.028 110.468 84.628 110.468C84.228 110.468 83.864 110.568 83.536 110.768C83.208 110.968 82.948 111.244 82.756 111.596C82.572 111.948 82.48 112.34 82.48 112.772ZM89.3913 109.532H90.4833V110.336C90.6673 110.032 90.9153 109.8 91.2273 109.64C91.5473 109.472 91.8993 109.388 92.2833 109.388C92.7233 109.388 93.1233 109.496 93.4833 109.712C93.8513 109.92 94.1313 110.204 94.3233 110.564C94.5313 110.188 94.8113 109.9 95.1633 109.7C95.5233 109.492 95.9193 109.388 96.3513 109.388C96.7913 109.388 97.1953 109.496 97.5633 109.712C97.9313 109.92 98.2233 110.208 98.4393 110.576C98.6553 110.944 98.7633 111.356 98.7633 111.812V116H97.6353V112.172C97.6353 111.644 97.4953 111.228 97.2153 110.924C96.9433 110.62 96.5873 110.468 96.1473 110.468C95.6993 110.468 95.3353 110.624 95.0553 110.936C94.7753 111.24 94.6353 111.652 94.6353 112.172V116H93.5073V112.172C93.5073 111.644 93.3713 111.228 93.0993 110.924C92.8273 110.62 92.4673 110.468 92.0193 110.468C91.5793 110.468 91.2153 110.624 90.9273 110.936C90.6473 111.24 90.5073 111.652 90.5073 112.172V116H89.3913V109.532ZM103.324 116.144C102.716 116.144 102.164 115.996 101.668 115.7C101.172 115.404 100.784 115 100.504 114.488C100.224 113.968 100.084 113.388 100.084 112.748C100.084 112.108 100.22 111.532 100.492 111.02C100.772 110.508 101.148 110.108 101.62 109.82C102.1 109.532 102.636 109.388 103.228 109.388C103.844 109.388 104.38 109.532 104.836 109.82C105.3 110.108 105.652 110.492 105.892 110.972C106.14 111.444 106.264 111.952 106.264 112.496C106.264 112.68 106.244 112.88 106.204 113.096H101.26C101.276 113.504 101.38 113.86 101.572 114.164C101.764 114.468 102.012 114.704 102.316 114.872C102.628 115.04 102.968 115.124 103.336 115.124C104.12 115.124 104.724 114.768 105.148 114.056L106.084 114.536C105.876 115 105.524 115.384 105.028 115.688C104.532 115.992 103.964 116.144 103.324 116.144ZM105.052 112.136C105.036 111.632 104.852 111.216 104.5 110.888C104.156 110.552 103.732 110.384 103.228 110.384C102.732 110.384 102.304 110.544 101.944 110.864C101.584 111.176 101.364 111.6 101.284 112.136H105.052ZM107.719 109.532H108.811V110.324C109.003 110.02 109.259 109.788 109.579 109.628C109.899 109.468 110.259 109.388 110.659 109.388C111.115 109.388 111.527 109.496 111.895 109.712C112.263 109.92 112.551 110.208 112.759 110.576C112.975 110.944 113.083 111.356 113.083 111.812V116H111.955V112.172C111.955 111.644 111.811 111.228 111.523 110.924C111.243 110.62 110.871 110.468 110.407 110.468C109.943 110.468 109.563 110.624 109.267 110.936C108.979 111.24 108.835 111.652 108.835 112.172V116H107.719V109.532ZM117.308 116.072C116.676 116.072 116.188 115.896 115.844 115.544C115.508 115.184 115.34 114.672 115.34 114.008V110.6H114.164V109.532H114.404C114.692 109.532 114.92 109.448 115.088 109.28C115.256 109.104 115.34 108.868 115.34 108.572V108.044H116.456V109.532H117.908V110.6H116.456V113.972C116.456 114.692 116.816 115.052 117.536 115.052C117.688 115.052 117.836 115.04 117.98 115.016V116.012C117.812 116.052 117.588 116.072 117.308 116.072Z" fill="white"/>
<circle cx="32" cy="111" r="2" fill="#FA7A68"/>
<path d="M45.112 149.144C44.28 149.144 43.528 148.948 42.856 148.556C42.192 148.156 41.672 147.608 41.296 146.912C40.92 146.208 40.732 145.416 40.732 144.536C40.732 143.656 40.92 142.864 41.296 142.16C41.672 141.456 42.192 140.908 42.856 140.516C43.528 140.116 44.28 139.916 45.112 139.916C45.704 139.916 46.248 140.024 46.744 140.24C47.24 140.448 47.66 140.724 48.004 141.068C48.348 141.412 48.596 141.784 48.748 142.184L47.668 142.676C47.452 142.164 47.12 141.76 46.672 141.464C46.232 141.16 45.712 141.008 45.112 141.008C44.488 141.008 43.932 141.156 43.444 141.452C42.964 141.748 42.588 142.164 42.316 142.7C42.044 143.236 41.908 143.848 41.908 144.536C41.908 145.224 42.044 145.836 42.316 146.372C42.588 146.9 42.964 147.312 43.444 147.608C43.932 147.904 44.488 148.052 45.112 148.052C45.712 148.052 46.232 147.904 46.672 147.608C47.12 147.304 47.452 146.896 47.668 146.384L48.748 146.876C48.596 147.284 48.348 147.66 48.004 148.004C47.66 148.348 47.24 148.624 46.744 148.832C46.248 149.04 45.704 149.144 45.112 149.144ZM53.1704 149.144C52.5544 149.144 51.9904 149 51.4784 148.712C50.9744 148.416 50.5744 148.012 50.2784 147.5C49.9824 146.98 49.8344 146.4 49.8344 145.76C49.8344 145.128 49.9784 144.556 50.2664 144.044C50.5624 143.524 50.9624 143.12 51.4664 142.832C51.9784 142.536 52.5464 142.388 53.1704 142.388C53.7864 142.388 54.3464 142.536 54.8504 142.832C55.3624 143.12 55.7624 143.52 56.0504 144.032C56.3464 144.544 56.4944 145.12 56.4944 145.76C56.4944 146.408 56.3464 146.988 56.0504 147.5C55.7544 148.012 55.3504 148.416 54.8384 148.712C54.3344 149 53.7784 149.144 53.1704 149.144ZM51.0104 145.76C51.0104 146.192 51.1024 146.584 51.2864 146.936C51.4784 147.288 51.7384 147.564 52.0664 147.764C52.4024 147.964 52.7704 148.064 53.1704 148.064C53.5624 148.064 53.9224 147.964 54.2504 147.764C54.5784 147.564 54.8344 147.288 55.0184 146.936C55.2104 146.584 55.3064 146.192 55.3064 145.76C55.3064 145.328 55.2104 144.94 55.0184 144.596C54.8344 144.244 54.5784 143.968 54.2504 143.768C53.9224 143.568 53.5624 143.468 53.1704 143.468C52.7704 143.468 52.4024 143.568 52.0664 143.768C51.7384 143.968 51.4784 144.244 51.2864 144.596C51.1024 144.94 51.0104 145.328 51.0104 145.76ZM57.9499 142.532H59.0419V143.432C59.2979 143.104 59.6179 142.848 60.0019 142.664C60.3939 142.48 60.8299 142.388 61.3099 142.388C61.9099 142.388 62.4539 142.536 62.9419 142.832C63.4299 143.128 63.8139 143.536 64.0939 144.056C64.3739 144.568 64.5139 145.14 64.5139 145.772C64.5139 146.404 64.3739 146.976 64.0939 147.488C63.8139 148 63.4299 148.404 62.9419 148.7C62.4539 148.996 61.9059 149.144 61.2979 149.144C60.8339 149.144 60.4059 149.056 60.0139 148.88C59.6299 148.696 59.3139 148.436 59.0659 148.1V151.4H57.9499V142.532ZM59.0659 145.772C59.0659 146.204 59.1579 146.596 59.3419 146.948C59.5339 147.292 59.7939 147.564 60.1219 147.764C60.4499 147.964 60.8139 148.064 61.2139 148.064C61.6139 148.064 61.9739 147.964 62.2939 147.764C62.6219 147.564 62.8739 147.292 63.0499 146.948C63.2339 146.596 63.3259 146.204 63.3259 145.772C63.3259 145.34 63.2339 144.948 63.0499 144.596C62.8659 144.244 62.6139 143.968 62.2939 143.768C61.9739 143.568 61.6139 143.468 61.2139 143.468C60.8139 143.468 60.4499 143.568 60.1219 143.768C59.7939 143.968 59.5339 144.244 59.3419 144.596C59.1579 144.948 59.0659 145.34 59.0659 145.772ZM67.6961 148.988L65.1281 142.532H66.3401L68.3081 147.584L70.2641 142.532H71.5001L67.9241 151.4H66.6881L67.6961 148.988ZM71.7609 142.532H72.9969L74.5449 147.272L76.0569 142.532H77.1129L78.6249 147.272L80.1849 142.532H81.4089L79.1889 149H78.1209L76.5849 144.128L75.0489 149H73.9809L71.7609 142.532ZM82.407 142.532H83.499V143.3C83.835 142.74 84.407 142.46 85.215 142.46H85.611V143.516H85.047C84.583 143.516 84.211 143.66 83.931 143.948C83.659 144.236 83.523 144.636 83.523 145.148V149H82.407V142.532ZM86.6023 142.532H87.7183V149H86.6023V142.532ZM86.4703 140.804C86.4703 140.596 86.5343 140.428 86.6623 140.3C86.7903 140.172 86.9583 140.108 87.1663 140.108C87.3743 140.108 87.5423 140.172 87.6703 140.3C87.7983 140.428 87.8623 140.596 87.8623 140.804C87.8623 141.012 87.7983 141.18 87.6703 141.308C87.5423 141.436 87.3743 141.5 87.1663 141.5C86.9583 141.5 86.7903 141.436 86.6623 141.308C86.5343 141.18 86.4703 141.012 86.4703 140.804ZM92.0779 149.072C91.4459 149.072 90.9579 148.896 90.6139 148.544C90.2779 148.184 90.1099 147.672 90.1099 147.008V143.6H88.9339V142.532H89.1739C89.4619 142.532 89.6899 142.448 89.8579 142.28C90.0259 142.104 90.1099 141.868 90.1099 141.572V141.044H91.2259V142.532H92.6779V143.6H91.2259V146.972C91.2259 147.692 91.5859 148.052 92.3059 148.052C92.4579 148.052 92.6059 148.04 92.7499 148.016V149.012C92.5819 149.052 92.3579 149.072 92.0779 149.072ZM96.8358 149.072C96.2038 149.072 95.7158 148.896 95.3718 148.544C95.0358 148.184 94.8678 147.672 94.8678 147.008V143.6H93.6918V142.532H93.9318C94.2198 142.532 94.4478 142.448 94.6158 142.28C94.7838 142.104 94.8678 141.868 94.8678 141.572V141.044H95.9838V142.532H97.4358V143.6H95.9838V146.972C95.9838 147.692 96.3438 148.052 97.0638 148.052C97.2158 148.052 97.3638 148.04 97.5078 148.016V149.012C97.3398 149.052 97.1158 149.072 96.8358 149.072ZM98.9656 142.532H100.082V149H98.9656V142.532ZM98.8336 140.804C98.8336 140.596 98.8976 140.428 99.0256 140.3C99.1536 140.172 99.3216 140.108 99.5296 140.108C99.7376 140.108 99.9056 140.172 100.034 140.3C100.162 140.428 100.226 140.596 100.226 140.804C100.226 141.012 100.162 141.18 100.034 141.308C99.9056 141.436 99.7376 141.5 99.5296 141.5C99.3216 141.5 99.1536 141.436 99.0256 141.308C98.8976 141.18 98.8336 141.012 98.8336 140.804ZM101.813 142.532H102.905V143.324C103.097 143.02 103.353 142.788 103.673 142.628C103.993 142.468 104.353 142.388 104.753 142.388C105.209 142.388 105.621 142.496 105.989 142.712C106.357 142.92 106.645 143.208 106.853 143.576C107.069 143.944 107.177 144.356 107.177 144.812V149H106.049V145.172C106.049 144.644 105.905 144.228 105.617 143.924C105.337 143.62 104.965 143.468 104.501 143.468C104.037 143.468 103.657 143.624 103.361 143.936C103.073 144.24 102.929 144.652 102.929 145.172V149H101.813V142.532ZM111.858 151.64C111.178 151.64 110.578 151.484 110.058 151.172C109.546 150.868 109.182 150.46 108.966 149.948L110.01 149.468C110.13 149.788 110.35 150.048 110.67 150.248C110.99 150.456 111.382 150.56 111.846 150.56C112.414 150.56 112.886 150.396 113.262 150.068C113.638 149.748 113.826 149.3 113.826 148.724V147.824C113.586 148.152 113.278 148.404 112.902 148.58C112.526 148.756 112.118 148.844 111.678 148.844C111.078 148.844 110.538 148.704 110.058 148.424C109.578 148.136 109.198 147.748 108.918 147.26C108.646 146.764 108.51 146.216 108.51 145.616C108.51 145.016 108.646 144.472 108.918 143.984C109.19 143.488 109.566 143.1 110.046 142.82C110.526 142.532 111.066 142.388 111.666 142.388C112.114 142.388 112.526 142.48 112.902 142.664C113.278 142.84 113.598 143.096 113.862 143.432V142.532H114.954V148.724C114.954 149.284 114.822 149.784 114.558 150.224C114.294 150.664 113.926 151.008 113.454 151.256C112.982 151.512 112.45 151.64 111.858 151.64ZM109.686 145.616C109.686 146.008 109.774 146.368 109.95 146.696C110.134 147.024 110.386 147.284 110.706 147.476C111.026 147.668 111.382 147.764 111.774 147.764C112.15 147.764 112.494 147.668 112.806 147.476C113.126 147.284 113.374 147.024 113.55 146.696C113.734 146.368 113.826 146.008 113.826 145.616C113.826 145.224 113.734 144.864 113.55 144.536C113.374 144.208 113.126 143.948 112.806 143.756C112.494 143.564 112.15 143.468 111.774 143.468C111.382 143.468 111.026 143.564 110.706 143.756C110.394 143.948 110.146 144.208 109.962 144.536C109.778 144.864 109.686 145.224 109.686 145.616Z" fill="white"/>
<circle cx="32" cy="144" r="2" fill="#FFD978"/>
<path d="M40.996 173.06H41.98L46.672 179.66V173.06H47.86V182H46.876L42.172 175.304V182H40.996V173.06ZM52.7954 182.144C52.1794 182.144 51.6154 182 51.1034 181.712C50.5994 181.416 50.1994 181.012 49.9034 180.5C49.6074 179.98 49.4594 179.4 49.4594 178.76C49.4594 178.128 49.6034 177.556 49.8914 177.044C50.1874 176.524 50.5874 176.12 51.0914 175.832C51.6034 175.536 52.1714 175.388 52.7954 175.388C53.4114 175.388 53.9714 175.536 54.4754 175.832C54.9874 176.12 55.3874 176.52 55.6754 177.032C55.9714 177.544 56.1194 178.12 56.1194 178.76C56.1194 179.408 55.9714 179.988 55.6754 180.5C55.3794 181.012 54.9754 181.416 54.4634 181.712C53.9594 182 53.4034 182.144 52.7954 182.144ZM50.6354 178.76C50.6354 179.192 50.7274 179.584 50.9114 179.936C51.1034 180.288 51.3634 180.564 51.6914 180.764C52.0274 180.964 52.3954 181.064 52.7954 181.064C53.1874 181.064 53.5474 180.964 53.8754 180.764C54.2034 180.564 54.4594 180.288 54.6434 179.936C54.8354 179.584 54.9314 179.192 54.9314 178.76C54.9314 178.328 54.8354 177.94 54.6434 177.596C54.4594 177.244 54.2034 176.968 53.8754 176.768C53.5474 176.568 53.1874 176.468 52.7954 176.468C52.3954 176.468 52.0274 176.568 51.6914 176.768C51.3634 176.968 51.1034 177.244 50.9114 177.596C50.7274 177.94 50.6354 178.328 50.6354 178.76ZM60.0858 182.072C59.4538 182.072 58.9658 181.896 58.6218 181.544C58.2858 181.184 58.1178 180.672 58.1178 180.008V176.6H56.9418V175.532H57.1818C57.4698 175.532 57.6978 175.448 57.8658 175.28C58.0338 175.104 58.1178 174.868 58.1178 174.572V174.044H59.2338V175.532H60.6858V176.6H59.2338V179.972C59.2338 180.692 59.5938 181.052 60.3138 181.052C60.4658 181.052 60.6138 181.04 60.7578 181.016V182.012C60.5898 182.052 60.3658 182.072 60.0858 182.072ZM67.4938 182.144C66.8858 182.144 66.3418 182.032 65.8618 181.808C65.3818 181.576 64.9858 181.272 64.6738 180.896C64.3618 180.512 64.1458 180.1 64.0258 179.66L65.1058 179.324C65.2738 179.86 65.5858 180.284 66.0418 180.596C66.5058 180.908 66.9898 181.064 67.4938 181.064C67.8298 181.064 68.1298 180.996 68.3938 180.86C68.6658 180.724 68.8778 180.552 69.0298 180.344C69.1818 180.136 69.2578 179.928 69.2578 179.72C69.2578 179.392 69.1418 179.096 68.9098 178.832C68.6858 178.568 68.3738 178.392 67.9738 178.304L66.4618 177.968C65.8218 177.832 65.3138 177.528 64.9378 177.056C64.5698 176.576 64.3858 176.028 64.3858 175.412C64.3858 174.94 64.5058 174.516 64.7458 174.14C64.9938 173.756 65.3298 173.456 65.7538 173.24C66.1778 173.024 66.6458 172.916 67.1578 172.916C67.7258 172.916 68.2298 173.016 68.6698 173.216C69.1178 173.416 69.4818 173.684 69.7618 174.02C70.0498 174.348 70.2538 174.704 70.3738 175.088L69.3058 175.472C69.1298 175 68.8378 174.636 68.4298 174.38C68.0298 174.124 67.6098 173.996 67.1698 173.996C66.8658 173.996 66.5938 174.064 66.3538 174.2C66.1138 174.328 65.9258 174.496 65.7898 174.704C65.6538 174.912 65.5858 175.124 65.5858 175.34C65.5858 175.676 65.7058 175.984 65.9458 176.264C66.1938 176.536 66.5018 176.712 66.8698 176.792L68.2378 177.104C68.9578 177.264 69.5098 177.568 69.8938 178.016C70.2778 178.464 70.4698 179 70.4698 179.624C70.4698 180.096 70.3458 180.524 70.0978 180.908C69.8498 181.292 69.4978 181.596 69.0418 181.82C68.5938 182.036 68.0778 182.144 67.4938 182.144ZM72.0476 175.532H73.1396V176.432C73.3956 176.104 73.7156 175.848 74.0996 175.664C74.4916 175.48 74.9276 175.388 75.4076 175.388C76.0076 175.388 76.5516 175.536 77.0396 175.832C77.5276 176.128 77.9116 176.536 78.1916 177.056C78.4716 177.568 78.6116 178.14 78.6116 178.772C78.6116 179.404 78.4716 179.976 78.1916 180.488C77.9116 181 77.5276 181.404 77.0396 181.7C76.5516 181.996 76.0036 182.144 75.3956 182.144C74.9316 182.144 74.5036 182.056 74.1116 181.88C73.7276 181.696 73.4116 181.436 73.1636 181.1V184.4H72.0476V175.532ZM73.1636 178.772C73.1636 179.204 73.2556 179.596 73.4396 179.948C73.6316 180.292 73.8916 180.564 74.2196 180.764C74.5476 180.964 74.9116 181.064 75.3116 181.064C75.7116 181.064 76.0716 180.964 76.3916 180.764C76.7196 180.564 76.9716 180.292 77.1476 179.948C77.3316 179.596 77.4236 179.204 77.4236 178.772C77.4236 178.34 77.3316 177.948 77.1476 177.596C76.9636 177.244 76.7116 176.968 76.3916 176.768C76.0716 176.568 75.7116 176.468 75.3116 176.468C74.9116 176.468 74.5476 176.568 74.2196 176.768C73.8916 176.968 73.6316 177.244 73.4396 177.596C73.2556 177.948 73.1636 178.34 73.1636 178.772ZM83.0509 182.144C82.4429 182.144 81.8909 181.996 81.3949 181.7C80.8989 181.404 80.5109 181 80.2309 180.488C79.9509 179.968 79.8109 179.388 79.8109 178.748C79.8109 178.108 79.9469 177.532 80.2189 177.02C80.4989 176.508 80.8749 176.108 81.3469 175.82C81.8269 175.532 82.3629 175.388 82.9549 175.388C83.5709 175.388 84.1069 175.532 84.5629 175.82C85.0269 176.108 85.3789 176.492 85.6189 176.972C85.8669 177.444 85.9909 177.952 85.9909 178.496C85.9909 178.68 85.9709 178.88 85.9309 179.096H80.9869C81.0029 179.504 81.1069 179.86 81.2989 180.164C81.4909 180.468 81.7389 180.704 82.0429 180.872C82.3549 181.04 82.6949 181.124 83.0629 181.124C83.8469 181.124 84.4509 180.768 84.8749 180.056L85.8109 180.536C85.6029 181 85.2509 181.384 84.7549 181.688C84.2589 181.992 83.6909 182.144 83.0509 182.144ZM84.7789 178.136C84.7629 177.632 84.5789 177.216 84.2269 176.888C83.8829 176.552 83.4589 176.384 82.9549 176.384C82.4589 176.384 82.0309 176.544 81.6709 176.864C81.3109 177.176 81.0909 177.6 81.0109 178.136H84.7789ZM90.446 182.144C89.814 182.144 89.246 181.996 88.742 181.7C88.238 181.404 87.846 181 87.566 180.488C87.286 179.968 87.146 179.392 87.146 178.76C87.146 178.12 87.286 177.544 87.566 177.032C87.846 176.52 88.234 176.12 88.73 175.832C89.234 175.536 89.806 175.388 90.446 175.388C91.07 175.388 91.638 175.552 92.15 175.88C92.67 176.2 93.038 176.616 93.254 177.128L92.246 177.608C92.094 177.264 91.854 176.988 91.526 176.78C91.206 176.572 90.846 176.468 90.446 176.468C90.054 176.468 89.694 176.568 89.366 176.768C89.046 176.968 88.794 177.244 88.61 177.596C88.426 177.94 88.334 178.332 88.334 178.772C88.334 179.204 88.426 179.596 88.61 179.948C88.802 180.292 89.058 180.564 89.378 180.764C89.698 180.964 90.054 181.064 90.446 181.064C90.854 181.064 91.218 180.96 91.538 180.752C91.858 180.544 92.094 180.26 92.246 179.9L93.254 180.404C93.046 180.908 92.682 181.324 92.162 181.652C91.642 181.98 91.07 182.144 90.446 182.144ZM94.6765 175.532H95.7925V182H94.6765V175.532ZM94.5445 173.804C94.5445 173.596 94.6085 173.428 94.7365 173.3C94.8645 173.172 95.0325 173.108 95.2405 173.108C95.4485 173.108 95.6165 173.172 95.7445 173.3C95.8725 173.428 95.9365 173.596 95.9365 173.804C95.9365 174.012 95.8725 174.18 95.7445 174.308C95.6165 174.436 95.4485 174.5 95.2405 174.5C95.0325 174.5 94.8645 174.436 94.7365 174.308C94.6085 174.18 94.5445 174.012 94.5445 173.804ZM99.4202 182.144C98.7802 182.144 98.2602 181.976 97.8602 181.64C97.4602 181.296 97.2602 180.852 97.2602 180.308C97.2602 179.78 97.4322 179.34 97.7762 178.988C98.1282 178.628 98.6602 178.388 99.3722 178.268L101.58 177.908V177.608C101.58 177.256 101.448 176.972 101.184 176.756C100.92 176.532 100.58 176.42 100.164 176.42C99.7962 176.42 99.4682 176.516 99.1802 176.708C98.9002 176.892 98.6922 177.14 98.5562 177.452L97.5842 176.948C97.7682 176.5 98.1042 176.128 98.5922 175.832C99.0802 175.536 99.6122 175.388 100.188 175.388C100.676 175.388 101.108 175.484 101.484 175.676C101.868 175.86 102.164 176.12 102.372 176.456C102.588 176.792 102.696 177.176 102.696 177.608V182H101.604V181.16C101.372 181.464 101.064 181.704 100.68 181.88C100.304 182.056 99.8842 182.144 99.4202 182.144ZM98.4362 180.272C98.4362 180.536 98.5402 180.756 98.7482 180.932C98.9642 181.108 99.2322 181.196 99.5522 181.196C99.9442 181.196 100.292 181.112 100.596 180.944C100.908 180.768 101.148 180.532 101.316 180.236C101.492 179.94 101.58 179.612 101.58 179.252V178.844L99.6242 179.168C98.8322 179.304 98.4362 179.672 98.4362 180.272ZM105.111 176.6H103.875V175.532H105.111V175.076C105.111 174.628 105.211 174.24 105.411 173.912C105.611 173.584 105.879 173.336 106.215 173.168C106.559 173 106.942 172.916 107.367 172.916C107.583 172.916 107.771 172.936 107.931 172.976V173.972C107.811 173.948 107.667 173.936 107.499 173.936C106.659 173.936 106.239 174.316 106.239 175.076V175.532H110.019V182H108.903V176.6H106.239V182H105.111V176.6ZM114.551 182.144C113.943 182.144 113.391 181.996 112.895 181.7C112.399 181.404 112.011 181 111.731 180.488C111.451 179.968 111.311 179.388 111.311 178.748C111.311 178.108 111.447 177.532 111.719 177.02C111.999 176.508 112.375 176.108 112.847 175.82C113.327 175.532 113.863 175.388 114.455 175.388C115.071 175.388 115.607 175.532 116.063 175.82C116.527 176.108 116.879 176.492 117.119 176.972C117.367 177.444 117.491 177.952 117.491 178.496C117.491 178.68 117.471 178.88 117.431 179.096H112.487C112.503 179.504 112.607 179.86 112.799 180.164C112.991 180.468 113.239 180.704 113.543 180.872C113.855 181.04 114.195 181.124 114.563 181.124C115.347 181.124 115.951 180.768 116.375 180.056L117.311 180.536C117.103 181 116.751 181.384 116.255 181.688C115.759 181.992 115.191 182.144 114.551 182.144ZM116.279 178.136C116.263 177.632 116.079 177.216 115.727 176.888C115.383 176.552 114.959 176.384 114.455 176.384C113.959 176.384 113.531 176.544 113.171 176.864C112.811 177.176 112.591 177.6 112.511 178.136H116.279ZM121.886 182.144C121.286 182.144 120.742 181.996 120.254 181.7C119.766 181.404 119.382 181 119.102 180.488C118.822 179.976 118.682 179.404 118.682 178.772C118.682 178.14 118.822 177.568 119.102 177.056C119.382 176.536 119.766 176.128 120.254 175.832C120.742 175.536 121.286 175.388 121.886 175.388C122.358 175.388 122.782 175.476 123.158 175.652C123.542 175.828 123.862 176.076 124.118 176.396V172.916H125.246V182H124.154V181.052C123.914 181.396 123.594 181.664 123.194 181.856C122.802 182.048 122.366 182.144 121.886 182.144ZM119.858 178.772C119.858 179.204 119.95 179.596 120.134 179.948C120.318 180.292 120.57 180.564 120.89 180.764C121.218 180.964 121.582 181.064 121.982 181.064C122.382 181.064 122.742 180.964 123.062 180.764C123.39 180.564 123.646 180.292 123.83 179.948C124.022 179.596 124.118 179.204 124.118 178.772C124.118 178.34 124.022 177.948 123.83 177.596C123.646 177.244 123.39 176.968 123.062 176.768C122.742 176.568 122.382 176.468 121.982 176.468C121.582 176.468 121.218 176.568 120.89 176.768C120.57 176.968 120.318 177.244 120.134 177.596C119.95 177.948 119.858 178.34 119.858 178.772Z" fill="white"/>
<circle cx="32" cy="179" r="2" fill="#272727"/>
<path opacity="0.5" d="M320.637 150.4H319.227V149.55H321.627V157H320.637V150.4ZM325.588 157.12C325.115 157.12 324.688 157.017 324.308 156.81C323.935 156.597 323.641 156.303 323.428 155.93C323.221 155.557 323.118 155.133 323.118 154.66C323.118 154.267 323.188 153.88 323.328 153.5C323.468 153.12 323.695 152.723 324.008 152.31L326.108 149.55H327.288L325.048 152.47C325.228 152.39 325.455 152.35 325.728 152.35C326.161 152.35 326.555 152.453 326.908 152.66C327.261 152.86 327.538 153.14 327.738 153.5C327.945 153.86 328.048 154.263 328.048 154.71C328.048 155.163 327.941 155.573 327.728 155.94C327.515 156.307 327.221 156.597 326.848 156.81C326.475 157.017 326.055 157.12 325.588 157.12ZM324.108 154.72C324.108 155.16 324.248 155.523 324.528 155.81C324.808 156.097 325.161 156.24 325.588 156.24C325.868 156.24 326.118 156.177 326.338 156.05C326.565 155.917 326.741 155.733 326.868 155.5C326.995 155.267 327.058 155.007 327.058 154.72C327.058 154.28 326.918 153.917 326.638 153.63C326.365 153.343 326.015 153.2 325.588 153.2C325.161 153.2 324.808 153.343 324.528 153.63C324.248 153.917 324.108 154.28 324.108 154.72ZM331.564 157.12C330.978 157.12 330.454 156.967 329.994 156.66C329.534 156.353 329.218 155.94 329.044 155.42L329.844 155.08C329.984 155.44 330.211 155.723 330.524 155.93C330.838 156.137 331.184 156.24 331.564 156.24C331.864 156.24 332.131 156.173 332.364 156.04C332.604 155.9 332.791 155.71 332.924 155.47C333.064 155.223 333.134 154.95 333.134 154.65C333.134 154.343 333.064 154.07 332.924 153.83C332.791 153.583 332.604 153.393 332.364 153.26C332.131 153.12 331.868 153.05 331.574 153.05C331.274 153.05 330.998 153.12 330.744 153.26C330.491 153.4 330.304 153.577 330.184 153.79L329.394 153.62L329.964 149.54H333.824V150.39H330.664L330.354 152.57C330.708 152.317 331.148 152.19 331.674 152.19C332.148 152.19 332.571 152.3 332.944 152.52C333.318 152.733 333.608 153.027 333.814 153.4C334.021 153.773 334.124 154.19 334.124 154.65C334.124 155.117 334.011 155.537 333.784 155.91C333.564 156.283 333.258 156.58 332.864 156.8C332.478 157.013 332.044 157.12 331.564 157.12ZM335.447 149.43H336.377V152.24C336.537 152 336.747 151.817 337.007 151.69C337.273 151.557 337.57 151.49 337.897 151.49C338.277 151.49 338.62 151.58 338.927 151.76C339.233 151.933 339.473 152.173 339.647 152.48C339.827 152.787 339.917 153.13 339.917 153.51V157H338.977V153.81C338.977 153.37 338.857 153.023 338.617 152.77C338.377 152.517 338.067 152.39 337.687 152.39C337.307 152.39 336.993 152.52 336.747 152.78C336.5 153.033 336.377 153.377 336.377 153.81V157H335.447V149.43ZM346.346 155.28H342.686V154.47L346.326 149.55H347.266V154.47H348.236V155.28H347.266V157H346.346V155.28ZM346.346 154.47V150.84L343.686 154.47H346.346ZM352.263 157.12C351.676 157.12 351.159 156.96 350.713 156.64C350.266 156.32 349.919 155.87 349.673 155.29C349.426 154.703 349.303 154.03 349.303 153.27C349.303 152.51 349.426 151.84 349.673 151.26C349.919 150.68 350.263 150.23 350.703 149.91C351.149 149.59 351.666 149.43 352.253 149.43C352.839 149.43 353.356 149.59 353.803 149.91C354.249 150.23 354.596 150.68 354.843 151.26C355.089 151.84 355.213 152.51 355.213 153.27C355.213 154.03 355.089 154.703 354.843 155.29C354.596 155.87 354.249 156.32 353.803 156.64C353.363 156.96 352.849 157.12 352.263 157.12ZM350.283 153.27C350.283 153.857 350.363 154.373 350.523 154.82C350.689 155.26 350.923 155.603 351.223 155.85C351.523 156.09 351.869 156.21 352.263 156.21C352.656 156.21 352.999 156.09 353.293 155.85C353.593 155.603 353.823 155.26 353.983 154.82C354.149 154.373 354.233 153.857 354.233 153.27C354.233 152.683 354.149 152.17 353.983 151.73C353.823 151.29 353.593 150.95 353.293 150.71C352.993 150.463 352.646 150.34 352.253 150.34C351.859 150.34 351.513 150.463 351.213 150.71C350.919 150.95 350.689 151.29 350.523 151.73C350.363 152.17 350.283 152.683 350.283 153.27ZM356.589 151.61H357.499V152.28C357.652 152.027 357.859 151.833 358.119 151.7C358.386 151.56 358.679 151.49 358.999 151.49C359.366 151.49 359.699 151.58 359.999 151.76C360.306 151.933 360.539 152.17 360.699 152.47C360.872 152.157 361.106 151.917 361.399 151.75C361.699 151.577 362.029 151.49 362.389 151.49C362.756 151.49 363.092 151.58 363.399 151.76C363.706 151.933 363.949 152.173 364.129 152.48C364.309 152.787 364.399 153.13 364.399 153.51V157H363.459V153.81C363.459 153.37 363.342 153.023 363.109 152.77C362.882 152.517 362.586 152.39 362.219 152.39C361.846 152.39 361.542 152.52 361.309 152.78C361.076 153.033 360.959 153.377 360.959 153.81V157H360.019V153.81C360.019 153.37 359.906 153.023 359.679 152.77C359.452 152.517 359.152 152.39 358.779 152.39C358.412 152.39 358.109 152.52 357.869 152.78C357.636 153.033 357.519 153.377 357.519 153.81V157H356.589V151.61Z" fill="white"/>
<path opacity="0.5" d="M328.657 117.08C328.477 117.16 328.25 117.2 327.977 117.2C327.543 117.2 327.15 117.1 326.797 116.9C326.443 116.693 326.163 116.41 325.957 116.05C325.757 115.69 325.657 115.283 325.657 114.83C325.657 114.377 325.763 113.967 325.977 113.6C326.19 113.233 326.483 112.947 326.857 112.74C327.23 112.533 327.65 112.43 328.117 112.43C328.59 112.43 329.013 112.537 329.387 112.75C329.767 112.957 330.06 113.247 330.267 113.62C330.48 113.993 330.587 114.417 330.587 114.89C330.587 115.283 330.517 115.67 330.377 116.05C330.237 116.43 330.01 116.827 329.697 117.24L327.597 120H326.417L328.657 117.08ZM326.647 114.83C326.647 115.27 326.783 115.633 327.057 115.92C327.337 116.2 327.69 116.34 328.117 116.34C328.543 116.34 328.897 116.2 329.177 115.92C329.457 115.633 329.597 115.27 329.597 114.83C329.597 114.543 329.533 114.283 329.407 114.05C329.28 113.817 329.103 113.633 328.877 113.5C328.65 113.367 328.397 113.3 328.117 113.3C327.843 113.3 327.593 113.367 327.367 113.5C327.14 113.633 326.963 113.817 326.837 114.05C326.71 114.283 326.647 114.543 326.647 114.83ZM334.753 120.12C334.166 120.12 333.65 119.96 333.203 119.64C332.756 119.32 332.41 118.87 332.163 118.29C331.916 117.703 331.793 117.03 331.793 116.27C331.793 115.51 331.916 114.84 332.163 114.26C332.41 113.68 332.753 113.23 333.193 112.91C333.64 112.59 334.156 112.43 334.743 112.43C335.33 112.43 335.846 112.59 336.293 112.91C336.74 113.23 337.086 113.68 337.333 114.26C337.58 114.84 337.703 115.51 337.703 116.27C337.703 117.03 337.58 117.703 337.333 118.29C337.086 118.87 336.74 119.32 336.293 119.64C335.853 119.96 335.34 120.12 334.753 120.12ZM332.773 116.27C332.773 116.857 332.853 117.373 333.013 117.82C333.18 118.26 333.413 118.603 333.713 118.85C334.013 119.09 334.36 119.21 334.753 119.21C335.146 119.21 335.49 119.09 335.783 118.85C336.083 118.603 336.313 118.26 336.473 117.82C336.64 117.373 336.723 116.857 336.723 116.27C336.723 115.683 336.64 115.17 336.473 114.73C336.313 114.29 336.083 113.95 335.783 113.71C335.483 113.463 335.136 113.34 334.743 113.34C334.35 113.34 334.003 113.463 333.703 113.71C333.41 113.95 333.18 114.29 333.013 114.73C332.853 115.17 332.773 115.683 332.773 116.27ZM339.079 112.43H340.009V115.24C340.169 115 340.379 114.817 340.639 114.69C340.906 114.557 341.203 114.49 341.529 114.49C341.909 114.49 342.253 114.58 342.559 114.76C342.866 114.933 343.106 115.173 343.279 115.48C343.459 115.787 343.549 116.13 343.549 116.51V120H342.609V116.81C342.609 116.37 342.489 116.023 342.249 115.77C342.009 115.517 341.699 115.39 341.319 115.39C340.939 115.39 340.626 115.52 340.379 115.78C340.133 116.033 340.009 116.377 340.009 116.81V120H339.079V112.43ZM347.669 113.4H346.259V112.55H348.659V120H347.669V113.4ZM352.707 120.12C352.12 120.12 351.597 119.967 351.137 119.66C350.677 119.353 350.36 118.94 350.187 118.42L350.987 118.08C351.127 118.44 351.354 118.723 351.667 118.93C351.98 119.137 352.327 119.24 352.707 119.24C353.007 119.24 353.274 119.173 353.507 119.04C353.747 118.9 353.934 118.71 354.067 118.47C354.207 118.223 354.277 117.95 354.277 117.65C354.277 117.343 354.207 117.07 354.067 116.83C353.934 116.583 353.747 116.393 353.507 116.26C353.274 116.12 353.01 116.05 352.717 116.05C352.417 116.05 352.14 116.12 351.887 116.26C351.634 116.4 351.447 116.577 351.327 116.79L350.537 116.62L351.107 112.54H354.967V113.39H351.807L351.497 115.57C351.85 115.317 352.29 115.19 352.817 115.19C353.29 115.19 353.714 115.3 354.087 115.52C354.46 115.733 354.75 116.027 354.957 116.4C355.164 116.773 355.267 117.19 355.267 117.65C355.267 118.117 355.154 118.537 354.927 118.91C354.707 119.283 354.4 119.58 354.007 119.8C353.62 120.013 353.187 120.12 352.707 120.12ZM356.589 114.61H357.499V115.28C357.652 115.027 357.859 114.833 358.119 114.7C358.386 114.56 358.679 114.49 358.999 114.49C359.366 114.49 359.699 114.58 359.999 114.76C360.306 114.933 360.539 115.17 360.699 115.47C360.872 115.157 361.106 114.917 361.399 114.75C361.699 114.577 362.029 114.49 362.389 114.49C362.756 114.49 363.092 114.58 363.399 114.76C363.706 114.933 363.949 115.173 364.129 115.48C364.309 115.787 364.399 116.13 364.399 116.51V120H363.459V116.81C363.459 116.37 363.342 116.023 363.109 115.77C362.882 115.517 362.586 115.39 362.219 115.39C361.846 115.39 361.542 115.52 361.309 115.78C361.076 116.033 360.959 116.377 360.959 116.81V120H360.019V116.81C360.019 116.37 359.906 116.023 359.679 115.77C359.452 115.517 359.152 115.39 358.779 115.39C358.412 115.39 358.109 115.52 357.869 115.78C357.636 116.033 357.519 116.377 357.519 116.81V120H356.589V114.61Z" fill="white"/>
<path opacity="0.5" d="M322.981 88.4H321.571V87.55H323.971V95H322.981V88.4ZM326.8 88.4H325.39V87.55H327.79V95H326.8V88.4ZM331.838 95.12C331.251 95.12 330.728 94.9667 330.268 94.66C329.808 94.3533 329.491 93.94 329.318 93.42L330.118 93.08C330.258 93.44 330.485 93.7233 330.798 93.93C331.111 94.1367 331.458 94.24 331.838 94.24C332.138 94.24 332.405 94.1733 332.638 94.04C332.878 93.9 333.065 93.71 333.198 93.47C333.338 93.2233 333.408 92.95 333.408 92.65C333.408 92.3433 333.338 92.07 333.198 91.83C333.065 91.5833 332.878 91.3933 332.638 91.26C332.405 91.12 332.141 91.05 331.848 91.05C331.548 91.05 331.271 91.12 331.018 91.26C330.765 91.4 330.578 91.5767 330.458 91.79L329.668 91.62L330.238 87.54H334.098V88.39H330.938L330.628 90.57C330.981 90.3167 331.421 90.19 331.948 90.19C332.421 90.19 332.845 90.3 333.218 90.52C333.591 90.7333 333.881 91.0267 334.088 91.4C334.295 91.7733 334.398 92.19 334.398 92.65C334.398 93.1167 334.285 93.5367 334.058 93.91C333.838 94.2833 333.531 94.58 333.138 94.8C332.751 95.0133 332.318 95.12 331.838 95.12ZM335.72 87.43H336.65V90.24C336.81 90 337.02 89.8167 337.28 89.69C337.547 89.5567 337.843 89.49 338.17 89.49C338.55 89.49 338.893 89.58 339.2 89.76C339.507 89.9333 339.747 90.1733 339.92 90.48C340.1 90.7867 340.19 91.13 340.19 91.51V95H339.25V91.81C339.25 91.37 339.13 91.0233 338.89 90.77C338.65 90.5167 338.34 90.39 337.96 90.39C337.58 90.39 337.267 90.52 337.02 90.78C336.773 91.0333 336.65 91.3767 336.65 91.81V95H335.72V87.43ZM345.469 95.12C344.876 95.12 344.349 94.9667 343.889 94.66C343.429 94.3533 343.113 93.9333 342.939 93.4L343.769 93.06C343.909 93.4267 344.129 93.7167 344.429 93.93C344.729 94.1367 345.076 94.24 345.469 94.24C345.943 94.24 346.326 94.1067 346.619 93.84C346.913 93.5667 347.059 93.1933 347.059 92.72C347.059 92.2467 346.909 91.8767 346.609 91.61C346.316 91.3367 345.933 91.2 345.459 91.2C345.259 91.2 345.053 91.2267 344.839 91.28L344.629 90.83L346.619 88.4H343.319V87.55H347.729V88.37L346.029 90.47C346.629 90.5433 347.113 90.7833 347.479 91.19C347.853 91.59 348.039 92.0933 348.039 92.7C348.039 93.1467 347.929 93.5567 347.709 93.93C347.489 94.2967 347.183 94.5867 346.789 94.8C346.403 95.0133 345.963 95.12 345.469 95.12ZM352.263 95.12C351.676 95.12 351.159 94.96 350.713 94.64C350.266 94.32 349.919 93.87 349.673 93.29C349.426 92.7033 349.303 92.03 349.303 91.27C349.303 90.51 349.426 89.84 349.673 89.26C349.919 88.68 350.263 88.23 350.703 87.91C351.149 87.59 351.666 87.43 352.253 87.43C352.839 87.43 353.356 87.59 353.803 87.91C354.249 88.23 354.596 88.68 354.843 89.26C355.089 89.84 355.213 90.51 355.213 91.27C355.213 92.03 355.089 92.7033 354.843 93.29C354.596 93.87 354.249 94.32 353.803 94.64C353.363 94.96 352.849 95.12 352.263 95.12ZM350.283 91.27C350.283 91.8567 350.363 92.3733 350.523 92.82C350.689 93.26 350.923 93.6033 351.223 93.85C351.523 94.09 351.869 94.21 352.263 94.21C352.656 94.21 352.999 94.09 353.293 93.85C353.593 93.6033 353.823 93.26 353.983 92.82C354.149 92.3733 354.233 91.8567 354.233 91.27C354.233 90.6833 354.149 90.17 353.983 89.73C353.823 89.29 353.593 88.95 353.293 88.71C352.993 88.4633 352.646 88.34 352.253 88.34C351.859 88.34 351.513 88.4633 351.213 88.71C350.919 88.95 350.689 89.29 350.523 89.73C350.363 90.17 350.283 90.6833 350.283 91.27ZM356.589 89.61H357.499V90.28C357.652 90.0267 357.859 89.8333 358.119 89.7C358.386 89.56 358.679 89.49 358.999 89.49C359.366 89.49 359.699 89.58 359.999 89.76C360.306 89.9333 360.539 90.17 360.699 90.47C360.872 90.1567 361.106 89.9167 361.399 89.75C361.699 89.5767 362.029 89.49 362.389 89.49C362.756 89.49 363.092 89.58 363.399 89.76C363.706 89.9333 363.949 90.1733 364.129 90.48C364.309 90.7867 364.399 91.13 364.399 91.51V95H363.459V91.81C363.459 91.37 363.342 91.0233 363.109 90.77C362.882 90.5167 362.586 90.39 362.219 90.39C361.846 90.39 361.542 90.52 361.309 90.78C361.076 91.0333 360.959 91.3767 360.959 91.81V95H360.019V91.81C360.019 91.37 359.906 91.0233 359.679 90.77C359.452 90.5167 359.152 90.39 358.779 90.39C358.412 90.39 358.109 90.52 357.869 90.78C357.636 91.0333 357.519 91.3767 357.519 91.81V95H356.589V89.61Z" fill="white"/>
<path opacity="0.5" d="M319.075 59.4H317.665V58.55H320.065V66H319.075V59.4ZM325.203 64.28H321.543V63.47L325.183 58.55H326.123V63.47H327.093V64.28H326.123V66H325.203V64.28ZM325.203 63.47V59.84L322.543 63.47H325.203ZM331.12 66.12C330.534 66.12 330.017 65.96 329.57 65.64C329.124 65.32 328.777 64.87 328.53 64.29C328.284 63.7033 328.16 63.03 328.16 62.27C328.16 61.51 328.284 60.84 328.53 60.26C328.777 59.68 329.12 59.23 329.56 58.91C330.007 58.59 330.524 58.43 331.11 58.43C331.697 58.43 332.214 58.59 332.66 58.91C333.107 59.23 333.454 59.68 333.7 60.26C333.947 60.84 334.07 61.51 334.07 62.27C334.07 63.03 333.947 63.7033 333.7 64.29C333.454 64.87 333.107 65.32 332.66 65.64C332.22 65.96 331.707 66.12 331.12 66.12ZM329.14 62.27C329.14 62.8567 329.22 63.3733 329.38 63.82C329.547 64.26 329.78 64.6033 330.08 64.85C330.38 65.09 330.727 65.21 331.12 65.21C331.514 65.21 331.857 65.09 332.15 64.85C332.45 64.6033 332.68 64.26 332.84 63.82C333.007 63.3733 333.09 62.8567 333.09 62.27C333.09 61.6833 333.007 61.17 332.84 60.73C332.68 60.29 332.45 59.95 332.15 59.71C331.85 59.4633 331.504 59.34 331.11 59.34C330.717 59.34 330.37 59.4633 330.07 59.71C329.777 59.95 329.547 60.29 329.38 60.73C329.22 61.17 329.14 61.6833 329.14 62.27ZM335.447 58.43H336.377V61.24C336.537 61 336.747 60.8167 337.007 60.69C337.273 60.5567 337.57 60.49 337.897 60.49C338.277 60.49 338.62 60.58 338.927 60.76C339.233 60.9333 339.473 61.1733 339.647 61.48C339.827 61.7867 339.917 62.13 339.917 62.51V66H338.977V62.81C338.977 62.37 338.857 62.0233 338.617 61.77C338.377 61.5167 338.067 61.39 337.687 61.39C337.307 61.39 336.993 61.52 336.747 61.78C336.5 62.0333 336.377 62.3767 336.377 62.81V66H335.447V58.43ZM346.346 64.28H342.686V63.47L346.326 58.55H347.266V63.47H348.236V64.28H347.266V66H346.346V64.28ZM346.346 63.47V59.84L343.686 63.47H346.346ZM352.263 66.12C351.676 66.12 351.159 65.96 350.713 65.64C350.266 65.32 349.919 64.87 349.673 64.29C349.426 63.7033 349.303 63.03 349.303 62.27C349.303 61.51 349.426 60.84 349.673 60.26C349.919 59.68 350.263 59.23 350.703 58.91C351.149 58.59 351.666 58.43 352.253 58.43C352.839 58.43 353.356 58.59 353.803 58.91C354.249 59.23 354.596 59.68 354.843 60.26C355.089 60.84 355.213 61.51 355.213 62.27C355.213 63.03 355.089 63.7033 354.843 64.29C354.596 64.87 354.249 65.32 353.803 65.64C353.363 65.96 352.849 66.12 352.263 66.12ZM350.283 62.27C350.283 62.8567 350.363 63.3733 350.523 63.82C350.689 64.26 350.923 64.6033 351.223 64.85C351.523 65.09 351.869 65.21 352.263 65.21C352.656 65.21 352.999 65.09 353.293 64.85C353.593 64.6033 353.823 64.26 353.983 63.82C354.149 63.3733 354.233 62.8567 354.233 62.27C354.233 61.6833 354.149 61.17 353.983 60.73C353.823 60.29 353.593 59.95 353.293 59.71C352.993 59.4633 352.646 59.34 352.253 59.34C351.859 59.34 351.513 59.4633 351.213 59.71C350.919 59.95 350.689 60.29 350.523 60.73C350.363 61.17 350.283 61.6833 350.283 62.27ZM356.589 60.61H357.499V61.28C357.652 61.0267 357.859 60.8333 358.119 60.7C358.386 60.56 358.679 60.49 358.999 60.49C359.366 60.49 359.699 60.58 359.999 60.76C360.306 60.9333 360.539 61.17 360.699 61.47C360.872 61.1567 361.106 60.9167 361.399 60.75C361.699 60.5767 362.029 60.49 362.389 60.49C362.756 60.49 363.092 60.58 363.399 60.76C363.706 60.9333 363.949 61.1733 364.129 61.48C364.309 61.7867 364.399 62.13 364.399 62.51V66H363.459V62.81C363.459 62.37 363.342 62.0233 363.109 61.77C362.882 61.5167 362.586 61.39 362.219 61.39C361.846 61.39 361.542 61.52 361.309 61.78C361.076 62.0333 360.959 62.3767 360.959 62.81V66H360.019V62.81C360.019 62.37 359.906 62.0233 359.679 61.77C359.452 61.5167 359.152 61.39 358.779 61.39C358.412 61.39 358.109 61.52 357.869 61.78C357.636 62.0333 357.519 62.3767 357.519 62.81V66H356.589V60.61Z" fill="white"/>
<rect x="370" y="153" width="54" height="1" fill="#272727"/>
<rect x="370" y="116" width="54" height="1" fill="#272727"/>
<rect x="370" y="91" width="54" height="1" fill="#272727"/>
<rect x="370" y="62" width="54" height="1" fill="#272727"/>
</svg>
