<svg width="210" height="64" viewBox="0 0 210 64" fill="none" xmlns="http://www.w3.org/2000/svg">
<path d="M62.9009 29.6637L56.5989 42.401H53.498L47.2294 29.6637V44.335H38.7934V42.9012H42.0277V21.0277H49.0633L55.0651 33.8317L61.1004 21.0277H68.1025V42.9012H71.3369V44.335H62.9009V29.6637ZM99.2156 42.9012V44.335H90.4462L88.2789 39.3001H78.5092L76.3418 44.335H67.5724V42.9012H71.407L80.8766 21.0277H85.9115L95.3478 42.9012H99.2156ZM83.4107 27.9632L80.4765 34.732H86.3116L83.4107 27.9632ZM116.425 42.9012V44.335H95.8185V42.9012H103.521V35.1321L95.4517 21.0277H101.087L106.122 29.6971L111.157 21.0277H116.792L108.723 35.1321V42.9012H116.425ZM144.673 42.9012V44.335H135.903L133.736 39.3001H123.966L121.799 44.335H113.029V42.9012H116.864L126.333 21.0277H131.368L140.805 42.9012H144.673ZM128.868 27.9632L125.933 34.732H131.769L128.868 27.9632ZM164.816 42.9012V44.335H140.909V42.9012H144.143V21.0277H153.212C154.791 21.0277 156.147 21.2166 157.28 21.5945C158.436 21.9724 159.303 22.4837 159.881 23.1283C160.926 24.3287 161.448 25.6847 161.448 27.1963C161.448 29.0191 160.859 30.375 159.681 31.2642C159.281 31.5754 159.003 31.7755 158.848 31.8644C158.692 31.9311 158.414 32.0533 158.014 32.2312C159.459 32.5424 160.604 33.1981 161.448 34.1985C162.315 35.1765 162.749 36.3991 162.749 37.8663C162.749 40.067 161.882 41.7453 160.148 42.9012H164.816ZM149.345 39.9336H152.912C154.402 39.9336 155.513 39.7558 156.247 39.4001C157.003 39.0222 157.38 38.2997 157.38 37.2327C157.38 36.1435 156.98 35.4322 156.18 35.0987C155.402 34.7431 154.146 34.5652 152.412 34.5652H149.345V39.9336ZM149.345 30.464H151.812C153.257 30.464 154.324 30.3084 155.013 29.9971C155.724 29.6859 156.08 29.0191 156.08 27.9965C156.08 26.9518 155.758 26.2626 155.113 25.9292C154.468 25.5958 153.379 25.4291 151.845 25.4291H149.345V30.464ZM175.755 42.9012V44.335H164.818V42.9012H167.685V21.0277H172.887V42.9012H175.755Z" fill="white" fill-opacity="0.4"/>
</svg>
