<svg width="127" height="117" viewBox="0 0 127 117" fill="none" xmlns="http://www.w3.org/2000/svg">
<path d="M0 6.29005C0 6.84233 0.447715 7.29005 1 7.29005C1.55228 7.29005 2 6.84233 2 6.29005H0ZM2 18.2373C2 17.685 1.55228 17.2373 1 17.2373C0.447715 17.2373 0 17.685 0 18.2373H2ZM0 30.1846C0 30.7369 0.447715 31.1846 1 31.1846C1.55228 31.1846 2 30.7369 2 30.1846H0ZM2 42.1319C2 41.5796 1.55228 41.1319 1 41.1319C0.447715 41.1319 0 41.5796 0 42.1319H2ZM0 54.0792C0 54.6315 0.447715 55.0792 1 55.0792C1.55228 55.0792 2 54.6315 2 54.0792H0ZM2 66.0265C2 65.4742 1.55228 65.0265 1 65.0265C0.447715 65.0265 0 65.4742 0 66.0265H2ZM0.570998 77.8539C0.678179 78.3956 1.20427 78.748 1.74605 78.6408C2.28784 78.5336 2.64015 78.0075 2.53297 77.4657L0.570998 77.8539ZM6.71556 87.5566C6.40832 87.0977 5.78721 86.9747 5.32827 87.282C4.86934 87.5892 4.74638 88.2103 5.05362 88.6693L6.71556 87.5566ZM13.3308 96.9465C13.7897 97.2537 14.4108 97.1307 14.7181 96.6718C15.0253 96.2129 14.9024 95.5918 14.4434 95.2845L13.3308 96.9465ZM24.5344 99.4671C23.9926 99.3599 23.4665 99.7122 23.3593 100.254C23.2521 100.796 23.6044 101.322 24.1462 101.429L24.5344 99.4671ZM36.7653 102C37.3176 102 37.7653 101.552 37.7653 101C37.7653 100.448 37.3176 100 36.7653 100V102ZM50.2959 100C49.7436 100 49.2959 100.448 49.2959 101C49.2959 101.552 49.7436 102 50.2959 102V100ZM63.8265 102C64.3787 102 64.8265 101.552 64.8265 101C64.8265 100.448 64.3787 100 63.8265 100V102ZM77.357 100C76.8048 100 76.357 100.448 76.357 101C76.357 101.552 76.8048 102 77.357 102V100ZM90.8876 102C91.4399 102 91.8876 101.552 91.8876 101C91.8876 100.448 91.4399 100 90.8876 100V102ZM104.418 100C103.866 100 103.418 100.448 103.418 101C103.418 101.552 103.866 102 104.418 102V100ZM0 0.316406V6.29005H2V0.316406H0ZM0 18.2373V30.1846H2V18.2373H0ZM0 42.1319V54.0792H2V42.1319H0ZM0 66.0265V72.0001H2V66.0265H0ZM0 72.0001C0 74.0024 0.196297 75.9598 0.570998 77.8539L2.53297 77.4657C2.18342 75.6988 2 73.8714 2 72.0001H0ZM5.05362 88.6693C7.24358 91.9404 10.0597 94.7565 13.3308 96.9465L14.4434 95.2845C11.3896 93.24 8.76008 90.6105 6.71556 87.5566L5.05362 88.6693ZM24.1462 101.429C26.0403 101.804 27.9977 102 30 102V100C28.1287 100 26.3013 99.8167 24.5344 99.4671L24.1462 101.429ZM30 102H36.7653V100H30V102ZM50.2959 102H63.8265V100H50.2959V102ZM77.357 102H90.8876V100H77.357V102ZM104.418 102H111.184V100H104.418V102Z" fill="#B1B1B1"/>
<path d="M101.367 91L111.367 101L101.367 111" stroke="#0B0B0B" stroke-width="2" stroke-linecap="round" stroke-linejoin="round"/>
<path d="M111.367 91L121.367 101L111.367 111" stroke="#0B0B0B" stroke-width="2" stroke-linecap="round" stroke-linejoin="round"/>
</svg>
