<svg width="432" height="277" viewBox="0 0 432 277" fill="none" xmlns="http://www.w3.org/2000/svg">
<rect x="0.288086" y="0.132812" width="431.478" height="276.146" rx="13.8073" fill="#272727"/>
<path d="M24.641 25.5336H27.1609L29.5426 35.1987L32.0452 25.5336H34.4787L36.964 35.1987L39.3458 25.5336H41.8656L38.4138 38.3916H35.7214L33.2533 29.1407L30.7853 38.3916H28.0928L24.641 25.5336ZM47.1181 38.5987C46.2091 38.5987 45.3749 38.3858 44.6155 37.9601C43.8561 37.5344 43.252 36.9476 42.8033 36.1997C42.3661 35.4518 42.1474 34.6176 42.1474 33.6971C42.1474 32.7766 42.3661 31.9424 42.8033 31.1945C43.2405 30.4467 43.8388 29.8598 44.5982 29.4341C45.3576 29.0084 46.1976 28.7955 47.1181 28.7955C48.027 28.7955 48.8555 29.0084 49.6034 29.4341C50.3628 29.8598 50.9611 30.4467 51.3983 31.1945C51.8471 31.9424 52.0714 32.7766 52.0714 33.6971C52.0714 34.6291 51.8471 35.4691 51.3983 36.217C50.9611 36.9648 50.3628 37.5517 49.6034 37.9774C48.844 38.3916 48.0155 38.5987 47.1181 38.5987ZM44.4947 33.6971C44.4947 34.5141 44.7363 35.1929 45.2196 35.7337C45.7143 36.263 46.3472 36.5276 47.1181 36.5276C47.6128 36.5276 48.0558 36.4068 48.447 36.1652C48.8382 35.9235 49.1431 35.5899 49.3618 35.1641C49.5919 34.7269 49.7069 34.2379 49.7069 33.6971C49.7069 33.1678 49.5919 32.6903 49.3618 32.2646C49.1431 31.8274 48.8382 31.488 48.447 31.2463C48.0558 30.9932 47.6128 30.8666 47.1181 30.8666C46.6118 30.8666 46.1573 30.9932 45.7546 31.2463C45.3634 31.488 45.0527 31.8216 44.8226 32.2474C44.604 32.6731 44.4947 33.1563 44.4947 33.6971ZM53.786 29.0026H55.9089V30.3143C56.139 29.8081 56.4669 29.4456 56.8927 29.227C57.3184 29.0084 57.8362 28.8991 58.446 28.8991H58.9983V30.9011H58.1871C57.5428 30.9011 57.025 31.1025 56.6338 31.5052C56.2426 31.9079 56.047 32.4602 56.047 33.1621V38.3916H53.786V29.0026ZM60.2413 25.3264H62.5023V32.7306L66.0577 29.0026H68.8709L65.4018 32.7824L68.9399 38.3916H66.3511L63.7104 34.2149L62.5023 35.5266V38.3916H60.2413V25.3264ZM78.0507 38.5987C77.0382 38.5987 76.158 38.4089 75.4101 38.0292C74.6737 37.6495 74.0984 37.172 73.6842 36.5967C73.27 36.0098 73.0053 35.4 72.8903 34.7672L75.0994 34.1804C75.272 34.8822 75.6172 35.4288 76.135 35.82C76.6527 36.2112 77.3028 36.4068 78.0853 36.4068C78.6836 36.4068 79.1668 36.2572 79.535 35.9581C79.9147 35.6589 80.1046 35.3022 80.1046 34.888C80.1046 34.5083 79.9665 34.1804 79.6903 33.9042C79.4257 33.6166 79.0633 33.4267 78.603 33.3347L76.67 32.955C75.646 32.7594 74.8405 32.3164 74.2537 31.626C73.6669 30.9357 73.3735 30.0957 73.3735 29.1062C73.3735 28.4158 73.5691 27.783 73.9603 27.2077C74.363 26.6209 74.8923 26.1606 75.5482 25.827C76.2155 25.4933 76.9231 25.3264 77.671 25.3264C78.626 25.3264 79.4372 25.4875 80.1046 25.8097C80.7719 26.1319 81.2897 26.5403 81.6579 27.0351C82.0376 27.5184 82.2907 28.0304 82.4173 28.5712L80.2254 29.2615C79.9838 28.6402 79.6558 28.1972 79.2416 27.9326C78.8274 27.6564 78.3039 27.5184 77.671 27.5184C77.3143 27.5184 76.9922 27.5931 76.7045 27.7427C76.4284 27.8923 76.2098 28.0879 76.0487 28.3295C75.8991 28.5597 75.8243 28.7955 75.8243 29.0372C75.8243 29.4169 75.9509 29.7505 76.204 30.0382C76.4571 30.3143 76.8081 30.4927 77.2568 30.5732L79.0863 30.9702C80.2024 31.2118 81.0653 31.672 81.6751 32.3509C82.285 33.0183 82.5899 33.8179 82.5899 34.7499C82.5899 35.4173 82.4058 36.0444 82.0376 36.6312C81.6694 37.218 81.1401 37.6955 80.4498 38.0637C79.7709 38.4204 78.9712 38.5987 78.0507 38.5987ZM87.7928 38.5987C86.6998 38.5987 85.8368 38.2478 85.204 37.5459C84.5711 36.844 84.2547 35.912 84.2547 34.7499V29.0026H86.5157V34.5601C86.5157 35.1469 86.6883 35.6244 87.0334 35.9926C87.3901 36.3493 87.8504 36.5276 88.4142 36.5276C88.978 36.5276 89.4325 36.3435 89.7776 35.9753C90.1343 35.6071 90.3127 35.1181 90.3127 34.5083V29.0026H92.5736V38.3916H90.4335V37.2698C90.1803 37.707 89.8237 38.0407 89.3634 38.2708C88.9147 38.4894 88.3912 38.5987 87.7928 38.5987ZM94.6753 29.0026H96.7982V30.1763C97.0398 29.7275 97.385 29.3881 97.8337 29.158C98.294 28.9163 98.8233 28.7955 99.4216 28.7955C100.043 28.7955 100.612 28.9336 101.13 29.2097C101.648 29.4744 102.045 29.8426 102.321 30.3143C102.632 29.8081 103.034 29.4284 103.529 29.1752C104.036 28.9221 104.605 28.7955 105.238 28.7955C105.894 28.7955 106.486 28.9451 107.016 29.2443C107.545 29.5434 107.959 29.9634 108.258 30.5042C108.557 31.045 108.707 31.6605 108.707 32.3509V38.3916H106.446V32.8859C106.446 32.2646 106.279 31.7756 105.946 31.4189C105.623 31.0507 105.186 30.8666 104.634 30.8666C104.093 30.8666 103.656 31.0507 103.322 31.4189C102.988 31.7871 102.822 32.2761 102.822 32.8859V38.3916H100.561V32.8859C100.561 32.2646 100.394 31.7756 100.06 31.4189C99.738 31.0507 99.3008 30.8666 98.7485 30.8666C98.2077 30.8666 97.7705 31.0507 97.4368 31.4189C97.1031 31.7871 96.9363 32.2761 96.9363 32.8859V38.3916H94.6753V29.0026ZM110.62 29.0026L112.743 29.0026V30.1763C112.984 29.7275 113.329 29.3881 113.778 29.158C114.238 28.9163 114.768 28.7955 115.366 28.7955C115.987 28.7955 116.557 28.9336 117.075 29.2097C117.592 29.4744 117.989 29.8426 118.266 30.3143C118.576 29.8081 118.979 29.4284 119.474 29.1752C119.98 28.9221 120.55 28.7955 121.182 28.7955C121.838 28.7955 122.431 28.9451 122.96 29.2443C123.489 29.5434 123.904 29.9634 124.203 30.5042C124.502 31.045 124.651 31.6605 124.651 32.3509V38.3916H122.391V32.8859C122.391 32.2646 122.224 31.7756 121.89 31.4189C121.568 31.0507 121.131 30.8666 120.578 30.8666C120.038 30.8666 119.6 31.0507 119.267 31.4189C118.933 31.7871 118.766 32.2761 118.766 32.8859V38.3916H116.505V32.8859C116.505 32.2646 116.338 31.7756 116.005 31.4189C115.682 31.0507 115.245 30.8666 114.693 30.8666C114.152 30.8666 113.715 31.0507 113.381 31.4189C113.048 31.7871 112.881 32.2761 112.881 32.8859V38.3916H110.62V29.0026ZM129.412 38.5987C128.422 38.5987 127.634 38.3571 127.047 37.8738C126.472 37.3906 126.185 36.7347 126.185 35.9063C126.185 35.1124 126.455 34.4565 126.996 33.9387C127.537 33.421 128.348 33.0758 129.429 32.9032L132.225 32.4545V32.1438C132.225 31.7296 132.064 31.3901 131.742 31.1255C131.431 30.8609 131.017 30.7285 130.499 30.7285C130.016 30.7285 129.585 30.8609 129.205 31.1255C128.837 31.3786 128.566 31.7181 128.394 32.1438L126.547 31.2463C126.823 30.5099 127.329 29.9174 128.066 29.4686C128.802 29.0199 129.642 28.7955 130.586 28.7955C131.345 28.7955 132.018 28.9394 132.605 29.227C133.203 29.5032 133.663 29.9001 133.986 30.4179C134.319 30.9242 134.486 31.4995 134.486 32.1438V38.3916H132.346V37.3906C131.61 38.196 130.632 38.5987 129.412 38.5987ZM128.532 35.82C128.532 36.1422 128.653 36.401 128.894 36.5967C129.136 36.7807 129.447 36.8728 129.826 36.8728C130.528 36.8728 131.103 36.6542 131.552 36.217C132.001 35.7682 132.225 35.2159 132.225 34.5601V34.1804L129.861 34.5773C129.412 34.6694 129.078 34.819 128.86 35.0261C128.641 35.2217 128.532 35.4863 128.532 35.82ZM136.576 29.0026H138.699V30.3143C138.929 29.8081 139.257 29.4456 139.683 29.227C140.108 29.0084 140.626 28.8991 141.236 28.8991H141.788V30.9011H140.977C140.333 30.9011 139.815 31.1025 139.424 31.5052C139.032 31.9079 138.837 32.4602 138.837 33.1621V38.3916H136.576V29.0026ZM145.827 38.2535L142.168 29.0026H144.602L147.035 35.4748L149.452 29.0026H151.902L146.828 41.8434H144.395L145.827 38.2535Z" fill="white"/>
<path d="M59.487 250.325H59.9116C60.2775 250.325 60.5674 250.218 60.7814 250.004C60.9955 249.783 61.1025 249.486 61.1025 249.113V243.594H62.1277V249.093C62.1277 249.769 61.9275 250.308 61.527 250.708C61.1266 251.108 60.5881 251.309 59.9116 251.309H59.487V250.325ZM65.3455 251.433C64.7932 251.433 64.3445 251.288 63.9993 250.998C63.6541 250.701 63.4816 250.318 63.4816 249.848C63.4816 249.393 63.63 249.013 63.9268 248.709C64.2306 248.399 64.6897 248.192 65.3041 248.088L67.2095 247.777V247.518C67.2095 247.215 67.0956 246.97 66.8678 246.783C66.64 246.59 66.3466 246.493 65.9876 246.493C65.67 246.493 65.387 246.576 65.1384 246.742C64.8968 246.901 64.7173 247.115 64.5999 247.384L63.7612 246.949C63.9199 246.562 64.2099 246.241 64.631 245.986C65.0521 245.73 65.5112 245.603 66.0083 245.603C66.4294 245.603 66.8022 245.686 67.1267 245.851C67.4581 246.01 67.7135 246.234 67.893 246.524C68.0794 246.814 68.1726 247.146 68.1726 247.518V251.309H67.2302V250.584C67.03 250.846 66.7642 251.053 66.4329 251.205C66.1084 251.357 65.746 251.433 65.3455 251.433ZM64.4964 249.817C64.4964 250.045 64.5861 250.235 64.7656 250.387C64.952 250.539 65.1833 250.615 65.4595 250.615C65.7977 250.615 66.098 250.542 66.3604 250.397C66.6296 250.245 66.8367 250.042 66.9817 249.786C67.1336 249.531 67.2095 249.248 67.2095 248.937V248.585L65.5216 248.865C64.8381 248.982 64.4964 249.3 64.4964 249.817ZM69.6658 245.727H70.6081V246.41C70.7738 246.148 70.9947 245.948 71.2709 245.81C71.547 245.672 71.8577 245.603 72.2029 245.603C72.5964 245.603 72.9519 245.696 73.2695 245.882C73.5871 246.062 73.8356 246.31 74.0151 246.628C74.2015 246.945 74.2947 247.301 74.2947 247.695V251.309H73.3213V248.005C73.3213 247.55 73.197 247.191 72.9485 246.928C72.7069 246.666 72.3858 246.535 71.9854 246.535C71.585 246.535 71.2571 246.669 71.0017 246.939C70.7531 247.201 70.6289 247.556 70.6289 248.005V251.309H69.6658V245.727Z" fill="white"/>
<path d="M26.294 217.723H24.8338V216.843H27.3192V224.558H26.294V217.723ZM32.1638 224.682C31.5563 224.682 31.0213 224.516 30.5587 224.185C30.0962 223.853 29.7372 223.387 29.4817 222.787C29.2263 222.179 29.0986 221.482 29.0986 220.695C29.0986 219.908 29.2263 219.214 29.4817 218.614C29.7372 218.013 30.0927 217.547 30.5484 217.216C31.0109 216.884 31.5459 216.719 32.1535 216.719C32.761 216.719 33.296 216.884 33.7586 217.216C34.2211 217.547 34.5801 218.013 34.8355 218.614C35.091 219.214 35.2187 219.908 35.2187 220.695C35.2187 221.482 35.091 222.179 34.8355 222.787C34.5801 223.387 34.2211 223.853 33.7586 224.185C33.3029 224.516 32.7713 224.682 32.1638 224.682ZM30.1134 220.695C30.1134 221.303 30.1963 221.838 30.362 222.3C30.5346 222.756 30.7762 223.111 31.0868 223.367C31.3975 223.615 31.7565 223.74 32.1638 223.74C32.5711 223.74 32.9267 223.615 33.2304 223.367C33.5411 223.111 33.7793 222.756 33.945 222.3C34.1175 221.838 34.2038 221.303 34.2038 220.695C34.2038 220.088 34.1175 219.556 33.945 219.1C33.7793 218.645 33.5411 218.293 33.2304 218.044C32.9198 217.789 32.5608 217.661 32.1535 217.661C31.7461 217.661 31.3872 217.789 31.0765 218.044C30.7727 218.293 30.5346 218.645 30.362 219.1C30.1963 219.556 30.1134 220.088 30.1134 220.695ZM39.6574 224.682C39.0499 224.682 38.5148 224.516 38.0523 224.185C37.5897 223.853 37.2307 223.387 36.9753 222.787C36.7199 222.179 36.5922 221.482 36.5922 220.695C36.5922 219.908 36.7199 219.214 36.9753 218.614C37.2307 218.013 37.5863 217.547 38.0419 217.216C38.5045 216.884 39.0395 216.719 39.647 216.719C40.2545 216.719 40.7896 216.884 41.2521 217.216C41.7147 217.547 42.0737 218.013 42.3291 218.614C42.5845 219.214 42.7122 219.908 42.7122 220.695C42.7122 221.482 42.5845 222.179 42.3291 222.787C42.0737 223.387 41.7147 223.853 41.2521 224.185C40.7965 224.516 40.2649 224.682 39.6574 224.682ZM37.607 220.695C37.607 221.303 37.6898 221.838 37.8555 222.3C38.0281 222.756 38.2697 223.111 38.5804 223.367C38.8911 223.615 39.2501 223.74 39.6574 223.74C40.0647 223.74 40.4202 223.615 40.724 223.367C41.0347 223.111 41.2728 222.756 41.4385 222.3C41.6111 221.838 41.6974 221.303 41.6974 220.695C41.6974 220.088 41.6111 219.556 41.4385 219.1C41.2728 218.645 41.0347 218.293 40.724 218.044C40.4133 217.789 40.0543 217.661 39.647 217.661C39.2397 217.661 38.8807 217.789 38.57 218.044C38.2663 218.293 38.0281 218.645 37.8555 219.1C37.6898 219.556 37.607 220.088 37.607 220.695Z" fill="white"/>
<path d="M25.0099 176.391L27.1431 174.081L27.3295 173.885C27.7713 173.408 28.0889 173.053 28.2822 172.818C28.4824 172.576 28.6308 172.352 28.7275 172.145C28.831 171.931 28.8828 171.706 28.8828 171.472C28.8828 171.057 28.7586 170.736 28.51 170.509C28.2684 170.274 27.9405 170.157 27.5263 170.157C27.112 170.157 26.76 170.277 26.47 170.519C26.18 170.754 25.9798 171.089 25.8694 171.523L24.9477 171.285C25.0789 170.664 25.3792 170.17 25.8487 169.804C26.3181 169.439 26.8773 169.256 27.5263 169.256C27.9888 169.256 28.3996 169.349 28.7586 169.535C29.1245 169.715 29.4075 169.97 29.6077 170.302C29.8079 170.626 29.908 170.999 29.908 171.42C29.908 171.827 29.7872 172.228 29.5456 172.621C29.3109 173.008 28.9035 173.515 28.3236 174.143L26.4182 176.215H30.0737V177.095H25.0099V176.391ZM34.4088 177.219C33.8013 177.219 33.2663 177.053 32.8037 176.722C32.3412 176.391 31.9822 175.925 31.7268 175.324C31.4713 174.716 31.3436 174.019 31.3436 173.232C31.3436 172.445 31.4713 171.751 31.7268 171.151C31.9822 170.55 32.3378 170.084 32.7934 169.753C33.2559 169.421 33.791 169.256 34.3985 169.256C35.006 169.256 35.541 169.421 36.0036 169.753C36.4661 170.084 36.8251 170.55 37.0806 171.151C37.336 171.751 37.4637 172.445 37.4637 173.232C37.4637 174.019 37.336 174.716 37.0806 175.324C36.8251 175.925 36.4661 176.391 36.0036 176.722C35.548 177.053 35.0164 177.219 34.4088 177.219ZM32.3585 173.232C32.3585 173.84 32.4413 174.375 32.607 174.837C32.7796 175.293 33.0212 175.648 33.3319 175.904C33.6425 176.152 34.0015 176.277 34.4088 176.277C34.8162 176.277 35.1717 176.152 35.4755 175.904C35.7861 175.648 36.0243 175.293 36.19 174.837C36.3626 174.375 36.4489 173.84 36.4489 173.232C36.4489 172.625 36.3626 172.093 36.19 171.637C36.0243 171.182 35.7861 170.83 35.4755 170.581C35.1648 170.326 34.8058 170.198 34.3985 170.198C33.9912 170.198 33.6322 170.326 33.3215 170.581C33.0178 170.83 32.7796 171.182 32.607 171.637C32.4413 172.093 32.3585 172.625 32.3585 173.232ZM41.9024 177.219C41.2949 177.219 40.7599 177.053 40.2973 176.722C39.8348 176.391 39.4758 175.925 39.2203 175.324C38.9649 174.716 38.8372 174.019 38.8372 173.232C38.8372 172.445 38.9649 171.751 39.2203 171.151C39.4758 170.55 39.8313 170.084 40.287 169.753C40.7495 169.421 41.2845 169.256 41.8921 169.256C42.4996 169.256 43.0346 169.421 43.4972 169.753C43.9597 170.084 44.3187 170.55 44.5741 171.151C44.8296 171.751 44.9573 172.445 44.9573 173.232C44.9573 174.019 44.8296 174.716 44.5741 175.324C44.3187 175.925 43.9597 176.391 43.4972 176.722C43.0415 177.053 42.5099 177.219 41.9024 177.219ZM39.852 173.232C39.852 173.84 39.9349 174.375 40.1006 174.837C40.2731 175.293 40.5148 175.648 40.8254 175.904C41.1361 176.152 41.4951 176.277 41.9024 176.277C42.3097 176.277 42.6653 176.152 42.969 175.904C43.2797 175.648 43.5179 175.293 43.6836 174.837C43.8561 174.375 43.9424 173.84 43.9424 173.232C43.9424 172.625 43.8561 172.093 43.6836 171.637C43.5179 171.182 43.2797 170.83 42.969 170.581C42.6584 170.326 42.2994 170.198 41.8921 170.198C41.4847 170.198 41.1257 170.326 40.8151 170.581C40.5113 170.83 40.2731 171.182 40.1006 171.637C39.9349 172.093 39.852 172.625 39.852 173.232Z" fill="white"/>
<path d="M27.4957 129.756C26.8813 129.756 26.3359 129.597 25.8595 129.28C25.3832 128.962 25.0552 128.527 24.8757 127.975L25.7353 127.623C25.8802 128.003 26.108 128.303 26.4187 128.524C26.7294 128.738 27.0884 128.845 27.4957 128.845C27.9858 128.845 28.3828 128.707 28.6866 128.431C28.9903 128.148 29.1422 127.761 29.1422 127.271C29.1422 126.781 28.9869 126.397 28.6762 126.121C28.3724 125.838 27.9755 125.697 27.4853 125.697C27.2782 125.697 27.0642 125.724 26.8433 125.78L26.6258 125.314L28.6866 122.797H25.2693V121.917H29.836V122.766L28.0756 124.941C28.6969 125.017 29.1974 125.265 29.5771 125.686C29.9637 126.101 30.157 126.622 30.157 127.25C30.157 127.713 30.0431 128.137 29.8153 128.524C29.5875 128.904 29.2699 129.204 28.8626 129.425C28.4622 129.646 28.0066 129.756 27.4957 129.756ZM34.5307 129.756C33.9232 129.756 33.3881 129.59 32.9256 129.259C32.463 128.928 32.1041 128.462 31.8486 127.861C31.5932 127.254 31.4655 126.556 31.4655 125.769C31.4655 124.982 31.5932 124.288 31.8486 123.688C32.1041 123.087 32.4596 122.621 32.9152 122.29C33.3778 121.958 33.9128 121.793 34.5203 121.793C35.1279 121.793 35.6629 121.958 36.1254 122.29C36.588 122.621 36.947 123.087 37.2024 123.688C37.4578 124.288 37.5856 124.982 37.5856 125.769C37.5856 126.556 37.4578 127.254 37.2024 127.861C36.947 128.462 36.588 128.928 36.1254 129.259C35.6698 129.59 35.1382 129.756 34.5307 129.756ZM32.4803 125.769C32.4803 126.377 32.5631 126.912 32.7288 127.374C32.9014 127.83 33.1431 128.186 33.4537 128.441C33.7644 128.689 34.1234 128.814 34.5307 128.814C34.938 128.814 35.2935 128.689 35.5973 128.441C35.908 128.186 36.1461 127.83 36.3118 127.374C36.4844 126.912 36.5707 126.377 36.5707 125.769C36.5707 125.162 36.4844 124.63 36.3118 124.175C36.1461 123.719 35.908 123.367 35.5973 123.118C35.2866 122.863 34.9276 122.735 34.5203 122.735C34.113 122.735 33.754 122.863 33.4434 123.118C33.1396 123.367 32.9014 123.719 32.7288 124.175C32.5631 124.63 32.4803 125.162 32.4803 125.769ZM42.0243 129.756C41.4167 129.756 40.8817 129.59 40.4192 129.259C39.9566 128.928 39.5976 128.462 39.3422 127.861C39.0867 127.254 38.959 126.556 38.959 125.769C38.959 124.982 39.0867 124.288 39.3422 123.688C39.5976 123.087 39.9532 122.621 40.4088 122.29C40.8713 121.958 41.4064 121.793 42.0139 121.793C42.6214 121.793 43.1564 121.958 43.619 122.29C44.0815 122.621 44.4405 123.087 44.696 123.688C44.9514 124.288 45.0791 124.982 45.0791 125.769C45.0791 126.556 44.9514 127.254 44.696 127.861C44.4405 128.462 44.0815 128.928 43.619 129.259C43.1634 129.59 42.6318 129.756 42.0243 129.756ZM39.9739 125.769C39.9739 126.377 40.0567 126.912 40.2224 127.374C40.395 127.83 40.6366 128.186 40.9473 128.441C41.2579 128.689 41.6169 128.814 42.0243 128.814C42.4316 128.814 42.7871 128.689 43.0909 128.441C43.4015 128.186 43.6397 127.83 43.8054 127.374C43.978 126.912 44.0643 126.377 44.0643 125.769C44.0643 125.162 43.978 124.63 43.8054 124.175C43.6397 123.719 43.4015 123.367 43.0909 123.118C42.7802 122.863 42.4212 122.735 42.0139 122.735C41.6066 122.735 41.2476 122.863 40.9369 123.118C40.6332 123.367 40.395 123.719 40.2224 124.175C40.0567 124.63 39.9739 125.162 39.9739 125.769Z" fill="white"/>
<path d="M28.6866 80.3878H24.8965V79.549L28.6659 74.4541H29.6393V79.549H30.6437V80.3878H29.6393V82.1689H28.6866V80.3878ZM28.6866 79.549V75.79L25.932 79.549H28.6866ZM34.8138 82.2932C34.2063 82.2932 33.6713 82.1275 33.2087 81.7961C32.7462 81.4648 32.3872 80.9988 32.1318 80.3982C31.8763 79.7906 31.7486 79.0934 31.7486 78.3064C31.7486 77.5193 31.8763 76.8255 32.1318 76.2249C32.3872 75.6243 32.7428 75.1583 33.1984 74.8269C33.6609 74.4955 34.196 74.3299 34.8035 74.3299C35.411 74.3299 35.946 74.4955 36.4086 74.8269C36.8711 75.1583 37.2301 75.6243 37.4856 76.2249C37.741 76.8255 37.8687 77.5193 37.8687 78.3064C37.8687 79.0934 37.741 79.7906 37.4856 80.3982C37.2301 80.9988 36.8711 81.4648 36.4086 81.7961C35.9529 82.1275 35.4214 82.2932 34.8138 82.2932ZM32.7635 78.3064C32.7635 78.9139 32.8463 79.4489 33.012 79.9115C33.1846 80.3671 33.4262 80.7226 33.7369 80.9781C34.0475 81.2266 34.4065 81.3509 34.8138 81.3509C35.2212 81.3509 35.5767 81.2266 35.8805 80.9781C36.1911 80.7226 36.4293 80.3671 36.595 79.9115C36.7676 79.4489 36.8539 78.9139 36.8539 78.3064C36.8539 77.6988 36.7676 77.1673 36.595 76.7116C36.4293 76.256 36.1911 75.9039 35.8805 75.6554C35.5698 75.3999 35.2108 75.2722 34.8035 75.2722C34.3962 75.2722 34.0372 75.3999 33.7265 75.6554C33.4228 75.9039 33.1846 76.256 33.012 76.7116C32.8463 77.1673 32.7635 77.6988 32.7635 78.3064ZM42.3074 82.2932C41.6999 82.2932 41.1649 82.1275 40.7023 81.7961C40.2398 81.4648 39.8808 80.9988 39.6253 80.3982C39.3699 79.7906 39.2422 79.0934 39.2422 78.3064C39.2422 77.5193 39.3699 76.8255 39.6253 76.2249C39.8808 75.6243 40.2363 75.1583 40.692 74.8269C41.1545 74.4955 41.6895 74.3299 42.2971 74.3299C42.9046 74.3299 43.4396 74.4955 43.9022 74.8269C44.3647 75.1583 44.7237 75.6243 44.9791 76.2249C45.2346 76.8255 45.3623 77.5193 45.3623 78.3064C45.3623 79.0934 45.2346 79.7906 44.9791 80.3982C44.7237 80.9988 44.3647 81.4648 43.9022 81.7961C43.4465 82.1275 42.9149 82.2932 42.3074 82.2932ZM40.257 78.3064C40.257 78.9139 40.3399 79.4489 40.5056 79.9115C40.6781 80.3671 40.9198 80.7226 41.2304 80.9781C41.5411 81.2266 41.9001 81.3509 42.3074 81.3509C42.7147 81.3509 43.0703 81.2266 43.374 80.9781C43.6847 80.7226 43.9229 80.3671 44.0885 79.9115C44.2611 79.4489 44.3474 78.9139 44.3474 78.3064C44.3474 77.6988 44.2611 77.1673 44.0885 76.7116C43.9229 76.256 43.6847 75.9039 43.374 75.6554C43.0634 75.3999 42.7044 75.2722 42.2971 75.2722C41.8897 75.2722 41.5307 75.3999 41.2201 75.6554C40.9163 75.9039 40.6781 76.256 40.5056 76.7116C40.3399 77.1673 40.257 77.6988 40.257 78.3064Z" fill="white"/>
<path d="M104.703 243.594H109.591V244.526H105.718V247.021H109.228V247.953H105.718V251.309H104.703V243.594ZM113.012 251.433C112.488 251.433 112.011 251.305 111.583 251.05C111.155 250.794 110.82 250.446 110.579 250.004C110.337 249.555 110.216 249.055 110.216 248.502C110.216 247.95 110.334 247.453 110.568 247.011C110.81 246.569 111.135 246.224 111.542 245.976C111.956 245.727 112.419 245.603 112.929 245.603C113.461 245.603 113.924 245.727 114.317 245.976C114.718 246.224 115.021 246.555 115.228 246.97C115.442 247.377 115.549 247.815 115.549 248.285C115.549 248.444 115.532 248.616 115.498 248.803H111.231C111.245 249.155 111.335 249.462 111.5 249.724C111.666 249.987 111.88 250.19 112.142 250.335C112.412 250.48 112.705 250.553 113.023 250.553C113.699 250.553 114.22 250.245 114.586 249.631L115.394 250.045C115.215 250.446 114.911 250.777 114.483 251.039C114.055 251.302 113.565 251.433 113.012 251.433ZM114.503 247.974C114.49 247.539 114.331 247.18 114.027 246.897C113.73 246.607 113.364 246.462 112.929 246.462C112.501 246.462 112.132 246.6 111.821 246.876C111.511 247.146 111.321 247.512 111.252 247.974H114.503ZM119.694 251.433C119.287 251.433 118.914 251.353 118.576 251.195C118.238 251.029 117.961 250.798 117.747 250.501V251.309H116.805V243.469H117.768V246.483C117.989 246.207 118.265 245.993 118.597 245.841C118.935 245.682 119.304 245.603 119.705 245.603C120.222 245.603 120.692 245.73 121.113 245.986C121.534 246.241 121.865 246.593 122.107 247.042C122.349 247.484 122.47 247.978 122.47 248.523C122.47 249.068 122.349 249.562 122.107 250.004C121.865 250.446 121.534 250.794 121.113 251.05C120.692 251.305 120.219 251.433 119.694 251.433ZM117.768 248.523C117.768 248.896 117.848 249.234 118.006 249.538C118.172 249.835 118.396 250.069 118.679 250.242C118.962 250.415 119.277 250.501 119.622 250.501C119.967 250.501 120.278 250.415 120.554 250.242C120.837 250.069 121.054 249.835 121.206 249.538C121.365 249.234 121.444 248.896 121.444 248.523C121.444 248.15 121.365 247.812 121.206 247.508C121.047 247.204 120.83 246.966 120.554 246.794C120.278 246.621 119.967 246.535 119.622 246.535C119.277 246.535 118.962 246.621 118.679 246.794C118.396 246.966 118.172 247.204 118.006 247.508C117.848 247.812 117.768 248.15 117.768 248.523Z" fill="white"/>
<path d="M151.302 243.594H152.234L154.885 247.363L157.515 243.594H158.447V251.309H157.422V245.499L154.916 249.03H154.833L152.317 245.447V251.309H151.302V243.594ZM161.683 251.433C161.131 251.433 160.682 251.288 160.337 250.998C159.992 250.701 159.819 250.318 159.819 249.848C159.819 249.393 159.967 249.013 160.264 248.709C160.568 248.399 161.027 248.192 161.642 248.088L163.547 247.777V247.518C163.547 247.215 163.433 246.97 163.205 246.783C162.977 246.59 162.684 246.493 162.325 246.493C162.007 246.493 161.724 246.576 161.476 246.742C161.234 246.901 161.055 247.115 160.937 247.384L160.099 246.949C160.257 246.562 160.547 246.241 160.968 245.986C161.39 245.73 161.849 245.603 162.346 245.603C162.767 245.603 163.14 245.686 163.464 245.851C163.795 246.01 164.051 246.234 164.23 246.524C164.417 246.814 164.51 247.146 164.51 247.518V251.309H163.568V250.584C163.367 250.846 163.102 251.053 162.77 251.205C162.446 251.357 162.083 251.433 161.683 251.433ZM160.834 249.817C160.834 250.045 160.924 250.235 161.103 250.387C161.289 250.539 161.521 250.615 161.797 250.615C162.135 250.615 162.435 250.542 162.698 250.397C162.967 250.245 163.174 250.042 163.319 249.786C163.471 249.531 163.547 249.248 163.547 248.937V248.585L161.859 248.865C161.176 248.982 160.834 249.3 160.834 249.817ZM166.003 245.727H166.946V246.39C167.235 245.906 167.729 245.665 168.426 245.665H168.768V246.576H168.281C167.881 246.576 167.56 246.7 167.318 246.949C167.084 247.197 166.966 247.543 166.966 247.984V251.309H166.003V245.727Z" fill="white"/>
<path d="M200.784 243.594H201.985L204.75 251.309H203.662L203.031 249.496H199.738L199.106 251.309H198.019L200.784 243.594ZM202.71 248.564L201.384 244.743L200.059 248.564H202.71ZM205.608 245.727H206.55V246.504C206.771 246.221 207.047 246 207.379 245.841C207.717 245.682 208.093 245.603 208.507 245.603C209.025 245.603 209.495 245.73 209.916 245.986C210.337 246.241 210.668 246.593 210.91 247.042C211.152 247.484 211.272 247.978 211.272 248.523C211.272 249.068 211.152 249.562 210.91 250.004C210.668 250.446 210.337 250.794 209.916 251.05C209.495 251.305 209.022 251.433 208.497 251.433C208.097 251.433 207.727 251.357 207.389 251.205C207.058 251.046 206.785 250.822 206.571 250.532V253.38H205.608V245.727ZM206.571 248.523C206.571 248.896 206.65 249.234 206.809 249.538C206.975 249.835 207.199 250.069 207.482 250.242C207.765 250.415 208.079 250.501 208.425 250.501C208.77 250.501 209.08 250.415 209.357 250.242C209.64 250.069 209.857 249.835 210.009 249.538C210.168 249.234 210.247 248.896 210.247 248.523C210.247 248.15 210.168 247.812 210.009 247.508C209.85 247.204 209.633 246.966 209.357 246.794C209.08 246.621 208.77 246.535 208.425 246.535C208.079 246.535 207.765 246.621 207.482 246.794C207.199 246.966 206.975 247.204 206.809 247.508C206.65 247.812 206.571 248.15 206.571 248.523ZM212.535 245.727H213.478V246.39C213.768 245.906 214.261 245.665 214.958 245.665H215.3V246.576H214.813C214.413 246.576 214.092 246.7 213.85 246.949C213.616 247.197 213.498 247.543 213.498 247.984V251.309H212.535V245.727Z" fill="white"/>
<path d="M243.638 243.594H244.57L247.221 247.363L249.852 243.594H250.784V251.309H249.758V245.499L247.252 249.03H247.17L244.653 245.447V251.309H243.638V243.594ZM254.019 251.433C253.467 251.433 253.018 251.288 252.673 250.998C252.328 250.701 252.155 250.318 252.155 249.848C252.155 249.393 252.304 249.013 252.601 248.709C252.904 248.399 253.364 248.192 253.978 248.088L255.883 247.777V247.518C255.883 247.215 255.769 246.97 255.542 246.783C255.314 246.59 255.02 246.493 254.661 246.493C254.344 246.493 254.061 246.576 253.812 246.742C253.571 246.901 253.391 247.115 253.274 247.384L252.435 246.949C252.594 246.562 252.884 246.241 253.305 245.986C253.726 245.73 254.185 245.603 254.682 245.603C255.103 245.603 255.476 245.686 255.8 245.851C256.132 246.01 256.387 246.234 256.567 246.524C256.753 246.814 256.846 247.146 256.846 247.518V251.309H255.904V250.584C255.704 250.846 255.438 251.053 255.107 251.205C254.782 251.357 254.42 251.433 254.019 251.433ZM253.17 249.817C253.17 250.045 253.26 250.235 253.439 250.387C253.626 250.539 253.857 250.615 254.133 250.615C254.472 250.615 254.772 250.542 255.034 250.397C255.303 250.245 255.511 250.042 255.656 249.786C255.807 249.531 255.883 249.248 255.883 248.937V248.585L254.195 248.865C253.512 248.982 253.17 249.3 253.17 249.817ZM259.924 251.298L257.708 245.727H258.754L260.452 250.087L262.14 245.727H263.207L260.121 253.38H259.054L259.924 251.298Z" fill="white"/>
<path d="M292.485 250.325H292.91C293.276 250.325 293.565 250.218 293.779 250.004C293.994 249.783 294.101 249.486 294.101 249.113V243.594H295.126V249.093C295.126 249.769 294.925 250.308 294.525 250.708C294.125 251.108 293.586 251.309 292.91 251.309H292.485V250.325ZM298.685 251.433C298.285 251.433 297.926 251.34 297.608 251.153C297.291 250.967 297.042 250.708 296.863 250.377C296.683 250.038 296.594 249.652 296.594 249.217V245.727H297.557V249.113C297.557 249.527 297.681 249.862 297.929 250.118C298.178 250.373 298.502 250.501 298.903 250.501C299.303 250.501 299.628 250.37 299.876 250.107C300.125 249.838 300.249 249.479 300.249 249.03V245.727H301.222V251.309H300.28V250.625C300.114 250.887 299.893 251.088 299.617 251.226C299.341 251.364 299.031 251.433 298.685 251.433ZM302.714 245.727H303.657V246.41C303.822 246.148 304.043 245.948 304.32 245.81C304.596 245.672 304.906 245.603 305.251 245.603C305.645 245.603 306.001 245.696 306.318 245.882C306.636 246.062 306.884 246.31 307.064 246.628C307.25 246.945 307.343 247.301 307.343 247.695V251.309H306.37V248.005C306.37 247.55 306.246 247.191 305.997 246.928C305.755 246.666 305.434 246.535 305.034 246.535C304.634 246.535 304.306 246.669 304.05 246.939C303.802 247.201 303.677 247.556 303.677 248.005V251.309H302.714V245.727Z" fill="white"/>
<path d="M340.811 250.325H341.235C341.601 250.325 341.891 250.218 342.105 250.004C342.319 249.783 342.426 249.486 342.426 249.113V243.594H343.451V249.093C343.451 249.769 343.251 250.308 342.851 250.708C342.45 251.108 341.912 251.309 341.235 251.309H340.811V250.325ZM347.011 251.433C346.611 251.433 346.252 251.34 345.934 251.153C345.616 250.967 345.368 250.708 345.188 250.377C345.009 250.038 344.919 249.652 344.919 249.217V245.727H345.882V249.113C345.882 249.527 346.007 249.862 346.255 250.118C346.504 250.373 346.828 250.501 347.228 250.501C347.629 250.501 347.953 250.37 348.202 250.107C348.45 249.838 348.575 249.479 348.575 249.03V245.727H349.548V251.309H348.606V250.625C348.44 250.887 348.219 251.088 347.943 251.226C347.667 251.364 347.356 251.433 347.011 251.433ZM351.04 243.469H352.003V251.309H351.04V243.469Z" fill="white"/>
<path d="M386.32 243.594H387.521L390.286 251.309H389.199L388.567 249.496H385.274L384.642 251.309H383.555L386.32 243.594ZM388.246 248.564L386.92 244.743L385.595 248.564H388.246ZM393.021 251.433C392.62 251.433 392.261 251.34 391.944 251.153C391.626 250.967 391.378 250.708 391.198 250.377C391.019 250.038 390.929 249.652 390.929 249.217V245.727H391.892V249.113C391.892 249.527 392.016 249.862 392.265 250.118C392.513 250.373 392.838 250.501 393.238 250.501C393.639 250.501 393.963 250.37 394.212 250.107C394.46 249.838 394.585 249.479 394.585 249.03V245.727H395.558V251.309H394.616V250.625C394.45 250.887 394.229 251.088 393.953 251.226C393.677 251.364 393.366 251.433 393.021 251.433ZM399.711 253.587C399.125 253.587 398.607 253.452 398.158 253.183C397.716 252.921 397.402 252.569 397.216 252.127L398.117 251.712C398.22 251.989 398.41 252.213 398.686 252.386C398.962 252.565 399.301 252.655 399.701 252.655C400.191 252.655 400.598 252.513 400.923 252.23C401.247 251.954 401.41 251.567 401.41 251.07V250.294C401.202 250.577 400.937 250.794 400.612 250.946C400.288 251.098 399.936 251.174 399.556 251.174C399.038 251.174 398.572 251.053 398.158 250.812C397.744 250.563 397.416 250.228 397.174 249.807C396.939 249.379 396.822 248.906 396.822 248.388C396.822 247.871 396.939 247.401 397.174 246.98C397.409 246.552 397.733 246.217 398.148 245.976C398.562 245.727 399.028 245.603 399.546 245.603C399.932 245.603 400.288 245.682 400.612 245.841C400.937 245.993 401.213 246.214 401.441 246.504V245.727H402.383V251.07C402.383 251.554 402.269 251.985 402.041 252.365C401.813 252.745 401.496 253.041 401.089 253.255C400.681 253.476 400.222 253.587 399.711 253.587ZM397.837 248.388C397.837 248.727 397.913 249.037 398.065 249.32C398.224 249.603 398.441 249.828 398.717 249.993C398.993 250.159 399.301 250.242 399.639 250.242C399.963 250.242 400.26 250.159 400.529 249.993C400.806 249.828 401.02 249.603 401.171 249.32C401.33 249.037 401.41 248.727 401.41 248.388C401.41 248.05 401.33 247.739 401.171 247.456C401.02 247.173 400.806 246.949 400.529 246.783C400.26 246.618 399.963 246.535 399.639 246.535C399.301 246.535 398.993 246.618 398.717 246.783C398.448 246.949 398.234 247.173 398.075 247.456C397.916 247.739 397.837 248.05 397.837 248.388Z" fill="white"/>
<path d="M66.7358 69.1689L66.7358 231.405" stroke="#3D3D3D" stroke-width="0.862956" stroke-linecap="round" stroke-dasharray="0.86 6.9"/>
<path d="M113.335 69.1689L113.335 231.405" stroke="#3D3D3D" stroke-width="0.862956" stroke-linecap="round" stroke-dasharray="0.86 6.9"/>
<path d="M159.935 69.1689L159.935 231.405" stroke="#3D3D3D" stroke-width="0.862956" stroke-linecap="round" stroke-dasharray="0.86 6.9"/>
<path d="M206.534 69.1689L206.534 231.405" stroke="#3D3D3D" stroke-width="0.862956" stroke-linecap="round" stroke-dasharray="0.86 6.9"/>
<path d="M253.135 69.1689L253.135 231.405" stroke="#3D3D3D" stroke-width="0.862956" stroke-linecap="round" stroke-dasharray="0.86 6.9"/>
<path d="M299.734 69.1689L299.734 231.405" stroke="#3D3D3D" stroke-width="0.862956" stroke-linecap="round" stroke-dasharray="0.86 6.9"/>
<path d="M346.333 69.1689L346.334 231.405" stroke="#3D3D3D" stroke-width="0.862956" stroke-linecap="round" stroke-dasharray="0.86 6.9"/>
<path d="M392.933 69.1689L392.933 231.405" stroke="#3D3D3D" stroke-width="0.862956" stroke-linecap="round" stroke-dasharray="0.86 6.9"/>
<path d="M336.838 27.9922H337.852V34.775H341.239V35.707H336.838V27.9922ZM343.902 35.8313C343.349 35.8313 342.901 35.6863 342.555 35.3964C342.21 35.0995 342.038 34.7164 342.038 34.2469C342.038 33.7913 342.186 33.4116 342.483 33.1078C342.787 32.7971 343.246 32.59 343.86 32.4865L345.766 32.1758V31.9169C345.766 31.6132 345.652 31.3681 345.424 31.1817C345.196 30.9884 344.903 30.8917 344.544 30.8917C344.226 30.8917 343.943 30.9746 343.694 31.1403C343.453 31.2991 343.273 31.5131 343.156 31.7823L342.317 31.3474C342.476 30.9608 342.766 30.6398 343.187 30.3843C343.608 30.1289 344.067 30.0012 344.564 30.0012C344.985 30.0012 345.358 30.084 345.683 30.2497C346.014 30.4085 346.27 30.6328 346.449 30.9228C346.635 31.2128 346.729 31.5441 346.729 31.9169V35.707H345.786V34.9821C345.586 35.2445 345.32 35.4516 344.989 35.6035C344.664 35.7554 344.302 35.8313 343.902 35.8313ZM343.052 34.2158C343.052 34.4437 343.142 34.6335 343.322 34.7854C343.508 34.9373 343.739 35.0132 344.015 35.0132C344.354 35.0132 344.654 34.9407 344.916 34.7957C345.186 34.6439 345.393 34.4402 345.538 34.1848C345.69 33.9293 345.766 33.6463 345.766 33.3356V32.9835L344.078 33.2631C343.394 33.3805 343.052 33.6981 343.052 34.2158ZM350.22 35.8313C349.682 35.8313 349.206 35.7001 348.791 35.4378C348.377 35.1685 348.08 34.8061 347.901 34.3505L348.677 33.957C348.836 34.2814 349.054 34.5369 349.33 34.7233C349.606 34.9097 349.906 35.0029 350.231 35.0029C350.541 35.0029 350.797 34.9304 350.997 34.7854C351.197 34.6404 351.297 34.4506 351.297 34.2158C351.297 33.988 351.208 33.8051 351.028 33.667C350.849 33.522 350.655 33.4357 350.448 33.4081L349.609 33.2942C349.112 33.1699 348.74 32.9628 348.491 32.6729C348.243 32.3829 348.118 32.0412 348.118 31.6477C348.118 31.3232 348.201 31.0367 348.367 30.7882C348.539 30.5396 348.774 30.3463 349.071 30.2083C349.375 30.0702 349.71 30.0012 350.075 30.0012C350.559 30.0012 350.99 30.122 351.37 30.3636C351.757 30.6052 352.033 30.9401 352.198 31.3681L351.432 31.7616C351.294 31.4785 351.101 31.2542 350.852 31.0885C350.611 30.9228 350.341 30.84 350.044 30.84C349.761 30.84 349.534 30.909 349.361 31.0471C349.188 31.1851 349.102 31.3646 349.102 31.5856C349.102 31.8134 349.181 31.9963 349.34 32.1344C349.506 32.2656 349.685 32.3484 349.879 32.3829L350.8 32.5072C351.263 32.6315 351.622 32.8455 351.877 33.1492C352.14 33.4461 352.271 33.7913 352.271 34.1848C352.271 34.5023 352.185 34.7854 352.012 35.0339C351.839 35.2825 351.598 35.4792 351.287 35.6242C350.976 35.7623 350.621 35.8313 350.22 35.8313ZM355.779 35.7692C355.233 35.7692 354.812 35.6173 354.515 35.3135C354.225 35.0029 354.08 34.561 354.08 33.988V31.0471H353.066V30.1254H353.273C353.521 30.1254 353.718 30.0529 353.863 29.908C354.008 29.7561 354.08 29.5524 354.08 29.297V28.8414H355.043V30.1254H356.296V31.0471H355.043V33.957C355.043 34.5783 355.354 34.8889 355.975 34.8889C356.107 34.8889 356.234 34.8786 356.359 34.8579V35.7174C356.214 35.7519 356.02 35.7692 355.779 35.7692ZM361.923 35.8313C361.412 35.8313 360.956 35.7312 360.556 35.531C360.156 35.3239 359.841 35.0408 359.614 34.6818C359.393 34.3228 359.282 33.9224 359.282 33.4806C359.282 33.0388 359.393 32.6453 359.614 32.3001C359.835 31.9549 360.142 31.6891 360.535 31.5027C360.259 31.3301 360.042 31.1023 359.883 30.8192C359.731 30.5362 359.655 30.229 359.655 29.8976C359.655 29.5179 359.752 29.1727 359.945 28.8621C360.145 28.5514 360.418 28.3098 360.763 28.1372C361.108 27.9577 361.495 27.8679 361.923 27.8679C362.351 27.8679 362.738 27.9542 363.083 28.1268C363.428 28.2994 363.697 28.541 363.89 28.8517C364.084 29.1624 364.18 29.511 364.18 29.8976C364.18 30.229 364.101 30.5362 363.942 30.8192C363.783 31.1023 363.569 31.3301 363.3 31.5027C363.701 31.696 364.011 31.9653 364.232 32.3104C364.453 32.6556 364.564 33.0457 364.564 33.4806C364.564 33.9224 364.45 34.3228 364.222 34.6818C364.001 35.0408 363.687 35.3239 363.28 35.531C362.879 35.7312 362.427 35.8313 361.923 35.8313ZM360.307 33.4702C360.307 33.9121 360.456 34.2711 360.753 34.5472C361.05 34.8165 361.44 34.9511 361.923 34.9511C362.406 34.9511 362.796 34.8165 363.093 34.5472C363.39 34.2711 363.538 33.9121 363.538 33.4702C363.538 33.0284 363.39 32.6729 363.093 32.4036C362.796 32.1275 362.406 31.9894 361.923 31.9894C361.44 31.9894 361.05 32.124 360.753 32.3933C360.456 32.6625 360.307 33.0215 360.307 33.4702ZM360.67 29.9183C360.67 30.2704 360.787 30.5569 361.022 30.7778C361.264 30.9987 361.564 31.1092 361.923 31.1092C362.275 31.1092 362.568 30.9987 362.803 30.7778C363.038 30.5569 363.155 30.2704 363.155 29.9183C363.155 29.5731 363.038 29.2935 362.803 29.0795C362.568 28.8586 362.275 28.7482 361.923 28.7482C361.564 28.7482 361.264 28.8586 361.022 29.0795C360.787 29.2935 360.67 29.5731 360.67 29.9183ZM367.823 27.9922H368.755L371.406 31.7616L374.036 27.9922H374.968V35.707H373.943V29.8976L371.437 33.4288H371.354L368.838 29.8458V35.707H367.823V27.9922ZM379.219 35.8313C378.687 35.8313 378.201 35.707 377.759 35.4585C377.324 35.2031 376.979 34.8544 376.723 34.4126C376.468 33.9639 376.34 33.4633 376.34 32.9111C376.34 32.3657 376.464 31.8721 376.713 31.4302C376.968 30.9815 377.314 30.6328 377.748 30.3843C378.19 30.1289 378.68 30.0012 379.219 30.0012C379.751 30.0012 380.234 30.1289 380.669 30.3843C381.111 30.6328 381.456 30.978 381.704 31.4199C381.96 31.8617 382.087 32.3588 382.087 32.9111C382.087 33.4702 381.96 33.9708 381.704 34.4126C381.449 34.8544 381.1 35.2031 380.658 35.4585C380.223 35.707 379.744 35.8313 379.219 35.8313ZM377.355 32.9111C377.355 33.2839 377.434 33.6221 377.593 33.9259C377.759 34.2297 377.983 34.4678 378.266 34.6404C378.556 34.813 378.874 34.8993 379.219 34.8993C379.557 34.8993 379.868 34.813 380.151 34.6404C380.434 34.4678 380.655 34.2297 380.814 33.9259C380.979 33.6221 381.062 33.2839 381.062 32.9111C381.062 32.5383 380.979 32.2034 380.814 31.9066C380.655 31.6028 380.434 31.3646 380.151 31.192C379.868 31.0195 379.557 30.9332 379.219 30.9332C378.874 30.9332 378.556 31.0195 378.266 31.192C377.983 31.3646 377.759 31.6028 377.593 31.9066C377.434 32.2034 377.355 32.5383 377.355 32.9111ZM383.343 30.1254H384.286V30.8089C384.452 30.5466 384.672 30.3463 384.949 30.2083C385.225 30.0702 385.535 30.0012 385.881 30.0012C386.274 30.0012 386.63 30.0944 386.947 30.2808C387.265 30.4603 387.513 30.7088 387.693 31.0264C387.879 31.3439 387.972 31.6995 387.972 32.093V35.707H386.999V32.4036C386.999 31.948 386.875 31.589 386.626 31.3267C386.385 31.0643 386.064 30.9332 385.663 30.9332C385.263 30.9332 384.935 31.0678 384.679 31.337C384.431 31.5994 384.307 31.9549 384.307 32.4036V35.707H383.343V30.1254ZM391.618 35.7692C391.073 35.7692 390.652 35.6173 390.355 35.3135C390.065 35.0029 389.92 34.561 389.92 33.988V31.0471H388.905V30.1254H389.112C389.361 30.1254 389.558 30.0529 389.703 29.908C389.848 29.7561 389.92 29.5524 389.92 29.297V28.8414H390.883V30.1254H392.136V31.0471H390.883V33.957C390.883 34.5783 391.194 34.8889 391.815 34.8889C391.946 34.8889 392.074 34.8786 392.198 34.8579V35.7174C392.053 35.7519 391.86 35.7692 391.618 35.7692ZM393.456 27.8679H394.419V30.7778C394.585 30.5293 394.802 30.3394 395.072 30.2083C395.348 30.0702 395.655 30.0012 395.993 30.0012C396.387 30.0012 396.742 30.0944 397.06 30.2808C397.378 30.4603 397.626 30.7088 397.806 31.0264C397.992 31.3439 398.085 31.6995 398.085 32.093V35.707H397.112V32.4036C397.112 31.948 396.987 31.589 396.739 31.3267C396.49 31.0643 396.169 30.9332 395.776 30.9332C395.382 30.9332 395.058 31.0678 394.802 31.337C394.547 31.5994 394.419 31.9549 394.419 32.4036V35.707H393.456V27.8679ZM401.462 35.8313C400.923 35.8313 400.447 35.7001 400.033 35.4378C399.619 35.1685 399.322 34.8061 399.142 34.3505L399.919 33.957C400.078 34.2814 400.295 34.5369 400.571 34.7233C400.847 34.9097 401.148 35.0029 401.472 35.0029C401.783 35.0029 402.038 34.9304 402.239 34.7854C402.439 34.6404 402.539 34.4506 402.539 34.2158C402.539 33.988 402.449 33.8051 402.27 33.667C402.09 33.522 401.897 33.4357 401.69 33.4081L400.851 33.2942C400.354 33.1699 399.981 32.9628 399.732 32.6729C399.484 32.3829 399.36 32.0412 399.36 31.6477C399.36 31.3232 399.443 31.0367 399.608 30.7882C399.781 30.5396 400.016 30.3463 400.312 30.2083C400.616 30.0702 400.951 30.0012 401.317 30.0012C401.8 30.0012 402.232 30.122 402.611 30.3636C402.998 30.6052 403.274 30.9401 403.44 31.3681L402.673 31.7616C402.535 31.4785 402.342 31.2542 402.094 31.0885C401.852 30.9228 401.583 30.84 401.286 30.84C401.003 30.84 400.775 30.909 400.602 31.0471C400.43 31.1851 400.343 31.3646 400.343 31.5856C400.343 31.8134 400.423 31.9963 400.582 32.1344C400.747 32.2656 400.927 32.3484 401.12 32.3829L402.042 32.5072C402.504 32.6315 402.863 32.8455 403.119 33.1492C403.381 33.4461 403.512 33.7913 403.512 34.1848C403.512 34.5023 403.426 34.7854 403.253 35.0339C403.081 35.2825 402.839 35.4792 402.528 35.6242C402.218 35.7623 401.862 35.8313 401.462 35.8313Z" fill="white"/>
<circle cx="329.937" cy="32.0628" r="1.72591" fill="#FFD978"/>
<path d="M202.761 103.585L171.929 156.226C164.516 168.882 173.643 184.806 188.311 184.806L374.38 184.806C384.865 184.806 393.365 176.306 393.365 165.821V148.227C393.365 143.192 391.365 138.363 387.804 134.803L352.757 99.7559C349.197 96.1955 344.368 94.1953 339.333 94.1953H219.143C212.402 94.1953 206.168 97.7691 202.761 103.585Z" fill="url(#paint0_linear_1072_136)"/>
<path d="M68.8931 186.531H144.307C151.047 186.531 157.282 182.957 160.688 177.141L202.761 105.311C206.167 99.4947 212.402 95.9209 219.143 95.9209L339.333 95.9209C344.368 95.9209 349.197 97.9211 352.757 101.481L393.365 142.089" stroke="#C9FA75" stroke-width="2.58887" stroke-linecap="round"/>
<circle cx="393.796" cy="141.657" r="3.8833" fill="#272727" stroke="#C9FA75" stroke-width="2.58887"/>
<rect x="366.182" y="110.591" width="55.2292" height="20.7109" rx="10.3555" fill="#1A1A1A"/>
<g clip-path="url(#clip0_1072_136)">
<path d="M409.33 123.535L406.741 120.946H411.918L409.33 123.535Z" fill="white"/>
</g>
<path d="M379.685 124.613L381.818 122.304L382.005 122.107C382.447 121.631 382.764 121.275 382.958 121.041C383.158 120.799 383.306 120.575 383.403 120.367C383.506 120.153 383.558 119.929 383.558 119.694C383.558 119.28 383.434 118.959 383.185 118.731C382.944 118.497 382.616 118.379 382.202 118.379C381.787 118.379 381.435 118.5 381.145 118.742C380.855 118.976 380.655 119.311 380.545 119.746L379.623 119.508C379.754 118.887 380.055 118.393 380.524 118.027C380.993 117.661 381.553 117.478 382.202 117.478C382.664 117.478 383.075 117.571 383.434 117.758C383.8 117.937 384.083 118.193 384.283 118.524C384.483 118.849 384.583 119.221 384.583 119.643C384.583 120.05 384.462 120.45 384.221 120.844C383.986 121.23 383.579 121.738 382.999 122.366L381.094 124.437H384.749V125.317H379.685V124.613ZM388.587 125.442C388.076 125.442 387.621 125.342 387.22 125.141C386.82 124.934 386.506 124.651 386.278 124.292C386.057 123.933 385.946 123.533 385.946 123.091C385.946 122.649 386.057 122.256 386.278 121.91C386.499 121.565 386.806 121.299 387.199 121.113C386.923 120.94 386.706 120.713 386.547 120.43C386.395 120.147 386.319 119.839 386.319 119.508C386.319 119.128 386.416 118.783 386.609 118.472C386.809 118.162 387.082 117.92 387.427 117.748C387.772 117.568 388.159 117.478 388.587 117.478C389.015 117.478 389.402 117.565 389.747 117.737C390.092 117.91 390.361 118.151 390.555 118.462C390.748 118.773 390.845 119.121 390.845 119.508C390.845 119.839 390.765 120.147 390.606 120.43C390.448 120.713 390.234 120.94 389.964 121.113C390.365 121.306 390.675 121.576 390.896 121.921C391.117 122.266 391.228 122.656 391.228 123.091C391.228 123.533 391.114 123.933 390.886 124.292C390.665 124.651 390.351 124.934 389.944 125.141C389.543 125.342 389.091 125.442 388.587 125.442ZM386.972 123.081C386.972 123.522 387.12 123.881 387.417 124.158C387.714 124.427 388.104 124.561 388.587 124.561C389.07 124.561 389.46 124.427 389.757 124.158C390.054 123.881 390.203 123.522 390.203 123.081C390.203 122.639 390.054 122.283 389.757 122.014C389.46 121.738 389.07 121.6 388.587 121.6C388.104 121.6 387.714 121.734 387.417 122.004C387.12 122.273 386.972 122.632 386.972 123.081ZM387.334 119.529C387.334 119.881 387.451 120.167 387.686 120.388C387.928 120.609 388.228 120.72 388.587 120.72C388.939 120.72 389.233 120.609 389.467 120.388C389.702 120.167 389.819 119.881 389.819 119.529C389.819 119.183 389.702 118.904 389.467 118.69C389.233 118.469 388.939 118.359 388.587 118.359C388.228 118.359 387.928 118.469 387.686 118.69C387.451 118.904 387.334 119.183 387.334 119.529ZM399.615 117.603H400.764L394.468 125.317H393.319L399.615 117.603ZM392.449 119.498C392.449 119.132 392.538 118.793 392.718 118.483C392.897 118.172 393.143 117.927 393.453 117.748C393.764 117.568 394.106 117.478 394.478 117.478C394.844 117.478 395.179 117.568 395.483 117.748C395.794 117.927 396.039 118.172 396.218 118.483C396.398 118.793 396.487 119.132 396.487 119.498C396.487 119.863 396.398 120.202 396.218 120.512C396.039 120.823 395.794 121.068 395.483 121.248C395.179 121.427 394.844 121.517 394.478 121.517C394.106 121.517 393.764 121.427 393.453 121.248C393.143 121.068 392.897 120.823 392.718 120.512C392.538 120.202 392.449 119.863 392.449 119.498ZM393.329 119.498C393.329 119.808 393.439 120.081 393.66 120.316C393.881 120.55 394.154 120.668 394.478 120.668C394.803 120.668 395.072 120.55 395.286 120.316C395.5 120.081 395.607 119.808 395.607 119.498C395.607 119.187 395.5 118.914 395.286 118.68C395.072 118.438 394.803 118.317 394.478 118.317C394.264 118.317 394.068 118.372 393.888 118.483C393.716 118.593 393.577 118.742 393.474 118.928C393.377 119.108 393.329 119.297 393.329 119.498ZM397.513 123.422C397.513 123.056 397.602 122.718 397.782 122.407C397.961 122.097 398.206 121.852 398.517 121.672C398.828 121.493 399.169 121.403 399.542 121.403C399.908 121.403 400.243 121.493 400.547 121.672C400.857 121.852 401.102 122.097 401.282 122.407C401.461 122.718 401.551 123.056 401.551 123.422C401.551 123.788 401.461 124.127 401.282 124.437C401.102 124.748 400.857 124.993 400.547 125.172C400.243 125.352 399.908 125.442 399.542 125.442C399.169 125.442 398.828 125.352 398.517 125.172C398.206 124.993 397.961 124.748 397.782 124.437C397.602 124.127 397.513 123.788 397.513 123.422ZM398.393 123.422C398.393 123.733 398.503 124.006 398.724 124.24C398.945 124.475 399.218 124.592 399.542 124.592C399.867 124.592 400.136 124.475 400.35 124.24C400.564 124.006 400.671 123.733 400.671 123.422C400.671 123.112 400.564 122.839 400.35 122.604C400.136 122.363 399.867 122.242 399.542 122.242C399.328 122.242 399.131 122.297 398.952 122.407C398.779 122.518 398.641 122.666 398.538 122.853C398.441 123.032 398.393 123.222 398.393 123.422Z" fill="white"/>
<defs>
<linearGradient id="paint0_linear_1072_136" x1="274.277" y1="94.1953" x2="273.845" y2="184.806" gradientUnits="userSpaceOnUse">
<stop stop-color="#B4FF34" stop-opacity="0.12"/>
<stop offset="1" stop-color="#B4FF34" stop-opacity="0"/>
</linearGradient>
<clipPath id="clip0_1072_136">
<rect width="10.3555" height="10.3555" fill="white" transform="translate(404.152 116.632)"/>
</clipPath>
</defs>
</svg>
