<svg width="520" height="100" viewBox="0 0 520 100" fill="none" xmlns="http://www.w3.org/2000/svg">
<rect width="520" height="100" rx="16" fill="#191919"/>
<path d="M16 24C16 18.4772 20.4772 14 26 14H57.596C61.5574 14 65.1454 16.3385 66.7448 19.9627L78.2184 45.9627C79.3533 48.5346 79.3533 51.4654 78.2184 54.0373L66.7448 80.0373C65.1454 83.6615 61.5574 86 57.596 86H26C20.4771 86 16 81.5228 16 76V24Z" fill="white"/>
<path d="M34.604 33.96H32.132V33.06H38.012V33.96H35.564V42H34.604V33.96ZM40.8642 42.144C40.4162 42.144 40.0082 42.04 39.6402 41.832C39.2722 41.616 38.9802 41.316 38.7642 40.932C38.5562 40.548 38.4522 40.112 38.4522 39.624V35.568H39.3522V39.516C39.3522 40.036 39.5042 40.456 39.8082 40.776C40.1202 41.088 40.5242 41.244 41.0202 41.244C41.5242 41.244 41.9322 41.08 42.2442 40.752C42.5562 40.416 42.7122 39.964 42.7122 39.396V35.568H43.6122V42H42.7122V41.208C42.5202 41.504 42.2602 41.736 41.9322 41.904C41.6122 42.064 41.2562 42.144 40.8642 42.144ZM47.7191 42.144C47.1111 42.144 46.5751 41.996 46.1111 41.7C45.6471 41.396 45.3071 40.98 45.0911 40.452L45.8471 40.068C46.0391 40.46 46.2991 40.768 46.6271 40.992C46.9631 41.216 47.3271 41.328 47.7191 41.328C48.1111 41.328 48.4351 41.236 48.6911 41.052C48.9551 40.86 49.0871 40.612 49.0871 40.308C49.0871 40.004 48.9671 39.76 48.7271 39.576C48.4871 39.392 48.2431 39.288 47.9951 39.264L47.0711 39.156C46.4871 39.004 46.0551 38.764 45.7751 38.436C45.4951 38.1 45.3551 37.716 45.3551 37.284C45.3551 36.916 45.4511 36.592 45.6431 36.312C45.8351 36.024 46.0951 35.804 46.4231 35.652C46.7591 35.5 47.1311 35.424 47.5391 35.424C48.0751 35.424 48.5591 35.564 48.9911 35.844C49.4311 36.124 49.7431 36.504 49.9271 36.984L49.1711 37.368C49.0031 37.016 48.7671 36.74 48.4631 36.54C48.1671 36.34 47.8431 36.24 47.4911 36.24C47.1311 36.24 46.8391 36.332 46.6151 36.516C46.3991 36.692 46.2911 36.924 46.2911 37.212C46.2911 37.516 46.3951 37.756 46.6031 37.932C46.8191 38.108 47.0351 38.208 47.2511 38.232L48.3191 38.352C48.8471 38.496 49.2591 38.744 49.5551 39.096C49.8591 39.448 50.0111 39.848 50.0111 40.296C50.0111 40.648 49.9151 40.964 49.7231 41.244C49.5311 41.524 49.2591 41.744 48.9071 41.904C48.5631 42.064 48.1671 42.144 47.7191 42.144Z" fill="#0B0B0B"/>
<path d="M32.92 67.94L36.96 63.72C37.8267 62.8133 38.46 62.1267 38.86 61.66C39.26 61.18 39.5467 60.7667 39.72 60.42C39.8933 60.06 39.98 59.6933 39.98 59.32C39.98 58.7067 39.7867 58.22 39.4 57.86C39.0133 57.4867 38.5067 57.3 37.88 57.3C37.2267 57.3 36.6667 57.4867 36.2 57.86C35.7467 58.22 35.4133 58.7533 35.2 59.46L32.82 58.72C32.98 57.9467 33.3 57.2733 33.78 56.7C34.2733 56.1133 34.88 55.66 35.6 55.34C36.32 55.02 37.08 54.86 37.88 54.86C38.8267 54.86 39.6667 55.04 40.4 55.4C41.1333 55.7467 41.7 56.24 42.1 56.88C42.5133 57.5067 42.72 58.2267 42.72 59.04C42.72 59.84 42.5 60.62 42.06 61.38C41.6333 62.1267 40.9333 63.0067 39.96 64.02L36.46 67.7H42.92V70H32.92V67.94ZM51.0136 70.24C49.8403 70.24 48.8003 69.92 47.8936 69.28C47.0003 68.64 46.3003 67.74 45.7936 66.58C45.3003 65.4067 45.0536 64.06 45.0536 62.54C45.0536 61.02 45.3003 59.68 45.7936 58.52C46.3003 57.36 47.0003 56.46 47.8936 55.82C48.7869 55.18 49.8203 54.86 50.9936 54.86C52.1803 54.86 53.2269 55.18 54.1336 55.82C55.0403 56.46 55.7403 57.36 56.2336 58.52C56.7403 59.68 56.9936 61.02 56.9936 62.54C56.9936 64.06 56.7403 65.4067 56.2336 66.58C55.7403 67.74 55.0403 68.64 54.1336 69.28C53.2403 69.92 52.2003 70.24 51.0136 70.24ZM47.7736 62.54C47.7736 64.1533 48.0603 65.4267 48.6336 66.36C49.2069 67.2933 50.0003 67.76 51.0136 67.76C52.0269 67.76 52.8203 67.3 53.3936 66.38C53.9803 65.4467 54.2736 64.1667 54.2736 62.54C54.2736 60.9267 53.9803 59.66 53.3936 58.74C52.8203 57.8067 52.0203 57.34 50.9936 57.34C49.9803 57.34 49.1869 57.8 48.6136 58.72C48.0536 59.64 47.7736 60.9133 47.7736 62.54Z" fill="#0B0B0B"/>
<path d="M265.876 59.642H259.558V57.572H268.45V59.642L262.996 71H260.296L265.876 59.642ZM270.153 57.374H272.511V62.18C272.787 61.796 273.153 61.502 273.609 61.298C274.065 61.094 274.575 60.992 275.139 60.992C275.847 60.992 276.483 61.148 277.047 61.46C277.611 61.772 278.049 62.21 278.361 62.774C278.673 63.338 278.829 63.98 278.829 64.7V71H276.471V65.258C276.471 64.622 276.285 64.112 275.913 63.728C275.553 63.344 275.079 63.152 274.491 63.152C273.915 63.152 273.441 63.344 273.069 63.728C272.697 64.112 272.511 64.622 272.511 65.258V71H270.153V57.374ZM288.198 71.216C287.466 71.216 286.77 71.078 286.11 70.802C285.462 70.526 284.904 70.136 284.436 69.632C283.98 69.128 283.668 68.546 283.5 67.886L285.642 67.13C285.858 67.73 286.188 68.192 286.632 68.516C287.076 68.84 287.598 69.002 288.198 69.002C288.918 69.002 289.494 68.798 289.926 68.39C290.37 67.982 290.592 67.43 290.592 66.734C290.592 66.05 290.37 65.51 289.926 65.114C289.494 64.706 288.912 64.502 288.18 64.502C287.676 64.502 287.22 64.598 286.812 64.79L286.254 63.62L289.728 59.66H284.256V57.59H292.482V59.516L289.728 62.738C290.736 62.894 291.54 63.326 292.14 64.034C292.74 64.73 293.04 65.606 293.04 66.662C293.04 67.514 292.83 68.288 292.41 68.984C291.99 69.68 291.408 70.226 290.664 70.622C289.932 71.018 289.11 71.216 288.198 71.216ZM300.3 71.216C299.244 71.216 298.308 70.928 297.492 70.352C296.688 69.776 296.058 68.966 295.602 67.922C295.158 66.866 294.936 65.654 294.936 64.286C294.936 62.918 295.158 61.712 295.602 60.668C296.058 59.624 296.688 58.814 297.492 58.238C298.296 57.662 299.226 57.374 300.282 57.374C301.35 57.374 302.292 57.662 303.108 58.238C303.924 58.814 304.554 59.624 304.998 60.668C305.454 61.712 305.682 62.918 305.682 64.286C305.682 65.654 305.454 66.866 304.998 67.922C304.554 68.966 303.924 69.776 303.108 70.352C302.304 70.928 301.368 71.216 300.3 71.216ZM297.384 64.286C297.384 65.738 297.642 66.884 298.158 67.724C298.674 68.564 299.388 68.984 300.3 68.984C301.212 68.984 301.926 68.57 302.442 67.742C302.97 66.902 303.234 65.75 303.234 64.286C303.234 62.834 302.97 61.694 302.442 60.866C301.926 60.026 301.206 59.606 300.282 59.606C299.37 59.606 298.656 60.02 298.14 60.848C297.636 61.676 297.384 62.822 297.384 64.286ZM307.77 61.208H309.984V62.432C310.236 61.964 310.596 61.61 311.064 61.37C311.544 61.118 312.096 60.992 312.72 60.992C313.368 60.992 313.962 61.136 314.502 61.424C315.042 61.7 315.456 62.084 315.744 62.576C316.068 62.048 316.488 61.652 317.004 61.388C317.532 61.124 318.126 60.992 318.786 60.992C319.47 60.992 320.088 61.148 320.64 61.46C321.192 61.772 321.624 62.21 321.936 62.774C322.248 63.338 322.404 63.98 322.404 64.7V71H320.046V65.258C320.046 64.61 319.872 64.1 319.524 63.728C319.188 63.344 318.732 63.152 318.156 63.152C317.592 63.152 317.136 63.344 316.788 63.728C316.44 64.112 316.266 64.622 316.266 65.258V71H313.908V65.258C313.908 64.61 313.734 64.1 313.386 63.728C313.05 63.344 312.594 63.152 312.018 63.152C311.454 63.152 310.998 63.344 310.65 63.728C310.302 64.112 310.128 64.622 310.128 65.258V71H307.77V61.208Z" fill="white"/>
<path d="M112.688 71.216C111.74 71.216 110.906 71.036 110.186 70.676C109.466 70.304 108.908 69.812 108.512 69.2C108.116 68.576 107.918 67.886 107.918 67.13C107.918 66.398 108.086 65.756 108.422 65.204C108.77 64.652 109.268 64.208 109.916 63.872C109.46 63.596 109.1 63.206 108.836 62.702C108.584 62.186 108.458 61.628 108.458 61.028C108.458 60.332 108.638 59.708 108.998 59.156C109.358 58.604 109.856 58.172 110.492 57.86C111.14 57.536 111.872 57.374 112.688 57.374C113.492 57.374 114.212 57.53 114.848 57.842C115.496 58.154 116 58.592 116.36 59.156C116.72 59.708 116.9 60.332 116.9 61.028C116.9 61.616 116.774 62.162 116.522 62.666C116.27 63.17 115.916 63.572 115.46 63.872C116.108 64.22 116.6 64.67 116.936 65.222C117.284 65.774 117.458 66.416 117.458 67.148C117.458 67.892 117.26 68.576 116.864 69.2C116.468 69.812 115.904 70.304 115.172 70.676C114.452 71.036 113.624 71.216 112.688 71.216ZM110.384 67.058C110.384 67.682 110.594 68.186 111.014 68.57C111.434 68.954 111.992 69.146 112.688 69.146C113.384 69.146 113.942 68.954 114.362 68.57C114.794 68.186 115.01 67.682 115.01 67.058C115.01 66.434 114.794 65.936 114.362 65.564C113.942 65.18 113.384 64.988 112.688 64.988C111.992 64.988 111.434 65.18 111.014 65.564C110.594 65.936 110.384 66.434 110.384 67.058ZM110.906 61.172C110.906 61.676 111.068 62.096 111.392 62.432C111.728 62.756 112.16 62.918 112.688 62.918C113.204 62.918 113.624 62.756 113.948 62.432C114.284 62.096 114.452 61.676 114.452 61.172C114.452 60.668 114.284 60.254 113.948 59.93C113.624 59.606 113.204 59.444 112.688 59.444C112.16 59.444 111.728 59.606 111.392 59.93C111.068 60.254 110.906 60.668 110.906 61.172ZM123.647 71.216C122.915 71.216 122.219 71.078 121.559 70.802C120.911 70.526 120.353 70.136 119.885 69.632C119.429 69.128 119.117 68.546 118.949 67.886L121.091 67.13C121.307 67.73 121.637 68.192 122.081 68.516C122.525 68.84 123.047 69.002 123.647 69.002C124.367 69.002 124.943 68.798 125.375 68.39C125.819 67.982 126.041 67.43 126.041 66.734C126.041 66.05 125.819 65.51 125.375 65.114C124.943 64.706 124.361 64.502 123.629 64.502C123.125 64.502 122.669 64.598 122.261 64.79L121.703 63.62L125.177 59.66H119.705V57.59H127.931V59.516L125.177 62.738C126.185 62.894 126.989 63.326 127.589 64.034C128.189 64.73 128.489 65.606 128.489 66.662C128.489 67.514 128.279 68.288 127.859 68.984C127.439 69.68 126.857 70.226 126.113 70.622C125.381 71.018 124.559 71.216 123.647 71.216ZM143.003 57.59H145.523L134.651 71H132.131L143.003 57.59ZM130.691 60.884C130.691 60.248 130.847 59.66 131.159 59.12C131.471 58.58 131.897 58.154 132.437 57.842C132.977 57.53 133.577 57.374 134.237 57.374C134.885 57.374 135.473 57.53 136.001 57.842C136.541 58.154 136.967 58.58 137.279 59.12C137.591 59.66 137.747 60.248 137.747 60.884C137.747 61.52 137.591 62.108 137.279 62.648C136.967 63.188 136.541 63.614 136.001 63.926C135.473 64.238 134.885 64.394 134.237 64.394C133.577 64.394 132.977 64.238 132.437 63.926C131.897 63.614 131.471 63.188 131.159 62.648C130.847 62.108 130.691 61.52 130.691 60.884ZM132.581 60.884C132.581 61.34 132.731 61.736 133.031 62.072C133.343 62.408 133.745 62.576 134.237 62.576C134.729 62.576 135.119 62.408 135.407 62.072C135.707 61.736 135.857 61.34 135.857 60.884C135.857 60.428 135.707 60.032 135.407 59.696C135.119 59.348 134.729 59.174 134.237 59.174C133.745 59.174 133.343 59.348 133.031 59.696C132.731 60.032 132.581 60.428 132.581 60.884ZM139.835 67.706C139.835 67.07 139.991 66.482 140.303 65.942C140.615 65.402 141.041 64.976 141.581 64.664C142.121 64.352 142.715 64.196 143.363 64.196C144.011 64.196 144.605 64.352 145.145 64.664C145.685 64.976 146.111 65.402 146.423 65.942C146.735 66.482 146.891 67.07 146.891 67.706C146.891 68.342 146.735 68.93 146.423 69.47C146.111 70.01 145.685 70.436 145.145 70.748C144.605 71.06 144.011 71.216 143.363 71.216C142.715 71.216 142.121 71.06 141.581 70.748C141.041 70.436 140.615 70.01 140.303 69.47C139.991 68.93 139.835 68.342 139.835 67.706ZM141.725 67.706C141.725 68.162 141.875 68.558 142.175 68.894C142.475 69.23 142.871 69.398 143.363 69.398C143.855 69.398 144.251 69.23 144.551 68.894C144.851 68.558 145.001 68.162 145.001 67.706C145.001 67.25 144.851 66.854 144.551 66.518C144.251 66.17 143.855 65.996 143.363 65.996C142.871 65.996 142.475 66.17 142.175 66.518C141.875 66.854 141.725 67.25 141.725 67.706Z" fill="#C9FA75"/>
<path d="M395.688 71.216C394.74 71.216 393.906 71.036 393.186 70.676C392.466 70.304 391.908 69.812 391.512 69.2C391.116 68.576 390.918 67.886 390.918 67.13C390.918 66.398 391.086 65.756 391.422 65.204C391.77 64.652 392.268 64.208 392.916 63.872C392.46 63.596 392.1 63.206 391.836 62.702C391.584 62.186 391.458 61.628 391.458 61.028C391.458 60.332 391.638 59.708 391.998 59.156C392.358 58.604 392.856 58.172 393.492 57.86C394.14 57.536 394.872 57.374 395.688 57.374C396.492 57.374 397.212 57.53 397.848 57.842C398.496 58.154 399 58.592 399.36 59.156C399.72 59.708 399.9 60.332 399.9 61.028C399.9 61.616 399.774 62.162 399.522 62.666C399.27 63.17 398.916 63.572 398.46 63.872C399.108 64.22 399.6 64.67 399.936 65.222C400.284 65.774 400.458 66.416 400.458 67.148C400.458 67.892 400.26 68.576 399.864 69.2C399.468 69.812 398.904 70.304 398.172 70.676C397.452 71.036 396.624 71.216 395.688 71.216ZM393.384 67.058C393.384 67.682 393.594 68.186 394.014 68.57C394.434 68.954 394.992 69.146 395.688 69.146C396.384 69.146 396.942 68.954 397.362 68.57C397.794 68.186 398.01 67.682 398.01 67.058C398.01 66.434 397.794 65.936 397.362 65.564C396.942 65.18 396.384 64.988 395.688 64.988C394.992 64.988 394.434 65.18 394.014 65.564C393.594 65.936 393.384 66.434 393.384 67.058ZM393.906 61.172C393.906 61.676 394.068 62.096 394.392 62.432C394.728 62.756 395.16 62.918 395.688 62.918C396.204 62.918 396.624 62.756 396.948 62.432C397.284 62.096 397.452 61.676 397.452 61.172C397.452 60.668 397.284 60.254 396.948 59.93C396.624 59.606 396.204 59.444 395.688 59.444C395.16 59.444 394.728 59.606 394.392 59.93C394.068 60.254 393.906 60.668 393.906 61.172ZM402.471 57.374H404.829V62.18C405.105 61.796 405.471 61.502 405.927 61.298C406.383 61.094 406.893 60.992 407.457 60.992C408.165 60.992 408.801 61.148 409.365 61.46C409.929 61.772 410.367 62.21 410.679 62.774C410.991 63.338 411.147 63.98 411.147 64.7V71H408.789V65.258C408.789 64.622 408.603 64.112 408.231 63.728C407.871 63.344 407.397 63.152 406.809 63.152C406.233 63.152 405.759 63.344 405.387 63.728C405.015 64.112 404.829 64.622 404.829 65.258V71H402.471V57.374ZM422.046 68.048H415.89V65.996L421.902 57.59H424.458V65.996H426.42V68.048H424.458V71H422.046V68.048ZM422.046 65.996V60.614L418.302 65.996H422.046ZM432.366 71.216C431.658 71.216 430.98 71.084 430.332 70.82C429.684 70.556 429.132 70.178 428.676 69.686C428.22 69.194 427.908 68.618 427.74 67.958L429.864 67.202C430.068 67.79 430.392 68.24 430.836 68.552C431.28 68.852 431.79 69.002 432.366 69.002C433.05 69.002 433.608 68.786 434.04 68.354C434.472 67.91 434.688 67.34 434.688 66.644C434.688 65.948 434.472 65.384 434.04 64.952C433.608 64.52 433.05 64.304 432.366 64.304C431.886 64.304 431.46 64.412 431.088 64.628C430.716 64.832 430.446 65.12 430.278 65.492L428.28 65.042L429.342 57.59H436.65V59.66H431.088L430.674 62.738C431.214 62.39 431.916 62.216 432.78 62.216C433.644 62.216 434.406 62.408 435.066 62.792C435.738 63.164 436.254 63.686 436.614 64.358C436.974 65.03 437.154 65.792 437.154 66.644C437.154 67.508 436.944 68.288 436.524 68.984C436.116 69.68 435.546 70.226 434.814 70.622C434.082 71.018 433.266 71.216 432.366 71.216ZM439.192 61.208H441.406V62.432C441.658 61.964 442.018 61.61 442.486 61.37C442.966 61.118 443.518 60.992 444.142 60.992C444.79 60.992 445.384 61.136 445.924 61.424C446.464 61.7 446.878 62.084 447.166 62.576C447.49 62.048 447.91 61.652 448.426 61.388C448.954 61.124 449.548 60.992 450.208 60.992C450.892 60.992 451.51 61.148 452.062 61.46C452.614 61.772 453.046 62.21 453.358 62.774C453.67 63.338 453.826 63.98 453.826 64.7V71H451.468V65.258C451.468 64.61 451.294 64.1 450.946 63.728C450.61 63.344 450.154 63.152 449.578 63.152C449.014 63.152 448.558 63.344 448.21 63.728C447.862 64.112 447.688 64.622 447.688 65.258V71H445.33V65.258C445.33 64.61 445.156 64.1 444.808 63.728C444.472 63.344 444.016 63.152 443.44 63.152C442.876 63.152 442.42 63.344 442.072 63.728C441.724 64.112 441.55 64.622 441.55 65.258V71H439.192V61.208Z" fill="white"/>
<path d="M107.996 32.06H111.152C111.744 32.06 112.264 32.172 112.712 32.396C113.168 32.62 113.52 32.94 113.768 33.356C114.016 33.772 114.14 34.26 114.14 34.82C114.14 35.38 114.016 35.868 113.768 36.284C113.52 36.7 113.168 37.02 112.712 37.244C112.264 37.468 111.744 37.58 111.152 37.58H109.172V41H107.996V32.06ZM111.188 36.5C111.724 36.5 112.152 36.348 112.472 36.044C112.792 35.74 112.952 35.332 112.952 34.82C112.952 34.308 112.792 33.9 112.472 33.596C112.152 33.292 111.724 33.14 111.188 33.14H109.172V36.5H111.188ZM115.598 34.532H116.69V35.3C117.026 34.74 117.598 34.46 118.406 34.46H118.802V35.516H118.238C117.774 35.516 117.402 35.66 117.122 35.948C116.85 36.236 116.714 36.636 116.714 37.148V41H115.598V34.532ZM122.866 41.144C122.25 41.144 121.686 41 121.174 40.712C120.67 40.416 120.27 40.012 119.974 39.5C119.678 38.98 119.53 38.4 119.53 37.76C119.53 37.128 119.674 36.556 119.962 36.044C120.258 35.524 120.658 35.12 121.162 34.832C121.674 34.536 122.242 34.388 122.866 34.388C123.482 34.388 124.042 34.536 124.546 34.832C125.058 35.12 125.458 35.52 125.746 36.032C126.042 36.544 126.19 37.12 126.19 37.76C126.19 38.408 126.042 38.988 125.746 39.5C125.45 40.012 125.046 40.416 124.534 40.712C124.03 41 123.474 41.144 122.866 41.144ZM120.706 37.76C120.706 38.192 120.798 38.584 120.982 38.936C121.174 39.288 121.434 39.564 121.762 39.764C122.098 39.964 122.466 40.064 122.866 40.064C123.258 40.064 123.618 39.964 123.946 39.764C124.274 39.564 124.53 39.288 124.714 38.936C124.906 38.584 125.002 38.192 125.002 37.76C125.002 37.328 124.906 36.94 124.714 36.596C124.53 36.244 124.274 35.968 123.946 35.768C123.618 35.568 123.258 35.468 122.866 35.468C122.466 35.468 122.098 35.568 121.762 35.768C121.434 35.968 121.174 36.244 120.982 36.596C120.798 36.94 120.706 37.328 120.706 37.76ZM130.585 41.144C129.985 41.144 129.441 40.996 128.953 40.7C128.465 40.404 128.081 40 127.801 39.488C127.521 38.976 127.381 38.404 127.381 37.772C127.381 37.14 127.521 36.568 127.801 36.056C128.081 35.536 128.465 35.128 128.953 34.832C129.441 34.536 129.985 34.388 130.585 34.388C131.057 34.388 131.481 34.476 131.857 34.652C132.241 34.828 132.561 35.076 132.817 35.396V31.916H133.945V41H132.853V40.052C132.613 40.396 132.293 40.664 131.893 40.856C131.501 41.048 131.065 41.144 130.585 41.144ZM128.557 37.772C128.557 38.204 128.649 38.596 128.833 38.948C129.017 39.292 129.269 39.564 129.589 39.764C129.917 39.964 130.281 40.064 130.681 40.064C131.081 40.064 131.441 39.964 131.761 39.764C132.089 39.564 132.345 39.292 132.529 38.948C132.721 38.596 132.817 38.204 132.817 37.772C132.817 37.34 132.721 36.948 132.529 36.596C132.345 36.244 132.089 35.968 131.761 35.768C131.441 35.568 131.081 35.468 130.681 35.468C130.281 35.468 129.917 35.568 129.589 35.768C129.269 35.968 129.017 36.244 128.833 36.596C128.649 36.948 128.557 37.34 128.557 37.772ZM137.965 41.144C137.501 41.144 137.085 41.036 136.717 40.82C136.349 40.604 136.061 40.304 135.853 39.92C135.645 39.528 135.541 39.08 135.541 38.576V34.532H136.657V38.456C136.657 38.936 136.801 39.324 137.089 39.62C137.377 39.916 137.753 40.064 138.217 40.064C138.681 40.064 139.057 39.912 139.345 39.608C139.633 39.296 139.777 38.88 139.777 38.36V34.532H140.905V41H139.813V40.208C139.621 40.512 139.365 40.744 139.045 40.904C138.725 41.064 138.365 41.144 137.965 41.144ZM145.634 41.144C145.002 41.144 144.434 40.996 143.93 40.7C143.426 40.404 143.034 40 142.754 39.488C142.474 38.968 142.334 38.392 142.334 37.76C142.334 37.12 142.474 36.544 142.754 36.032C143.034 35.52 143.422 35.12 143.918 34.832C144.422 34.536 144.994 34.388 145.634 34.388C146.258 34.388 146.826 34.552 147.338 34.88C147.858 35.2 148.226 35.616 148.442 36.128L147.434 36.608C147.282 36.264 147.042 35.988 146.714 35.78C146.394 35.572 146.034 35.468 145.634 35.468C145.242 35.468 144.882 35.568 144.554 35.768C144.234 35.968 143.982 36.244 143.798 36.596C143.614 36.94 143.522 37.332 143.522 37.772C143.522 38.204 143.614 38.596 143.798 38.948C143.99 39.292 144.246 39.564 144.566 39.764C144.886 39.964 145.242 40.064 145.634 40.064C146.042 40.064 146.406 39.96 146.726 39.752C147.046 39.544 147.282 39.26 147.434 38.9L148.442 39.404C148.234 39.908 147.87 40.324 147.35 40.652C146.83 40.98 146.258 41.144 145.634 41.144ZM152.492 41.072C151.86 41.072 151.372 40.896 151.028 40.544C150.692 40.184 150.524 39.672 150.524 39.008V35.6H149.348V34.532H149.588C149.876 34.532 150.104 34.448 150.272 34.28C150.44 34.104 150.524 33.868 150.524 33.572V33.044H151.64V34.532H153.092V35.6H151.64V38.972C151.64 39.692 152 40.052 152.72 40.052C152.872 40.052 153.02 40.04 153.164 40.016V41.012C152.996 41.052 152.772 41.072 152.492 41.072ZM154.622 34.532H155.738V41H154.622V34.532ZM154.49 32.804C154.49 32.596 154.554 32.428 154.682 32.3C154.81 32.172 154.978 32.108 155.186 32.108C155.394 32.108 155.562 32.172 155.69 32.3C155.818 32.428 155.882 32.596 155.882 32.804C155.882 33.012 155.818 33.18 155.69 33.308C155.562 33.436 155.394 33.5 155.186 33.5C154.978 33.5 154.81 33.436 154.682 33.308C154.554 33.18 154.49 33.012 154.49 32.804ZM156.737 34.532H157.985L159.797 39.428L161.621 34.532H162.869L160.325 41H159.269L156.737 34.532ZM163.868 34.532H164.984V41H163.868V34.532ZM163.736 32.804C163.736 32.596 163.8 32.428 163.928 32.3C164.056 32.172 164.224 32.108 164.432 32.108C164.64 32.108 164.808 32.172 164.936 32.3C165.064 32.428 165.128 32.596 165.128 32.804C165.128 33.012 165.064 33.18 164.936 33.308C164.808 33.436 164.64 33.5 164.432 33.5C164.224 33.5 164.056 33.436 163.928 33.308C163.8 33.18 163.736 33.012 163.736 32.804ZM169.344 41.072C168.712 41.072 168.224 40.896 167.88 40.544C167.544 40.184 167.376 39.672 167.376 39.008V35.6H166.2V34.532H166.44C166.728 34.532 166.956 34.448 167.124 34.28C167.292 34.104 167.376 33.868 167.376 33.572V33.044H168.492V34.532H169.944V35.6H168.492V38.972C168.492 39.692 168.852 40.052 169.572 40.052C169.724 40.052 169.872 40.04 170.016 40.016V41.012C169.848 41.052 169.624 41.072 169.344 41.072ZM173.309 40.988L170.741 34.532H171.953L173.921 39.584L175.877 34.532H177.113L173.537 43.4H172.301L173.309 40.988Z" fill="white"/>
<path d="M259.996 32.06H263.152C263.744 32.06 264.264 32.172 264.712 32.396C265.168 32.62 265.52 32.94 265.768 33.356C266.016 33.772 266.14 34.26 266.14 34.82C266.14 35.38 266.016 35.868 265.768 36.284C265.52 36.7 265.168 37.02 264.712 37.244C264.264 37.468 263.744 37.58 263.152 37.58H261.172V41H259.996V32.06ZM263.188 36.5C263.724 36.5 264.152 36.348 264.472 36.044C264.792 35.74 264.952 35.332 264.952 34.82C264.952 34.308 264.792 33.9 264.472 33.596C264.152 33.292 263.724 33.14 263.188 33.14H261.172V36.5H263.188ZM267.598 34.532H268.69V35.3C269.026 34.74 269.598 34.46 270.406 34.46H270.802V35.516H270.238C269.774 35.516 269.402 35.66 269.122 35.948C268.85 36.236 268.714 36.636 268.714 37.148V41H267.598V34.532ZM274.866 41.144C274.25 41.144 273.686 41 273.174 40.712C272.67 40.416 272.27 40.012 271.974 39.5C271.678 38.98 271.53 38.4 271.53 37.76C271.53 37.128 271.674 36.556 271.962 36.044C272.258 35.524 272.658 35.12 273.162 34.832C273.674 34.536 274.242 34.388 274.866 34.388C275.482 34.388 276.042 34.536 276.546 34.832C277.058 35.12 277.458 35.52 277.746 36.032C278.042 36.544 278.19 37.12 278.19 37.76C278.19 38.408 278.042 38.988 277.746 39.5C277.45 40.012 277.046 40.416 276.534 40.712C276.03 41 275.474 41.144 274.866 41.144ZM272.706 37.76C272.706 38.192 272.798 38.584 272.982 38.936C273.174 39.288 273.434 39.564 273.762 39.764C274.098 39.964 274.466 40.064 274.866 40.064C275.258 40.064 275.618 39.964 275.946 39.764C276.274 39.564 276.53 39.288 276.714 38.936C276.906 38.584 277.002 38.192 277.002 37.76C277.002 37.328 276.906 36.94 276.714 36.596C276.53 36.244 276.274 35.968 275.946 35.768C275.618 35.568 275.258 35.468 274.866 35.468C274.466 35.468 274.098 35.568 273.762 35.768C273.434 35.968 273.174 36.244 272.982 36.596C272.798 36.94 272.706 37.328 272.706 37.76ZM282.585 41.144C281.985 41.144 281.441 40.996 280.953 40.7C280.465 40.404 280.081 40 279.801 39.488C279.521 38.976 279.381 38.404 279.381 37.772C279.381 37.14 279.521 36.568 279.801 36.056C280.081 35.536 280.465 35.128 280.953 34.832C281.441 34.536 281.985 34.388 282.585 34.388C283.057 34.388 283.481 34.476 283.857 34.652C284.241 34.828 284.561 35.076 284.817 35.396V31.916H285.945V41H284.853V40.052C284.613 40.396 284.293 40.664 283.893 40.856C283.501 41.048 283.065 41.144 282.585 41.144ZM280.557 37.772C280.557 38.204 280.649 38.596 280.833 38.948C281.017 39.292 281.269 39.564 281.589 39.764C281.917 39.964 282.281 40.064 282.681 40.064C283.081 40.064 283.441 39.964 283.761 39.764C284.089 39.564 284.345 39.292 284.529 38.948C284.721 38.596 284.817 38.204 284.817 37.772C284.817 37.34 284.721 36.948 284.529 36.596C284.345 36.244 284.089 35.968 283.761 35.768C283.441 35.568 283.081 35.468 282.681 35.468C282.281 35.468 281.917 35.568 281.589 35.768C281.269 35.968 281.017 36.244 280.833 36.596C280.649 36.948 280.557 37.34 280.557 37.772ZM289.965 41.144C289.501 41.144 289.085 41.036 288.717 40.82C288.349 40.604 288.061 40.304 287.853 39.92C287.645 39.528 287.541 39.08 287.541 38.576V34.532H288.657V38.456C288.657 38.936 288.801 39.324 289.089 39.62C289.377 39.916 289.753 40.064 290.217 40.064C290.681 40.064 291.057 39.912 291.345 39.608C291.633 39.296 291.777 38.88 291.777 38.36V34.532H292.905V41H291.813V40.208C291.621 40.512 291.365 40.744 291.045 40.904C290.725 41.064 290.365 41.144 289.965 41.144ZM297.634 41.144C297.002 41.144 296.434 40.996 295.93 40.7C295.426 40.404 295.034 40 294.754 39.488C294.474 38.968 294.334 38.392 294.334 37.76C294.334 37.12 294.474 36.544 294.754 36.032C295.034 35.52 295.422 35.12 295.918 34.832C296.422 34.536 296.994 34.388 297.634 34.388C298.258 34.388 298.826 34.552 299.338 34.88C299.858 35.2 300.226 35.616 300.442 36.128L299.434 36.608C299.282 36.264 299.042 35.988 298.714 35.78C298.394 35.572 298.034 35.468 297.634 35.468C297.242 35.468 296.882 35.568 296.554 35.768C296.234 35.968 295.982 36.244 295.798 36.596C295.614 36.94 295.522 37.332 295.522 37.772C295.522 38.204 295.614 38.596 295.798 38.948C295.99 39.292 296.246 39.564 296.566 39.764C296.886 39.964 297.242 40.064 297.634 40.064C298.042 40.064 298.406 39.96 298.726 39.752C299.046 39.544 299.282 39.26 299.434 38.9L300.442 39.404C300.234 39.908 299.87 40.324 299.35 40.652C298.83 40.98 298.258 41.144 297.634 41.144ZM304.492 41.072C303.86 41.072 303.372 40.896 303.028 40.544C302.692 40.184 302.524 39.672 302.524 39.008V35.6H301.348V34.532H301.588C301.876 34.532 302.104 34.448 302.272 34.28C302.44 34.104 302.524 33.868 302.524 33.572V33.044H303.64V34.532H305.092V35.6H303.64V38.972C303.64 39.692 304 40.052 304.72 40.052C304.872 40.052 305.02 40.04 305.164 40.016V41.012C304.996 41.052 304.772 41.072 304.492 41.072ZM306.622 34.532H307.738V41H306.622V34.532ZM306.49 32.804C306.49 32.596 306.554 32.428 306.682 32.3C306.81 32.172 306.978 32.108 307.186 32.108C307.394 32.108 307.562 32.172 307.69 32.3C307.818 32.428 307.882 32.596 307.882 32.804C307.882 33.012 307.818 33.18 307.69 33.308C307.562 33.436 307.394 33.5 307.186 33.5C306.978 33.5 306.81 33.436 306.682 33.308C306.554 33.18 306.49 33.012 306.49 32.804ZM308.737 34.532H309.985L311.797 39.428L313.621 34.532H314.869L312.325 41H311.269L308.737 34.532ZM318.727 41.144C318.119 41.144 317.567 40.996 317.071 40.7C316.575 40.404 316.187 40 315.907 39.488C315.627 38.968 315.487 38.388 315.487 37.748C315.487 37.108 315.623 36.532 315.895 36.02C316.175 35.508 316.551 35.108 317.023 34.82C317.503 34.532 318.039 34.388 318.631 34.388C319.247 34.388 319.783 34.532 320.239 34.82C320.703 35.108 321.055 35.492 321.295 35.972C321.543 36.444 321.667 36.952 321.667 37.496C321.667 37.68 321.647 37.88 321.607 38.096H316.663C316.679 38.504 316.783 38.86 316.975 39.164C317.167 39.468 317.415 39.704 317.719 39.872C318.031 40.04 318.371 40.124 318.739 40.124C319.523 40.124 320.127 39.768 320.551 39.056L321.487 39.536C321.279 40 320.927 40.384 320.431 40.688C319.935 40.992 319.367 41.144 318.727 41.144ZM320.455 37.136C320.439 36.632 320.255 36.216 319.903 35.888C319.559 35.552 319.135 35.384 318.631 35.384C318.135 35.384 317.707 35.544 317.347 35.864C316.987 36.176 316.767 36.6 316.687 37.136H320.455ZM327.824 41.072C327.192 41.072 326.704 40.896 326.36 40.544C326.024 40.184 325.856 39.672 325.856 39.008V35.6H324.68V34.532H324.92C325.208 34.532 325.436 34.448 325.604 34.28C325.772 34.104 325.856 33.868 325.856 33.572V33.044H326.972V34.532H328.424V35.6H326.972V38.972C326.972 39.692 327.332 40.052 328.052 40.052C328.204 40.052 328.352 40.04 328.496 40.016V41.012C328.328 41.052 328.104 41.072 327.824 41.072ZM329.954 34.532H331.07V41H329.954V34.532ZM329.822 32.804C329.822 32.596 329.886 32.428 330.014 32.3C330.142 32.172 330.31 32.108 330.518 32.108C330.726 32.108 330.894 32.172 331.022 32.3C331.15 32.428 331.214 32.596 331.214 32.804C331.214 33.012 331.15 33.18 331.022 33.308C330.894 33.436 330.726 33.5 330.518 33.5C330.31 33.5 330.142 33.436 330.014 33.308C329.886 33.18 329.822 33.012 329.822 32.804ZM332.802 34.532H333.894V35.336C334.078 35.032 334.326 34.8 334.638 34.64C334.958 34.472 335.31 34.388 335.694 34.388C336.134 34.388 336.534 34.496 336.894 34.712C337.262 34.92 337.542 35.204 337.734 35.564C337.942 35.188 338.222 34.9 338.574 34.7C338.934 34.492 339.33 34.388 339.762 34.388C340.202 34.388 340.606 34.496 340.974 34.712C341.342 34.92 341.634 35.208 341.85 35.576C342.066 35.944 342.174 36.356 342.174 36.812V41H341.046V37.172C341.046 36.644 340.906 36.228 340.626 35.924C340.354 35.62 339.998 35.468 339.558 35.468C339.11 35.468 338.746 35.624 338.466 35.936C338.186 36.24 338.046 36.652 338.046 37.172V41H336.918V37.172C336.918 36.644 336.782 36.228 336.51 35.924C336.238 35.62 335.878 35.468 335.43 35.468C334.99 35.468 334.626 35.624 334.338 35.936C334.058 36.24 333.918 36.652 333.918 37.172V41H332.802V34.532ZM346.735 41.144C346.127 41.144 345.575 40.996 345.079 40.7C344.583 40.404 344.195 40 343.915 39.488C343.635 38.968 343.495 38.388 343.495 37.748C343.495 37.108 343.631 36.532 343.903 36.02C344.183 35.508 344.559 35.108 345.031 34.82C345.511 34.532 346.047 34.388 346.639 34.388C347.255 34.388 347.791 34.532 348.247 34.82C348.711 35.108 349.063 35.492 349.303 35.972C349.551 36.444 349.675 36.952 349.675 37.496C349.675 37.68 349.655 37.88 349.615 38.096H344.671C344.687 38.504 344.791 38.86 344.983 39.164C345.175 39.468 345.423 39.704 345.727 39.872C346.039 40.04 346.379 40.124 346.747 40.124C347.531 40.124 348.135 39.768 348.559 39.056L349.495 39.536C349.287 40 348.935 40.384 348.439 40.688C347.943 40.992 347.375 41.144 346.735 41.144ZM348.463 37.136C348.447 36.632 348.263 36.216 347.911 35.888C347.567 35.552 347.143 35.384 346.639 35.384C346.143 35.384 345.715 35.544 345.355 35.864C344.995 36.176 344.775 36.6 344.695 37.136H348.463Z" fill="white"/>
<path d="M390.132 32.06H391.368L393.324 39.404L395.364 32.06H396.6L398.616 39.38L400.584 32.06H401.82L399.312 41H398.004L395.976 33.728L393.948 41H392.64L390.132 32.06ZM405.432 41.144C404.816 41.144 404.252 41 403.74 40.712C403.236 40.416 402.836 40.012 402.54 39.5C402.244 38.98 402.096 38.4 402.096 37.76C402.096 37.128 402.24 36.556 402.528 36.044C402.824 35.524 403.224 35.12 403.728 34.832C404.24 34.536 404.808 34.388 405.432 34.388C406.048 34.388 406.608 34.536 407.112 34.832C407.624 35.12 408.024 35.52 408.312 36.032C408.608 36.544 408.756 37.12 408.756 37.76C408.756 38.408 408.608 38.988 408.312 39.5C408.016 40.012 407.612 40.416 407.1 40.712C406.596 41 406.04 41.144 405.432 41.144ZM403.272 37.76C403.272 38.192 403.364 38.584 403.548 38.936C403.74 39.288 404 39.564 404.328 39.764C404.664 39.964 405.032 40.064 405.432 40.064C405.824 40.064 406.184 39.964 406.512 39.764C406.84 39.564 407.096 39.288 407.28 38.936C407.472 38.584 407.568 38.192 407.568 37.76C407.568 37.328 407.472 36.94 407.28 36.596C407.096 36.244 406.84 35.968 406.512 35.768C406.184 35.568 405.824 35.468 405.432 35.468C405.032 35.468 404.664 35.568 404.328 35.768C404 35.968 403.74 36.244 403.548 36.596C403.364 36.94 403.272 37.328 403.272 37.76ZM410.212 34.532H411.304V35.3C411.64 34.74 412.212 34.46 413.02 34.46H413.416V35.516H412.852C412.388 35.516 412.016 35.66 411.736 35.948C411.464 36.236 411.328 36.636 411.328 37.148V41H410.212V34.532ZM414.407 31.916H415.523V37.568L418.499 34.532H419.927L417.443 37.136L420.095 41H418.775L416.627 37.892L415.523 39.056V41H414.407V31.916ZM421.098 34.532H422.214V41H421.098V34.532ZM420.966 32.804C420.966 32.596 421.03 32.428 421.158 32.3C421.286 32.172 421.454 32.108 421.662 32.108C421.87 32.108 422.038 32.172 422.166 32.3C422.294 32.428 422.358 32.596 422.358 32.804C422.358 33.012 422.294 33.18 422.166 33.308C422.038 33.436 421.87 33.5 421.662 33.5C421.454 33.5 421.286 33.436 421.158 33.308C421.03 33.18 420.966 33.012 420.966 32.804ZM423.946 34.532H425.038V35.324C425.23 35.02 425.486 34.788 425.806 34.628C426.126 34.468 426.486 34.388 426.886 34.388C427.342 34.388 427.754 34.496 428.122 34.712C428.49 34.92 428.778 35.208 428.986 35.576C429.202 35.944 429.31 36.356 429.31 36.812V41H428.182V37.172C428.182 36.644 428.038 36.228 427.75 35.924C427.47 35.62 427.098 35.468 426.634 35.468C426.17 35.468 425.79 35.624 425.494 35.936C425.206 36.24 425.062 36.652 425.062 37.172V41H423.946V34.532ZM433.991 43.64C433.311 43.64 432.711 43.484 432.191 43.172C431.679 42.868 431.315 42.46 431.099 41.948L432.143 41.468C432.263 41.788 432.483 42.048 432.803 42.248C433.123 42.456 433.515 42.56 433.979 42.56C434.547 42.56 435.019 42.396 435.395 42.068C435.771 41.748 435.959 41.3 435.959 40.724V39.824C435.719 40.152 435.411 40.404 435.035 40.58C434.659 40.756 434.251 40.844 433.811 40.844C433.211 40.844 432.671 40.704 432.191 40.424C431.711 40.136 431.331 39.748 431.051 39.26C430.779 38.764 430.643 38.216 430.643 37.616C430.643 37.016 430.779 36.472 431.051 35.984C431.323 35.488 431.699 35.1 432.179 34.82C432.659 34.532 433.199 34.388 433.799 34.388C434.247 34.388 434.659 34.48 435.035 34.664C435.411 34.84 435.731 35.096 435.995 35.432V34.532H437.087V40.724C437.087 41.284 436.955 41.784 436.691 42.224C436.427 42.664 436.059 43.008 435.587 43.256C435.115 43.512 434.583 43.64 433.991 43.64ZM431.819 37.616C431.819 38.008 431.907 38.368 432.083 38.696C432.267 39.024 432.519 39.284 432.839 39.476C433.159 39.668 433.515 39.764 433.907 39.764C434.283 39.764 434.627 39.668 434.939 39.476C435.259 39.284 435.507 39.024 435.683 38.696C435.867 38.368 435.959 38.008 435.959 37.616C435.959 37.224 435.867 36.864 435.683 36.536C435.507 36.208 435.259 35.948 434.939 35.756C434.627 35.564 434.283 35.468 433.907 35.468C433.515 35.468 433.159 35.564 432.839 35.756C432.527 35.948 432.279 36.208 432.095 36.536C431.911 36.864 431.819 37.224 431.819 37.616ZM441.023 32.06H442.199V36.044H446.675V32.06H447.863V41H446.675V37.124H442.199V41H441.023V32.06ZM452.788 41.144C452.172 41.144 451.608 41 451.096 40.712C450.592 40.416 450.192 40.012 449.896 39.5C449.6 38.98 449.452 38.4 449.452 37.76C449.452 37.128 449.596 36.556 449.884 36.044C450.18 35.524 450.58 35.12 451.084 34.832C451.596 34.536 452.164 34.388 452.788 34.388C453.404 34.388 453.964 34.536 454.468 34.832C454.98 35.12 455.38 35.52 455.668 36.032C455.964 36.544 456.112 37.12 456.112 37.76C456.112 38.408 455.964 38.988 455.668 39.5C455.372 40.012 454.968 40.416 454.456 40.712C453.952 41 453.396 41.144 452.788 41.144ZM450.628 37.76C450.628 38.192 450.72 38.584 450.904 38.936C451.096 39.288 451.356 39.564 451.684 39.764C452.02 39.964 452.388 40.064 452.788 40.064C453.18 40.064 453.54 39.964 453.868 39.764C454.196 39.564 454.452 39.288 454.636 38.936C454.828 38.584 454.924 38.192 454.924 37.76C454.924 37.328 454.828 36.94 454.636 36.596C454.452 36.244 454.196 35.968 453.868 35.768C453.54 35.568 453.18 35.468 452.788 35.468C452.388 35.468 452.02 35.568 451.684 35.768C451.356 35.968 451.096 36.244 450.904 36.596C450.72 36.94 450.628 37.328 450.628 37.76ZM459.859 41.144C459.395 41.144 458.979 41.036 458.611 40.82C458.243 40.604 457.955 40.304 457.747 39.92C457.539 39.528 457.435 39.08 457.435 38.576V34.532H458.551V38.456C458.551 38.936 458.695 39.324 458.983 39.62C459.271 39.916 459.647 40.064 460.111 40.064C460.575 40.064 460.951 39.912 461.239 39.608C461.527 39.296 461.671 38.88 461.671 38.36V34.532H462.799V41H461.707V40.208C461.515 40.512 461.259 40.744 460.939 40.904C460.619 41.064 460.259 41.144 459.859 41.144ZM464.528 34.532H465.62V35.3C465.956 34.74 466.528 34.46 467.336 34.46H467.732V35.516H467.168C466.704 35.516 466.332 35.66 466.052 35.948C465.78 36.236 465.644 36.636 465.644 37.148V41H464.528V34.532ZM471.039 41.144C470.415 41.144 469.863 40.992 469.383 40.688C468.903 40.376 468.559 39.956 468.351 39.428L469.251 38.972C469.435 39.348 469.687 39.644 470.007 39.86C470.327 40.076 470.675 40.184 471.051 40.184C471.411 40.184 471.707 40.1 471.939 39.932C472.171 39.764 472.287 39.544 472.287 39.272C472.287 39.008 472.183 38.796 471.975 38.636C471.767 38.468 471.543 38.368 471.303 38.336L470.331 38.204C469.755 38.06 469.323 37.82 469.035 37.484C468.747 37.148 468.603 36.752 468.603 36.296C468.603 35.92 468.699 35.588 468.891 35.3C469.091 35.012 469.363 34.788 469.707 34.628C470.059 34.468 470.447 34.388 470.871 34.388C471.431 34.388 471.931 34.528 472.371 34.808C472.819 35.088 473.139 35.476 473.331 35.972L472.443 36.428C472.283 36.1 472.059 35.84 471.771 35.648C471.491 35.456 471.179 35.36 470.835 35.36C470.507 35.36 470.243 35.44 470.043 35.6C469.843 35.76 469.743 35.968 469.743 36.224C469.743 36.488 469.835 36.7 470.019 36.86C470.211 37.012 470.419 37.108 470.643 37.148L471.711 37.292C472.247 37.436 472.663 37.684 472.959 38.036C473.263 38.38 473.415 38.78 473.415 39.236C473.415 39.604 473.315 39.932 473.115 40.22C472.915 40.508 472.635 40.736 472.275 40.904C471.915 41.064 471.503 41.144 471.039 41.144Z" fill="white"/>
<path d="M155 72C155.729 69.5 158.828 64.9 165.391 66.5C173.594 68.5 175.508 72 178.789 66.5C182.07 61 186.172 59 190 59" stroke="url(#paint0_linear_702_239)"/>
<rect x="221" y="26" width="1" height="48" rx="0.5" fill="#3D3D3D"/>
<defs>
<linearGradient id="paint0_linear_702_239" x1="189.727" y1="58.5" x2="153.727" y2="62.499" gradientUnits="userSpaceOnUse">
<stop stop-color="#C9FA75" stop-opacity="0"/>
<stop offset="0.338542" stop-color="#B4FF34"/>
<stop offset="1" stop-color="#C9FA75" stop-opacity="0"/>
</linearGradient>
</defs>
</svg>
