<svg width="119" height="27" viewBox="0 0 119 27" fill="none" xmlns="http://www.w3.org/2000/svg">
<path d="M7.672 1.40021C8.68 1.40021 9.604 1.57754 10.444 1.93221C11.284 2.26821 12.0027 2.74421 12.6 3.36021C13.216 3.95754 13.692 4.67621 14.028 5.51621C14.3827 6.35621 14.56 7.27088 14.56 8.26021C14.56 9.24954 14.3827 10.1642 14.028 11.0042C13.692 11.8255 13.216 12.5442 12.6 13.1602C12.0027 13.7575 11.284 14.2335 10.444 14.5882C9.604 14.9242 8.68 15.0922 7.672 15.0922H3.92V21.0002H0V1.40021H7.672ZM10.64 8.26021C10.64 7.40154 10.3787 6.70154 9.856 6.16021C9.352 5.60021 8.624 5.32021 7.672 5.32021H3.92V11.1722H7.672C8.624 11.1722 9.352 10.9015 9.856 10.3602C10.3787 9.80021 10.64 9.10021 10.64 8.26021Z" fill="white"/>
<path d="M20.4166 9.29621C20.7899 8.47488 21.2939 7.83088 21.9286 7.36421C22.5819 6.89754 23.4033 6.66421 24.3926 6.66421C24.6539 6.66421 24.8873 6.68288 25.0926 6.72021C25.3166 6.75754 25.5406 6.80421 25.7646 6.86021V10.8362C25.5033 10.7429 25.2326 10.6869 24.9526 10.6682C24.6726 10.6309 24.3833 10.6122 24.0846 10.6122C22.8526 10.6122 21.9566 10.9575 21.3966 11.6482C20.8366 12.3202 20.5566 13.3282 20.5566 14.6722V21.0002H16.8606V7.00021H20.4166V9.29621Z" fill="white"/>
<path d="M26.2738 14.0002C26.2738 12.9175 26.4605 11.9282 26.8338 11.0322C27.2258 10.1175 27.7578 9.34288 28.4298 8.70821C29.1018 8.05488 29.8952 7.55088 30.8098 7.19621C31.7245 6.84154 32.7232 6.66421 33.8058 6.66421C34.8885 6.66421 35.8872 6.84154 36.8018 7.19621C37.7165 7.55088 38.5098 8.05488 39.1818 8.70821C39.8538 9.34288 40.3765 10.1175 40.7498 11.0322C41.1418 11.9282 41.3378 12.9175 41.3378 14.0002C41.3378 15.1015 41.1418 16.1002 40.7498 16.9962C40.3765 17.8922 39.8538 18.6669 39.1818 19.3202C38.5098 19.9549 37.7165 20.4495 36.8018 20.8042C35.8872 21.1589 34.8885 21.3362 33.8058 21.3362C32.7232 21.3362 31.7245 21.1589 30.8098 20.8042C29.8952 20.4495 29.1018 19.9549 28.4298 19.3202C27.7578 18.6669 27.2258 17.8922 26.8338 16.9962C26.4605 16.1002 26.2738 15.1015 26.2738 14.0002ZM37.5298 14.0002C37.5298 13.4402 37.4365 12.9362 37.2498 12.4882C37.0632 12.0215 36.8018 11.6295 36.4658 11.3122C36.1298 10.9762 35.7285 10.7242 35.2618 10.5562C34.8138 10.3695 34.3285 10.2762 33.8058 10.2762C33.2832 10.2762 32.7885 10.3695 32.3218 10.5562C31.8738 10.7242 31.4818 10.9762 31.1458 11.3122C30.8098 11.6295 30.5485 12.0215 30.3618 12.4882C30.1752 12.9362 30.0818 13.4402 30.0818 14.0002C30.0818 14.5602 30.1752 15.0735 30.3618 15.5402C30.5485 15.9882 30.8098 16.3802 31.1458 16.7162C31.4818 17.0335 31.8738 17.2855 32.3218 17.4722C32.7885 17.6402 33.2832 17.7242 33.8058 17.7242C34.3285 17.7242 34.8138 17.6402 35.2618 17.4722C35.7285 17.2855 36.1298 17.0335 36.4658 16.7162C36.8018 16.3802 37.0632 15.9882 37.2498 15.5402C37.4365 15.0735 37.5298 14.5602 37.5298 14.0002Z" fill="white"/>
<path d="M43.1666 2.99621C43.1666 2.32421 43.3906 1.76421 43.8386 1.31621C44.2866 0.849545 44.8466 0.616211 45.5186 0.616211C46.1906 0.616211 46.7506 0.849545 47.1986 1.31621C47.6653 1.76421 47.8986 2.32421 47.8986 2.99621C47.8986 3.66821 47.6653 4.22821 47.1986 4.67621C46.7506 5.12421 46.1906 5.34821 45.5186 5.34821C44.8466 5.34821 44.2866 5.12421 43.8386 4.67621C43.3906 4.22821 43.1666 3.66821 43.1666 2.99621ZM47.3666 7.00021V21.4202C47.3666 23.2869 46.8626 24.6402 45.8546 25.4802C44.8466 26.3202 43.3999 26.7402 41.5146 26.7402C41.3093 26.7402 41.1413 26.7402 41.0106 26.7402C40.8613 26.7402 40.6839 26.7309 40.4786 26.7122V23.2962H40.8706C41.9906 23.2962 42.7373 23.1095 43.1106 22.7362C43.4839 22.3815 43.6706 21.8309 43.6706 21.0842V7.00021H47.3666Z" fill="white"/>
<path d="M49.5981 14.0002C49.5981 12.9735 49.7661 12.0122 50.1021 11.1162C50.4381 10.2202 50.9141 9.44554 51.5301 8.79221C52.1461 8.12021 52.8927 7.59755 53.7701 7.22421C54.6661 6.85088 55.6647 6.66421 56.7661 6.66421C57.8301 6.66421 58.7914 6.84154 59.6501 7.19621C60.5087 7.55088 61.2367 8.05488 61.8341 8.70821C62.4314 9.34288 62.8887 10.1269 63.2061 11.0602C63.5234 11.9749 63.6821 12.9922 63.6821 14.1122V15.1202H53.3781L53.4061 15.1762C53.5181 15.6429 53.6954 16.0442 53.9381 16.3802C54.1994 16.7162 54.4981 16.9962 54.8341 17.2202C55.1701 17.4442 55.5341 17.6122 55.9261 17.7242C56.3367 17.8175 56.7474 17.8642 57.1581 17.8642C57.9981 17.8642 58.7447 17.7335 59.3981 17.4722C60.0701 17.2109 60.6487 16.8655 61.1341 16.4362L62.6741 19.4882C62.0954 19.9735 61.3581 20.4029 60.4621 20.7762C59.5661 21.1495 58.4461 21.3362 57.1021 21.3362C55.9261 21.3362 54.8714 21.1495 53.9381 20.7762C53.0047 20.4029 52.2114 19.8895 51.5581 19.2362C50.9234 18.5829 50.4381 17.8082 50.1021 16.9122C49.7661 16.0162 49.5981 15.0455 49.5981 14.0002ZM59.6501 12.4322C59.5567 11.6669 59.2581 11.0415 58.7541 10.5562C58.2501 10.0522 57.5501 9.80021 56.6541 9.80021C55.7581 9.80021 55.0301 10.0335 54.4701 10.5002C53.9101 10.9482 53.5367 11.5922 53.3501 12.4322H59.6501Z" fill="white"/>
<path d="M65.1293 14.0002C65.1293 12.8989 65.316 11.9002 65.6893 11.0042C66.0626 10.0895 66.576 9.31488 67.2293 8.68021C67.9013 8.02688 68.6946 7.53221 69.6093 7.19621C70.524 6.84154 71.5226 6.66421 72.6053 6.66421C73.7253 6.66421 74.7333 6.85088 75.6293 7.22421C76.5253 7.57888 77.2906 8.07355 77.9253 8.70821L75.8253 11.6762C75.4333 11.2842 74.976 10.9575 74.4533 10.6962C73.9306 10.4162 73.3146 10.2762 72.6053 10.2762C72.0826 10.2762 71.5973 10.3695 71.1493 10.5562C70.7013 10.7242 70.3093 10.9762 69.9733 11.3122C69.656 11.6295 69.404 12.0215 69.2173 12.4882C69.0306 12.9362 68.9373 13.4402 68.9373 14.0002C68.9373 14.5602 69.0306 15.0735 69.2173 15.5402C69.404 15.9882 69.656 16.3802 69.9733 16.7162C70.3093 17.0335 70.7013 17.2855 71.1493 17.4722C71.5973 17.6402 72.0826 17.7242 72.6053 17.7242C73.3146 17.7242 73.94 17.5842 74.4813 17.3042C75.0413 17.0242 75.5173 16.6882 75.9093 16.2962L77.9533 19.2642C77.356 19.8615 76.6 20.3562 75.6853 20.7482C74.7707 21.1402 73.7253 21.3362 72.5493 21.3362C71.4853 21.3362 70.496 21.1682 69.5813 20.8322C68.6666 20.4775 67.8827 19.9829 67.2293 19.3482C66.576 18.6949 66.0626 17.9202 65.6893 17.0242C65.316 16.1282 65.1293 15.1202 65.1293 14.0002Z" fill="white"/>
<path d="M88.452 20.7202C87.9293 20.8509 87.4067 20.9535 86.884 21.0282C86.38 21.1029 85.8947 21.1402 85.428 21.1402C84.1213 21.1402 83.104 20.8042 82.376 20.1322C81.6667 19.4602 81.312 18.3215 81.312 16.7162V10.1082H78.764V7.00021H81.312V3.24821H85.008V7.00021H88.564V10.1082H85.008V16.1842C85.008 16.6322 85.12 16.9589 85.344 17.1642C85.568 17.3509 85.9227 17.4442 86.408 17.4442C86.688 17.4442 86.968 17.4349 87.248 17.4162C87.5467 17.3789 87.948 17.3135 88.452 17.2202V20.7202Z" fill="white"/>
<path d="M90.8729 2.99621C90.8729 2.32421 91.0969 1.76421 91.5449 1.31621C91.9929 0.849545 92.5529 0.616211 93.2249 0.616211C93.8969 0.616211 94.4569 0.849545 94.9049 1.31621C95.3716 1.76421 95.6049 2.32421 95.6049 2.99621C95.6049 3.66821 95.3716 4.22821 94.9049 4.67621C94.4569 5.12421 93.8969 5.34821 93.2249 5.34821C92.5529 5.34821 91.9929 5.12421 91.5449 4.67621C91.0969 4.22821 90.8729 3.66821 90.8729 2.99621ZM95.0729 7.00021V21.0002H91.3769V7.00021H95.0729Z" fill="white"/>
<path d="M102.233 1.40021V21.0002H98.509V1.40021H102.233Z" fill="white"/>
<path d="M104.586 14.0002C104.586 12.9735 104.754 12.0122 105.09 11.1162C105.426 10.2202 105.902 9.44554 106.518 8.79221C107.134 8.12021 107.881 7.59755 108.758 7.22421C109.654 6.85088 110.653 6.66421 111.754 6.66421C112.818 6.66421 113.78 6.84154 114.638 7.19621C115.497 7.55088 116.225 8.05488 116.822 8.70821C117.42 9.34288 117.877 10.1269 118.194 11.0602C118.512 11.9749 118.67 12.9922 118.67 14.1122V15.1202H108.366L108.394 15.1762C108.506 15.6429 108.684 16.0442 108.926 16.3802C109.188 16.7162 109.486 16.9962 109.822 17.2202C110.158 17.4442 110.522 17.6122 110.914 17.7242C111.325 17.8175 111.736 17.8642 112.146 17.8642C112.986 17.8642 113.733 17.7335 114.386 17.4722C115.058 17.2109 115.637 16.8655 116.122 16.4362L117.662 19.4882C117.084 19.9735 116.346 20.4029 115.45 20.7762C114.554 21.1495 113.434 21.3362 112.09 21.3362C110.914 21.3362 109.86 21.1495 108.926 20.7762C107.993 20.4029 107.2 19.8895 106.546 19.2362C105.912 18.5829 105.426 17.8082 105.09 16.9122C104.754 16.0162 104.586 15.0455 104.586 14.0002ZM114.638 12.4322C114.545 11.6669 114.246 11.0415 113.742 10.5562C113.238 10.0522 112.538 9.80021 111.642 9.80021C110.746 9.80021 110.018 10.0335 109.458 10.5002C108.898 10.9482 108.525 11.5922 108.338 12.4322H114.638Z" fill="white"/>
</svg>
